<svg width="352" height="205" viewBox="0 0 352 205" fill="none" xmlns="http://www.w3.org/2000/svg">
    <path
        d="M161.957 4.82146C211.787 12.7099 261.895 -4.95935 304.571 19.9725C358.506 51.4833 384.511 208.081 282.311 199.463C175.186 190.43 71.7223 225.327 28.9014 182.506C-12.0217 141.581 -5.80588 67.4224 24.6208 36.9957C55.0474 6.56909 78.5533 -8.38089 161.957 4.82146Z"
        fill="#F84018" />
    <mask id="mask0_633_3264" style="mask-type:luminance" maskUnits="userSpaceOnUse" x="0" y="0" width="352"
        height="205">
        <path
            d="M161.957 4.82146C211.787 12.7099 261.895 -4.95935 304.571 19.9725C358.506 51.4833 384.511 208.081 282.311 199.463C175.186 190.43 71.7223 225.327 28.9014 182.506C-12.0217 141.581 -5.80588 67.4224 24.6208 36.9957C55.0474 6.56909 78.5533 -8.38089 161.957 4.82146Z"
            fill="white" />
    </mask>
    <g mask="url(#mask0_633_3264)">
        <path
            d="M120.605 190.458C120.605 188.281 122.038 186.439 124.01 185.819C123.661 183.519 123.062 181.305 122.232 179.201C120.212 179.662 118.045 178.788 116.95 176.906C115.855 175.025 116.163 172.714 117.555 171.186C116.091 169.374 114.421 167.73 112.588 166.291C111.081 167.704 108.776 168.048 106.88 166.979C104.982 165.913 104.076 163.758 104.506 161.737C102.53 160.991 100.455 160.441 98.3079 160.116C97.6874 162.089 95.846 163.519 93.6681 163.519C91.4903 163.519 89.6475 162.089 89.0297 160.116C86.7326 160.465 84.5132 161.068 82.4131 161.895C82.8728 163.916 82.0003 166.079 80.116 167.179C78.237 168.27 75.9252 167.963 74.396 166.572C72.5841 168.037 70.941 169.7 69.5002 171.535C70.9142 173.042 71.2586 175.349 70.1918 177.248C69.1223 179.147 66.9699 180.049 64.9449 179.62C64.2011 181.596 63.6503 183.674 63.3259 185.82C65.2987 186.438 66.7314 188.281 66.7314 190.46C66.7314 192.639 65.3014 194.476 63.3273 195.098C63.6757 197.398 64.2788 199.615 65.1071 201.717C67.1241 201.252 69.2939 202.126 70.3875 204.012C71.4824 205.891 71.1728 208.2 69.7817 209.728C71.2465 211.543 72.9138 213.184 74.7472 214.625C76.2549 213.211 78.5614 212.868 80.4591 213.936C82.3568 215.004 83.2615 217.159 82.8299 219.18C84.8081 219.927 86.8814 220.478 89.0297 220.802C89.6475 218.828 91.4917 217.397 93.6681 217.397C95.8446 217.397 97.6888 218.828 98.3079 220.799C100.606 220.452 102.823 219.848 104.925 219.018C104.463 217.003 105.336 214.837 107.22 213.739C109.099 212.644 111.411 212.954 112.936 214.346C114.751 212.881 116.395 211.216 117.835 209.379C116.419 207.873 116.078 205.568 117.143 203.669C118.214 201.771 120.366 200.866 122.389 201.299C123.137 199.323 123.687 197.245 124.012 195.098C122.04 194.479 120.605 192.636 120.605 190.46V190.458ZM93.6695 208.302C83.815 208.302 75.8233 200.314 75.8233 190.458C75.8233 180.603 83.815 172.612 93.6695 172.612C103.524 172.612 111.514 180.603 111.514 190.458C111.514 200.314 103.525 208.302 93.6695 208.302Z"
            fill="#FEDED7" />
        <path
            d="M291.954 18.6711C291.954 16.4785 293.397 14.625 295.381 14.0018C295.028 11.6873 294.425 9.4585 293.592 7.34098C291.56 7.80469 289.378 6.92552 288.277 5.03181C287.175 3.1381 287.484 0.811506 288.885 -0.724367C287.411 -2.54838 285.731 -4.20354 283.886 -5.6523C282.369 -4.229 280.05 -3.88457 278.141 -4.95941C276.231 -6.03292 275.319 -8.20137 275.752 -10.2371C273.762 -10.9876 271.674 -11.5412 269.514 -11.8682C268.889 -9.88332 267.037 -8.4426 264.844 -8.4426C262.652 -8.4426 260.798 -9.88198 260.175 -11.8682C257.863 -11.517 255.63 -10.9113 253.516 -10.079C253.979 -8.04456 253.1 -5.86807 251.204 -4.75972C249.311 -3.6621 246.986 -3.97034 245.446 -5.37085C243.622 -3.89663 241.968 -2.22272 240.518 -0.375915C241.942 1.1412 242.289 3.46243 241.214 5.3749C240.136 7.28603 237.971 8.19335 235.932 7.7618C235.183 9.75067 234.63 11.8414 234.302 14.0018C236.289 14.6236 237.729 16.4785 237.729 18.6711C237.729 20.8636 236.29 22.7145 234.302 23.339C234.654 25.6535 235.261 27.885 236.094 30.0012C238.125 29.5334 240.308 30.4126 241.41 32.3103C242.513 34.2014 242.2 36.5266 240.8 38.0638C242.274 39.8905 243.952 41.5416 245.797 42.9917C247.315 41.5685 249.637 41.224 251.547 42.2989C253.457 43.3737 254.367 45.5422 253.932 47.5779C255.924 48.3298 258.011 48.8833 260.174 49.2103C260.796 47.2228 262.652 45.7821 264.843 45.7821C267.034 45.7821 268.89 47.2228 269.512 49.2076C271.826 48.8592 274.057 48.2507 276.172 47.4158C275.708 45.3867 276.586 43.2062 278.484 42.1019C280.375 41.0002 282.701 41.3111 284.237 42.713C286.064 41.2388 287.719 39.5622 289.168 37.7127C287.743 36.1969 287.399 33.8757 288.471 31.9659C289.55 30.0561 291.715 29.1461 293.751 29.5803C294.504 27.5901 295.059 25.4994 295.385 23.339C293.4 22.7158 291.955 20.861 291.955 18.6711H291.954ZM264.842 36.6311C254.923 36.6311 246.879 28.5913 246.879 18.6711C246.879 8.75088 254.923 0.70831 264.842 0.70831C274.761 0.70831 282.803 8.75088 282.803 18.6711C282.803 28.5913 274.761 36.6311 264.842 36.6311Z"
            fill="#FEDED7" />
        <path
            d="M114.431 35.1196C114.431 33.1763 115.709 31.5332 117.469 30.9811C117.157 28.9292 116.622 26.9537 115.882 25.0761C114.081 25.4876 112.147 24.7076 111.17 23.0296C110.193 21.3517 110.468 19.2891 111.71 17.9261C110.403 16.3098 108.914 14.8423 107.278 13.5571C105.934 14.8182 103.878 15.1251 102.185 14.1722C100.492 13.2207 99.6843 11.2975 100.068 9.49491C98.3039 8.83017 96.4518 8.33965 94.5379 8.04883C93.9844 9.80852 92.3413 11.0844 90.398 11.0844C88.4548 11.0844 86.8117 9.80852 86.2595 8.04883C84.209 8.35976 82.2308 8.89718 80.3559 9.63563C80.7673 11.4382 79.9873 13.3681 78.3067 14.3505C76.6301 15.3248 74.5676 15.0501 73.2032 13.809C71.5869 15.1157 70.1208 16.5993 68.8355 18.2357C70.098 19.5813 70.4049 21.6385 69.452 23.3325C68.4978 25.0265 66.5773 25.8307 64.7707 25.4487C64.1073 27.2111 63.6154 29.0659 63.3259 30.9797C65.0856 31.5305 66.3642 33.175 66.3642 35.1183C66.3642 37.0616 65.0883 38.702 63.3273 39.2568C63.6382 41.3087 64.1756 43.2868 64.9154 45.1631C66.7153 44.749 68.6506 45.5276 69.6262 47.2109C70.6032 48.8875 70.3272 50.9488 69.0848 52.3104C70.3915 53.9294 71.8791 55.3929 73.5155 56.6795C74.8611 55.4183 76.9183 55.1114 78.6123 56.0643C80.305 57.0172 81.1118 58.9391 80.7271 60.7443C82.4922 61.4104 84.3417 61.9009 86.2595 62.1917C86.8117 60.4307 88.4561 59.1535 90.398 59.1535C92.34 59.1535 93.9858 60.4307 94.5379 62.1891C96.5885 61.8795 98.5666 61.3407 100.442 60.6009C100.03 58.8024 100.809 56.8698 102.491 55.8901C104.167 54.9144 106.23 55.1892 107.59 56.4315C109.21 55.1248 110.677 53.6385 111.961 51.9995C110.698 50.6553 110.393 48.598 111.343 46.9054C112.298 45.2113 114.219 44.4059 116.023 44.7905C116.69 43.0268 117.182 41.1733 117.47 39.2582C115.71 38.706 114.431 37.0616 114.431 35.1196ZM90.398 51.0399C81.6063 51.0399 74.4751 43.914 74.4751 35.1196C74.4751 26.3252 81.605 19.198 90.398 19.198C99.1911 19.198 106.32 26.3265 106.32 35.1196C106.32 43.9127 99.1911 51.0399 90.398 51.0399Z"
            fill="#FEDED7" />
        <path
            d="M272.329 178.503C272.329 176.756 273.478 175.281 275.059 174.784C274.779 172.941 274.298 171.165 273.633 169.479C272.014 169.849 270.277 169.148 269.4 167.64C268.522 166.133 268.77 164.279 269.885 163.055C268.711 161.603 267.373 160.285 265.903 159.13C264.696 160.264 262.847 160.539 261.328 159.682C259.806 158.827 259.08 157.1 259.424 155.479C257.84 154.882 256.176 154.441 254.455 154.181C253.958 155.762 252.482 156.908 250.736 156.908C248.99 156.908 247.513 155.761 247.017 154.181C245.175 154.461 243.397 154.943 241.712 155.605C242.082 157.226 241.381 158.96 239.871 159.842C238.365 160.717 236.512 160.47 235.286 159.355C233.833 160.529 232.516 161.863 231.362 163.333C232.496 164.542 232.772 166.39 231.915 167.912C231.058 169.435 229.333 170.157 227.709 169.813C227.112 171.397 226.671 173.063 226.41 174.782C227.991 175.278 229.14 176.755 229.14 178.501C229.14 180.248 227.993 181.722 226.411 182.219C226.69 184.062 227.174 185.84 227.839 187.525C229.456 187.152 231.194 187.852 232.072 189.365C232.95 190.871 232.702 192.724 231.586 193.947C232.76 195.403 234.096 196.717 235.566 197.873C236.775 196.739 238.625 196.464 240.146 197.32C241.667 198.177 242.392 199.904 242.046 201.525C243.632 202.122 245.293 202.565 247.017 202.826C247.513 201.243 248.99 200.096 250.736 200.096C252.482 200.096 253.959 201.245 254.455 202.823C256.298 202.546 258.074 202.061 259.76 201.396C259.39 199.78 260.089 198.043 261.601 197.164C263.107 196.286 264.961 196.534 266.183 197.65C267.639 196.476 268.956 195.141 270.11 193.668C268.975 192.461 268.7 190.613 269.555 189.092C270.414 187.571 272.139 186.845 273.761 187.191C274.36 185.606 274.802 183.941 275.061 182.219C273.479 181.723 272.329 180.245 272.329 178.501V178.503ZM250.736 192.808C242.837 192.808 236.429 186.405 236.429 178.504C236.429 170.604 242.835 164.199 250.736 164.199C258.636 164.199 265.041 170.604 265.041 178.504C265.041 186.405 258.636 192.808 250.736 192.808Z"
            fill="#FEDED7" />
        <path
            d="M327.559 126.363C327.559 125.14 328.365 124.105 329.472 123.758C329.275 122.466 328.938 121.222 328.473 120.04C327.339 120.299 326.121 119.808 325.506 118.751C324.891 117.695 325.064 116.396 325.845 115.538C325.024 114.52 324.085 113.596 323.055 112.788C322.208 113.583 320.915 113.776 319.848 113.176C318.782 112.577 318.273 111.366 318.514 110.23C317.405 109.81 316.239 109.502 315.032 109.32C314.684 110.428 313.649 111.231 312.426 111.231C311.202 111.231 310.167 110.428 309.82 109.32C308.53 109.515 307.283 109.855 306.104 110.318C306.363 111.453 305.872 112.669 304.815 113.287C303.759 113.899 302.461 113.728 301.601 112.946C300.584 113.769 299.66 114.703 298.851 115.734C299.645 116.581 299.839 117.877 299.239 118.944C298.639 120.011 297.43 120.517 296.292 120.276C295.874 121.386 295.565 122.553 295.382 123.759C296.491 124.106 297.295 125.141 297.295 126.365C297.295 127.588 296.491 128.621 295.382 128.97C295.578 130.262 295.917 131.507 296.382 132.689C297.516 132.428 298.734 132.918 299.348 133.978C299.963 135.034 299.789 136.332 299.008 137.189C299.83 138.209 300.767 139.131 301.797 139.941C302.644 139.146 303.94 138.953 305.005 139.553C306.07 140.154 306.578 141.364 306.337 142.499C307.448 142.919 308.613 143.228 309.82 143.411C310.167 142.301 311.203 141.497 312.426 141.497C313.648 141.497 314.684 142.301 315.032 143.408C316.323 143.214 317.568 142.875 318.749 142.408C318.49 141.276 318.979 140.059 320.039 139.442C321.094 138.827 322.393 139.001 323.251 139.783C324.27 138.96 325.194 138.024 326.002 136.992C325.207 136.147 325.014 134.851 325.613 133.785C326.215 132.72 327.424 132.212 328.56 132.454C328.98 131.343 329.289 130.176 329.472 128.97C328.363 128.623 327.558 127.587 327.558 126.365L327.559 126.363ZM312.428 136.387C306.893 136.387 302.404 131.9 302.404 126.363C302.404 120.827 306.893 116.338 312.428 116.338C317.963 116.338 322.453 120.827 322.453 126.363C322.453 131.9 317.965 136.387 312.428 136.387Z"
            fill="#FEDED7" />
        <path d="M156.06 78.7896H153.483V86.741H156.06V78.7896Z" fill="#FEDED7" />
        <path d="M162.06 78.7896H159.483V86.741H162.06V78.7896Z" fill="#FEDED7" />
        <path d="M168.06 78.7896H165.483V86.741H168.06V78.7896Z" fill="#FEDED7" />
        <path d="M174.06 78.7896H171.483V86.741H174.06V78.7896Z" fill="#FEDED7" />
        <path d="M180.059 78.7896H177.482V86.741H180.059V78.7896Z" fill="#FEDED7" />
        <path d="M186.059 78.7896H183.482V86.741H186.059V78.7896Z" fill="#FEDED7" />
        <path d="M192.059 78.7896H189.482V86.741H192.059V78.7896Z" fill="#FEDED7" />
        <path d="M203.633 90.3638H195.682V92.941H203.633V90.3638Z" fill="#FEDED7" />
        <path d="M203.633 96.3638H195.682V98.941H203.633V96.3638Z" fill="#FEDED7" />
        <path d="M203.633 102.364H195.682V104.941H203.633V102.364Z" fill="#FEDED7" />
        <path d="M203.633 108.364H195.682V110.941H203.633V108.364Z" fill="#FEDED7" />
        <path d="M203.633 114.363H195.682V116.94H203.633V114.363Z" fill="#FEDED7" />
        <path d="M203.633 120.363H195.682V122.94H203.633V120.363Z" fill="#FEDED7" />
        <path d="M203.633 126.363H195.682V128.94H203.633V126.363Z" fill="#FEDED7" />
        <path d="M192.059 132.562H189.482V140.514H192.059V132.562Z" fill="#FEDED7" />
        <path d="M186.059 132.562H183.482V140.514H186.059V132.562Z" fill="#FEDED7" />
        <path d="M180.059 132.562H177.482V140.514H180.059V132.562Z" fill="#FEDED7" />
        <path d="M174.06 132.562H171.483V140.514H174.06V132.562Z" fill="#FEDED7" />
        <path d="M168.06 132.562H165.483V140.514H168.06V132.562Z" fill="#FEDED7" />
        <path d="M162.06 132.562H159.483V140.514H162.06V132.562Z" fill="#FEDED7" />
        <path d="M156.06 132.562H153.483V140.514H156.06V132.562Z" fill="#FEDED7" />
        <path d="M149.86 126.363H141.909V128.94H149.86V126.363Z" fill="#FEDED7" />
        <path d="M149.86 120.363H141.909V122.94H149.86V120.363Z" fill="#FEDED7" />
        <path d="M149.86 114.363H141.909V116.94H149.86V114.363Z" fill="#FEDED7" />
        <path d="M149.86 108.364H141.909V110.941H149.86V108.364Z" fill="#FEDED7" />
        <path d="M149.86 102.364H141.909V104.941H149.86V102.364Z" fill="#FEDED7" />
        <path d="M149.86 96.3638H141.909V98.941H149.86V96.3638Z" fill="#FEDED7" />
        <path d="M149.86 90.3638H141.909V92.941H149.86V90.3638Z" fill="#FEDED7" />
        <path
            d="M149.794 85.0605H195.747C196.639 85.0605 197.362 85.7843 197.362 86.6755V132.628C197.362 133.52 196.639 134.243 195.747 134.243H149.794C148.903 134.243 148.179 133.52 148.179 132.628V86.6755C148.179 85.7843 148.903 85.0605 149.794 85.0605Z"
            fill="#FEDED7" />
        <path
            d="M194.284 89.5527C194.284 88.7727 193.651 88.1401 192.871 88.1401H152.672C151.892 88.1401 151.258 88.7727 151.258 89.5527V129.752C151.258 130.532 151.891 131.166 152.672 131.166H184.862L194.284 121.744V89.5541V89.5527Z"
            fill="#FB8D74" />
        <path
            d="M159.44 119.005L165.47 99.5054H171.94L177.97 119.005L177.44 119.799H173.911L172.676 115.682H164.735L163.499 119.799H159.971L159.441 119.005H159.44ZM165.881 111.858H171.529L168.941 103.329H168.47L165.882 111.858H165.881Z"
            fill="#8B1D04" />
        <path d="M180.91 119.799V99.5054H185.145V119.799H180.91Z" fill="#8B1D04" />
        <path d="M191.24 82.7209H190.436V55.0216L208.931 36.437V18.6592H209.735V36.7908L191.24 55.3767V82.7209Z"
            fill="#FEDED7" />
        <path
            d="M185.209 82.7207H184.405V46.0299L184.491 45.9053L201.024 29.3765V2.97852H201.962V29.7317L201.809 29.8576L185.209 46.385V82.7207Z"
            fill="#FEDED7" />
        <path d="M179.178 82.7207H178.374V56.8025L162.962 41.374V2.97852H163.766V41.0202L179.178 56.4486V82.7207Z"
            fill="#FEDED7" />
        <path d="M173.282 82.7207H172.343V57.6602L156.663 41.965V2.97852H157.601V41.6112L173.282 57.305V82.7207Z"
            fill="#FEDED7" />
        <path d="M167.251 62.2158H166.447V82.7209H167.251V62.2158Z" fill="#FEDED7" />
        <path d="M161.22 54.0405H160.416V82.7209H161.22V54.0405Z" fill="#FEDED7" />
        <path
            d="M155.323 82.7209H154.385V54.2335L145.941 45.7755V17.4891L151.972 11.4381V0.0302734H152.776V11.7906L146.88 17.8416V45.4216L155.323 53.881V82.7209Z"
            fill="#FEDED7" />
        <path d="M207.323 201.865H206.518V177.112L190.436 160.985V136.597H191.24V160.63L207.323 176.758V201.865Z"
            fill="#FEDED7" />
        <path d="M197.941 190.741H197.137V178.538L184.405 165.838V136.597H185.209V165.483L197.941 178.182V190.741Z"
            fill="#FEDED7" />
        <path d="M179.178 136.597H178.374V178.546H179.178V136.597Z" fill="#FEDED7" />
        <path d="M173.281 136.597H172.343V163.669H173.281V136.597Z" fill="#FEDED7" />
        <path d="M155.993 204.948H155.189V180.384L166.446 169.052V136.597H167.251V169.404L155.993 180.737V204.948Z"
            fill="#FEDED7" />
        <path d="M147.282 193.288H146.478V177.443L160.416 163.484V136.597H161.22V163.839L147.282 177.798V193.288Z"
            fill="#FEDED7" />
        <path
            d="M134.952 204.948H134.147V177.83L134.259 177.704L154.385 157.633V136.597H155.323V157.988L155.144 158.114L134.952 178.185V204.948Z"
            fill="#FEDED7" />
        <path d="M319.498 152.01H252.232L228.443 128.154H199.684V127.216H228.798L252.587 151.071H319.498V152.01Z"
            fill="#FEDED7" />
        <path
            d="M289.075 139.814H259.591L259.466 139.692L241.858 122.123H199.684V121.319H242.214L242.338 121.441L259.946 139.01H289.075V139.814Z"
            fill="#FEDED7" />
        <path d="M259.591 115.288H199.684V116.092H259.591V115.288Z" fill="#FEDED7" />
        <path d="M242.214 110.195H199.684V109.257H241.858L257.615 93.5161L258.22 94.1554L242.214 110.195Z"
            fill="#FEDED7" />
        <path d="M234.395 103.36H199.684V104.164H234.395V103.36Z" fill="#FEDED7" />
        <path d="M76.8243 156.7H27.7354V155.762H76.4692L104.995 127.216H145.807V128.154H105.351L76.8243 156.7Z"
            fill="#FEDED7" />
        <path d="M83.1475 140.484H49.3127V139.68H82.791L101.142 121.319H145.807V122.123H101.498L83.1475 140.484Z"
            fill="#FEDED7" />
        <path d="M145.807 97.9993H90.1539L58.2651 66.2365H19.0239V65.2983H58.6189L90.5077 97.1952H145.807V97.9993Z"
            fill="#FEDED7" />
        <path
            d="M145.807 104.164H82.1611L82.0364 104.019L54.1562 76.1537H27.8573L15.2045 88.8857H-2.68726V88.0815H14.8493L27.5008 75.3496H54.51L82.5162 103.36H145.807V104.164Z"
            fill="#FEDED7" />
        <path d="M241.072 91.9683H199.684V91.1642H240.717L265.068 66.7725H325.395V67.5766H265.423L241.072 91.9683Z"
            fill="#FEDED7" />
        <path d="M145.807 91.4321H126.106V92.2363H145.807V91.4321Z" fill="#FEDED7" />
        <path
            d="M20.6858 65.7592C20.6858 66.7053 19.9192 67.4719 18.973 67.4719C18.0269 67.4719 17.2603 66.7053 17.2603 65.7592C17.2603 64.813 18.0269 64.0464 18.973 64.0464C19.9192 64.0464 20.6858 64.813 20.6858 65.7592Z"
            fill="#FEDED7" />
        <path
            d="M51.0843 140.114C51.0843 141.06 50.3177 141.826 49.3715 141.826C48.4253 141.826 47.6587 141.06 47.6587 140.114C47.6587 139.167 48.4253 138.401 49.3715 138.401C50.3177 138.401 51.0843 139.167 51.0843 140.114Z"
            fill="#FEDED7" />
        <path
            d="M29.3919 156.24C29.3919 157.186 28.6253 157.953 27.6791 157.953C26.7329 157.953 25.9663 157.186 25.9663 156.24C25.9663 155.294 26.7329 154.527 27.6791 154.527C28.6253 154.527 29.3919 155.294 29.3919 156.24Z"
            fill="#FEDED7" />
        <path
            d="M146.846 195.059C147.792 195.059 148.559 194.293 148.559 193.347C148.559 192.401 147.792 191.634 146.846 191.634C145.9 191.634 145.133 192.401 145.133 193.347C145.133 194.293 145.9 195.059 146.846 195.059Z"
            fill="#FEDED7" />
        <path
            d="M180.527 178.504C180.527 179.45 179.76 180.217 178.814 180.217C177.868 180.217 177.101 179.45 177.101 178.504C177.101 177.558 177.868 176.791 178.814 176.791C179.76 176.791 180.527 177.558 180.527 178.504Z"
            fill="#FEDED7" />
        <path
            d="M174.532 163.662C174.532 164.609 173.765 165.375 172.819 165.375C171.873 165.375 171.106 164.609 171.106 163.662C171.106 162.716 171.873 161.95 172.819 161.95C173.765 161.95 174.532 162.716 174.532 163.662Z"
            fill="#FEDED7" />
        <path
            d="M199.222 190.777C199.222 191.723 198.456 192.49 197.51 192.49C196.563 192.49 195.797 191.723 195.797 190.777C195.797 189.831 196.563 189.064 197.51 189.064C198.456 189.064 199.222 189.831 199.222 190.777Z"
            fill="#FEDED7" />
        <path
            d="M321.243 151.531C321.243 152.477 320.476 153.244 319.53 153.244C318.584 153.244 317.817 152.477 317.817 151.531C317.817 150.585 318.584 149.818 319.53 149.818C320.476 149.818 321.243 150.585 321.243 151.531Z"
            fill="#FEDED7" />
        <path
            d="M290.844 139.401C290.844 140.347 290.077 141.114 289.131 141.114C288.185 141.114 287.418 140.347 287.418 139.401C287.418 138.455 288.185 137.688 289.131 137.688C290.077 137.688 290.844 138.455 290.844 139.401Z"
            fill="#FEDED7" />
        <path
            d="M260.246 117.292C261.12 116.93 261.535 115.928 261.173 115.054C260.811 114.18 259.809 113.765 258.935 114.127C258.061 114.489 257.646 115.491 258.008 116.365C258.37 117.239 259.372 117.654 260.246 117.292Z"
            fill="#FEDED7" />
        <path
            d="M236.03 104.003C236.182 103.069 235.548 102.189 234.614 102.038C233.68 101.886 232.801 102.52 232.649 103.454C232.497 104.388 233.131 105.267 234.065 105.419C234.999 105.571 235.879 104.936 236.03 104.003Z"
            fill="#FEDED7" />
        <path
            d="M168.538 62.1918C168.538 63.138 167.772 63.9046 166.826 63.9046C165.879 63.9046 165.113 63.138 165.113 62.1918C165.113 61.2456 165.879 60.479 166.826 60.479C167.772 60.479 168.538 61.2456 168.538 62.1918Z"
            fill="#FEDED7" />
        <path
            d="M162.544 54.058C162.544 55.0042 161.777 55.7708 160.831 55.7708C159.885 55.7708 159.118 55.0042 159.118 54.058C159.118 53.1118 159.885 52.3452 160.831 52.3452C161.777 52.3452 162.544 53.1118 162.544 54.058Z"
            fill="#FEDED7" />
        <path
            d="M211.013 19.054C211.23 18.1333 210.66 17.2109 209.739 16.9936C208.819 16.7763 207.896 17.3465 207.679 18.2671C207.462 19.1877 208.032 20.1102 208.952 20.3275C209.873 20.5448 210.796 19.9746 211.013 19.054Z"
            fill="#FEDED7" />
        <path
            d="M327.094 67.1864C327.094 68.1326 326.327 68.8992 325.381 68.8992C324.435 68.8992 323.668 68.1326 323.668 67.1864C323.668 66.2402 324.435 65.4736 325.381 65.4736C326.327 65.4736 327.094 66.2402 327.094 67.1864Z"
            fill="#FEDED7" />
        <path
            d="M354.806 77.8301C339.498 75.1806 260.789 57.1629 253.538 55.4568C248.534 54.2787 234.34 57.8115 226.834 59.5779C219.327 61.3443 213.084 63.4712 204.045 66.5336C196.333 69.1456 185.991 71.4401 187.315 76.0758C188.639 80.7116 198.354 79.1663 210.275 76.297C206.08 84.0246 204.145 88.4687 203.093 94.1793C202.566 97.038 207.395 113.082 210.045 112.198C211.141 115.479 212.914 119.043 215.454 118.16C215.454 119.533 215.676 121.852 217.404 121.974C220.659 122.203 223.565 113.699 224.055 104.377C224.24 100.849 234.307 95.5919 235.778 95.5919C239.704 95.5919 249.565 98.5845 254.864 98.5845C260.163 98.5845 272.543 110.297 298.285 102.558C304.827 100.592 339.326 115.561 352.573 120.859C360.522 109.819 360.91 93.0508 354.806 77.8301Z"
            fill="#F2A480" />
        <path
            d="M299.904 96.0826C299.45 96.2716 298.996 96.4619 298.541 96.6508C297.755 96.9792 296.952 97.2566 296.15 97.5461C295.739 97.6949 295.307 97.8021 294.888 97.9267C294.455 98.0554 294.022 98.172 293.582 98.2752C293.14 98.3784 292.699 98.4976 292.25 98.574C291.811 98.6491 291.37 98.7255 290.93 98.8005C289.148 99.0351 287.356 99.1115 285.564 98.9399C283.771 98.7684 282.018 98.3516 280.331 97.723C276.888 96.4391 273.932 94.2814 270.988 92.1344C269.553 91.0877 268.109 90.0369 266.545 89.1872C265.917 88.8468 265.273 88.5439 264.603 88.296C263.92 88.0427 263.226 87.8805 262.511 87.7438C261.884 87.6246 261.245 87.5535 260.613 87.4517C259.695 87.3016 258.779 87.1394 257.865 86.9625C256.025 86.6073 254.195 86.1946 252.379 85.7295C248.825 84.8182 245.278 83.7246 241.951 82.1619C240.36 81.4141 238.798 80.5536 237.417 79.4587C236.137 78.4428 234.927 77.1468 234.497 75.5292C234.19 74.374 234.307 73.0646 234.962 72.046C235.919 70.5584 237.736 69.9714 239.407 69.7757C241.203 69.5653 243.043 69.7436 244.814 70.08C246.205 70.344 247.552 70.7635 248.915 71.1374C250.677 71.6198 252.485 71.9026 254.294 72.1412C256.106 72.3797 257.928 72.5607 259.75 72.6907C263.385 72.9507 267.024 73.1128 270.668 73.2227C273.337 73.3031 276.007 73.3527 278.677 73.4104C278.785 73.413 278.895 73.4157 279.004 73.4171C276.274 73.4787 273.545 73.5377 270.814 73.5497C267.335 73.5645 263.854 73.5203 260.379 73.3514C258.661 73.2683 256.944 73.1584 255.231 72.9936C253.384 72.8153 251.556 72.554 249.735 72.2002C248.36 71.9335 247.026 71.4697 245.657 71.1749C243.869 70.7889 242.014 70.5396 240.182 70.6683C239.007 70.75 237.764 70.9792 236.766 71.6399C236.306 71.9442 235.913 72.3503 235.671 72.8502C235.444 73.3165 235.384 73.8057 235.361 74.3163C235.361 74.3431 235.368 74.4651 235.371 74.5241C235.379 74.7305 235.415 74.9382 235.46 75.1379C235.558 75.5574 235.729 75.9581 235.944 76.3307C236.36 77.0517 236.937 77.6695 237.558 78.2163C238.862 79.3649 240.405 80.2374 241.963 80.9919C245.267 82.5908 248.802 83.7138 252.344 84.6466C254.156 85.1237 255.984 85.5432 257.82 85.9171C258.73 86.1034 259.643 86.279 260.559 86.4398C261.234 86.5591 261.92 86.6409 262.594 86.7749C263.264 86.9076 263.937 87.0402 264.58 87.2761C265.209 87.5066 265.82 87.768 266.415 88.0722C267.962 88.8643 269.378 89.8721 270.768 90.9094C273.682 93.0832 276.54 95.375 279.894 96.8452C280.703 97.2003 281.535 97.5059 282.381 97.7645C282.817 97.8972 283.267 98.0111 283.712 98.1103C284.138 98.2055 284.58 98.302 285.013 98.3556C285.453 98.4105 285.891 98.4775 286.332 98.5137C286.78 98.5512 287.23 98.57 287.679 98.5941C288.129 98.6183 288.59 98.5915 289.042 98.5834C289.498 98.5767 289.955 98.5285 290.409 98.4909C291.314 98.4186 292.215 98.2752 293.105 98.1009C293.546 98.0138 293.987 97.9307 294.424 97.8249C294.852 97.715 295.279 97.6024 295.708 97.4938C297.125 97.132 298.497 96.6053 299.868 96.1014C299.88 96.0973 299.894 96.092 299.906 96.088L299.904 96.0826Z"
            fill="#D48562" />
        <path
            d="M235.05 73.0098C233.508 73.2082 231.961 73.377 230.419 73.5861C228.623 73.83 226.83 74.0914 225.035 74.3487C221.516 74.8539 217.999 75.3833 214.469 75.8189C213.072 75.9918 211.676 76.1646 210.275 76.2987C211.746 75.8229 213.243 75.4409 214.746 75.0871C216.518 74.6703 218.306 74.3138 220.102 74.0123C223.73 73.4025 227.39 72.9589 231.07 72.8785C232.401 72.849 233.725 72.8932 235.05 73.0112V73.0098Z"
            fill="#D48562" />
        <path
            d="M235.73 94.757C234.565 91.5726 233.867 88.19 233.746 84.8006C233.635 81.6926 234.139 78.5566 235.052 75.5894C235.025 77.1896 234.89 78.7844 234.833 80.3833C234.769 82.1858 234.742 83.9938 234.863 85.795C234.973 87.4234 235.123 89.0477 235.31 90.6693C235.467 92.0283 235.636 93.3899 235.731 94.7556L235.73 94.757Z"
            fill="#D48562" />
        <path
            d="M234.362 80.9597C231.093 81.197 227.851 81.6647 224.638 82.3107C223.742 82.4916 222.847 82.6873 221.966 82.9325C221.575 83.0424 221.177 83.1577 220.801 83.3185C220.564 83.4204 220.414 83.5745 220.237 83.7648C219.623 84.4228 219.079 85.1479 218.546 85.8716C218.002 86.6074 217.475 87.3552 216.963 88.1151C215.934 89.6443 214.945 91.2203 214.145 92.8835C213.751 93.7024 213.354 94.5695 213.22 95.4755C213.174 95.7797 213.19 96.0638 213.231 96.3694C213.291 96.8291 213.349 97.2888 213.403 97.7485C213.615 99.5578 213.769 101.372 213.808 103.195C213.846 104.963 213.787 106.783 213.358 108.506C213.135 109.399 212.807 110.29 212.217 111.008C211.656 111.692 210.908 112.061 210.045 112.2C210.698 112.011 211.281 111.719 211.74 111.205C212.242 110.645 212.542 109.918 212.727 109.198C213.153 107.569 213.15 105.831 213.078 104.161C213 102.348 212.804 100.541 212.564 98.7443C212.504 98.2913 212.44 97.8396 212.373 97.388C212.313 96.9832 212.22 96.5731 212.188 96.1657C212.132 95.4447 212.284 94.7545 212.512 94.071C213.08 92.3676 214.004 90.7754 214.953 89.2583C215.911 87.7264 216.955 86.2401 218.085 84.8276C218.626 84.1521 219.174 83.4539 219.816 82.8695C220.21 82.5117 220.698 82.3629 221.225 82.2276C222.946 81.784 224.713 81.5146 226.477 81.3082C229.095 81.0013 231.725 80.8498 234.36 80.9624L234.362 80.9597Z"
            fill="#D48562" />
        <path
            d="M234.581 88.434C233.366 88.7288 232.152 89.0223 230.935 89.3145C230.096 89.5182 229.257 89.7286 228.422 89.947C227.556 90.1802 226.682 90.4134 225.843 90.7337C225.638 90.8128 225.441 90.9039 225.243 90.9991C225.251 90.9937 225.259 90.9884 225.267 90.9857C225.117 91.0795 224.991 91.2135 224.866 91.3382C224.549 91.6571 224.252 91.9962 223.958 92.3353C223.369 93.0134 222.809 93.713 222.268 94.4287C221.183 95.8654 220.145 97.3584 219.3 98.9519C218.882 99.7399 218.494 100.561 218.286 101.433C218.078 102.302 218.242 103.196 218.303 104.077C218.431 105.904 218.522 107.734 218.499 109.566C218.477 111.303 218.386 113.079 217.945 114.768C217.74 115.553 217.456 116.325 216.986 116.991C216.594 117.545 216.085 117.926 215.453 118.16C216.069 117.829 216.538 117.364 216.86 116.736C217.234 116.009 217.425 115.192 217.541 114.387C217.795 112.627 217.759 110.826 217.673 109.054C217.586 107.23 217.425 105.412 217.244 103.594C217.199 103.14 217.131 102.68 217.131 102.223C217.131 101.792 217.208 101.374 217.311 100.957C217.517 100.122 217.899 99.3137 218.298 98.5565C219.131 96.9791 220.155 95.4968 221.262 94.099C221.833 93.378 222.423 92.673 223.04 91.9895C223.523 91.4534 224.025 90.8905 224.602 90.4523C225.051 90.1119 225.638 89.9671 226.173 89.8211C227.028 89.5879 227.903 89.4163 228.774 89.2555C230.393 88.9566 232.028 88.7248 233.665 88.5358C233.97 88.501 234.274 88.4661 234.58 88.4326L234.581 88.434Z"
            fill="#D48562" />
        <path
            d="M-1.66458 103.903C22.3881 101.331 45.4691 95.5733 58.2921 91.5849C71.1139 87.5965 106.616 71.5288 115.354 70.3896C124.092 69.2504 142.519 66.0205 150.498 66.0205C158.478 66.0205 175.573 71.3103 180.893 72.4656C186.212 73.6195 186.212 80.2682 177.853 80.2682C169.494 80.2682 157.526 76.8494 151.258 77.7982C144.989 78.7484 133.971 82.2866 128.272 84.0315C136.689 89.6068 140.431 92.6155 141.76 96.0344C143.09 99.4532 142.457 119.083 140.81 123.01C139.164 126.935 131.989 136.77 130.481 138.279C129.151 139.608 127.37 138.706 126.904 136.165C122.851 138.445 117.615 140.825 116.401 140.25C115.499 139.823 114.881 138.066 115.355 136.562C111.841 137.354 110.631 134.92 113.045 131.972C115.894 128.489 118.459 127.698 118.776 126.621C119.353 124.657 119.214 118.948 118.522 118.452C116.485 116.991 111.794 114.938 109.499 114.622C106.352 114.187 86.482 131.18 79.2623 131.18C72.0426 131.18 62.9252 125.291 59.1257 125.291C55.3263 125.291 26.8322 135.68 3.84634 141.789C-1.09499 128.707 -2.14303 112.585 -1.66458 103.903Z"
            fill="#E4EBF7" />
        <path
            d="M128.271 84.0298C127.671 83.7336 127.09 83.3999 126.502 83.0809C125.71 82.6507 124.923 82.2138 124.138 81.7729C122.552 80.883 120.948 80.0266 119.357 79.1461C118.189 78.4988 116.988 77.9051 115.838 77.2256C117.331 77.6732 118.768 78.279 120.173 78.9451C121.822 79.7251 123.406 80.6324 124.945 81.6107C126.098 82.3452 127.224 83.1466 128.272 84.0285L128.271 84.0298Z"
            fill="#97A6C2" />
        <path
            d="M126.901 136.164C128.059 135.37 129.183 134.533 130.123 133.481C131.282 132.181 132.01 130.623 132.563 128.986C133.142 127.273 133.605 125.536 133.947 123.76C134.291 121.974 134.575 120.173 134.816 118.369C135.06 116.533 135.257 114.688 135.385 112.842C135.509 111.03 135.583 109.198 135.425 107.386C135.327 106.264 135.162 105.115 134.416 104.224C133.855 103.519 133.204 102.887 132.551 102.267C131.897 101.647 131.222 101.046 130.534 100.462C127.796 98.1329 124.885 96.0006 121.882 94.0265C119.129 92.2172 116.284 90.5661 113.336 89.0959C113.274 89.0651 113.212 89.0342 113.151 89.0034C116.033 90.2659 118.825 91.716 121.511 93.3564C124.595 95.2394 127.573 97.3073 130.375 99.5884C131.782 100.734 133.177 101.923 134.402 103.265C134.698 103.59 134.995 103.928 135.236 104.298C135.434 104.602 135.568 104.928 135.685 105.269C135.866 105.796 135.935 106.359 136.009 106.909C136.088 107.502 136.111 108.105 136.126 108.703C136.149 109.64 136.127 110.577 136.082 111.512C135.989 113.364 135.808 115.211 135.568 117.05C135.332 118.859 135.05 120.664 134.704 122.456C134.363 124.213 133.969 125.949 133.404 127.647C132.852 129.306 132.262 130.964 131.249 132.405C130.328 133.713 129.095 134.747 127.77 135.625C127.485 135.813 127.192 135.984 126.902 136.163L126.901 136.164Z"
            fill="#97A6C2" />
        <path
            d="M115.354 136.559C115.979 136.312 116.621 136.09 117.23 135.807C118.02 135.443 118.8 135.074 119.565 134.663C121.132 133.821 122.631 132.826 123.981 131.666C124.315 131.379 124.639 131.09 124.955 130.784C125.069 130.674 125.214 130.566 125.313 130.44C125.312 130.442 125.309 130.445 125.306 130.446C125.6 130.092 125.801 129.694 125.959 129.263C126.266 128.424 126.471 127.549 126.639 126.672C126.984 124.864 127.183 123.026 127.322 121.191C127.425 119.824 127.486 118.454 127.496 117.083C127.502 116.398 127.492 115.712 127.452 115.029C127.432 114.7 127.402 114.373 127.357 114.048C127.348 113.985 127.337 113.923 127.326 113.86C127.323 113.848 127.301 113.731 127.315 113.788C127.122 113.184 126.639 112.689 126.22 112.23C125.609 111.56 124.943 110.94 124.269 110.332C122.906 109.098 121.475 107.938 120.026 106.806C117.431 104.781 114.754 102.851 111.969 101.097C111.891 101.048 111.813 100.999 111.734 100.95C114.317 102.362 116.793 103.95 119.192 105.659C120.648 106.695 122.074 107.775 123.454 108.911C124.161 109.491 124.852 110.089 125.522 110.71C126.184 111.324 126.865 111.961 127.4 112.691C127.565 112.916 127.758 113.171 127.845 113.44C127.892 113.584 127.922 113.722 127.949 113.871C128.107 114.747 128.114 115.661 128.123 116.55C128.142 118.417 128.034 120.285 127.858 122.142C127.684 123.986 127.433 125.833 126.998 127.636C126.786 128.514 126.519 129.381 126.092 130.18C125.94 130.499 125.679 130.752 125.423 130.986C124.151 132.156 122.753 133.215 121.238 134.053C120.86 134.262 120.487 134.483 120.1 134.673C119.706 134.868 119.306 135.053 118.91 135.242C118.142 135.607 117.327 135.901 116.521 136.174C116.133 136.302 115.744 136.429 115.354 136.555V136.559Z"
            fill="#97A6C2" />
        <path
            d="M55.9025 125.926C57.4531 125.517 58.5602 125.288 59.123 125.288C59.3777 125.288 59.6591 125.316 59.9593 125.366C55.3919 112.879 56.5994 97.365 59.7556 91.1089C59.2396 91.2818 58.7505 91.4413 58.2908 91.5833C56.8286 92.039 55.2311 92.5161 53.5156 93.0106C55.9146 100.774 56.4828 118.263 55.9025 125.925V125.926Z"
            fill="#97A6C2" />
        <path
            d="M109.496 114.618C107.703 111.06 106.392 105.69 109.496 100.951C108.177 97.634 108.227 91.323 110.545 89.0045C109.123 84.6823 109.653 80.0144 112.44 77.2268C112.285 74.2528 113.151 71.6247 115.353 70.3877C114.02 73.5198 114.444 75.8343 115.836 77.2268C113.175 79.8884 110.545 84.3231 113.151 89.0045C111.6 90.5551 109.521 96.1344 111.731 100.951C109.755 105.057 108.602 108.145 109.495 114.618H109.496Z"
            fill="#97A6C2" />
        <path
            d="M118.52 118.449C119.076 116.116 122.948 110.099 127.606 113.701C125.947 113.701 121.833 114.15 118.52 118.449Z"
            fill="#97A6C2" />
        <path
            d="M135.11 104.677C132.581 104.677 127.534 106.863 127.606 113.7C128.869 110.666 130.293 106.585 135.11 104.677Z"
            fill="#97A6C2" />
        <path
            d="M135.11 104.677C134.713 101.426 137.037 93.7209 141.759 96.0341C140.162 96.6091 136.296 98.0565 135.11 104.677Z"
            fill="#97A6C2" />
        <path
            d="M118.773 126.617C121.077 125.856 127.524 126.355 125.485 130.606C125.077 128.855 123.998 126.617 118.773 126.617Z"
            fill="#97A6C2" />
        <path
            d="M125.485 130.607C128.237 128.753 132.18 129.46 131.788 131.277C130.685 130.175 128.339 129.856 125.485 130.607Z"
            fill="#97A6C2" />
        <path
            d="M134.097 124.229C135.397 121.854 141.019 117.056 141.019 122.404C139.609 121.854 136.418 121.908 134.097 124.229Z"
            fill="#97A6C2" />
        <path
            d="M148.327 78.346C149.245 72.8364 148.562 69.7151 147.323 66.1421C149.971 68.7903 151.674 71.8514 148.327 78.346Z"
            fill="#97A6C2" />
        <path
            d="M170.875 69.873C173.862 72.8604 173.332 76.5473 170.875 79.7235C171.881 76.034 172.109 72.7558 170.875 69.873Z"
            fill="#97A6C2" />
        <path
            d="M59.2102 100.951C60.6322 94.6335 61.896 92.9556 65.5279 91.1088C69.1612 89.262 78.6378 85.63 86.6938 82.7861C80.0598 86.5776 62.6237 92.8698 59.2102 100.951Z"
            fill="white" />
        <path
            d="M106.124 94.7915C102.018 103.164 94.593 114.604 82.1157 118.756C91.5923 117.221 106.124 111.535 106.124 94.7915Z"
            fill="white" />
        <path
            d="M116.548 73.705C117.179 70.585 124.998 69.1241 145.137 67.4663C137.24 69.2032 120.665 71.2591 116.548 73.705Z"
            fill="white" />
        <path
            d="M7.875 104.901C23.8288 102.69 47.206 97.7925 50.2067 97.7925C53.2074 97.7925 53.5143 103.321 53.5143 109.639C52.1017 103.636 50.5216 100.162 44.6783 100.951C38.8337 101.741 18.9317 104.9 7.875 104.9V104.901Z"
            fill="white" />
        <path
            d="M1.41919 134.012C2.09599 136.665 2.89877 139.281 3.84496 141.785C23.4227 136.582 46.9955 128.274 55.9038 125.925C36.1921 130.282 9.48186 133.595 1.42053 134.012H1.41919Z"
            fill="#C3CFE6" />
        <path
            d="M64.2399 126.74C68.6264 128.483 74.3758 131.176 79.2582 131.176C84.1406 131.176 95.0123 123.256 102.386 118.369C90.5079 122.392 79.5812 128.212 64.2385 126.74H64.2399Z"
            fill="#C3CFE6" />
    </g>
</svg>