<svg width="352" height="313" viewBox="0 0 352 313" fill="none" xmlns="http://www.w3.org/2000/svg">
    <path d="M344.371 288.326H316.667V288.535H344.371V288.326Z" fill="#EBEBEB" />
    <path d="M245.098 290.601H237.829V290.81H245.098V290.601Z" fill="#EBEBEB" />
    <path d="M315.83 280.563H299.778V280.772H315.83V280.563Z" fill="#EBEBEB" />
    <path d="M48.0476 281.969H11.9199V282.178H48.0476V281.969Z" fill="#EBEBEB" />
    <path d="M60.7954 281.969H55.5005V282.178H60.7954V281.969Z" fill="#EBEBEB" />
    <path d="M156.372 285.499H78.0103V285.708H156.372V285.499Z" fill="#EBEBEB" />
    <path
        d="M166.301 237.56H4.77631C2.14139 237.56 0 235.418 0 232.784V5.73725C0 3.10233 2.14139 0.960938 4.77631 0.960938H166.301C168.936 0.960938 171.077 3.10233 171.077 5.73725V232.784C171.077 235.418 168.936 237.56 166.301 237.56ZM4.77631 1.17006C2.2585 1.17006 0.20912 3.21944 0.20912 5.73725V232.784C0.20912 235.301 2.2585 237.351 4.77631 237.351H166.301C168.819 237.351 170.868 235.301 170.868 232.784V5.73725C170.868 3.21944 168.819 1.17006 166.301 1.17006H4.77631Z"
        fill="#EBEBEB" />
    <path
        d="M347.224 237.56H185.699C183.064 237.56 180.923 235.418 180.923 232.784V5.73725C180.923 3.10233 183.064 0.960938 185.699 0.960938H347.224C349.859 0.960938 352 3.10233 352 5.73725V232.784C352 235.418 349.859 237.56 347.224 237.56ZM185.699 1.17006C183.181 1.17006 181.132 3.21944 181.132 5.73725V232.784C181.132 235.301 183.181 237.351 185.699 237.351H347.224C349.741 237.351 351.791 235.301 351.791 232.784V5.73725C351.791 3.21944 349.741 1.17006 347.224 1.17006H185.699Z"
        fill="#EBEBEB" />
    <path d="M192.039 274.867H221.4V165.514H192.039V274.867Z" fill="#F5F7FA" />
    <path d="M196.925 274.867H192.031V265.021H202.044L196.925 274.867Z" fill="#ABBED1" />
    <path d="M311.539 274.867H340.9V165.514H311.539V274.867Z" fill="#F5F7FA" />
    <path d="M192.04 271.086H315.805V165.514H192.04V271.086Z" fill="#ABBED1" />
    <path d="M195.829 199.141L312.008 199.141V170.19H195.829V199.141Z" fill="#F5F7FA" />
    <path
        d="M248.427 179.182H259.401C264.169 179.182 268.728 175.61 272.007 169.303H235.821C239.1 175.61 243.659 179.182 248.427 179.182Z"
        fill="#ABBED1" />
    <path d="M310.912 274.867H315.797V265.021H305.793L310.912 274.867Z" fill="#ABBED1" />
    <path d="M195.829 232.775L312.008 232.775V203.825H195.829V232.775Z" fill="#F5F7FA" />
    <path
        d="M248.427 212.817H259.402C264.17 212.817 268.728 209.245 272.007 202.938H235.821C239.1 209.245 243.659 212.817 248.427 212.817Z"
        fill="#ABBED1" />
    <path d="M195.829 266.411H312.008V237.46H195.829V266.411Z" fill="#F5F7FA" />
    <path
        d="M248.427 246.452H259.402C264.17 246.452 268.728 242.88 272.007 236.573H235.821C239.1 242.88 243.659 246.452 248.427 246.452Z"
        fill="#ABBED1" />
    <path d="M33.2835 140.712H145.406V27.2599L33.2835 27.2599L33.2835 140.712Z" fill="#E6E6E6" />
    <path d="M25.4872 140.712L143.331 140.712V27.2599L25.4872 27.2599L25.4872 140.712Z" fill="#ABBED1" />
    <path d="M133.469 130.833V37.1221L35.3745 37.1221V130.833H133.469Z" fill="white" />
    <path
        d="M83.7483 49.5524L65.7472 67.5535C56.6881 76.6126 56.6881 91.3514 65.7472 100.411L83.7483 118.412C84.1164 118.78 84.7186 118.78 85.0867 118.412L103.088 100.411C112.147 91.3514 112.147 76.6126 103.088 67.5535L85.0867 49.5524C84.7186 49.1844 84.1164 49.1844 83.7483 49.5524ZM67.0856 99.0721C58.7626 90.7491 58.7626 77.2149 67.0856 68.9002V99.0721ZM101.758 99.0721V68.9002C110.081 77.2232 110.081 90.7575 101.758 99.0721Z"
        fill="#ABBED1" />
    <path d="M308.369 126.475H245.725L242.145 163.464H304.789L308.369 126.475Z" fill="#F5F7FA" />
    <path d="M304.789 163.464L304.538 165.505H241.894L242.145 163.464H304.789Z" fill="#F5F7FA" />
    <path d="M306.437 126.475H243.793L240.221 163.464H302.865L306.437 126.475Z" fill="#ABBED1" />
    <path
        d="M301.594 161.056L304.212 129.01C304.245 128.55 303.886 128.165 303.434 128.165H245.842C245.432 128.165 245.098 128.475 245.064 128.884L242.446 160.93C242.413 161.39 242.772 161.775 243.224 161.775H300.816C301.226 161.775 301.56 161.465 301.594 161.056Z"
        fill="white" />
    <path d="M286.537 163.464L286.286 165.505H217.301L217.552 163.464H286.537Z" fill="#ABBED1" />
    <path d="M202.336 106.701L319.971 106.701V28.498L202.336 28.498V106.701Z" fill="#ABBED1" />
    <path d="M199.718 106.701L317.353 106.701V28.498L199.718 28.498V106.701Z" fill="#F5F7FA" />
    <path d="M312.66 101.423V33.7681L204.411 33.7681V101.423H312.66Z" fill="white" />
    <path d="M206.385 101.431V33.7764H204.411V101.431H206.385Z" fill="#ABBED1" />
    <path d="M201.659 92.4473L315.412 92.4473V85.3706L201.659 85.3706V92.4473Z" fill="#F5F7FA" />
    <path
        d="M194.599 19.7734H325.082C325.475 19.7734 325.801 20.0997 325.801 20.4928C325.801 20.886 325.475 21.2122 325.082 21.2122H194.599C194.206 21.2122 193.88 20.886 193.88 20.4928C193.88 20.0913 194.206 19.7734 194.599 19.7734Z"
        fill="#ABBED1" />
    <path
        d="M192.073 20.5011C192.073 21.4966 192.884 22.3079 193.88 22.3079C194.875 22.3079 195.687 21.4966 195.687 20.5011C195.687 19.5057 194.875 18.6943 193.88 18.6943C192.884 18.6943 192.073 19.5057 192.073 20.5011Z"
        fill="#ABBED1" />
    <path
        d="M318.992 24.5412C319.528 24.5412 319.971 24.1063 319.971 23.5626V21.4714C319.971 20.936 319.536 20.4927 318.992 20.4927C318.457 20.4927 318.014 20.9276 318.014 21.4714V23.5626C318.014 24.0979 318.449 24.5412 318.992 24.5412Z"
        fill="#ABBED1" />
    <path
        d="M205.498 24.5412C206.034 24.5412 206.477 24.1063 206.477 23.5626V21.4714C206.477 20.936 206.042 20.4927 205.498 20.4927C204.963 20.4927 204.52 20.9276 204.52 21.4714V23.5626C204.52 24.0979 204.955 24.5412 205.498 24.5412Z"
        fill="#ABBED1" />
    <path opacity="0.4" d="M194.833 96.479L315.412 96.479V20.5013L194.833 20.5013V96.479Z" fill="#F5F7FA" />
    <path
        d="M305.567 20.5011C305.567 21.4966 306.378 22.3079 307.374 22.3079C308.369 22.3079 309.181 21.4966 309.181 20.5011C309.181 19.5057 308.369 18.6943 307.374 18.6943C306.378 18.6943 305.567 19.5057 305.567 20.5011Z"
        fill="#ABBED1" />
    <path d="M134.924 269.447H144.594V185.573H134.924V269.447Z" fill="#ABBED1" />
    <path d="M30.0295 274.758H140.88V269.447H30.0295V274.758Z" fill="#ABBED1" />
    <path d="M134.924 185.572H26.3157V269.446H134.924V185.572Z" fill="#F5F5F5" />
    <path
        d="M39.8749 195.895H121.357C124.644 195.895 127.312 198.563 127.312 201.85V217.442C127.312 220.73 124.644 223.398 121.357 223.398H39.8749C36.5876 223.398 33.9192 220.73 33.9192 217.442V201.85C33.9192 198.563 36.5876 195.895 39.8749 195.895Z"
        fill="#ABBED1" />
    <path
        d="M121.365 231.613H39.8749C36.5857 231.613 33.9192 234.279 33.9192 237.569V253.161C33.9192 256.45 36.5857 259.116 39.8749 259.116H121.365C124.654 259.116 127.321 256.45 127.321 253.161V237.569C127.321 234.279 124.654 231.613 121.365 231.613Z"
        fill="#ABBED1" />
    <path
        d="M60.3772 211.537H100.846C101.883 211.537 102.728 210.692 102.728 209.655C102.728 208.617 101.883 207.772 100.846 207.772H60.3772C59.34 207.772 58.4951 208.617 58.4951 209.655C58.4951 210.692 59.34 211.537 60.3772 211.537Z"
        fill="#F5F5F5" />
    <path
        d="M60.3772 247.255H100.846C101.883 247.255 102.728 246.41 102.728 245.373C102.728 244.336 101.883 243.491 100.846 243.491H60.3772C59.34 243.491 58.4951 244.336 58.4951 245.373C58.4951 246.41 59.34 247.255 60.3772 247.255Z"
        fill="#F5F5F5" />
    <path opacity="0.2"
        d="M177.159 312.643C266.731 312.643 339.344 308.403 339.344 303.174C339.344 297.944 266.731 293.705 177.159 293.705C87.5861 293.705 14.9731 297.944 14.9731 303.174C14.9731 308.403 87.5861 312.643 177.159 312.643Z"
        fill="#005D92" />
    <path d="M213.002 39.8569H58.4199L70.4318 250.374H225.014L213.002 39.8569Z" fill="#263238" />
    <path d="M216.005 39.8569H61.4312L73.4347 250.374H228.017L216.005 39.8569Z" fill="#F84018" />
    <path opacity="0.5" d="M205.356 46.9341H68.4912L78.3031 237.493H218.723L205.356 46.9341Z" fill="black" />
    <path
        d="M68.4912 46.9341C78.6628 110.457 71.6866 173.971 81.8582 237.493H222.278C212.107 173.971 219.083 110.457 208.911 46.9341H68.4912Z"
        fill="white" />
    <g opacity="0.3">
        <path
            d="M97.2078 104.032C103.557 104.032 108.977 109.202 109.203 115.551C109.312 118.612 108.216 121.49 106.116 123.656C104.017 125.814 101.173 127.01 98.1112 127.01C91.7539 127.01 86.4506 121.841 86.2248 115.492C86.116 112.431 87.1951 109.553 89.2612 107.387C91.3273 105.228 94.1546 104.032 97.2161 104.032M97.1325 101.606C89.4536 101.606 83.5396 107.838 83.8073 115.517C84.0834 123.196 90.4657 129.428 98.153 129.428C105.832 129.428 111.905 123.204 111.629 115.517C111.361 107.83 104.811 101.606 97.1325 101.606Z"
            fill="#F84018" />
    </g>
    <path
        d="M174.842 208.383H130.491C129.061 208.383 127.999 209.546 128.132 210.976C128.266 212.407 129.554 213.569 130.985 213.569H175.335C176.766 213.569 177.811 212.407 177.677 210.976C177.543 209.546 176.272 208.383 174.842 208.383Z"
        fill="#FDBEB0" />
    <path
        d="M198.556 197.467H129.613C128.183 197.467 127.095 198.622 127.204 200.06C127.313 201.491 128.567 202.653 129.998 202.653H198.941C200.379 202.653 201.442 201.491 201.333 200.06C201.224 198.63 199.978 197.467 198.548 197.467H198.556Z"
        fill="#FDBEB0" />
    <g opacity="0.3">
        <path
            d="M98.6129 149.035C104.97 149.035 110.265 154.204 110.449 160.553C110.541 163.615 109.445 166.5 107.363 168.659C105.28 170.825 102.444 172.013 99.3825 172.013C93.0336 172.013 87.655 166.843 87.471 160.494C87.3789 157.433 88.4915 154.555 90.5994 152.389C92.7073 150.222 95.5514 149.035 98.6129 149.035ZM98.5794 146.609C90.9005 146.609 84.8193 152.841 85.0452 160.52C85.271 168.198 91.7537 174.43 99.441 174.43C107.12 174.43 113.092 168.198 112.867 160.52C112.641 152.832 106.258 146.609 98.5711 146.609H98.5794Z"
            fill="#F84018" />
    </g>
    <path
        d="M150.224 112.665H126.518C125.088 112.665 123.875 111.502 123.816 110.072C123.758 108.633 124.87 107.479 126.301 107.479H150.006C151.445 107.479 152.658 108.641 152.708 110.072C152.767 111.51 151.646 112.665 150.216 112.665H150.224Z"
        fill="#FDBEB0" />
    <path
        d="M177.602 112.665H161.533C160.103 112.665 158.89 111.502 158.831 110.072C158.773 108.633 159.885 107.479 161.316 107.479H177.384C178.823 107.479 180.028 108.641 180.086 110.072C180.145 111.51 179.024 112.665 177.594 112.665H177.602Z"
        fill="#FDBEB0" />
    <path
        d="M190.534 123.581H126.886C125.456 123.581 124.251 122.418 124.209 120.988C124.159 119.557 125.288 118.386 126.719 118.395H190.367C191.805 118.395 193.002 119.557 193.052 120.988C193.094 122.418 191.973 123.581 190.534 123.581Z"
        fill="#FDBEB0" />
    <g opacity="0.3">
        <path
            d="M100.436 194.029C106.794 194.029 112.281 199.199 112.816 205.548C113.076 208.609 112.156 211.487 110.215 213.653C108.274 215.82 105.531 217.007 102.461 217.007C96.1118 217.007 90.3652 211.838 89.8298 205.489C89.5705 202.428 90.5492 199.55 92.5568 197.384C94.5643 195.217 97.3665 194.029 100.428 194.029M100.303 191.604C92.6237 191.604 86.7516 197.835 87.404 205.514C88.0481 213.193 95.0077 219.425 102.687 219.425C110.374 219.425 115.87 213.193 115.225 205.514C114.573 197.827 107.99 191.595 100.303 191.604Z"
            fill="#F84018" />
    </g>
    <path
        d="M201.442 163.38C176.949 163.38 152.457 163.38 127.965 163.38C126.535 163.38 125.405 164.543 125.455 165.974C125.506 167.404 126.71 168.567 128.141 168.567C152.633 168.567 177.125 168.567 201.617 168.567C203.048 168.567 204.168 167.404 204.127 165.974C204.076 164.543 202.88 163.372 201.442 163.38Z"
        fill="#FDBEB0" />
    <path
        d="M184.018 152.464H127.647C126.217 152.464 125.079 153.627 125.121 155.057C125.163 156.488 126.359 157.651 127.789 157.651C146.577 157.651 165.364 157.651 184.16 157.651C185.59 157.651 186.72 156.488 186.686 155.057C186.644 153.619 185.456 152.456 184.018 152.464Z"
        fill="#FDBEB0" />
    <path
        d="M98.4791 123.731C98.1529 123.188 97.8183 122.652 97.4921 122.109C95.334 118.57 90.8086 115.408 89.2444 114.488C89.6375 113.794 90.0307 113.108 90.4155 112.414C92.2641 113.51 96.0115 116.203 98.5042 119.407C102.068 114.639 107.254 109.72 114.289 104.417C114.791 105.069 115.301 105.722 115.803 106.374C108.274 112.037 102.938 117.215 99.5164 122.209C99.1651 122.719 98.8221 123.229 98.4708 123.731H98.4791Z"
        fill="#F84018" />
    <path
        d="M99.7337 168.734C99.3991 168.19 99.0645 167.655 98.7383 167.111C96.5635 163.573 92.0632 160.411 90.5073 159.482C90.9005 158.788 91.302 158.102 91.6951 157.408C93.5354 158.495 97.2577 161.197 99.7505 164.401C103.314 159.633 108.55 154.714 115.694 149.411C116.187 150.064 116.681 150.716 117.174 151.368C109.546 157.031 104.175 162.209 100.779 167.203C100.436 167.713 100.085 168.224 99.7421 168.726L99.7337 168.734Z"
        fill="#F84018" />
    <path
        d="M102.595 213.837C102.227 213.294 101.859 212.758 101.49 212.215C99.0898 208.676 94.4138 205.514 92.8162 204.586C93.1758 203.892 93.5355 203.206 93.9036 202.511C95.794 203.599 99.6586 206.301 102.344 209.504C105.623 204.736 110.608 199.818 117.534 194.515C118.053 195.167 118.571 195.82 119.09 196.472C111.704 202.135 106.618 207.321 103.531 212.307C103.214 212.817 102.904 213.327 102.595 213.829V213.837Z"
        fill="#F84018" />
    <path
        d="M155.494 62.9194C154.022 66.1315 152.516 69.3353 150.977 72.5473C157.267 75.7678 161.91 82.0749 162.386 89.3439C166.092 89.3439 169.798 89.3439 173.503 89.3439C172.759 77.9677 165.423 68.0638 155.494 62.9194Z"
        fill="#F84018" />
    <path
        d="M113.151 89.335C116.857 89.335 120.562 89.335 124.268 89.335C123.816 82.4925 126.894 76.495 131.98 73.1323C129.822 69.9202 127.622 66.7081 125.397 63.5044C117.292 68.791 112.432 78.377 113.151 89.335Z"
        fill="#263238" />
    <path
        d="M140.462 59.1636C134.757 59.1636 129.621 60.7529 125.397 63.5049C127.631 66.717 129.822 69.9291 131.98 73.1328C134.724 71.326 138.045 70.2721 141.734 70.2721C144.996 70.2721 148.15 71.0918 150.977 72.5389C152.516 69.3268 154.03 66.1231 155.494 62.911C150.885 60.527 145.74 59.1636 140.462 59.1636Z"
        fill="#F84018" />
    <path opacity="0.5"
        d="M140.462 59.1636C134.757 59.1636 129.621 60.7529 125.397 63.5049C127.631 66.717 129.822 69.9291 131.98 73.1328C134.724 71.326 138.045 70.2721 141.734 70.2721C144.996 70.2721 148.15 71.0918 150.977 72.5389C152.516 69.3268 154.03 66.1231 155.494 62.911C150.885 60.527 145.74 59.1636 140.462 59.1636Z"
        fill="#263238" />
    <path
        d="M154.038 81.7314C154.038 81.7314 142.821 86.2735 141.625 87.1184C140.437 87.9632 140.228 89.6529 141.148 90.8993C142.068 92.1456 143.783 92.4719 144.979 91.627C146.192 90.7822 154.055 81.7314 154.038 81.7314ZM142.244 90.1297C141.792 89.5191 141.893 88.6826 142.478 88.2644C143.064 87.8545 143.909 88.0134 144.36 88.6241C144.82 89.2347 144.712 90.0712 144.126 90.4894C143.54 90.8993 142.696 90.7404 142.244 90.1297Z"
        fill="#263238" />
    <path
        d="M167.346 76.4199C167.539 78.6031 165.916 80.3681 163.741 80.3681C161.558 80.3681 159.651 78.6031 159.458 76.4199C159.266 74.2367 160.855 72.4717 163.039 72.4717C165.222 72.4717 167.162 74.245 167.355 76.4199H167.346Z"
        fill="white" />
    <path
        d="M162.453 75.517C162.486 75.8683 162.227 76.1444 161.884 76.1444C161.541 76.1444 161.232 75.86 161.198 75.517C161.165 75.1741 161.424 74.8896 161.767 74.8896C162.11 74.8896 162.419 75.1741 162.453 75.517Z"
        fill="#263238" />
    <path
        d="M165.439 75.517C165.472 75.8683 165.213 76.1444 164.87 76.1444C164.527 76.1444 164.218 75.86 164.184 75.517C164.151 75.1741 164.41 74.8896 164.753 74.8896C165.104 74.8896 165.406 75.1741 165.439 75.517Z"
        fill="#263238" />
    <path
        d="M163.582 78.8123C162.763 78.8123 161.976 78.5028 161.349 77.934C161.223 77.8169 161.215 77.6245 161.324 77.4907C161.441 77.3652 161.633 77.3569 161.767 77.474C162.277 77.934 162.921 78.1933 163.582 78.1933C164.235 78.1933 164.82 77.9424 165.239 77.4991C165.356 77.3736 165.556 77.3652 165.682 77.4823C165.807 77.5994 165.816 77.8002 165.699 77.9257C165.163 78.5028 164.41 78.8207 163.591 78.8207L163.582 78.8123Z"
        fill="#263238" />
    <path
        d="M145.054 64.6591C145.305 66.834 143.724 68.6073 141.541 68.6073C139.358 68.6073 137.409 66.8424 137.158 64.6591C136.907 62.4759 138.455 60.7109 140.638 60.7109C142.821 60.7109 144.803 62.4759 145.054 64.6591Z"
        fill="white" />
    <path
        d="M140.136 63.7475C140.178 64.0988 139.927 64.3748 139.584 64.3748C139.233 64.3748 138.923 64.0904 138.881 63.7475C138.839 63.3962 139.09 63.1201 139.433 63.1201C139.776 63.1201 140.094 63.4045 140.136 63.7475Z"
        fill="#263238" />
    <path
        d="M143.122 63.7475C143.164 64.0988 142.913 64.3748 142.57 64.3748C142.219 64.3748 141.909 64.0904 141.867 63.7475C141.826 63.3962 142.076 63.1201 142.419 63.1201C142.762 63.1201 143.08 63.4045 143.122 63.7475Z"
        fill="#263238" />
    <path
        d="M143.206 66.2572H139.291C139.116 66.2572 138.982 66.115 138.982 65.9477C138.982 65.7804 139.124 65.6382 139.291 65.6382H143.206C143.382 65.6382 143.515 65.7804 143.515 65.9477C143.515 66.115 143.373 66.2572 143.206 66.2572Z"
        fill="#263238" />
    <path
        d="M125.188 76.4199C125.388 78.6031 123.757 80.3681 121.583 80.3681C119.399 80.3681 117.492 78.6031 117.3 76.4199C117.107 74.2367 118.697 72.4717 120.88 72.4717C123.063 72.4717 125.004 74.245 125.196 76.4199H125.188Z"
        fill="white" />
    <path
        d="M120.294 75.517C120.328 75.8683 120.068 76.1444 119.725 76.1444C119.382 76.1444 119.073 75.86 119.04 75.517C119.006 75.1741 119.265 74.8896 119.608 74.8896C119.951 74.8896 120.261 75.1741 120.294 75.517Z"
        fill="#263238" />
    <path
        d="M123.281 75.517C123.314 75.8683 123.055 76.1444 122.712 76.1444C122.36 76.1444 122.059 75.86 122.026 75.517C121.992 75.1741 122.252 74.8896 122.595 74.8896C122.938 74.8896 123.247 75.1741 123.281 75.517Z"
        fill="#263238" />
    <path
        d="M119.466 78.8122C119.391 78.8122 119.316 78.7871 119.257 78.7285C119.132 78.6114 119.123 78.4106 119.24 78.2852C119.784 77.708 120.528 77.3901 121.357 77.3901C122.176 77.3901 122.971 77.6996 123.59 78.2684C123.715 78.3855 123.724 78.5779 123.607 78.7118C123.49 78.8372 123.297 78.8456 123.163 78.7285C122.653 78.2684 121.984 78.0008 121.34 78.0091C120.696 78.0091 120.11 78.2601 119.692 78.7118C119.633 78.7787 119.55 78.8122 119.466 78.8122Z"
        fill="#263238" />
    <path
        d="M182.805 47.4692C180.195 41.9819 174.097 38.3432 167.531 38.3432H154.155C152.156 38.3432 150.291 37.3896 149.513 35.9174C147.647 32.4209 143.197 29.9282 138.153 29.9282C133.109 29.9282 128.952 32.4209 127.48 35.9174C126.869 37.3813 125.113 38.3432 123.113 38.3432H109.738C103.172 38.3432 97.492 41.9819 95.5095 47.4692C95.4342 47.67 95.4091 47.8708 95.4259 48.0799C95.476 48.9164 96.1871 49.6608 97.0988 49.6608H181.475C182.604 49.6608 183.307 48.5149 182.813 47.4692H182.805ZM138.714 39.8489C136.664 39.8489 134.891 38.1843 134.774 36.1266C134.657 34.0688 136.238 32.4042 138.287 32.4042C140.337 32.4042 142.11 34.0688 142.227 36.1266C142.344 38.1843 140.772 39.8489 138.714 39.8489Z"
        fill="#263238" />
    <path
        d="M269.531 297.21C268.745 297.21 267.967 297.101 267.674 296.75C267.574 296.624 267.474 296.415 267.616 296.114C267.691 295.947 267.833 295.83 268.042 295.771C269.029 295.495 271.321 296.716 271.413 296.766C271.472 296.8 271.505 296.858 271.497 296.917C271.497 296.976 271.455 297.026 271.397 297.034C271.012 297.109 270.267 297.21 269.531 297.21ZM268.427 296.022C268.327 296.022 268.235 296.03 268.151 296.055C268.017 296.089 267.934 296.156 267.892 296.256C267.808 296.44 267.858 296.524 267.892 296.574C268.218 296.967 269.774 296.984 270.903 296.817C270.301 296.524 269.147 296.014 268.427 296.014V296.022Z"
        fill="#F84018" />
    <path
        d="M271.363 297.042C271.363 297.042 271.321 297.042 271.305 297.025C270.527 296.691 268.904 295.361 268.946 294.667C268.946 294.499 269.046 294.299 269.439 294.257C269.732 294.223 270.017 294.307 270.276 294.508C271.129 295.152 271.48 296.808 271.497 296.875C271.506 296.925 271.497 296.975 271.455 297.009C271.43 297.025 271.405 297.034 271.372 297.034L271.363 297.042ZM269.582 294.549C269.582 294.549 269.523 294.549 269.498 294.549C269.239 294.575 269.23 294.683 269.23 294.717C269.214 295.135 270.326 296.181 271.129 296.632C270.995 296.147 270.669 295.16 270.109 294.733C269.941 294.608 269.766 294.541 269.582 294.541V294.549Z"
        fill="#F84018" />
    <path d="M278.105 296.892H271.957L269.757 282.663H275.905L278.105 296.892Z" fill="#FFC3BD" />
    <path
        d="M271.924 296.181H278.632C278.883 296.181 279.117 296.356 279.201 296.599L281.025 302.061C281.217 302.63 280.841 303.165 280.263 303.157C277.838 303.115 274.324 302.973 271.28 302.973C267.725 302.973 268.042 303.165 263.868 303.165C261.342 303.165 260.363 300.614 261.392 300.38C266.085 299.326 266.629 299.217 270.493 296.657C270.912 296.381 271.388 296.181 271.924 296.181Z"
        fill="#263238" />
    <path opacity="0.2" d="M269.757 282.672L270.895 290.008H277.043L275.905 282.672H269.757Z" fill="black" />
    <path
        d="M277.411 143.582L273.237 147.806L279.644 150.073C279.644 150.073 282.129 146.626 280.397 144.267L277.411 143.582Z"
        fill="#FFC3BD" />
    <path d="M271.823 153.711L278.214 154.648L279.644 150.073L273.237 147.806L271.823 153.711Z" fill="#FFC3BD" />
    <path
        d="M280.196 91.5688C280.74 92.7316 281.175 93.7353 281.61 94.8144C282.045 95.8767 282.463 96.9474 282.865 98.0181C283.659 100.168 284.37 102.359 285.031 104.576C285.7 106.793 286.236 109.068 286.696 111.393L287.014 113.15L287.273 114.94C287.365 115.534 287.424 116.145 287.474 116.764C287.524 117.399 287.608 117.926 287.608 118.704L287.633 119.792L287.591 120.754L287.541 121.707L287.457 122.602C287.348 123.807 287.189 124.936 287.03 126.082C286.696 128.341 286.319 130.549 285.893 132.74C285.006 137.115 284.036 141.39 282.865 145.698L275.244 144.2C275.721 139.943 276.231 135.635 276.633 131.385C276.834 129.261 277.034 127.144 277.152 125.07C277.202 124.041 277.26 123.004 277.26 122.034V121.297L277.252 120.611L277.235 119.934L277.177 119.382C277.177 119.064 277.06 118.52 276.993 118.069C276.917 117.6 276.85 117.132 276.742 116.655L276.441 115.225L276.081 113.786C275.562 111.862 274.977 109.93 274.308 107.997C273.638 106.065 272.894 104.141 272.116 102.234C271.723 101.28 271.321 100.327 270.911 99.3816C270.502 98.4615 270.05 97.466 269.665 96.6547L280.213 91.5772L280.196 91.5688Z"
        fill="#263238" />
    <path
        d="M251.321 140.587C251.321 140.587 252.342 187.631 255.102 206.368C257.98 225.858 268.452 288.586 268.452 288.586H278.858C278.858 288.586 275.119 228.886 273.931 209.705C272.635 188.793 272.919 140.587 272.919 140.587H251.313H251.321Z"
        fill="#F84018" />
    <path d="M265.976 284.437C265.926 284.437 267.047 288.761 267.047 288.761H279.711L279.619 284.905L265.976 284.437Z"
        fill="#263238" />
    <path
        d="M248.97 64.2831C248.954 64.8017 248.661 65.2283 248.318 65.2283C247.975 65.2283 247.716 64.8101 247.732 64.2831C247.749 63.7645 248.042 63.3379 248.385 63.3379C248.728 63.3379 248.987 63.7561 248.97 64.2831Z"
        fill="#263238" />
    <path
        d="M248.711 65.228C248.711 65.228 247.423 68.231 246.068 69.6781C246.955 70.5397 248.535 70.1465 248.535 70.1465L248.711 65.228Z"
        fill="#ED847E" />
    <path
        d="M250.92 61.3968C250.861 61.3968 250.794 61.3801 250.744 61.3383C249.665 60.5436 248.594 60.9368 248.586 60.9368C248.427 60.9953 248.251 60.92 248.193 60.7611C248.134 60.6022 248.218 60.4265 248.385 60.368C248.444 60.3429 249.782 59.8493 251.12 60.8447C251.254 60.9451 251.279 61.1375 251.171 61.2714C251.112 61.355 251.012 61.3968 250.92 61.3968Z"
        fill="#263238" />
    <path
        d="M265.24 70.0298C264.203 74.5217 263.032 82.761 266.068 85.764C266.068 85.764 264.68 90.3228 256.323 90.3228C247.139 90.3228 252.091 85.764 252.091 85.764C257.143 84.5678 257.151 80.8455 256.399 77.3574L265.232 70.0382L265.24 70.0298Z"
        fill="#FFC3BD" />
    <path
        d="M269.322 87.8713C270.226 86.031 271.221 83.9315 269.339 83.2707C267.264 82.5429 255.796 81.8068 251.789 83.1703C247.774 84.5337 248.77 88.2561 248.77 88.2561L269.322 87.8713Z"
        fill="#F84018" />
    <path
        d="M278.114 87.5286C283.409 89.9711 286.102 108.491 286.102 108.491L275.437 111.837C275.437 111.837 272.375 104.141 270.811 96.7717C269.172 89.051 272.702 85.0359 278.114 87.5286Z"
        fill="#263238" />
    <path
        d="M212.567 116.337L207.648 112.104L203.223 118.545C203.223 118.545 207.197 121.732 211.555 120.427L212.567 116.337Z"
        fill="#FFC3BD" />
    <path d="M201.174 110.063L200.488 116.429L203.223 118.554L207.648 112.113L201.174 110.063Z" fill="#FFC3BD" />
    <path
        d="M266.369 63.1791C265.75 69.5698 265.717 73.334 262.371 76.613C257.344 81.5482 249.556 78.6205 248.26 72.2382C247.089 66.4999 248.293 57.0058 254.642 54.4629C260.89 51.9535 266.988 56.7883 266.378 63.1791H266.369Z"
        fill="#FFC3BD" />
    <path
        d="M253.237 65.228C252.676 60.8113 252.768 59.1384 255.127 58.1681C252.676 57.6829 250.551 57.6076 249.539 56.1772C248.527 54.7468 248.285 51.0914 253.203 49.4185C252.751 50.2884 254.182 51.9948 258.707 50.4306C263.241 48.858 269.824 48.6907 270.401 53.2914C272.794 52.4549 276.8 59.841 272.108 65.2363C268.168 69.7533 265.541 72.8734 264.772 75.2658C264.613 75.7509 264.086 75.9851 263.626 75.7676C261.986 75.0064 259.075 75.6589 257.779 76.0102C257.394 76.1106 257.001 75.9349 256.825 75.5752C255.989 73.8437 253.705 68.875 253.237 65.228Z"
        fill="#263238" />
    <path
        d="M269.573 53.8437C269.573 53.8437 271.514 51.1084 275.228 53.141C275.228 53.141 272.049 52.957 269.573 53.8437Z"
        fill="#263238" />
    <path
        d="M269.899 54.4295C269.899 54.4295 272.601 52.7733 270.493 49.603C270.493 49.603 270.736 52.3132 269.899 54.4295Z"
        fill="#263238" />
    <path
        d="M256.407 65.4126C256.131 67.0689 255.202 68.5829 254.173 69.5532C252.626 71.017 251.287 69.9798 251.237 68.0894C251.195 66.3913 251.957 63.5891 253.738 62.8363C255.495 62.0918 256.725 63.5138 256.415 65.4043L256.407 65.4126Z"
        fill="#FFC3BD" />
    <path opacity="0.3"
        d="M252.174 166.727C252.777 180.763 253.722 197.057 255.094 206.367C255.621 209.914 256.39 214.883 257.31 220.646C261.008 200.47 263.216 174.472 252.174 166.727Z"
        fill="black" />
    <path
        d="M247.565 297.21C246.779 297.21 246.018 297.101 245.775 296.75C245.691 296.624 245.624 296.415 245.808 296.114C245.909 295.947 246.068 295.83 246.285 295.771C247.314 295.495 249.422 296.716 249.514 296.766C249.564 296.8 249.589 296.858 249.581 296.917C249.573 296.976 249.522 297.026 249.464 297.034C249.071 297.109 248.309 297.21 247.573 297.21H247.565ZM246.637 296.022C246.536 296.022 246.436 296.03 246.352 296.055C246.218 296.089 246.118 296.156 246.059 296.256C245.951 296.44 245.984 296.524 246.018 296.574C246.285 296.967 247.841 296.984 248.987 296.817C248.427 296.524 247.348 296.014 246.628 296.014L246.637 296.022Z"
        fill="#F84018" />
    <path
        d="M249.43 297.043C249.43 297.043 249.389 297.043 249.372 297.026C248.644 296.691 247.222 295.361 247.356 294.667C247.389 294.5 247.515 294.299 247.916 294.257C248.218 294.224 248.485 294.307 248.711 294.508C249.472 295.152 249.581 296.808 249.581 296.875C249.581 296.926 249.556 296.976 249.514 297.009C249.489 297.026 249.456 297.034 249.43 297.034V297.043ZM248.017 294.55C248.017 294.55 247.958 294.55 247.933 294.55C247.674 294.575 247.649 294.684 247.64 294.717C247.557 295.135 248.519 296.181 249.263 296.633C249.205 296.148 249.021 295.161 248.519 294.734C248.368 294.608 248.201 294.542 248.017 294.542V294.55Z"
        fill="#F84018" />
    <path d="M256.198 296.892H250.049L249.941 282.664H256.08L256.198 296.892Z" fill="#FFC3BD" />
    <path
        d="M250.116 296.181H256.825C257.076 296.181 257.285 296.357 257.335 296.599L258.356 302.062C258.464 302.63 258.013 303.166 257.436 303.157C255.018 303.116 251.522 302.973 248.477 302.973C244.922 302.973 241.844 303.166 237.67 303.166C235.143 303.166 234.533 300.615 235.603 300.38C240.447 299.326 244.378 299.218 248.619 296.658C249.079 296.382 249.589 296.181 250.116 296.181Z"
        fill="#263238" />
    <path opacity="0.2" d="M249.941 282.672L249.999 290.008H256.147L256.089 282.672H249.941Z" fill="black" />
    <path
        d="M240.346 140.587C240.346 140.587 237.879 186.535 237.887 205.272C237.887 224.762 247.757 288.586 247.757 288.586H258.163C258.163 288.586 255.453 225.9 256.591 206.761C257.829 185.891 263.876 140.587 263.876 140.587H240.346Z"
        fill="#F84018" />
    <path d="M245.9 284.437C245.85 284.437 246.335 288.761 246.335 288.761H259L259.476 284.905L245.9 284.437Z"
        fill="#263238" />
    <path
        d="M242.588 87.4703C242.588 87.4703 232.115 113.928 236.674 159.65H274.918C275.32 154.606 271.321 110.925 277.026 87.1524C277.026 87.1524 271.43 86.0232 266.076 85.7639C261.886 85.5631 255.804 85.4293 252.107 85.7639C247.222 86.2072 242.596 87.4703 242.596 87.4703H242.588Z"
        fill="#263238" />
    <path opacity="0.2"
        d="M237.176 111.385C236.607 115.601 236.139 120.344 235.838 125.58C243.266 118.755 245.808 101.749 245.808 101.749L237.176 111.385Z"
        fill="black" />
    <path
        d="M246.528 100.067C245.031 103.982 243.5 107.746 241.835 111.544C240.187 115.333 238.431 119.081 236.482 122.82L235.737 124.225L235.361 124.928C235.202 125.212 235.219 125.229 234.775 125.957C234.073 127.102 232.927 128.156 231.756 128.767C230.585 129.386 229.439 129.654 228.485 129.754C226.553 129.947 225.106 129.671 223.801 129.378C222.496 129.06 221.35 128.658 220.254 128.223C218.071 127.345 216.139 126.299 214.256 125.212C213.32 124.668 212.408 124.091 211.513 123.497C210.601 122.895 209.765 122.318 208.819 121.632L213.345 114.714C216.59 116.437 220.237 118.144 223.5 119.122C224.311 119.365 225.097 119.549 225.783 119.641C226.452 119.741 227.046 119.708 227.13 119.641C227.18 119.616 227.021 119.591 226.737 119.733C226.444 119.859 226.068 120.193 225.884 120.469C225.708 120.762 225.934 120.327 226.009 120.151L226.31 119.499L226.912 118.177C228.502 114.631 229.966 110.958 231.404 107.261C232.81 103.564 234.223 99.7914 235.503 96.1108L246.52 100.084L246.528 100.067Z"
        fill="#263238" />
    <path
        d="M250.694 90.2393C252.643 95.7099 238.799 117.734 238.799 117.734L230.585 109.604C230.585 109.604 232.684 102.678 235.461 94.3548C238.188 86.1657 248.837 85.0113 250.702 90.2477L250.694 90.2393Z"
        fill="#263238" />
</svg>