<svg width="442" height="392" viewBox="0 0 442 392" fill="none" xmlns="http://www.w3.org/2000/svg">
    <g opacity="0.3">
        <path
            d="M144.545 53.2258C143.949 53.5858 143.175 53.3947 142.815 52.8001C142.117 51.6444 141.357 50.5012 140.557 49.4026C140.153 48.8465 140.27 48.0707 140.816 47.6586C140.822 47.6536 140.828 47.6486 140.836 47.6437C141.398 47.234 142.185 47.3582 142.594 47.9217C143.436 49.0774 144.236 50.2814 144.972 51.4979C145.308 52.054 145.163 52.7678 144.655 53.1526C144.62 53.1787 144.583 53.2047 144.546 53.2271L144.545 53.2258ZM136.301 44.3231C135.36 43.345 134.368 42.3966 133.353 41.5054C132.83 41.0473 132.778 40.2516 133.236 39.7291C133.698 39.2052 134.491 39.1543 135.014 39.6124C136.083 40.5496 137.127 41.5476 138.117 42.5766C138.599 43.0781 138.584 43.875 138.082 44.3567C138.046 44.3914 138.008 44.4237 137.968 44.4535C137.467 44.8333 136.748 44.7862 136.301 44.3219V44.3231ZM128.081 37.4959C126.949 36.7536 125.771 36.051 124.578 35.408C123.966 35.0779 123.738 34.3145 124.067 33.7025C124.397 33.0918 125.16 32.8621 125.772 33.1923C127.027 33.8688 128.269 34.6086 129.46 35.3907C130.041 35.7718 130.204 36.5525 129.823 37.1347C129.741 37.2588 129.641 37.3631 129.53 37.4488C129.118 37.7616 128.537 37.7976 128.079 37.4972L128.081 37.4959ZM118.54 32.6784C117.269 32.2067 115.963 31.7859 114.658 31.4259C113.987 31.241 113.594 30.5471 113.779 29.8768C113.965 29.2065 114.658 28.8142 115.328 28.9979C116.702 29.3778 118.077 29.8209 119.415 30.3174C120.067 30.5595 120.4 31.2844 120.159 31.9361C120.072 32.1695 119.924 32.3619 119.739 32.5021C119.408 32.7529 118.96 32.8348 118.54 32.6796V32.6784ZM108.164 30.1064C106.824 29.9301 105.456 29.8072 104.1 29.7452C103.405 29.7129 102.869 29.1233 102.901 28.4282C102.933 27.733 103.523 27.1968 104.218 27.229C105.644 27.2948 107.083 27.4239 108.494 27.6101C109.183 27.7007 109.669 28.3338 109.578 29.0227C109.532 29.3703 109.348 29.6657 109.09 29.8619C108.836 30.0543 108.507 30.1511 108.165 30.1064H108.164ZM97.4778 29.8941C96.1297 30.0183 94.7692 30.202 93.4361 30.4403C92.7521 30.562 92.0967 30.1064 91.975 29.4224C91.8522 28.7372 92.3077 28.0831 92.9929 27.9614C94.3968 27.7107 95.8281 27.517 97.2469 27.3867C97.9395 27.3234 98.5528 27.8323 98.6161 28.525C98.657 28.9743 98.4572 29.3914 98.1208 29.6446C97.9395 29.7812 97.7198 29.8718 97.4765 29.8941H97.4778ZM58.1654 55.2157C57.5535 54.8842 57.3263 54.1208 57.6577 53.5089C58.3355 52.2564 59.079 51.0163 59.8636 49.8234C60.2459 49.2425 61.0267 49.0823 61.6076 49.4647C62.1885 49.847 62.3487 50.6278 61.9663 51.2087C61.2203 52.3408 60.5152 53.5188 59.8722 54.7092C59.7841 54.8718 59.6649 55.0084 59.5259 55.1139C59.1448 55.4031 58.6136 55.4602 58.1654 55.2169V55.2157ZM87.016 32.0565C85.73 32.4773 84.4452 32.9589 83.2002 33.489C82.5597 33.7608 81.8199 33.4629 81.548 32.8224C81.2762 32.1819 81.5753 31.4458 82.2146 31.1702C83.5267 30.6129 84.8785 30.1052 86.2327 29.662C86.8931 29.446 87.6044 29.806 87.8216 30.4676C87.9929 30.9915 87.8018 31.5476 87.3847 31.8629C87.2767 31.9448 87.1525 32.0106 87.016 32.0553V32.0565ZM64.2106 46.056C63.6893 45.5967 63.6384 44.8011 64.0977 44.2785C65.0386 43.2097 66.0391 42.167 67.0694 41.1789C67.5696 40.6948 68.369 40.7147 68.8494 41.2174C69.331 41.7189 69.3137 42.517 68.8109 42.9974C67.8315 43.9359 66.8807 44.9264 65.9869 45.9431C65.9298 46.0076 65.8678 46.0647 65.8007 46.1156C65.3328 46.4694 64.6662 46.4582 64.2094 46.056H64.2106ZM77.3027 36.5004C76.1434 37.198 74.9989 37.9552 73.9015 38.7509C73.338 39.1593 72.551 39.0339 72.1426 38.4704C71.7404 37.9143 71.8571 37.1409 72.402 36.7276C72.4095 36.7226 72.4169 36.7164 72.4231 36.7114C73.5788 35.8735 74.7829 35.0766 76.0031 34.3418C76.5989 33.983 77.3735 34.1754 77.731 34.7713C78.0661 35.3274 77.9197 36.0399 77.4132 36.4234C77.3772 36.4507 77.34 36.4756 77.3015 36.4992L77.3027 36.5004Z"
            fill="#F0F0F0" />
        <path
            d="M56.0379 63.237C56.2352 63.0868 56.3916 62.8782 56.4736 62.6238C56.6747 62.0068 56.8919 61.3837 57.119 60.7705C57.3611 60.1188 57.0284 59.3939 56.3767 59.1518C55.725 58.9098 54.9989 59.2412 54.7581 59.8941C54.5185 60.5384 54.2901 61.1938 54.0778 61.843C53.8618 62.5046 54.2243 63.2146 54.8847 63.4306C55.2918 63.5634 55.7188 63.4765 56.0366 63.237H56.0379Z"
            fill="#F0F0F0" />
    </g>
    <g opacity="0.3">
        <path
            d="M59.3421 101.485C59.8263 101.118 59.9876 100.444 59.6922 99.8904C59.3868 99.3169 59.0889 98.7285 58.8059 98.1401C58.5043 97.5133 57.752 97.2489 57.1252 97.5505C56.4958 97.8534 56.2339 98.6044 56.5355 99.2312C56.8335 99.8506 57.1475 100.471 57.469 101.075C57.7955 101.688 58.5589 101.921 59.1721 101.595C59.2329 101.562 59.2888 101.526 59.3421 101.487V101.485Z"
            fill="#F0F0F0" />
        <path
            d="M130.205 119.045C129.63 119.437 128.847 119.29 128.455 118.715C128.062 118.14 128.21 117.358 128.785 116.965C129.879 116.219 130.957 115.413 132.004 114.564C132.54 114.126 133.337 114.209 133.775 114.749C134.213 115.289 134.131 116.082 133.591 116.52C133.138 116.888 132.68 117.248 132.218 117.597C131.559 118.096 130.883 118.583 130.206 119.045H130.205ZM136.834 111.901C136.327 111.426 136.301 110.629 136.776 110.121C137.69 109.147 138.571 108.124 139.398 107.08C139.828 106.534 140.622 106.442 141.167 106.874C141.712 107.305 141.804 108.098 141.373 108.643C140.503 109.741 139.574 110.819 138.614 111.844C138.564 111.898 138.511 111.945 138.455 111.988C137.974 112.352 137.288 112.328 136.834 111.901ZM124.286 122.517C123.033 123.141 121.734 123.721 120.428 124.239C119.782 124.494 119.051 124.179 118.794 123.532C118.538 122.886 118.854 122.155 119.5 121.898C120.74 121.406 121.973 120.856 123.164 120.263C123.787 119.953 124.543 120.206 124.854 120.829C125.128 121.38 124.96 122.034 124.488 122.393C124.425 122.44 124.36 122.481 124.288 122.517H124.286ZM143.529 103.427C142.93 103.074 142.73 102.302 143.082 101.703C143.759 100.553 144.393 99.3629 144.97 98.1613C145.271 97.5332 146.023 97.27 146.65 97.5704C147.277 97.8708 147.541 98.6231 147.241 99.2499C146.634 100.515 145.965 101.77 145.253 102.979C145.168 103.125 145.056 103.248 144.929 103.344C144.535 103.643 143.982 103.691 143.53 103.424L143.529 103.427ZM113.895 126.322C112.535 126.654 111.142 126.935 109.754 127.152C109.068 127.26 108.424 126.791 108.314 126.104C108.206 125.417 108.676 124.773 109.362 124.665C110.68 124.457 112.004 124.192 113.296 123.875C113.971 123.71 114.654 124.123 114.819 124.799C114.942 125.301 114.744 125.809 114.356 126.102C114.223 126.203 114.068 126.278 113.895 126.32V126.322ZM102.922 127.755C101.52 127.783 100.098 127.752 98.6993 127.664C98.0054 127.619 97.4778 127.021 97.5225 126.327C97.5672 125.632 98.1655 125.105 98.8594 125.15C100.189 125.234 101.538 125.264 102.873 125.238C103.568 125.224 104.142 125.777 104.156 126.472C104.165 126.891 103.967 127.266 103.657 127.501C103.452 127.656 103.199 127.75 102.922 127.755ZM91.8969 126.764C90.5203 126.486 89.1399 126.145 87.7943 125.754C87.1265 125.56 86.7429 124.862 86.9366 124.194C87.1315 123.525 87.8303 123.143 88.4969 123.336C89.7755 123.709 91.0863 124.031 92.3946 124.296C93.0761 124.434 93.5168 125.098 93.379 125.779C93.3157 126.092 93.1419 126.354 92.9061 126.533C92.628 126.744 92.2643 126.838 91.8956 126.764H91.8969ZM81.3507 123.39C80.0684 122.817 78.7961 122.183 77.5684 121.504C76.9602 121.168 76.738 120.402 77.0744 119.792C77.4095 119.184 78.1767 118.963 78.7849 119.3C79.9505 119.944 81.1595 120.546 82.3772 121.09C83.0128 121.373 83.2971 122.117 83.0128 122.753C82.9234 122.954 82.7881 123.119 82.6243 123.243C82.2705 123.511 81.7839 123.583 81.3494 123.39H81.3507ZM71.7976 117.778C70.6754 116.939 69.5744 116.04 68.5255 115.108C68.0053 114.646 67.9582 113.849 68.4212 113.33C68.8817 112.813 69.6786 112.763 70.1987 113.226C71.1955 114.112 72.2407 114.965 73.307 115.763C73.8643 116.179 73.9773 116.968 73.5615 117.526C73.4895 117.623 73.405 117.707 73.3132 117.777C72.8775 118.107 72.2581 118.124 71.7988 117.78L71.7976 117.778ZM63.7191 110.213C63.0463 109.43 62.3909 108.616 61.7678 107.794C61.5418 107.496 61.3209 107.197 61.1036 106.896C60.6965 106.333 60.807 105.54 61.3854 105.139C61.949 104.73 62.736 104.857 63.1444 105.42C63.3517 105.706 63.5614 105.991 63.7762 106.273C64.3683 107.054 64.9914 107.827 65.6307 108.573C66.0838 109.101 66.023 109.897 65.4954 110.348C65.4755 110.366 65.4557 110.382 65.4346 110.397C64.9083 110.795 64.1548 110.72 63.7203 110.212L63.7191 110.213Z"
            fill="#F0F0F0" />
        <path
            d="M149.35 93.4617C149.549 93.3102 149.706 93.0992 149.788 92.8423C149.996 92.193 150.194 91.5277 150.377 90.8636C150.562 90.1933 150.169 89.4994 149.497 89.3157C148.827 89.1307 148.133 89.5242 147.949 90.1958C147.776 90.8264 147.587 91.4594 147.39 92.0751C147.177 92.7367 147.542 93.4455 148.204 93.6578C148.61 93.7881 149.033 93.7012 149.35 93.4617Z"
            fill="#F0F0F0" />
    </g>
    <path
        d="M139.489 74.2573C139.497 74.0066 139.347 73.7769 139.113 73.6863L132.431 71.1069C131.786 67.8248 130.615 64.621 128.907 61.6319L132.273 55.3149C132.391 55.0927 132.355 54.8209 132.185 54.6372L126.335 48.3449C126.163 48.1612 125.895 48.1054 125.666 48.2072L119.12 51.1069C116.263 49.1866 113.153 47.7851 109.926 46.905L107.838 40.053C107.765 39.8134 107.547 39.6458 107.297 39.6359L98.7104 39.3243C98.4597 39.3156 98.2301 39.4658 98.1394 39.7004L95.56 46.3824C92.278 47.0267 89.0741 48.1985 86.0851 49.9065L79.768 46.5401C79.5458 46.4222 79.274 46.4569 79.0903 46.6282L72.7981 52.4798C72.6144 52.6511 72.5597 52.9192 72.6603 53.1488L75.56 59.6943C73.6397 62.5518 72.2382 65.6612 71.3581 68.8887L64.5061 70.9765C64.2665 71.0498 64.099 71.267 64.089 71.5177L63.7775 80.1039C63.7688 80.3546 63.919 80.5843 64.1536 80.6737L70.8368 83.2531C71.481 86.5351 72.6528 89.739 74.3609 92.728L70.9944 99.0451C70.8765 99.266 70.9113 99.5391 71.0826 99.7228L76.9341 106.015C77.1054 106.199 77.3735 106.255 77.6032 106.153L84.1486 103.253C87.0061 105.173 90.1156 106.575 93.343 107.455L95.4309 114.307C95.5041 114.547 95.7214 114.714 95.9721 114.724L104.558 115.036C104.809 115.044 105.039 114.894 105.128 114.66L107.707 107.976C110.99 107.332 114.193 106.16 117.182 104.452L123.499 107.819C123.72 107.937 123.993 107.901 124.177 107.731L130.469 101.879C130.653 101.708 130.709 101.44 130.607 101.21L127.707 94.6645C129.628 91.807 131.029 88.6975 131.909 85.4701L138.761 83.3822C139.001 83.309 139.169 83.0917 139.178 82.841L139.49 74.2548L139.489 74.2573Z"
        fill="#F0F0F0" />
    <path
        d="M105.787 84.7526C101.613 87.0428 96.3521 85.5098 94.0606 81.3353C92.9509 79.3132 92.6952 76.9795 93.3406 74.765C93.9861 72.5505 95.4546 70.7196 97.4779 69.6099C101.654 67.3196 106.913 68.8527 109.205 73.0272C111.289 76.8256 110.208 81.5215 106.851 84.0637C106.518 84.3157 106.163 84.5466 105.786 84.7526H105.787ZM95.2758 75.3286C94.7806 77.0267 94.9767 78.8154 95.8282 80.3671C97.5847 83.5672 101.618 84.7439 104.819 82.9875C108.022 81.2323 109.196 77.198 107.439 73.9967C105.683 70.7966 101.65 69.6198 98.4486 71.3763C98.1582 71.5351 97.8838 71.7139 97.6244 71.91C96.4985 72.7628 95.6793 73.9482 95.2771 75.3286H95.2758Z"
        fill="#89939E" />
    <path
        d="M114.242 94.1146C114.818 93.6777 115.376 93.2097 115.913 92.7107C116.081 92.5543 116.248 92.3941 116.412 92.2315C117.22 91.4309 117.962 90.5657 118.629 89.6521C118.637 89.6397 118.647 89.6273 118.656 89.6149C118.682 89.5789 118.707 89.5441 118.733 89.5081C118.782 89.4386 118.832 89.3691 118.881 89.2996C119.008 89.1158 118.997 88.8775 118.869 88.7075C118.838 88.6665 118.8 88.6293 118.755 88.5982C118.527 88.4393 118.214 88.4952 118.054 88.7236C117.235 89.8979 116.284 90.9902 115.226 91.9734C109.978 96.8554 102.806 98.4071 96.3346 96.7251C92.7348 95.7904 89.3522 93.8552 86.6375 90.9344C86.1608 90.4229 85.7139 89.8904 85.2981 89.3405C82.4964 85.6402 81.0652 81.1268 81.2353 76.4259C81.4314 71.0262 83.7179 66.0262 87.6752 62.347C95.848 54.7489 108.668 55.2169 116.264 63.3859C116.732 63.8899 117.174 64.415 117.586 64.9599C119.373 67.3209 120.623 70.0456 121.238 72.9453C121.254 73.0198 121.285 73.088 121.328 73.1451C121.443 73.2953 121.637 73.376 121.835 73.3338C122.107 73.2755 122.282 73.0098 122.223 72.7367C121.578 69.693 120.265 66.8318 118.389 64.3529C117.956 63.7807 117.493 63.2295 117.002 62.7007C109.028 54.1245 95.5625 53.6392 86.99 61.6109C82.8353 65.4738 80.4346 70.7233 80.2298 76.3912C80.0498 81.3266 81.553 86.0647 84.495 89.95C84.9319 90.5272 85.4011 91.0858 85.9001 91.6233C89.7631 95.778 95.0126 98.1787 100.68 98.3847C105.617 98.5647 110.356 97.0602 114.242 94.1171V94.1146Z"
        fill="#89939E" />
    <g opacity="0.3">
        <path
            d="M198.945 53.6641C199.213 53.4605 199.327 53.0993 199.202 52.7679C198.968 52.1509 198.712 51.5315 198.441 50.9295C198.265 50.5385 197.806 50.3634 197.413 50.5397C197.02 50.7147 196.847 51.1765 197.024 51.5675C197.282 52.1422 197.526 52.7319 197.75 53.3203C197.901 53.7212 198.351 53.9235 198.753 53.7721C198.824 53.7448 198.888 53.7088 198.946 53.6641H198.945Z"
            fill="#F0F0F0" />
        <path
            d="M196.253 48.3339C195.885 48.5573 195.407 48.4406 195.184 48.0732C194.62 47.1472 194.002 46.2385 193.348 45.3746C193.21 45.1921 193.069 45.0109 192.926 44.8309C192.66 44.4945 192.717 44.0054 193.054 43.7385C193.383 43.4989 193.879 43.53 194.146 43.8664C194.295 44.0551 194.443 44.245 194.587 44.4361C195.273 45.3423 195.92 46.2944 196.511 47.2651C196.721 47.6089 196.631 48.0508 196.317 48.2892C196.296 48.3053 196.274 48.3202 196.251 48.3339H196.253ZM190.293 41.8877C189.358 40.9642 188.358 40.0891 187.32 39.2884C186.98 39.0265 186.917 38.5387 187.179 38.1973C187.441 37.8597 187.93 37.7939 188.27 38.0558C189.357 38.8949 190.406 39.811 191.387 40.7805C191.692 41.0821 191.695 41.5749 191.393 41.8803C191.367 41.9063 191.338 41.9312 191.309 41.9535C191.006 42.1832 190.571 42.1608 190.293 41.8865V41.8877ZM184.048 37.0764C182.917 36.4098 181.733 35.809 180.526 35.2877C180.133 35.1176 179.951 34.6596 180.122 34.2648C180.293 33.8689 180.75 33.6889 181.145 33.8589C182.41 34.4051 183.652 35.0369 184.838 35.7358C185.207 35.9543 185.332 36.4309 185.113 36.8008C185.06 36.8902 184.991 36.9659 184.912 37.0255C184.669 37.2105 184.327 37.2403 184.048 37.0764ZM176.811 33.9471C175.55 33.5784 174.253 33.2842 172.961 33.0744C172.536 33.0049 172.248 32.6052 172.318 32.1819C172.387 31.7586 172.786 31.4706 173.21 31.5389C174.567 31.7599 175.925 32.0677 177.249 32.4538C177.662 32.5742 177.899 33.0061 177.778 33.4195C177.729 33.5858 177.63 33.7236 177.501 33.8204C177.311 33.9644 177.059 34.0191 176.812 33.9471H176.811ZM169.029 32.6797C167.716 32.6288 166.389 32.6586 165.082 32.7678C164.655 32.8038 164.278 32.486 164.242 32.0578C164.206 31.6295 164.523 31.2534 164.952 31.2174C166.321 31.102 167.714 31.0709 169.089 31.1243C169.519 31.1417 169.852 31.5029 169.836 31.9312C169.826 32.1732 169.707 32.3855 169.528 32.522C169.391 32.6263 169.216 32.6859 169.029 32.6797ZM161.176 33.3388C159.891 33.6082 158.612 33.9607 157.372 34.3865C156.966 34.5255 156.523 34.3095 156.384 33.9036C156.245 33.4977 156.46 33.0558 156.867 32.9155C158.167 32.4687 159.509 32.0987 160.857 31.8157C161.277 31.7276 161.69 31.997 161.778 32.4165C161.841 32.7206 161.718 33.021 161.486 33.1973C161.398 33.2643 161.292 33.314 161.177 33.3388H161.176ZM153.725 35.8984C152.55 36.4731 151.395 37.1298 150.293 37.8497C149.933 38.0843 149.451 37.9826 149.217 37.6238C148.982 37.2651 149.087 36.7884 149.443 36.5464C150.598 35.7916 151.81 35.104 153.043 34.5007C153.429 34.312 153.894 34.4721 154.083 34.8582C154.249 35.1971 154.145 35.5992 153.854 35.819C153.815 35.8487 153.772 35.8761 153.727 35.8984H153.725ZM143.17 42.9801C142.855 42.6884 142.837 42.1968 143.128 41.8815C143.936 41.0089 144.805 40.166 145.71 39.3766C145.847 39.2561 145.984 39.1382 146.124 39.0203C146.443 38.7348 146.943 38.7844 147.22 39.1146C147.496 39.4436 147.454 39.9339 147.126 40.2107C146.996 40.3199 146.866 40.4317 146.735 40.5471C145.87 41.3018 145.04 42.1062 144.27 42.9379C144.239 42.9726 144.204 43.0024 144.168 43.0297C143.873 43.2532 143.452 43.2395 143.172 42.9801H143.17Z"
            fill="#F0F0F0" />
    </g>
    <g opacity="0.3">
        <path
            d="M187.694 91.7499C186.603 92.5543 185.453 93.2979 184.277 93.9632C183.903 94.1742 183.429 94.0427 183.216 93.6678C183.005 93.2929 183.142 92.8212 183.512 92.6077C184.634 91.9746 185.73 91.2646 186.772 90.4962C187.117 90.2418 187.605 90.315 187.859 90.6613C188.112 91.0039 188.041 91.4868 187.703 91.7425C187.703 91.7425 187.696 91.7475 187.694 91.7487V91.7499ZM189.722 89.1072C189.428 88.7944 189.443 88.3028 189.756 88.0086C190.697 87.1223 191.593 86.1715 192.421 85.1797C192.695 84.8532 193.187 84.8061 193.517 85.0816C193.847 85.3572 193.891 85.8463 193.615 86.1765C192.747 87.2154 191.808 88.2122 190.822 89.1407C190.801 89.1606 190.78 89.178 190.757 89.1953C190.445 89.4324 189.998 89.4001 189.722 89.1072ZM180.612 95.747C179.358 96.2634 178.063 96.709 176.76 97.069C176.346 97.1832 175.918 96.9399 175.803 96.5265C175.688 96.1119 175.931 95.6861 176.345 95.5695C177.587 95.2256 178.822 94.8023 180.019 94.3095C180.416 94.1457 180.87 94.3356 181.034 94.7316C181.172 95.0655 181.06 95.4404 180.785 95.6477C180.733 95.6874 180.674 95.7209 180.611 95.747H180.612ZM194.953 83.1266C194.592 82.8944 194.489 82.4128 194.721 82.0516C195.421 80.9654 196.062 79.8259 196.624 78.664C196.811 78.278 197.277 78.1166 197.663 78.3028C198.05 78.4903 198.212 78.9558 198.024 79.3418C197.434 80.5608 196.763 81.7562 196.028 82.8944C195.977 82.9726 195.914 83.0397 195.844 83.093C195.591 83.2842 195.235 83.309 194.953 83.1266ZM172.778 97.9131C171.44 98.1129 170.076 98.2321 168.722 98.2693C168.292 98.2805 167.935 97.9416 167.924 97.5121C167.912 97.0826 168.25 96.7251 168.679 96.714C169.97 96.6792 171.271 96.565 172.549 96.3738C172.973 96.3105 173.369 96.6035 173.432 97.0293C173.476 97.3197 173.352 97.5978 173.132 97.7641C173.032 97.8398 172.911 97.8932 172.778 97.9131ZM164.653 98.1365C163.303 98.0099 161.949 97.8001 160.628 97.5121C160.209 97.4215 159.943 97.0069 160.034 96.5873C160.124 96.1678 160.539 95.9009 160.959 95.9928C162.218 96.2658 163.509 96.4657 164.798 96.5873C165.225 96.6271 165.54 97.0069 165.499 97.4352C165.478 97.6611 165.361 97.856 165.194 97.9826C165.045 98.0955 164.854 98.1551 164.651 98.1365H164.653ZM156.707 96.4074C155.426 95.9605 154.161 95.4317 152.948 94.8359C152.562 94.6459 152.405 94.1804 152.593 93.7944C152.783 93.4096 153.249 93.2507 153.635 93.4394C154.792 94.0091 155.997 94.5131 157.22 94.9376C157.626 95.0791 157.84 95.5223 157.698 95.9282C157.645 96.0784 157.551 96.2025 157.433 96.2919C157.233 96.4434 156.963 96.4955 156.707 96.4074Z"
            fill="#F0F0F0" />
        <path
            d="M199.32 75.9046C199.439 75.8139 199.535 75.6886 199.586 75.5347C199.8 74.9041 199.997 74.2648 200.17 73.6342C200.285 73.2196 200.041 72.7914 199.627 72.6772C199.213 72.5642 198.785 72.8062 198.67 73.2208C198.504 73.8229 198.316 74.4324 198.112 75.0344C197.974 75.4416 198.192 75.8835 198.599 76.0212C198.852 76.1069 199.12 76.0548 199.319 75.9046H199.32Z"
            fill="#F0F0F0" />
    </g>
    <path
        d="M192.948 62.5407C192.955 62.3732 192.853 62.2192 192.696 62.1584L188.225 60.4317C187.794 58.2346 187.01 56.0921 185.867 54.0911L188.12 49.8632C188.199 49.7155 188.174 49.533 188.06 49.4101L184.145 45.1996C184.031 45.0767 183.851 45.0395 183.697 45.1078L179.318 47.0479C177.406 45.7632 175.324 44.8247 173.164 44.2364L171.768 39.6509C171.719 39.4896 171.573 39.3779 171.405 39.3717L165.659 39.1631C165.492 39.1569 165.338 39.2587 165.277 39.4151L163.552 43.8863C161.354 44.317 159.211 45.1015 157.211 46.2448L152.984 43.9918C152.837 43.9124 152.654 43.936 152.531 44.0514L148.321 47.9665C148.198 48.0807 148.161 48.2607 148.229 48.4146L150.169 52.794C148.884 54.7056 147.946 56.7873 147.357 58.9471L142.772 60.3436C142.612 60.392 142.499 60.5385 142.493 60.7061L142.284 66.4521C142.278 66.6197 142.38 66.7736 142.536 66.8332L147.007 68.5599C147.438 70.757 148.223 72.8995 149.366 74.9005L147.113 79.1284C147.033 79.2761 147.057 79.4586 147.172 79.5815L151.088 83.792C151.202 83.9149 151.382 83.9521 151.536 83.8838L155.915 81.9437C157.827 83.2284 159.908 84.1669 162.068 84.7552L163.465 89.3406C163.513 89.5008 163.66 89.6137 163.827 89.6199L169.573 89.8285C169.741 89.8347 169.895 89.7329 169.956 89.5765L171.681 85.1053C173.878 84.6746 176.021 83.89 178.022 82.7468L182.248 84.9998C182.396 85.0792 182.578 85.0544 182.701 84.9402L186.912 81.0251C187.035 80.9109 187.072 80.7309 187.004 80.577L185.064 76.1976C186.348 74.286 187.285 72.2043 187.875 70.0445L192.46 68.648C192.621 68.5996 192.734 68.4531 192.74 68.2855L192.948 62.5395V62.5407Z"
        fill="#F0F0F0" />
    <path
        d="M170.446 69.6534C169.068 70.4094 167.478 70.5844 165.97 70.1437C164.462 69.7043 163.214 68.7038 162.458 67.326C160.898 64.4821 161.94 60.9059 164.786 59.3381C167.631 57.779 171.213 58.823 172.772 61.6656C173.528 63.0434 173.702 64.6323 173.262 66.1418C172.905 67.3682 172.176 68.422 171.176 69.1792C170.946 69.353 170.702 69.5119 170.443 69.6534H170.446ZM163.821 66.5775C164.377 67.5916 165.294 68.3277 166.404 68.6504C167.514 68.9732 168.683 68.8453 169.696 68.2892C170.709 67.7319 171.445 66.8158 171.769 65.7061C172.093 64.5963 171.964 63.427 171.408 62.4141C170.26 60.3225 167.624 59.5541 165.533 60.7011C165.344 60.8054 165.167 60.9208 164.999 61.0462C163.317 62.3198 162.776 64.6733 163.82 66.5762L163.821 66.5775Z"
        fill="#89939E" />
    <path
        d="M176.331 76.1691C176.723 75.8724 177.103 75.5522 177.472 75.2108C178.203 74.5318 178.864 73.7783 179.442 72.9678C179.468 72.9318 179.492 72.8945 179.519 72.8585C179.717 72.5755 179.7 72.2056 179.501 71.9437C179.453 71.8804 179.394 71.8233 179.325 71.7748C178.972 71.5291 178.49 71.6172 178.242 71.9673C177.711 72.7294 177.096 73.4357 176.413 74.0713C176.376 74.106 176.337 74.1408 176.3 74.1755C174.67 75.6626 172.731 76.6867 170.644 77.1994C169.511 77.4774 168.334 77.6053 167.138 77.573C167.128 77.573 167.118 77.573 167.109 77.573C167.079 77.573 167.05 77.5718 167.02 77.5705C163.524 77.4427 160.287 75.963 157.905 73.401C157.596 73.0695 157.308 72.7257 157.038 72.3694C155.225 69.9737 154.298 67.0517 154.408 64.008C154.535 60.5124 156.017 57.2763 158.578 54.8943C161.138 52.5147 164.475 51.2709 167.971 51.3975C171.466 51.5241 174.704 53.005 177.086 55.567C177.388 55.8923 177.674 56.2336 177.941 56.5849C179.098 58.113 179.907 59.8769 180.306 61.7537C180.33 61.8692 180.379 61.9735 180.446 62.0616C180.622 62.2937 180.922 62.4178 181.227 62.3533C181.646 62.2627 181.916 61.8518 181.826 61.431C181.381 59.3307 180.476 57.357 179.181 55.6477C178.882 55.253 178.563 54.8719 178.224 54.5082C175.559 51.642 171.937 49.9861 168.026 49.8434C164.116 49.7018 160.384 51.0871 157.519 53.756C154.653 56.4211 152.997 60.042 152.855 63.9533C152.731 67.3583 153.769 70.6279 155.797 73.3079C156.099 73.7051 156.421 74.0911 156.767 74.4623C161.927 80.011 170.417 80.6515 176.332 76.1728L176.331 76.1691Z"
        fill="#89939E" />
    <path d="M193.132 282.851L185.53 335.304H273.713L262.227 282.851H193.132Z" fill="#455A64" />
    <path
        d="M45 114.902V271.023C45 283.865 55.2346 294.368 68.0735 294.699C125.097 296.17 324.536 299.735 378.818 298.935C388.148 298.797 395.706 291.332 395.975 282.005C397.021 245.736 398.722 158.52 392.431 118.03C391.106 109.503 383.908 103.127 375.283 102.851C327.505 101.323 116.086 96.4694 61.8297 97.6871C52.4715 97.8982 45 105.542 45 114.902Z"
        fill="#455A64" />
    <path
        d="M54.7964 114.142V262.468C54.7964 269.966 60.8155 276.076 68.313 276.188L371.008 279.928C378.441 280.04 384.535 274.059 384.562 266.625L385.068 119.624C385.088 114.308 380.853 109.953 375.539 109.823L65.6355 103.562C59.6921 103.417 54.7952 108.196 54.7952 114.142H54.7964Z"
        fill="#F5F7FA" />
    <path
        d="M386.841 286.007H386.834L54.7889 280.349C54.5568 280.345 54.373 280.154 54.3768 279.922C54.3805 279.69 54.5741 279.512 54.8038 279.508L386.848 285.166C387.081 285.17 387.264 285.361 387.261 285.593C387.257 285.823 387.069 286.007 386.841 286.007Z"
        fill="#FEDED7" />
    <path
        d="M224.094 292.917C221.958 292.917 220.22 291.179 220.22 289.043C220.22 286.906 221.958 285.169 224.094 285.169C226.23 285.169 227.968 286.906 227.968 289.043C227.968 291.179 226.23 292.917 224.094 292.917ZM224.094 286.006C222.421 286.006 221.059 287.368 221.059 289.041C221.059 290.715 222.421 292.076 224.094 292.076C225.767 292.076 227.129 290.715 227.129 289.041C227.129 287.368 225.767 286.006 224.094 286.006Z"
        fill="#FEDED7" />
    <path
        d="M292.707 349.251H163.646C160.139 349.251 157.506 346.755 158.184 344.074L159.84 337.525C160.338 335.555 162.505 334.109 165.078 334.029L289.499 330.146C292.187 330.062 294.568 331.489 295.154 333.536L298.139 343.968C298.915 346.678 296.27 349.251 292.706 349.251H292.707Z"
        fill="#455A64" />
    <path
        d="M233.122 335.802C232.894 335.802 232.706 335.618 232.702 335.388C232.699 335.156 232.884 334.966 233.116 334.963L238.447 334.884C238.669 334.884 238.869 335.067 238.873 335.298C238.877 335.53 238.692 335.72 238.46 335.724L233.128 335.802H233.122Z"
        fill="#FEDED7" />
    <path
        d="M162.963 345.639C162.941 345.639 162.918 345.638 162.896 345.634C162.668 345.598 162.511 345.382 162.547 345.154L163.308 340.39C163.716 337.83 165.894 335.946 168.486 335.907L225.035 335.081H225.041C225.269 335.081 225.457 335.264 225.461 335.494C225.464 335.726 225.279 335.916 225.047 335.92L168.498 336.746C166.316 336.779 164.481 338.366 164.137 340.521L163.376 345.285C163.343 345.491 163.165 345.639 162.963 345.639Z"
        fill="#FEDED7" />
    <g opacity="0.53">
        <path d="M230.803 124.509H222.842V264.934H230.803V124.509Z" fill="#FB8D74" />
        <path d="M244.107 124.509H236.145V264.934H244.107V124.509Z" fill="#FB8D74" />
        <path d="M257.41 124.509H249.448V264.934H257.41V124.509Z" fill="#FB8D74" />
        <path d="M270.713 124.509H262.751V264.934H270.713V124.509Z" fill="#FB8D74" />
        <path d="M284.015 124.509H276.053V264.934H284.015V124.509Z" fill="#FB8D74" />
        <path d="M297.318 124.509H289.356V264.934H297.318V124.509Z" fill="#FB8D74" />
        <path d="M310.621 124.509H302.659V264.934H310.621V124.509Z" fill="#FB8D74" />
    </g>
    <path d="M230.803 191.445H222.842V264.934H230.803V191.445Z" fill="#631503" />
    <path d="M244.107 216.702H236.145V264.934H244.107V216.702Z" fill="#631503" />
    <path d="M257.41 154.28H249.448V264.934H257.41V154.28Z" fill="#631503" />
    <path d="M270.713 238.351H262.751V264.935H270.713V238.351Z" fill="#631503" />
    <path d="M284.015 169.074H276.053V264.934H284.015V169.074Z" fill="#631503" />
    <path d="M297.318 185.671H289.356V264.934H297.318V185.671Z" fill="#631503" />
    <path d="M310.621 203.713H302.659V264.934H310.621V203.713Z" fill="#631503" />
    <path opacity="0.57"
        d="M91.5355 118.093C80.854 118.093 72.1946 126.752 72.1946 137.434C72.1946 148.115 80.854 156.775 91.5355 156.775C102.217 156.775 110.876 148.115 110.876 137.434C110.876 126.752 102.217 118.093 91.5355 118.093ZM91.5355 148.453C85.4493 148.453 80.5163 143.52 80.5163 137.434C80.5163 131.348 85.4493 126.415 91.5355 126.415C97.6216 126.415 102.555 131.348 102.555 137.434C102.555 143.52 97.6216 148.453 91.5355 148.453Z"
        fill="#FB8D74" />
    <mask id="mask0_375_1877" style="mask-type:luminance" maskUnits="userSpaceOnUse" x="72" y="118" width="39"
        height="39">
        <path
            d="M91.5355 118.093C80.854 118.093 72.1946 126.752 72.1946 137.434C72.1946 148.115 80.854 156.775 91.5355 156.775C102.217 156.775 110.876 148.115 110.876 137.434C110.876 126.752 102.217 118.093 91.5355 118.093ZM91.5355 148.453C85.4493 148.453 80.5163 143.52 80.5163 137.434C80.5163 131.348 85.4493 126.415 91.5355 126.415C97.6216 126.415 102.555 131.348 102.555 137.434C102.555 143.52 97.6216 148.453 91.5355 148.453Z"
            fill="white" />
    </mask>
    <g mask="url(#mask0_375_1877)">
        <path d="M121.979 133.18H64.5256V157.494H121.979V133.18Z" fill="#B22506" />
    </g>
    <path opacity="0.57"
        d="M138.683 118.093C128.001 118.093 119.342 126.752 119.342 137.434C119.342 148.115 128.001 156.775 138.683 156.775C149.364 156.775 158.024 148.115 158.024 137.434C158.024 126.752 149.364 118.093 138.683 118.093ZM138.683 148.453C132.597 148.453 127.664 143.52 127.664 137.434C127.664 131.348 132.597 126.415 138.683 126.415C144.769 126.415 149.702 131.348 149.702 137.434C149.702 143.52 144.769 148.453 138.683 148.453Z"
        fill="#FB8D74" />
    <mask id="mask1_375_1877" style="mask-type:luminance" maskUnits="userSpaceOnUse" x="119" y="118" width="40"
        height="39">
        <path
            d="M138.683 118.093C128.001 118.093 119.342 126.752 119.342 137.434C119.342 148.115 128.001 156.775 138.683 156.775C149.364 156.775 158.024 148.115 158.024 137.434C158.024 126.752 149.364 118.093 138.683 118.093ZM138.683 148.453C132.597 148.453 127.664 143.52 127.664 137.434C127.664 131.348 132.597 126.415 138.683 126.415C144.769 126.415 149.702 131.348 149.702 137.434C149.702 143.52 144.769 148.453 138.683 148.453Z"
            fill="white" />
    </mask>
    <g mask="url(#mask1_375_1877)">
        <path d="M169.126 123.783H111.673V157.495H169.126V123.783Z" fill="#B22506" />
    </g>
    <path opacity="0.57"
        d="M185.832 118.093C175.15 118.093 166.491 126.752 166.491 137.434C166.491 148.115 175.15 156.775 185.832 156.775C196.513 156.775 205.172 148.115 205.172 137.434C205.172 126.752 196.513 118.093 185.832 118.093ZM185.832 148.453C179.745 148.453 174.812 143.52 174.812 137.434C174.812 131.348 179.745 126.415 185.832 126.415C191.918 126.415 196.851 131.348 196.851 137.434C196.851 143.52 191.918 148.453 185.832 148.453Z"
        fill="#FB8D74" />
    <mask id="mask2_375_1877" style="mask-type:luminance" maskUnits="userSpaceOnUse" x="166" y="118" width="40"
        height="39">
        <path
            d="M185.832 118.093C175.15 118.093 166.491 126.752 166.491 137.434C166.491 148.115 175.15 156.775 185.832 156.775C196.513 156.775 205.172 148.115 205.172 137.434C205.172 126.752 196.513 118.093 185.832 118.093ZM185.832 148.453C179.745 148.453 174.812 143.52 174.812 137.434C174.812 131.348 179.745 126.415 185.832 126.415C191.918 126.415 196.851 131.348 196.851 137.434C196.851 143.52 191.918 148.453 185.832 148.453Z"
            fill="white" />
    </mask>
    <g mask="url(#mask2_375_1877)">
        <path d="M216.275 145.337H158.822V157.493H216.275V145.337Z" fill="#B22506" />
    </g>
    <path opacity="0.44"
        d="M200.684 265.711L76.6174 264.779C74.1695 264.76 72.1958 262.772 72.1958 260.324V196.58C72.1958 194.12 74.1906 192.125 76.6509 192.125H200.719C203.179 192.125 205.174 194.12 205.174 196.58V261.256C205.174 263.73 203.159 265.73 200.685 265.711H200.684Z"
        fill="#FB8D74" />
    <path opacity="0.44"
        d="M181.44 220.905L165.487 204.038L142.612 228.919L126.471 211.502L111.333 228.614L99.7243 214.511L76.8457 238.33V255.555C76.8457 257.831 78.6816 259.682 80.9582 259.698L196.349 260.565C198.649 260.582 200.524 258.721 200.524 256.421V209.563L181.441 220.905H181.44Z"
        fill="#FB8D74" />
    <path d="M181.956 220.437H181.537V260.566H181.956V220.437Z" fill="#FB8D74" />
    <path d="M165.695 204.038H165.276V260.334H165.695V204.038Z" fill="#FB8D74" />
    <path d="M142.82 228.615H142.401V260.161H142.82V228.615Z" fill="#FB8D74" />
    <path d="M127.108 212.119H126.688V260.161H127.108V212.119Z" fill="#FB8D74" />
    <path d="M111.54 228.103H111.121V260.161H111.54V228.103Z" fill="#FB8D74" />
    <path d="M100.177 213.315H99.7578V259.855H100.177V213.315Z" fill="#FB8D74" />
    <path
        d="M103.207 214.657C103.948 212.869 103.098 210.818 101.31 210.077C99.5209 209.336 97.4703 210.186 96.7294 211.974C95.9885 213.763 96.8379 215.814 98.6266 216.554C100.415 217.295 102.466 216.446 103.207 214.657Z"
        fill="#FEBBBA" />
    <path
        d="M113.641 228.103C113.641 229.378 112.607 230.412 111.332 230.412C110.057 230.412 109.023 229.378 109.023 228.103C109.023 226.828 110.057 225.794 111.332 225.794C112.607 225.794 113.641 226.828 113.641 228.103Z"
        fill="#FEBBBA" />
    <path
        d="M129.207 212.119C129.207 213.393 128.173 214.427 126.898 214.427C125.623 214.427 124.589 213.393 124.589 212.119C124.589 210.844 125.623 209.81 126.898 209.81C128.173 209.81 129.207 210.844 129.207 212.119Z"
        fill="#FEBBBA" />
    <path
        d="M144.919 228.615C144.919 229.889 143.885 230.923 142.61 230.923C141.336 230.923 140.302 229.889 140.302 228.615C140.302 227.34 141.336 226.306 142.61 226.306C143.885 226.306 144.919 227.34 144.919 228.615Z"
        fill="#FEBBBA" />
    <path
        d="M167.795 204.038C167.795 205.313 166.761 206.347 165.487 206.347C164.212 206.347 163.178 205.313 163.178 204.038C163.178 202.763 164.212 201.729 165.487 201.729C166.761 201.729 167.795 202.763 167.795 204.038Z"
        fill="#FEBBBA" />
    <path
        d="M184.057 220.437C184.057 221.712 183.023 222.746 181.748 222.746C180.473 222.746 179.439 221.712 179.439 220.437C179.439 219.162 180.473 218.128 181.748 218.128C183.023 218.128 184.057 219.162 184.057 220.437Z"
        fill="#631503" />
    <g opacity="0.48">
        <path
            d="M108.044 181.513H74.033C72.6105 181.513 71.4573 182.316 71.4573 183.307C71.4573 184.297 72.6105 185.1 74.033 185.1H108.044C109.466 185.1 110.619 184.297 110.619 183.307C110.619 182.316 109.466 181.513 108.044 181.513Z"
            fill="#FB8D74" />
        <path
            d="M108.044 173.568H74.033C72.6105 173.568 71.4573 174.372 71.4573 175.362C71.4573 176.353 72.6105 177.156 74.033 177.156H108.044C109.466 177.156 110.619 176.353 110.619 175.362C110.619 174.372 109.466 173.568 108.044 173.568Z"
            fill="#FB8D74" />
        <path
            d="M108.044 165.625H74.033C72.6105 165.625 71.4573 166.428 71.4573 167.419C71.4573 168.41 72.6105 169.213 74.033 169.213H108.044C109.466 169.213 110.619 168.41 110.619 167.419C110.619 166.428 109.466 165.625 108.044 165.625Z"
            fill="#FB8D74" />
    </g>
    <g opacity="0.48">
        <path
            d="M155.32 181.513H121.31C119.887 181.513 118.734 182.316 118.734 183.307C118.734 184.297 119.887 185.1 121.31 185.1H155.32C156.743 185.1 157.896 184.297 157.896 183.307C157.896 182.316 156.743 181.513 155.32 181.513Z"
            fill="#FB8D74" />
        <path
            d="M155.32 173.568H121.31C119.887 173.568 118.734 174.372 118.734 175.362C118.734 176.353 119.887 177.156 121.31 177.156H155.32C156.743 177.156 157.896 176.353 157.896 175.362C157.896 174.372 156.743 173.568 155.32 173.568Z"
            fill="#FB8D74" />
        <path
            d="M155.32 165.625H121.31C119.887 165.625 118.734 166.428 118.734 167.419C118.734 168.41 119.887 169.213 121.31 169.213H155.32C156.743 169.213 157.896 168.41 157.896 167.419C157.896 166.428 156.743 165.625 155.32 165.625Z"
            fill="#FB8D74" />
    </g>
    <g opacity="0.48">
        <path
            d="M202.597 181.513H168.586C167.164 181.513 166.01 182.316 166.01 183.307C166.01 184.297 167.164 185.1 168.586 185.1H202.597C204.019 185.1 205.173 184.297 205.173 183.307C205.173 182.316 204.019 181.513 202.597 181.513Z"
            fill="#FB8D74" />
        <path
            d="M202.597 173.568H168.586C167.164 173.568 166.01 174.372 166.01 175.362C166.01 176.353 167.164 177.156 168.586 177.156H202.597C204.019 177.156 205.173 176.353 205.173 175.362C205.173 174.372 204.019 173.568 202.597 173.568Z"
            fill="#FB8D74" />
        <path
            d="M202.597 165.625H168.586C167.164 165.625 166.01 166.428 166.01 167.419C166.01 168.41 167.164 169.213 168.586 169.213H202.597C204.019 169.213 205.173 168.41 205.173 167.419C205.173 166.428 204.019 165.625 202.597 165.625Z"
            fill="#FB8D74" />
    </g>
    <path
        d="M357.619 200.107C363.765 193.961 363.765 183.996 357.619 177.851C351.473 171.705 341.509 171.705 335.363 177.851C329.217 183.996 329.217 193.961 335.363 200.107C341.509 206.252 351.473 206.252 357.619 200.107Z"
        fill="#B22506" />
    <path
        d="M355.842 185.651C356.328 186.836 356.599 188.133 356.599 189.492C356.599 195.074 352.073 199.6 346.491 199.6C340.909 199.6 336.383 195.074 336.383 189.492C336.383 183.91 340.909 179.384 346.491 179.384C346.662 179.384 346.832 179.389 347.001 179.396V176.834C346.832 176.828 346.662 176.823 346.491 176.823C339.494 176.823 333.822 182.495 333.822 189.492C333.822 196.489 339.494 202.161 346.491 202.161C353.488 202.161 359.16 196.489 359.16 189.492C359.16 187.769 358.815 186.127 358.193 184.63L355.842 185.651Z"
        fill="#FEDED7" />
    <path opacity="0.5"
        d="M359.427 211.38H333.783C332.173 211.38 330.868 212.685 330.868 214.295C330.868 215.905 332.173 217.209 333.783 217.209H359.427C361.037 217.209 362.341 215.905 362.341 214.295C362.341 212.685 361.037 211.38 359.427 211.38Z"
        fill="#FB8D74" />
    <path
        d="M357.552 149.527C363.698 143.381 363.698 133.416 357.552 127.271C351.407 121.125 341.442 121.125 335.296 127.271C329.151 133.416 329.151 143.381 335.296 149.527C341.442 155.672 351.407 155.672 357.552 149.527Z"
        fill="#B22506" />
    <path
        d="M351.773 147.465C350.214 148.449 348.368 149.022 346.387 149.022C340.805 149.022 336.279 144.496 336.279 138.914C336.279 133.331 340.805 128.806 346.387 128.806C346.558 128.806 346.728 128.811 346.897 128.818V126.256C346.728 126.25 346.558 126.245 346.387 126.245C339.39 126.245 333.718 131.916 333.718 138.914C333.718 145.911 339.39 151.582 346.387 151.582C348.829 151.582 351.109 150.891 353.043 149.694L351.773 147.466V147.465Z"
        fill="#FEDED7" />
    <path opacity="0.5"
        d="M359.494 160.8H333.849C332.239 160.8 330.935 162.105 330.935 163.715C330.935 165.325 332.239 166.63 333.849 166.63H359.494C361.104 166.63 362.408 165.325 362.408 163.715C362.408 162.105 361.104 160.8 359.494 160.8Z"
        fill="#FB8D74" />
    <path opacity="0.91"
        d="M357.675 250.942C363.821 244.797 363.821 234.832 357.675 228.686C351.529 222.541 341.565 222.541 335.419 228.686C329.273 234.832 329.273 244.797 335.419 250.942C341.565 257.088 351.529 257.088 357.675 250.942Z"
        fill="#FB8D74" />
    <path
        d="M355.118 245.499C353.298 248.17 350.234 249.924 346.759 249.924C341.177 249.924 336.651 245.398 336.651 239.816C336.651 234.234 341.177 229.708 346.759 229.708C346.93 229.708 347.101 229.713 347.269 229.72V227.158C347.101 227.152 346.93 227.147 346.759 227.147C339.762 227.147 334.09 232.819 334.09 239.816C334.09 246.813 339.762 252.485 346.759 252.485C351.088 252.485 354.908 250.314 357.194 247.002L355.118 245.5V245.499Z"
        fill="#FDF53F" />
    <path opacity="0.5"
        d="M333.725 267.532H359.37C360.98 267.532 362.284 266.227 362.284 264.617C362.284 263.007 360.98 261.703 359.37 261.703H333.725C332.115 261.703 330.811 263.007 330.811 264.617C330.811 266.227 332.115 267.532 333.725 267.532Z"
        fill="#FB8D74" />
    <path
        d="M351.976 353.296C351.976 353.296 352.655 357.14 352.988 360.947C353.118 362.434 351.971 363.726 350.479 363.788C345.411 363.999 334.57 364.41 330.679 364.236C330.095 364.21 329.712 363.612 329.928 363.067C330.109 362.612 330.46 362.243 330.905 362.038L348.814 353.807L351.976 353.296Z"
        fill="#455A64" />
    <path
        d="M352.532 351.036L351.986 355.635C351.986 355.635 348.85 357.095 346.707 355.452L348.007 350.326L352.532 351.036Z"
        fill="#FEBBBA" />
    <path
        d="M352.123 264.574C352.359 265.776 353.388 324.507 347.111 350.827C347.008 351.256 347.226 351.699 347.634 351.866C348.598 352.259 350.484 352.829 352.747 352.905C353.447 352.928 354.076 352.473 354.274 351.8C356.069 345.694 364.668 315.098 365.79 285.871C367.044 253.212 365.79 284.759 365.79 284.759L365.055 264.572L352.124 264.574H352.123Z"
        fill="#631503" />
    <path
        d="M372.577 355.302C372.577 355.302 373.658 357.243 374.705 362.401C374.894 363.332 374.243 364.224 373.297 364.317C371.624 364.482 369.047 364.693 366.984 364.68C366.033 364.673 365.289 363.844 365.405 362.9C365.633 361.017 366.346 357.928 368.545 355.521L372.577 355.303V355.302Z"
        fill="#455A64" />
    <path
        d="M373.527 349.385L372.252 356.341C372.252 356.341 370.991 357.278 368.497 356.599L369.105 349.116L373.526 349.387L373.527 349.385Z"
        fill="#FEBBBA" />
    <path
        d="M376.971 266.376C382.106 297.363 375.858 342.964 373.75 351.889C373.621 352.435 373.181 352.854 372.627 352.946C371.686 353.102 370.138 353.229 368.611 352.785C368.085 352.633 367.716 352.159 367.694 351.611C367.411 344.395 367.92 300.098 363.136 282.592C362.894 281.704 362.351 280.931 361.602 280.398L352.315 273.797L351.603 263.127L376.97 266.378L376.971 266.376Z"
        fill="#631503" />
    <path
        d="M344.254 207.661C359.642 207.407 376.619 211.702 376.619 211.702C381.206 238.464 377.421 269.333 377.421 269.333C365.508 272.458 352.071 267.423 352.071 267.423C350.091 256.236 340.853 224.755 340.853 224.755C333.334 223.822 327.142 221.653 322.041 218.786C325.931 214.276 327.766 208.538 328.562 205.146C334.002 206.837 339.508 207.741 344.253 207.661H344.254Z"
        fill="#F84018" />
    <path
        d="M298.802 184.997C300.314 183.171 302.227 184.035 302.227 184.035C304.491 193.6 316.365 201.355 328.563 205.146C327.766 208.539 325.933 214.276 322.042 218.786C301.799 207.404 298.804 184.997 298.804 184.997H298.802Z"
        fill="#FEBBBA" />
    <path
        d="M299.17 185.462C299.012 185.964 300.843 186.73 301.922 184.673C301.959 183.688 302.559 179.465 301.97 178.663C298.833 174.387 292.752 169.027 292.752 169.027C291.724 170.041 292.571 171.038 292.571 171.038L295.522 174.111C294.905 175.226 294.152 176.168 293.799 177.516C293.532 178.538 293.694 179.629 294.211 180.558C294.728 181.492 295.435 182.705 296.102 183.653C297.366 185.449 299.17 185.463 299.17 185.463V185.462Z"
        fill="#FEBBBA" />
    <path
        d="M296.811 176.103L299.5 178.382L300.344 180.651L297.947 183.31C297.947 183.31 297.141 178.808 296.542 177.834C295.942 176.859 296.254 176.389 296.811 176.103Z"
        fill="#FEBBBA" />
    <path
        d="M370.717 226.601L376.619 211.702C376.619 211.702 390.991 221.467 393.356 233.849C390.64 234.049 385.698 234.755 380.862 237.198C379.799 231.352 370.718 226.602 370.718 226.602L370.717 226.601Z"
        fill="#F84018" />
    <path
        d="M358.157 240.62C358.157 240.62 374.294 249.74 379.738 241.952C380.869 240.335 381.139 238.729 380.861 237.197C385.698 234.754 390.64 234.048 393.354 233.848C394.067 237.581 393.691 241.55 391.497 245.562C381.96 263.009 356.021 244.598 356.021 244.598L358.156 240.619L358.157 240.62Z"
        fill="#FEBBBA" />
    <path
        d="M360.096 252.159L351.289 221.404C351.188 221.055 350.892 220.8 350.53 220.758C348.935 220.572 344.311 220.049 338.972 219.598C332.542 219.054 325.075 218.613 320.612 218.988C319.978 219.042 319.594 219.712 319.876 220.283C322.413 225.417 332.852 246.3 338.079 253.14C338.251 253.368 338.519 253.499 338.805 253.497L359.238 253.307C359.833 253.302 360.258 252.731 360.095 252.16L360.096 252.159Z"
        fill="#455A64" />
    <path
        d="M338.06 216.93L331.675 215.866C331.335 215.809 331.057 216.134 331.165 216.462L331.796 218.377C331.851 218.544 331.997 218.665 332.171 218.688L338.316 219.508C338.633 219.551 338.895 219.263 338.822 218.95L338.431 217.278C338.389 217.098 338.242 216.96 338.06 216.93Z"
        fill="#455A64" />
    <path
        d="M342.84 222.336L342.314 219.596C342.261 219.322 342.035 219.114 341.755 219.086L328.859 217.778C328.425 217.733 328.077 218.132 328.179 218.556L329 221.97C329.066 222.243 329.303 222.44 329.583 222.454L342.185 223.088C342.595 223.109 342.916 222.739 342.839 222.336H342.84Z"
        fill="#455A64" />
    <path
        d="M357.968 244.728C357.968 244.728 359.195 239.683 358.701 237.893C358.205 236.103 357.247 233.802 354.051 234.313C350.854 234.825 347.084 236.172 347.084 236.172C347.084 236.172 347.274 238.503 349.704 237.751L348.198 238.916C348.198 238.916 348.413 240.783 350.465 239.785L349.063 241.331C349.063 241.331 349.944 242.864 351.454 241.88C352.963 240.897 353.687 245.335 357.967 244.727L357.968 244.728Z"
        fill="#FEBBBA" />
    <path
        d="M359.84 195.17L364.736 209.328C364.816 209.563 364.721 209.822 364.504 209.943C363.169 210.68 358.36 212.814 352.566 209.14C351.963 208.757 351.552 208.133 351.46 207.424L349.875 195.17H359.84Z"
        fill="#FEBBBA" />
    <path
        d="M348.879 180.545C348.732 180.75 344.131 196.786 344.131 196.786L353.344 199.219L359.963 184.667C359.963 184.667 351.348 177.116 348.879 180.545Z"
        fill="#FEBBBA" />
    <path
        d="M356.304 185.743C356.529 186.103 356.577 186.544 356.431 186.944L353.589 194.763C353.545 194.882 353.488 194.992 353.414 195.094C353.004 195.656 351.556 197.342 349.875 195.756C348.442 194.403 347.108 193.18 345.859 192.811C345.13 192.595 344.37 193.029 344.162 193.76C343.737 195.265 342.938 198.323 342.611 201.138C342.529 201.844 343.01 202.491 343.707 202.628C345.546 202.988 349.16 203.584 352.232 203.416C352.737 203.389 353.183 203.087 353.398 202.629C354.342 200.616 357.015 194.985 358.013 193.512C358.941 192.142 361.147 192.162 362.158 192.252C362.541 192.285 362.917 192.16 363.204 191.903C364.062 191.129 365.472 189.346 363.445 187.182C362.941 186.645 362.979 185.789 363.507 185.274C364.453 184.351 365.369 182.785 363.828 180.835C362.269 178.862 360.205 179.058 358.859 179.493C358.264 179.686 357.582 179.486 357.237 178.963C357.084 178.731 356.836 178.555 356.438 178.551C355.687 178.545 355.083 177.975 355.085 177.224C355.087 175.936 354.592 174.359 352.398 173.654C348.377 172.361 345.824 176.235 345.548 179.141C345.271 182.047 349.712 183.201 352.331 183.029C354.255 182.902 355.683 184.752 356.305 185.743H356.304Z"
        fill="#455A64" />
    <path
        d="M356.934 196.389C356.934 196.389 357.633 191.347 359.736 191.118C361.839 190.891 363.867 192.635 361.752 195.45C359.121 198.951 356.934 196.389 356.934 196.389Z"
        fill="#FEBBBA" />
</svg>