<svg width="353" height="264" viewBox="0 0 353 264" fill="none" xmlns="http://www.w3.org/2000/svg">
    <path
        d="M63.1545 127.814C63.4435 127.814 63.6772 128.048 63.6772 128.337V132.525C63.6772 132.813 63.4435 133.048 63.1545 133.048C62.8655 133.048 62.6318 132.813 62.6318 132.525V128.337C62.6318 128.048 62.8655 127.814 63.1545 127.814Z"
        fill="#E0F0FF" />
    <path
        d="M63.3603 146.207C63.6485 146.207 63.883 145.973 63.883 145.684V141.496C63.883 141.208 63.6485 140.973 63.3603 140.973C63.0721 140.973 62.8376 141.208 62.8376 141.496V145.684C62.8376 145.973 63.0713 146.207 63.3603 146.207Z"
        fill="#E0F0FF" />
    <path
        d="M69.561 130.398C69.7726 130.595 69.7857 130.925 69.5895 131.138L66.7456 134.213C66.5502 134.424 66.2197 134.437 66.0072 134.241C65.7955 134.045 65.7825 133.714 65.9787 133.503L68.8217 130.428C69.0179 130.216 69.3485 130.203 69.561 130.398Z"
        fill="#E0F0FF" />
    <path
        d="M56.9537 130.234C56.7421 130.43 56.729 130.761 56.9252 130.973L59.7682 134.048C59.9645 134.26 60.295 134.273 60.5075 134.077C60.7192 133.881 60.7322 133.55 60.536 133.338L57.6922 130.263C57.4968 130.052 57.1662 130.039 56.9537 130.234Z"
        fill="#E0F0FF" />
    <path
        d="M69.7662 143.623C69.9787 143.426 69.9917 143.096 69.7955 142.883L66.9517 139.808C66.7563 139.597 66.4249 139.584 66.2133 139.78C66.0016 139.976 65.9886 140.307 66.1848 140.518L69.0278 143.593C69.224 143.805 69.5545 143.818 69.7662 143.623Z"
        fill="#E0F0FF" />
    <path
        d="M56.7479 143.458C56.5362 143.262 56.5232 142.931 56.7194 142.719L59.5632 139.644C59.7586 139.432 60.0892 139.419 60.3017 139.615C60.5134 139.812 60.5264 140.142 60.3302 140.354L57.4872 143.429C57.291 143.641 56.9604 143.654 56.7479 143.458Z"
        fill="#E0F0FF" />
    <path
        d="M72.5244 137.009C72.5244 137.298 72.2907 137.532 72.0017 137.532L67.8137 137.535C67.5255 137.535 67.291 137.301 67.291 137.012C67.291 136.723 67.5247 136.489 67.8129 136.489L72.0017 136.487C72.2899 136.487 72.5244 136.72 72.5244 137.009Z"
        fill="#E0F0FF" />
    <path
        d="M53.9902 136.845C53.9902 137.133 54.2239 137.368 54.5121 137.368L58.7009 137.37C58.9891 137.37 59.2236 137.136 59.2236 136.847C59.2236 136.558 58.9899 136.325 58.7009 136.325L54.5129 136.322C54.2239 136.322 53.9902 136.556 53.9902 136.845Z"
        fill="#E0F0FF" />
    <path
        d="M255.84 12.3167C256.129 12.3167 256.363 12.5511 256.363 12.8393V17.0273C256.363 17.3155 256.129 17.55 255.84 17.55C255.551 17.55 255.317 17.3155 255.317 17.0273V12.8393C255.317 12.5511 255.552 12.3167 255.84 12.3167Z"
        fill="#F0F0F0" />
    <path
        d="M256.046 30.7099C256.335 30.7099 256.569 30.4754 256.569 30.1872V25.9992C256.569 25.711 256.335 25.4766 256.046 25.4766C255.757 25.4766 255.523 25.711 255.523 25.9992V30.1872C255.523 30.4754 255.758 30.7099 256.046 30.7099Z"
        fill="#F0F0F0" />
    <path
        d="M262.247 14.9016C262.458 15.0978 262.471 15.4283 262.275 15.64L259.432 18.715C259.236 18.9267 258.905 18.9397 258.694 18.7435C258.481 18.5473 258.468 18.2168 258.664 18.0051L261.508 14.9301C261.704 14.7184 262.035 14.7053 262.247 14.9016Z"
        fill="#F0F0F0" />
    <path
        d="M249.64 14.7371C249.428 14.9333 249.414 15.2639 249.611 15.4756L252.455 18.5506C252.65 18.7623 252.981 18.7753 253.193 18.5791C253.405 18.3829 253.418 18.0523 253.221 17.8407L250.378 14.7656C250.182 14.5539 249.852 14.5409 249.64 14.7371Z"
        fill="#F0F0F0" />
    <path
        d="M262.452 28.125C262.664 27.9288 262.677 27.5982 262.481 27.3866L259.638 24.3115C259.442 24.0998 259.111 24.0868 258.899 24.283C258.687 24.4792 258.674 24.8098 258.87 25.0215L261.714 28.0965C261.909 28.3082 262.24 28.3212 262.452 28.125Z"
        fill="#F0F0F0" />
    <path
        d="M249.434 27.9606C249.222 27.7644 249.209 27.4338 249.405 27.2221L252.249 24.1471C252.445 23.9354 252.775 23.9224 252.987 24.1186C253.199 24.3148 253.212 24.6454 253.016 24.857L250.173 27.9321C249.976 28.1438 249.646 28.1568 249.434 27.9614V27.9606Z"
        fill="#F0F0F0" />
    <path
        d="M265.21 21.5125C265.21 21.8015 264.976 22.0352 264.688 22.0352L260.499 22.0376C260.211 22.0376 259.977 21.8039 259.977 21.5149C259.977 21.2259 260.21 20.9922 260.499 20.9922L264.687 20.9906C264.976 20.9906 265.21 21.2243 265.21 21.5133V21.5125Z"
        fill="#F0F0F0" />
    <path
        d="M246.676 21.3472C246.676 21.6354 246.909 21.8699 247.198 21.8699L251.386 21.8723C251.675 21.8723 251.909 21.6387 251.909 21.3496C251.91 21.0606 251.675 20.8269 251.387 20.8269L247.198 20.8253C246.91 20.8253 246.676 21.059 246.676 21.348V21.3472Z"
        fill="#F0F0F0" />
    <path
        d="M300.333 190.064C300.622 190.064 300.856 190.299 300.856 190.587V194.776C300.856 195.064 300.622 195.298 300.333 195.298C300.044 195.298 299.811 195.064 299.811 194.776V190.587C299.811 190.299 300.045 190.064 300.333 190.064Z"
        fill="#E0F0FF" />
    <path
        d="M300.539 208.458C300.828 208.458 301.062 208.224 301.062 207.935V203.747C301.062 203.458 300.828 203.224 300.539 203.224C300.25 203.224 300.017 203.458 300.017 203.747V207.935C300.017 208.224 300.251 208.458 300.539 208.458Z"
        fill="#E0F0FF" />
    <path
        d="M306.74 192.649C306.952 192.845 306.965 193.176 306.768 193.388L303.925 196.463C303.729 196.675 303.399 196.688 303.187 196.492C302.974 196.296 302.961 195.965 303.158 195.754L306.001 192.678C306.197 192.466 306.528 192.453 306.74 192.649Z"
        fill="#E0F0FF" />
    <path
        d="M294.133 192.485C293.921 192.681 293.908 193.011 294.104 193.223L296.948 196.298C297.143 196.511 297.475 196.523 297.686 196.328C297.898 196.131 297.911 195.801 297.715 195.589L294.872 192.514C294.676 192.302 294.345 192.289 294.133 192.485Z"
        fill="#E0F0FF" />
    <path
        d="M306.946 205.873C307.157 205.677 307.17 205.346 306.974 205.134L304.131 202.059C303.935 201.847 303.604 201.834 303.392 202.031C303.18 202.226 303.167 202.557 303.363 202.769L306.207 205.844C306.403 206.056 306.733 206.069 306.946 205.873Z"
        fill="#E0F0FF" />
    <path
        d="M293.928 205.708C293.715 205.512 293.703 205.181 293.898 204.97L296.742 201.895C296.938 201.683 297.269 201.67 297.48 201.866C297.692 202.062 297.705 202.392 297.51 202.605L294.666 205.68C294.47 205.891 294.139 205.904 293.928 205.708Z"
        fill="#E0F0FF" />
    <path
        d="M309.703 199.26C309.703 199.548 309.469 199.783 309.181 199.783L304.992 199.784C304.704 199.785 304.47 199.551 304.47 199.262C304.47 198.974 304.703 198.74 304.992 198.739L309.18 198.737C309.469 198.737 309.703 198.971 309.703 199.26Z"
        fill="#E0F0FF" />
    <path
        d="M291.169 199.096C291.169 199.384 291.403 199.618 291.692 199.618L295.88 199.62C296.169 199.621 296.403 199.386 296.403 199.098C296.403 198.809 296.169 198.575 295.881 198.575L291.692 198.573C291.404 198.573 291.169 198.807 291.169 199.096Z"
        fill="#E0F0FF" />
    <path
        d="M130.069 26.4772C130.358 26.4772 130.591 26.7108 130.591 26.9999V31.1878C130.591 31.476 130.358 31.7105 130.069 31.7105C129.78 31.7105 129.546 31.4769 129.546 31.1878V26.9999C129.546 26.7116 129.78 26.4772 130.069 26.4772Z"
        fill="#F0F0F0" />
    <path
        d="M130.275 44.8704C130.563 44.8704 130.797 44.6368 130.797 44.3478V40.1598C130.797 39.8716 130.563 39.6371 130.275 39.6371C129.986 39.6371 129.752 39.8707 129.752 40.1598V44.3478C129.752 44.6368 129.986 44.8704 130.275 44.8704Z"
        fill="#F0F0F0" />
    <path
        d="M136.475 29.062C136.687 29.2582 136.7 29.5888 136.504 29.8004L133.66 32.8755C133.464 33.0872 133.134 33.1002 132.921 32.9048C132.71 32.7086 132.697 32.378 132.893 32.1664L135.736 29.0913C135.932 28.8796 136.263 28.8666 136.475 29.0628V29.062Z"
        fill="#F0F0F0" />
    <path
        d="M123.868 28.8976C123.656 29.0938 123.643 29.4243 123.84 29.636L126.683 32.711C126.879 32.9227 127.209 32.9358 127.422 32.7404C127.633 32.5441 127.646 32.2136 127.45 32.0019L124.606 28.9269C124.411 28.7152 124.081 28.7022 123.868 28.8984V28.8976Z"
        fill="#F0F0F0" />
    <path
        d="M136.68 42.2855C136.893 42.0893 136.906 41.7588 136.71 41.5471L133.866 38.472C133.67 38.2604 133.339 38.2473 133.127 38.4427C132.916 38.6389 132.903 38.9695 133.099 39.1812L135.942 42.2562C136.138 42.4679 136.469 42.4809 136.68 42.2847V42.2855Z"
        fill="#F0F0F0" />
    <path
        d="M123.662 42.1211C123.45 41.9249 123.437 41.5943 123.633 41.3827L126.477 38.3076C126.673 38.0959 127.003 38.0829 127.216 38.2783C127.427 38.4745 127.44 38.8051 127.244 39.0167L124.401 42.0918C124.205 42.3035 123.874 42.3165 123.662 42.1203V42.1211Z"
        fill="#F0F0F0" />
    <path
        d="M139.438 35.6721C139.438 35.9612 139.205 36.1948 138.916 36.1948L134.728 36.1973C134.44 36.1973 134.205 35.9636 134.205 35.6746C134.205 35.3856 134.439 35.1519 134.727 35.1519L138.916 35.1503C139.204 35.1503 139.438 35.3839 139.438 35.673V35.6721Z"
        fill="#F0F0F0" />
    <path
        d="M120.905 35.5078C120.905 35.796 121.138 36.0305 121.426 36.0305L125.615 36.0321C125.903 36.0321 126.138 35.7984 126.138 35.5094C126.138 35.2204 125.904 34.9867 125.615 34.9867L121.427 34.9851C121.138 34.9851 120.905 35.2188 120.905 35.5078Z"
        fill="#F0F0F0" />
    <path
        d="M43.5455 88.2947C42.7403 87.483 41.4311 87.4773 40.6194 88.2817L30.6917 98.1264C29.88 98.9307 29.8743 100.24 30.6786 101.052L40.5233 110.98C41.3277 111.792 42.6385 111.798 43.4494 110.994L53.3779 101.149C54.1896 100.345 54.1945 99.0341 53.3893 98.2232L43.5455 88.2947ZM43.3248 89.9556L51.726 98.4292C52.4132 99.1221 52.4083 100.241 51.7155 100.928L43.2418 109.33C42.5489 110.016 41.4311 110.011 40.744 109.319L32.3419 100.845C31.6548 100.152 31.6597 99.0341 32.3525 98.347L40.8262 89.945C41.519 89.2578 42.6377 89.2627 43.3248 89.9556Z"
        fill="#F0F0F0" />
    <path
        d="M317.403 150.872C316.598 150.06 315.289 150.054 314.477 150.86L304.549 160.704C303.737 161.509 303.732 162.818 304.536 163.63L314.381 173.557C315.185 174.369 316.496 174.376 317.308 173.571L327.235 163.727C328.047 162.922 328.052 161.612 327.247 160.8L317.403 150.872ZM317.182 152.534L325.584 161.007C326.271 161.7 326.266 162.818 325.573 163.505L317.099 171.907C316.406 172.594 315.289 172.589 314.601 171.896L306.199 163.423C305.512 162.73 305.517 161.611 306.21 160.924L314.684 152.522C315.376 151.836 316.495 151.841 317.182 152.534Z"
        fill="#F0F0F0" />
    <path
        d="M280.241 33.4618C279.285 32.8357 278.004 33.1027 277.377 34.0594L269.718 45.7563C269.092 46.7121 269.36 47.9944 270.316 48.6204L282.013 56.2791C282.969 56.9052 284.252 56.639 284.878 55.6824L292.537 43.9855C293.163 43.0297 292.894 41.7466 291.939 41.1205L280.241 33.4618ZM280.371 35.1324L290.355 41.6692C291.171 42.2033 291.4 43.2983 290.865 44.1149L284.328 54.098C283.794 54.9146 282.699 55.1426 281.883 54.6085L271.899 48.0717C271.083 47.5376 270.854 46.4426 271.389 45.626L277.926 35.6429C278.46 34.8271 279.555 34.5983 280.371 35.1324Z"
        fill="#F0F0F0" />
    <path
        d="M156.749 7.41141C155.944 6.59971 154.635 6.59401 153.823 7.3992L143.895 17.2431C143.084 18.0483 143.078 19.3566 143.882 20.1683L153.727 30.0969C154.531 30.9086 155.842 30.9151 156.654 30.1107L166.582 20.2668C167.393 19.4616 167.398 18.1517 166.593 17.34L156.749 7.41141ZM156.528 9.07228L164.93 17.5459C165.617 18.2388 165.612 19.3566 164.919 20.0438L156.445 28.4458C155.753 29.1329 154.635 29.128 153.948 28.4352L145.546 19.9615C144.858 19.2687 144.863 18.15 145.556 17.4637L154.03 9.06169C154.723 8.37455 155.841 8.37944 156.528 9.07228Z"
        fill="#F0F0F0" />
    <path
        d="M53.9913 162.215C50.33 162.215 47.3608 165.182 47.3608 168.843C47.3608 172.505 50.33 175.474 53.9913 175.474C57.6525 175.474 60.6193 172.505 60.6193 168.843C60.6193 165.182 57.6525 162.215 53.9913 162.215ZM53.9913 165.271C55.9648 165.271 57.5638 166.871 57.5638 168.843C57.5638 170.816 55.9648 172.416 53.9913 172.416C52.0178 172.416 50.4188 170.817 50.4188 168.843C50.4188 166.87 52.0178 165.271 53.9913 165.271Z"
        fill="#E0F0FF" />
    <path
        d="M294.388 130.381C290.726 130.381 287.757 133.348 287.757 137.009C287.757 140.671 290.726 143.64 294.388 143.64C298.049 143.64 301.016 140.671 301.016 137.009C301.016 133.348 298.049 130.381 294.388 130.381ZM294.388 133.437C296.36 133.437 297.96 135.037 297.96 137.009C297.96 138.982 296.36 140.582 294.388 140.582C292.415 140.582 290.815 138.983 290.815 137.009C290.815 135.036 292.414 133.437 294.388 133.437Z"
        fill="#F0F0F0" />
    <path
        d="M287.758 74.4233C284.097 74.4233 281.127 77.3909 281.127 81.0521C281.127 84.7134 284.097 87.6826 287.758 87.6826C291.419 87.6826 294.387 84.7134 294.387 81.0521C294.387 77.3909 291.419 74.4233 287.758 74.4233ZM287.758 77.4797C289.731 77.4797 291.33 79.0786 291.33 81.0521C291.33 83.0256 289.731 84.6246 287.758 84.6246C285.784 84.6246 284.185 83.0248 284.185 81.0521C284.185 79.0795 285.784 77.4797 287.758 77.4797Z"
        fill="#E0F0FF" />
    <path
        d="M183.593 0.169556C179.932 0.169556 176.963 3.13632 176.963 6.79836C176.963 10.4604 179.932 13.4288 183.593 13.4288C187.254 13.4288 190.222 10.4596 190.222 6.79836C190.222 3.13713 187.254 0.169556 183.593 0.169556ZM183.593 3.22506C185.567 3.22506 187.166 4.82405 187.166 6.79755C187.166 8.77104 185.567 10.37 183.593 10.37C181.62 10.37 180.021 8.77104 180.021 6.79755C180.021 4.82405 181.62 3.22506 183.593 3.22506Z"
        fill="#F0F0F0" />
    <path
        d="M149.345 211.071L132.142 256.604C130.756 260.272 132.811 263.245 136.732 263.245H203.942C207.863 263.245 209.918 260.272 208.532 256.604L191.329 211.071H149.345Z"
        fill="#455A64" />
    <g style="mix-blend-mode:overlay">
        <path d="M146.509 218.58L143.58 226.331H197.094L194.166 218.58H146.509Z" fill="#455A64" />
    </g>
    <path
        d="M54.5327 55.9648H286.14C290.697 55.9648 294.392 59.6595 294.392 64.2171V210.424C294.392 214.982 290.697 218.676 286.14 218.676H54.5327C49.9759 218.676 46.2812 214.982 46.2812 210.424V64.2171C46.2812 59.6595 49.9759 55.9648 54.5327 55.9648Z"
        fill="#455A64" />
    <path
        d="M54.5327 50.8959H286.14C290.697 50.8959 294.392 54.2046 294.392 58.2867V189.235C294.392 193.317 290.697 196.626 286.14 196.626H54.5327C49.9759 196.626 46.2812 193.317 46.2812 189.235V58.2867C46.2812 54.2046 49.9759 50.8959 54.5327 50.8959Z"
        fill="#8B1D04" />
    <path
        d="M59.5884 55.9657C55.2303 55.9657 51.696 59.5105 51.696 63.8817V181.7C51.696 186.072 55.2303 189.616 59.5884 189.616H281.084C285.442 189.616 288.977 186.072 288.977 181.7V63.8817C288.977 59.5105 285.442 55.9657 281.084 55.9657H59.5884Z"
        fill="white" />
    <path
        d="M59.59 55.9648C59.3173 55.9648 59.0462 55.9803 58.7808 56.0072C57.9862 56.0886 57.2249 56.2881 56.5174 56.5877C56.0452 56.7879 55.5966 57.0322 55.1765 57.3163C54.5464 57.7429 53.9805 58.2575 53.4978 58.8437C53.4969 58.8445 53.4986 58.8469 53.4978 58.8477C52.8554 59.6285 52.3588 60.5355 52.051 61.5255C52.051 61.5271 52.0518 61.5279 52.051 61.5296C51.898 62.0237 51.7921 62.5399 51.7384 63.0707C51.7376 63.0724 51.7384 63.0732 51.7384 63.074C51.7115 63.3394 51.696 63.6081 51.696 63.88V76.5539H288.978V63.88C288.978 59.5088 285.442 55.9648 281.084 55.9648H59.59Z"
        fill="#FDBEB0" />
    <path
        d="M60.4971 66.2598C60.4971 64.082 62.2621 62.3169 64.44 62.3169C66.6178 62.3169 68.3829 64.082 68.3829 66.2598C68.3829 68.4377 66.617 70.2019 64.44 70.2019C62.263 70.2019 60.4971 68.4369 60.4971 66.2598Z"
        fill="#E92020" />
    <path
        d="M71.7388 66.2598C71.7388 64.082 73.5038 62.3169 75.6817 62.3169C77.8595 62.3169 79.6238 64.082 79.6238 66.2598C79.6238 68.4377 77.8587 70.2019 75.6817 70.2019C73.5047 70.2019 71.7388 68.4369 71.7388 66.2598Z"
        fill="#FDDF19" />
    <path
        d="M82.9805 66.2598C82.9805 64.082 84.7455 62.3169 86.9226 62.3169C89.0996 62.3169 90.8655 64.082 90.8655 66.2598C90.8655 68.4377 89.1004 70.2019 86.9226 70.2019C84.7447 70.2019 82.9805 68.4369 82.9805 66.2598Z"
        fill="#4FC83A" />
    <path
        d="M164.826 206.935C164.826 203.892 167.293 201.425 170.336 201.425C173.379 201.425 175.846 203.892 175.846 206.935C175.846 209.978 173.379 212.445 170.336 212.445C167.293 212.445 164.826 209.978 164.826 206.935Z"
        fill="#F5F7FA" />
    <path
        d="M104.422 257.748C104.422 254.735 106.864 252.293 109.877 252.293H230.796C233.808 252.293 236.251 254.735 236.251 257.748V263.245H104.422V257.748Z"
        fill="#455A64" />
    <path
        d="M228.985 115.998L197.941 146.948C203.835 153.433 207.479 162 207.631 171.419H251.462C251.303 149.922 242.771 130.428 228.985 115.998Z"
        fill="#61902D" />
    <path
        d="M172.504 90.9448V134.788C181.038 135.278 188.798 138.636 194.843 143.913L225.907 112.943C211.879 99.7409 193.158 91.4879 172.504 90.9448Z"
        fill="#91D04B" />
    <path
        d="M111.687 115.998C97.9023 130.428 89.37 149.923 89.2104 171.419H133.042C133.194 162 136.837 153.433 142.732 146.948L111.687 115.998Z"
        fill="#E93C20" />
    <path
        d="M168.169 90.9448C147.514 91.4879 128.793 99.7401 114.766 112.943L145.829 143.913C151.875 138.636 159.635 135.278 168.169 134.788V90.9448Z"
        fill="#FDDF19" />
    <path
        d="M166.686 154.688C171.299 152.253 177.014 154.02 179.448 158.634C181.883 163.248 180.116 168.962 175.502 171.397C170.888 173.832 165.174 172.065 162.739 167.45C160.304 162.837 162.071 157.122 166.686 154.688Z"
        fill="#303030" />
    <path
        d="M175.264 155.326C177.647 154.069 232.838 130.463 232.838 130.463C232.838 130.463 182.2 162.697 179.817 163.954C177.435 165.212 174.484 164.3 173.227 161.917C171.97 159.534 172.881 156.583 175.264 155.326Z"
        fill="#303030" />
    <path
        d="M193.732 179.396C193.732 175.582 196.824 172.49 200.638 172.49H342.313C346.127 172.49 349.22 175.582 349.22 179.396V202.428C349.22 206.242 346.127 209.334 342.313 209.334H200.638C196.824 209.334 193.732 206.242 193.732 202.428V179.396Z"
        fill="#DA2D07" />
    <path
        d="M196.958 179.396C196.958 175.582 200.05 172.49 203.864 172.49H345.54C349.353 172.49 352.445 175.582 352.445 179.396V202.428C352.445 206.242 349.353 209.334 345.54 209.334H203.864C200.05 209.334 196.958 206.242 196.958 202.428V179.396Z"
        fill="#DA2D07" />
    <path
        d="M196.958 180.43C196.958 177.512 199.323 175.148 202.239 175.148H343.938C346.855 175.148 349.22 177.512 349.22 180.43V201.396C349.22 204.312 346.855 206.676 343.938 206.676H202.239C199.323 206.676 196.958 204.312 196.958 201.396V180.43Z"
        fill="white" />
    <path
        d="M242.573 186.162L239.074 188L239.743 184.106L236.913 181.348L240.823 180.78L242.573 177.236L244.321 180.78L248.232 181.348L245.402 184.106L246.07 188L242.573 186.162Z"
        fill="#FBC02D" />
    <path d="M242.573 177.236V186.162L246.07 188L245.402 184.106L248.233 181.347L244.322 180.78L242.573 177.236Z"
        fill="#E8AA10" />
    <path
        d="M253.892 186.162L250.394 188L251.062 184.106L248.232 181.348L252.143 180.78L253.892 177.236L255.64 180.78L259.551 181.348L256.721 184.106L257.389 188L253.892 186.162Z"
        fill="#FBC02D" />
    <path d="M253.892 177.236V186.162L257.39 188L256.721 184.106L259.552 181.347L255.64 180.78L253.892 177.236Z"
        fill="#E8AA10" />
    <path
        d="M265.211 186.162L261.713 188L262.382 184.106L259.552 181.348L263.462 180.78L265.211 177.236L266.96 180.78L270.87 181.348L268.041 184.106L268.708 188L265.211 186.162Z"
        fill="#FBC02D" />
    <path d="M265.212 177.236V186.162L268.709 188L268.041 184.106L270.871 181.347L266.96 180.78L265.212 177.236Z"
        fill="#E8AA10" />
    <path
        d="M276.53 186.162L273.032 188L273.701 184.106L270.871 181.348L274.781 180.78L276.53 177.236L278.279 180.78L282.19 181.348L279.36 184.106L280.028 188L276.53 186.162Z"
        fill="#FBC02D" />
    <path d="M276.531 177.236V186.162L280.028 188L279.36 184.106L282.191 181.347L278.28 180.78L276.531 177.236Z"
        fill="#E8AA10" />
    <path
        d="M231.253 186.162L227.755 188L228.423 184.106L225.594 181.348L229.504 180.78L231.253 177.236L233.001 180.78L236.912 181.348L234.083 184.106L234.75 188L231.253 186.162Z"
        fill="#FBC02D" />
    <path d="M231.253 177.236V186.162L234.751 188L234.083 184.106L236.913 181.347L233.002 180.78L231.253 177.236Z"
        fill="#E8AA10" />
    <path
        d="M201.587 190.912C201.587 184.283 206.962 178.91 213.59 178.91C220.219 178.91 225.593 184.283 225.593 190.912C225.593 197.541 220.219 202.915 213.59 202.915C206.962 202.915 201.587 197.541 201.587 190.912Z"
        fill="#FDBEB0" />
    <path
        d="M210.754 194.22L209.601 195.948L204.448 197.363L204.548 198.799C204.965 199.279 205.42 199.726 205.908 200.134C206.25 200.419 206.608 200.683 206.98 200.929C207.013 200.951 207.046 200.971 207.079 200.993C207.235 201.093 207.392 201.19 207.553 201.284C207.582 201.301 207.612 201.318 207.642 201.335C208.625 201.897 209.694 202.324 210.827 202.592C211.125 202.662 211.427 202.72 211.733 202.768C212.036 202.815 212.342 202.851 212.653 202.876C212.656 202.876 212.659 202.876 212.663 202.876C212.667 202.877 212.671 202.876 212.675 202.876C212.978 202.899 213.282 202.916 213.591 202.916C213.857 202.916 214.121 202.905 214.384 202.887C214.385 202.887 214.387 202.886 214.388 202.885H214.394C214.433 202.883 214.472 202.88 214.511 202.876C214.769 202.856 215.024 202.829 215.277 202.794C215.642 202.743 216.001 202.675 216.355 202.592C216.884 202.467 217.398 202.307 217.897 202.115C217.967 202.088 218.035 202.059 218.104 202.031C218.202 201.991 218.3 201.952 218.396 201.911C218.472 201.877 218.546 201.841 218.622 201.806C218.7 201.77 218.779 201.734 218.856 201.697C218.936 201.658 219.015 201.617 219.093 201.576C219.177 201.533 219.26 201.49 219.343 201.445C219.41 201.408 219.476 201.369 219.543 201.331C219.627 201.283 219.712 201.234 219.795 201.183C219.859 201.145 219.921 201.107 219.984 201.067C220.078 201.008 220.171 200.947 220.263 200.885C220.312 200.852 220.361 200.819 220.409 200.786C220.495 200.727 220.579 200.667 220.663 200.605C220.73 200.556 220.797 200.507 220.862 200.457C220.941 200.397 221.018 200.336 221.095 200.274C221.152 200.228 221.209 200.182 221.265 200.136C221.332 200.08 221.397 200.023 221.463 199.966C221.535 199.902 221.608 199.84 221.678 199.776C221.732 199.727 221.783 199.677 221.835 199.627C221.908 199.56 221.98 199.491 222.05 199.421C222.116 199.356 222.181 199.289 222.245 199.223C222.295 199.17 222.347 199.117 222.397 199.063C222.476 198.977 222.554 198.889 222.63 198.801C222.668 198.757 222.707 198.714 222.745 198.669C222.843 198.554 222.939 198.436 223.033 198.317C223.044 198.303 223.057 198.289 223.067 198.275C223.178 198.133 223.285 197.989 223.389 197.843V197.841C223.416 197.803 223.443 197.766 223.47 197.728L223.495 197.363L218.342 195.948L217.19 194.22L215.051 197.379L215.503 196.708C215.503 196.708 215.475 196.729 215.47 196.734C215.45 196.748 215.432 196.762 215.366 196.807C215.138 196.969 214.533 197.361 213.919 197.363C213.153 197.365 212.445 196.717 212.445 196.717L210.754 194.22Z"
        fill="#ADADAD" />
    <path
        d="M210.754 194.22L209.601 195.948L204.448 197.363L204.548 198.799C204.965 199.279 205.42 199.726 205.908 200.134C206.25 200.419 206.608 200.683 206.98 200.929C207.013 200.951 207.046 200.971 207.079 200.993C207.235 201.093 207.392 201.19 207.553 201.284C207.582 201.301 207.612 201.318 207.642 201.335C208.625 201.897 209.694 202.324 210.827 202.592C211.125 202.662 211.427 202.72 211.733 202.768C212.036 202.815 212.342 202.851 212.653 202.876C212.656 202.876 212.659 202.876 212.663 202.876L212.675 202.592L212.891 197.379L212.445 196.717L210.754 194.22Z"
        fill="#01396F" />
    <path
        d="M217.19 194.22L216.692 194.955L215.051 197.379L215.268 202.592L215.277 202.794C215.642 202.743 216.001 202.675 216.355 202.592C216.536 202.549 216.715 202.503 216.892 202.452C219.549 201.694 221.83 200.042 223.389 197.843V197.841C223.416 197.803 223.443 197.766 223.47 197.728L223.495 197.363L218.342 195.948L217.19 194.22Z"
        fill="#01396F" />
    <path d="M217.19 194.22L215.052 197.379L216.519 196.984L217.324 199.128L218.342 195.947L217.19 194.22Z"
        fill="#011C36" />
    <path d="M210.753 194.22L212.891 197.379L211.424 196.984L210.619 199.128L209.601 195.947L210.753 194.22Z"
        fill="#011C36" />
    <path
        d="M210.826 202.592C211.422 202.732 212.035 202.828 212.663 202.877C212.969 202.9 213.278 202.916 213.59 202.916C214.163 202.916 214.726 202.872 215.277 202.794C215.642 202.743 216.001 202.675 216.355 202.592H210.826Z"
        fill="#5E5E5E" />
    <path
        d="M204.448 197.363C204.448 197.363 204.065 197.814 203.905 198C203.905 198.001 203.907 198.002 203.908 198.004C204.008 198.141 204.112 198.274 204.219 198.406C204.325 198.539 204.434 198.671 204.548 198.799C204.965 199.279 205.42 199.726 205.908 200.134L204.448 197.363Z"
        fill="#01396F" />
    <path
        d="M223.495 197.363L223.389 197.843C223.416 197.804 223.443 197.766 223.47 197.728C223.523 197.65 223.574 197.571 223.626 197.493C223.614 197.482 223.495 197.363 223.495 197.363Z"
        fill="#01396F" />
    <path
        d="M217.493 188.922C217.493 188.922 218.268 188.113 218.526 188.506C218.784 188.9 218.754 189.675 218.526 190.497C218.298 191.319 217.507 191.597 217.507 191.597C217.507 191.597 217.618 190.646 217.615 189.977C217.612 189.308 217.493 188.922 217.493 188.922Z"
        fill="#EDCFB2" />
    <path
        d="M210.419 188.922C210.419 188.922 209.644 188.113 209.386 188.506C209.128 188.9 209.158 189.675 209.386 190.497C209.614 191.319 210.405 191.597 210.405 191.597C210.405 191.597 210.294 190.646 210.297 189.977C210.3 189.308 210.419 188.922 210.419 188.922Z"
        fill="#EDCFB2" />
    <path
        d="M211.316 195.05L211.153 193.691L216.785 193.7L216.692 194.955L215.507 196.706C215.507 196.706 214.679 197.35 213.919 197.362C213.16 197.375 212.468 196.753 212.468 196.753L211.316 195.05Z"
        fill="#D1B192" />
    <path
        d="M210.328 190.299C210.328 187.342 211.96 184.944 213.971 184.944C215.184 184.944 216.258 185.814 216.92 187.153C217.357 188.036 217.615 189.123 217.615 190.299C217.615 193.257 215.983 195.654 213.971 195.654C211.96 195.654 210.328 193.257 210.328 190.299Z"
        fill="#EDCFB2" />
    <path
        d="M210.419 189.716L211.417 186.48C211.417 186.48 212.997 186.724 214.348 186.829C215.7 186.934 216.654 186.675 216.654 186.675L217.615 189.977C217.615 189.977 218.357 185.594 216.696 183.862C216.228 183.374 215.118 183.431 214.348 183.251C212.392 182.793 210.328 182.252 210.328 182.252C210.328 182.252 210.037 185.638 210.059 187.505C210.082 189.371 210.419 189.716 210.419 189.716Z"
        fill="black" />
    <path d="M210.753 194.22L211.218 194.036L211.316 195.05L210.753 194.22Z" fill="#000F1E" />
    <path d="M217.19 194.22L216.765 193.978L216.692 194.955L217.19 194.22Z" fill="#000F1E" />
    <path
        d="M287.672 192.441C287.672 191.8 288.142 191.281 288.723 191.281H300.756C301.336 191.281 301.807 191.8 301.807 192.441V192.446C301.807 193.088 301.336 193.607 300.756 193.607H288.723C288.142 193.607 287.672 193.088 287.672 192.446V192.441Z"
        fill="#FDBEB0" />
    <path
        d="M316.861 199.25C316.861 198.609 317.332 198.089 317.912 198.089H329.946C330.526 198.089 330.997 198.609 330.997 199.25V199.255C330.997 199.896 330.526 200.416 329.946 200.416H317.912C317.332 200.416 316.861 199.896 316.861 199.255V199.25Z"
        fill="#FDBEB0" />
    <path
        d="M302.711 192.441C302.711 191.8 303.182 191.281 303.762 191.281H309.578C310.158 191.281 310.629 191.8 310.629 192.441V192.446C310.629 193.088 310.158 193.607 309.578 193.607H303.762C303.182 193.607 302.711 193.088 302.711 192.446V192.441Z"
        fill="#FDBEB0" />
    <path
        d="M331.901 199.25C331.901 198.609 332.371 198.089 332.952 198.089H338.767C339.348 198.089 339.818 198.609 339.818 199.25V199.255C339.818 199.896 339.348 200.416 338.767 200.416H332.952C332.371 200.416 331.901 199.896 331.901 199.255V199.25Z"
        fill="#FDBEB0" />
    <path
        d="M306.874 199.25C306.874 198.609 307.344 198.089 307.925 198.089H313.74C314.321 198.089 314.791 198.609 314.791 199.25V199.255C314.791 199.896 314.321 200.416 313.74 200.416H307.925C307.344 200.416 306.874 199.896 306.874 199.255V199.25Z"
        fill="#FDBEB0" />
    <path
        d="M338.681 192.441C338.681 191.8 339.152 191.281 339.732 191.281H342.929C343.51 191.281 343.98 191.8 343.98 192.441V192.446C343.98 193.088 343.51 193.607 342.929 193.607H339.732C339.152 193.607 338.681 193.088 338.681 192.446V192.441Z"
        fill="#FDBEB0" />
    <path
        d="M311.492 192.441C311.492 191.8 311.962 191.281 312.543 191.281H314.22C314.801 191.281 315.271 191.8 315.271 192.441V192.446C315.271 193.088 314.801 193.607 314.22 193.607H312.543C311.962 193.607 311.492 193.088 311.492 192.446V192.441Z"
        fill="#FDBEB0" />
    <path
        d="M340.682 199.25C340.682 198.609 341.152 198.089 341.733 198.089H343.41C343.99 198.089 344.461 198.609 344.461 199.25V199.255C344.461 199.896 343.99 200.416 343.41 200.416H341.733C341.152 200.416 340.682 199.896 340.682 199.255V199.25Z"
        fill="#FDBEB0" />
    <path
        d="M302.231 199.25C302.231 198.609 302.702 198.089 303.283 198.089H304.96C305.54 198.089 306.011 198.609 306.011 199.25V199.255C306.011 199.896 305.54 200.416 304.96 200.416H303.283C302.702 200.416 302.231 199.896 302.231 199.255V199.25Z"
        fill="#FDBEB0" />
    <path
        d="M333.311 192.441C333.311 191.8 333.782 191.281 334.362 191.281H336.603C337.184 191.281 337.654 191.8 337.654 192.441V192.446C337.654 193.088 337.184 193.607 336.603 193.607H334.362C333.782 193.607 333.311 193.088 333.311 192.446V192.441Z"
        fill="#FDBEB0" />
    <path
        d="M297.379 199.25C297.379 198.609 297.85 198.089 298.43 198.089H300.108C300.688 198.089 301.159 198.609 301.159 199.25V199.255C301.159 199.896 300.688 200.416 300.108 200.416H298.43C297.85 200.416 297.379 199.896 297.379 199.255V199.25Z"
        fill="#FDBEB0" />
    <path
        d="M329.138 192.441C329.138 191.8 329.608 191.281 330.189 191.281H331.473C332.053 191.281 332.524 191.8 332.524 192.441V192.446C332.524 193.088 332.053 193.607 331.473 193.607H330.189C329.608 193.607 329.138 193.088 329.138 192.446V192.441Z"
        fill="#FDBEB0" />
    <path
        d="M287.672 199.25C287.672 198.609 288.142 198.089 288.723 198.089H295.436C296.017 198.089 296.487 198.609 296.487 199.25V199.255C296.487 199.896 296.017 200.416 295.436 200.416H288.723C288.142 200.416 287.672 199.896 287.672 199.255V199.25Z"
        fill="#FDBEB0" />
    <path
        d="M316.861 192.441C316.861 191.8 317.332 191.281 317.912 191.281H327.408C327.988 191.281 328.459 191.8 328.459 192.441V192.446C328.459 193.088 327.988 193.607 327.408 193.607H317.912C317.332 193.607 316.861 193.088 316.861 192.446V192.441Z"
        fill="#FDBEB0" />
    <path
        d="M284.8 192.074C284.8 191.432 284.329 190.913 283.749 190.913H271.716C271.135 190.913 270.665 191.432 270.665 192.074V192.078C270.665 192.719 271.135 193.239 271.716 193.239H283.749C284.329 193.239 284.8 192.719 284.8 192.078V192.074Z"
        fill="#FDBEB0" />
    <path
        d="M255.61 198.882C255.61 198.241 255.14 197.72 254.559 197.72H242.526C241.946 197.72 241.475 198.241 241.475 198.882V198.886C241.475 199.528 241.946 200.048 242.526 200.048H254.559C255.14 200.048 255.61 199.528 255.61 198.886V198.882Z"
        fill="#FDBEB0" />
    <path
        d="M269.76 192.074C269.76 191.432 269.29 190.913 268.709 190.913H262.894C262.313 190.913 261.843 191.432 261.843 192.074V192.078C261.843 192.719 262.313 193.239 262.894 193.239H268.709C269.29 193.239 269.76 192.719 269.76 192.078V192.074Z"
        fill="#FDBEB0" />
    <path
        d="M240.571 198.882C240.571 198.241 240.1 197.72 239.52 197.72H233.704C233.124 197.72 232.653 198.241 232.653 198.882V198.886C232.653 199.528 233.124 200.048 233.704 200.048H239.52C240.1 200.048 240.571 199.528 240.571 198.886V198.882Z"
        fill="#FDBEB0" />
    <path
        d="M265.598 198.882C265.598 198.241 265.128 197.72 264.547 197.72H258.732C258.151 197.72 257.681 198.241 257.681 198.882V198.886C257.681 199.528 258.151 200.048 258.732 200.048H264.547C265.128 200.048 265.598 199.528 265.598 198.886V198.882Z"
        fill="#FDBEB0" />
    <path
        d="M233.791 192.074C233.791 191.432 233.32 190.913 232.74 190.913H229.542C228.962 190.913 228.491 191.432 228.491 192.074V192.078C228.491 192.719 228.962 193.239 229.542 193.239H232.74C233.32 193.239 233.791 192.719 233.791 192.078V192.074Z"
        fill="#FDBEB0" />
    <path
        d="M260.981 192.074C260.981 191.432 260.509 190.913 259.929 190.913H258.251C257.671 190.913 257.2 191.432 257.2 192.074V192.078C257.2 192.719 257.671 193.239 258.251 193.239H259.929C260.509 193.239 260.981 192.719 260.981 192.078V192.074Z"
        fill="#FDBEB0" />
    <path
        d="M231.791 198.882C231.791 198.241 231.32 197.72 230.74 197.72H229.062C228.481 197.72 228.011 198.241 228.011 198.882V198.886C228.011 199.528 228.481 200.048 229.062 200.048H230.74C231.32 200.048 231.791 199.528 231.791 198.886V198.882Z"
        fill="#FDBEB0" />
    <path
        d="M270.241 198.882C270.241 198.241 269.77 197.72 269.189 197.72H267.512C266.931 197.72 266.46 198.241 266.46 198.882V198.886C266.46 199.528 266.931 200.048 267.512 200.048H269.189C269.77 200.048 270.241 199.528 270.241 198.886V198.882Z"
        fill="#FDBEB0" />
    <path
        d="M239.161 192.074C239.161 191.432 238.691 190.913 238.11 190.913H235.868C235.287 190.913 234.817 191.432 234.817 192.074V192.078C234.817 192.719 235.287 193.239 235.868 193.239H238.11C238.691 193.239 239.161 192.719 239.161 192.078V192.074Z"
        fill="#FDBEB0" />
    <path
        d="M275.092 198.882C275.092 198.241 274.622 197.72 274.041 197.72H272.364C271.784 197.72 271.313 198.241 271.313 198.882V198.886C271.313 199.528 271.784 200.048 272.364 200.048H274.041C274.622 200.048 275.092 199.528 275.092 198.886V198.882Z"
        fill="#FDBEB0" />
    <path
        d="M243.334 192.074C243.334 191.432 242.863 190.913 242.283 190.913H240.999C240.418 190.913 239.948 191.432 239.948 192.074V192.078C239.948 192.719 240.418 193.239 240.999 193.239H242.283C242.863 193.239 243.334 192.719 243.334 192.078V192.074Z"
        fill="#FDBEB0" />
    <path
        d="M284.8 198.882C284.8 198.241 284.329 197.72 283.749 197.72H277.035C276.455 197.72 275.984 198.241 275.984 198.882V198.886C275.984 199.528 276.455 200.048 277.035 200.048H283.749C284.329 200.048 284.8 199.528 284.8 198.886V198.882Z"
        fill="#FDBEB0" />
    <path
        d="M255.61 192.074C255.61 191.432 255.14 190.913 254.559 190.913H245.064C244.483 190.913 244.013 191.432 244.013 192.074V192.078C244.013 192.719 244.483 193.239 245.064 193.239H254.559C255.14 193.239 255.61 192.719 255.61 192.078V192.074Z"
        fill="#FDBEB0" />
    <path d="M28.5359 181.535L13.926 256.619L8.44434 256.966L8.89863 180.745L28.5359 181.535Z" fill="#8B1D04" />
    <path d="M24.9397 195.035L11.7993 256.379L8.6958 256.022L24.9397 195.035Z" fill="#631503" />
    <path
        d="M14.3429 253.867L19.6503 259.077C19.6503 259.077 23.3677 257.716 23.9384 259.865C24.51 262.016 23.6771 261.734 23.6771 261.734L5.87083 261.881L5.54761 257.025L6.37723 254.884C6.37723 254.884 8.92633 256.817 10.5734 256.396C12.2204 255.976 14.3429 253.867 14.3429 253.867Z"
        fill="#242323" />
    <path d="M5.87655 261.63L5.87085 263.106L24.0866 263.245L24.0931 261.451L9.00044 261.672L5.87655 261.63Z"
        fill="black" />
    <path d="M28.5359 181.535L8.44435 256.966L1.15039 257.025L8.89865 180.745L28.5359 181.535Z" fill="#8B1D04" />
    <path
        d="M18.8338 128.178L19.0951 128.996L20.103 132.155L12.2587 128.31L12.901 126.934C12.901 126.934 8.50464 125.54 7.40961 120.999C6.31458 116.459 7.77842 113.059 12.3629 111.638C16.9482 110.216 20.7543 112.328 20.7543 112.328L18.8338 128.178Z"
        fill="#FFE1C2" />
    <path
        d="M18.8892 128.178L19.3736 129.869C19.3736 129.869 17.1111 128.869 15.8939 127.668C14.6767 126.466 13.7502 124.469 13.7502 124.469L14.8225 123.19L18.8892 128.178Z"
        fill="#ECC7A3" />
    <path
        d="M19.5225 189.62C19.5225 189.62 13.9089 190.282 10.7476 204.603C6.71589 222.871 2.84298 257.011 2.84298 257.011L0.445312 257.025L7.96643 189.194C7.96643 189.194 9.82106 188.773 12.7105 188.879C15.5991 188.986 19.5225 189.62 19.5225 189.62Z"
        fill="#631503" />
    <path
        d="M11.7841 118.834C11.5138 117.29 13.5297 118.034 13.9091 117.064C14.7028 115.03 14.8111 112.14 17.2446 111.714C20.8391 111.083 25.0328 114.922 24.1991 120.518C23.4851 125.317 21.7599 128.639 18.1467 128.125C16.1642 127.844 14.4952 122.326 13.8024 121.236C13.1096 120.146 11.9714 119.898 11.7841 118.834Z"
        fill="#FFE1C2" />
    <path
        d="M16.1641 116.691L15.2262 120.34C15.2262 120.34 13.9089 118.762 13.9089 118.119C13.9089 117.475 11.464 117.654 12.1153 119.25C12.3644 119.859 13.3178 120.003 13.8698 120.822C14.7645 122.148 14.7556 123.349 14.7556 123.349L12.7593 127.226C12.7593 127.226 2.88855 122.579 7.50478 112.588C7.61876 112.341 7.6904 112.079 7.84346 111.876C10.671 108.132 13.4188 108.926 18.8101 108.926C25.1197 108.926 26.1773 108.147 26.1773 108.147C26.1773 108.147 27.7006 114.615 23.5704 115.62C19.7805 116.542 16.1641 116.691 16.1641 116.691Z"
        fill="black" />
    <path
        d="M21.5488 132.561L22.1374 134.912L27.6273 140.504L29.8018 179.329C29.8018 179.329 28.89 188.289 24.3063 189.315C19.7227 190.342 14.1287 188.6 11.5128 188.902C5.47832 189.6 2.70776 188.981 2.70776 188.981L7.2035 171.817L3.31268 140.487L10.1116 131.066L11.8612 127.026L21.5488 132.561Z"
        fill="#DA2D07" />
    <path
        d="M22.1376 134.912L21.549 132.561L11.8614 127.026L11.5129 127.831C11.5129 127.831 15.7115 129.534 20.0403 135.357C24.3692 141.179 28.063 152.889 28.063 152.889L23.5648 136.366L22.1376 134.912Z"
        fill="white" />
    <path
        d="M11.8613 127.026L21.5489 132.561L19.5697 133.387L20.2967 136.908L14.5342 131.951L10.7476 129.597L11.0911 128.804L11.8613 127.026Z"
        fill="#DDDDDD" />
    <path
        d="M24.6988 137.521L23.5647 136.366L28.2786 152.348L26.1317 140.075L25.0994 138.825L25.6546 138.495L24.6988 137.521Z"
        fill="#631503" />
    <path
        d="M11.5129 127.832L10.7476 129.597L12.6038 131.764L14.5342 131.951L13.1322 132.798C13.1322 132.798 17.9275 135.098 20.3081 139.491C23.8676 146.057 28.3324 153.33 28.3324 153.33C28.3324 153.33 25.2516 144.479 20.9806 136.908C16.7104 129.335 11.5129 127.832 11.5129 127.832Z"
        fill="#631503" />
    <path
        d="M16.2082 144.357L13.5704 164.157L28.6899 179.918L29.487 181.262L29.2509 181.517L29.316 182.097L27.1268 187.344L24.3065 185.446H23.3792L22.548 184.851L21.549 185.834L6.2251 175.553L7.18335 171.65L12.4981 151.062L16.2082 144.357Z"
        fill="#631503" />
    <path
        d="M16.2074 144.357C15.3541 151.806 12.0967 164.4 12.0967 164.4L28.5409 180.126L21.549 185.126C21.549 185.126 3.87625 171.42 2.70876 166.999C1.51929 162.497 2.96196 150.993 3.56688 142.528C4.05699 135.664 16.9328 138.029 16.2074 144.357Z"
        fill="#DA2D07" />
    <path d="M28.7492 181.208L29.6537 182.625L25.4446 185.834L24.1387 184.513L28.7492 181.208Z" fill="#FFE1C2" />
    <path
        d="M54.3102 176.292C53.4635 176.901 52.2838 176.708 51.6756 175.861L51.643 175.816C51.034 174.969 51.2278 173.789 52.0737 173.181L79.6034 153.397C80.4501 152.789 81.6298 152.982 82.2379 153.829L82.2705 153.874C82.8787 154.721 82.6857 155.901 81.839 156.509L54.3102 176.292Z"
        fill="#7D9DC7" />
    <path
        d="M143.097 98.1248C124.133 81.6733 95.4208 83.7111 78.9692 102.676C62.5177 121.642 64.5547 150.353 83.5203 166.805C102.485 183.256 131.197 181.219 147.648 162.254C164.1 143.288 162.063 114.577 143.097 98.1248ZM139.815 101.91C156.69 116.548 158.503 142.095 143.864 158.97C129.225 175.845 103.678 177.658 86.803 163.02C69.9281 148.381 68.115 122.834 82.7534 105.959C97.3926 89.0837 122.94 87.2714 139.815 101.91Z"
        fill="#7D9DC7" />
    <path
        d="M139.815 101.91C122.94 87.2713 97.3927 89.0836 82.7534 105.959C68.115 122.834 69.9281 148.381 86.803 163.02C103.678 177.658 129.225 175.845 143.864 158.97C158.503 142.095 156.69 116.548 139.815 101.91Z"
        fill="#D5EAFF" />
    <path
        d="M34.2357 192.325C32.8419 193.327 30.9002 193.009 29.8987 191.615L29.8352 191.526C28.8338 190.133 29.1514 188.191 30.5452 187.189L56.0932 168.83C57.487 167.828 59.4288 168.146 60.4302 169.539L60.4945 169.629C61.4959 171.023 61.1776 172.964 59.7837 173.966L34.2357 192.325Z"
        fill="#555656" />
    <path
        d="M111.994 93.7536C111.864 93.7072 111.723 93.6868 111.577 93.6958C111.523 93.699 111.426 93.7056 111.289 93.7178C111.069 93.7373 110.812 93.7642 110.522 93.7992C109.699 93.8977 108.77 94.0426 107.753 94.2413C104.851 94.8055 101.809 95.6888 98.7686 96.9597C98.228 97.186 97.9732 97.8056 98.1995 98.3454C98.4251 98.8852 99.0471 99.1408 99.5868 98.9153C102.486 97.703 105.39 96.8588 108.157 96.3206C109.124 96.1325 110.001 95.9974 110.775 95.9046C111.043 95.872 111.279 95.8476 111.478 95.8305C111.547 95.824 111.699 95.8126 111.705 95.8118C112.289 95.7768 112.734 95.2728 112.698 94.689C112.671 94.2502 112.384 93.8912 111.994 93.7536Z"
        fill="#F2F8FF" />
    <path
        d="M95.889 98.5352C95.6854 98.5172 95.4737 98.5588 95.2816 98.6646C91.635 100.68 88.3206 103.17 85.4866 106.191C81.2896 110.665 78.3758 115.455 76.5309 120.308C75.8373 122.133 75.3292 123.882 74.9808 125.524C74.73 126.705 74.5827 127.717 74.5143 128.532C74.5037 128.654 74.4964 128.76 74.4915 128.852C74.4882 128.912 74.4874 128.954 74.4866 128.98C74.4687 129.566 74.9279 130.056 75.5124 130.074C76.0978 130.092 76.5863 129.631 76.6042 129.045C76.6042 129.045 76.6083 128.998 76.6099 128.974C76.614 128.901 76.618 128.813 76.627 128.71C76.6881 127.981 76.8232 127.057 77.0552 125.965C77.3825 124.428 77.858 122.781 78.5118 121.061C80.2614 116.459 83.0311 111.908 87.0326 107.642C89.7071 104.792 92.8457 102.432 96.3082 100.519C96.8203 100.236 97.0043 99.5903 96.721 99.0782C96.5443 98.7574 96.2276 98.5661 95.889 98.5352Z"
        fill="#F2F8FF" />
    <path d="M27.6274 140.505L34.8522 159.555L48.5381 166.262L46.8544 172.891L28.9048 165.985L27.6274 140.505Z"
        fill="#DA2D07" />
    <path d="M48.5379 166.262L50.9918 167.242L49.4205 172.891L47.0146 172.24L48.5379 166.262Z" fill="white" />
    <path
        d="M50.9917 167.242L52.2276 167.63L55.0901 166.403L57.6563 168.361L58.3288 171.266C58.3288 171.266 57.3885 171.853 56.7478 171.372C56.1062 170.893 55.7643 169.347 55.7643 169.347L54.14 170.501L50.1971 173.132L49.4204 172.891L50.9917 167.242Z"
        fill="#FFE1C2" />
    <path
        d="M29.6537 182.625L31.444 185.447L32.7532 185.052L34.0762 184.652L38.1543 190.31C38.1543 190.31 38.09 190.612 37.8832 190.733C37.6755 190.854 37.3263 190.794 37.3263 190.794C37.3263 190.794 37.2473 191.308 36.9672 191.526C36.6872 191.744 36.206 191.665 36.206 191.665C36.206 191.665 36.1221 192.151 35.8038 192.275C35.4847 192.399 35.0686 192.293 35.0686 192.293C35.0686 192.293 34.9408 192.779 34.6502 192.884C34.3603 192.987 33.8556 192.751 33.8556 192.751L31.225 192.616L28.0393 188.139L25.4446 185.834L26.8962 183.521L29.6537 182.625Z"
        fill="#FFE1C2" />
    <path
        d="M61.0311 173.413L60.3676 172.983C60.1079 172.813 59.7594 172.886 59.5909 173.147C59.4216 173.407 59.4948 173.755 59.7554 173.924L60.4189 174.355C60.6786 174.525 61.0271 174.451 61.1956 174.191C61.3649 173.93 61.2917 173.583 61.0311 173.413Z"
        fill="#FFE1C2" />
    <path
        d="M59.7194 173.997L59.0567 173.566C58.7962 173.396 58.4485 173.47 58.2792 173.731C58.1098 173.991 58.1839 174.339 58.4436 174.507L59.1072 174.939C59.3677 175.108 59.7153 175.034 59.8847 174.775C60.054 174.514 59.9799 174.166 59.7194 173.997Z"
        fill="#FFE1C2" />
    <path
        d="M58.6254 174.625L57.9618 174.193C57.7021 174.025 57.3536 174.098 57.1843 174.358C57.0158 174.618 57.089 174.967 57.3496 175.136L58.0123 175.567C58.2728 175.736 58.6205 175.662 58.7898 175.402C58.9591 175.142 58.8851 174.794 58.6254 174.625Z"
        fill="#FFE1C2" />
    <path
        d="M57.6329 175.358L56.9694 174.927C56.7097 174.758 56.3612 174.831 56.1919 175.092C56.0233 175.352 56.0966 175.7 56.3571 175.87L57.0199 176.3C57.2804 176.47 57.628 176.395 57.7974 176.136C57.9667 175.875 57.8926 175.528 57.6329 175.358Z"
        fill="#FFE1C2" />
    <path d="M21.5488 132.561L22.1375 134.912L21.5586 135.01L21.5488 132.561Z" fill="#DDDDDD" />
    <path
        d="M27.6274 140.505C27.6274 140.505 29.4039 162.679 30.0194 164.766C30.2319 166.495 47.1817 171.585 47.1817 171.585L46.8544 172.891L28.9048 165.985L27.6274 140.505Z"
        fill="#631503" />
    <path
        d="M9.24057 253.867L14.548 259.077C14.548 259.077 18.2654 257.716 18.8361 259.865C19.4077 262.016 18.5748 261.734 18.5748 261.734L0.76853 261.881L0.445312 257.025L1.27493 254.884C1.27493 254.884 3.82403 256.817 5.47106 256.396C7.11808 255.976 9.24057 253.867 9.24057 253.867Z"
        fill="#303030" />
    <path d="M0.774254 261.63L0.768555 263.106L18.9843 263.245L18.9908 261.451L3.89814 261.672L0.774254 261.63Z"
        fill="black" />
    <path
        d="M37.5202 190.808L37.3264 190.794L37.2955 191.029C37.2955 191.029 36.2517 189.721 36.2379 189.646C36.2241 189.571 37.5202 190.808 37.5202 190.808Z"
        fill="#E8CAAB" />
    <path d="M36.4071 191.679L36.206 191.665L36.1441 191.875L35.3528 190.514L36.4071 191.679Z" fill="#E8CAAB" />
    <path d="M35.3415 192.332L35.0687 192.293L34.9702 192.545L34.2065 191.266L35.3415 192.332Z" fill="#E8CAAB" />
    <path
        d="M25.1132 183.814L24.1387 184.513C24.1387 184.513 24.8576 185.271 25.8329 186.178C26.8075 187.084 28.0393 188.139 28.0393 188.139L31.225 192.616L28.7264 187.617L25.1132 183.814Z"
        fill="#E8CAAB" />
    <path d="M49.6655 172.011L51.4639 171.998L55.7643 169.347L50.1971 173.132L49.4204 172.891L49.6655 172.011Z"
        fill="#E8CAAB" />
    <path d="M28.5408 180.126L29.2507 181.282L26.9263 182.948L23.8879 185.126L22.8328 184.047L28.5408 180.126Z"
        fill="white" />
    <path
        d="M122.742 93.1323C104.878 112.861 93.584 138.65 92.3555 167.058C92.362 167.062 92.3677 167.067 92.3742 167.07C93.1427 167.537 93.9243 167.975 94.7133 168.384C96.3057 169.211 97.9365 169.92 99.5981 170.519C100.429 170.818 101.269 171.09 102.113 171.333H124.49C124.49 171.333 124.494 171.331 124.496 171.33C125.403 171.07 126.304 170.78 127.193 170.456C127.569 170.319 127.943 170.174 128.316 170.025C128.339 170.016 128.364 170.007 128.388 169.997C128.469 169.965 128.549 169.933 128.63 169.9C128.65 169.892 128.67 169.883 128.689 169.875C129.071 169.719 129.451 169.556 129.828 169.387C129.83 169.387 129.832 169.385 129.834 169.384C129.835 169.384 129.836 169.384 129.837 169.384C129.854 169.377 129.871 169.369 129.887 169.362C129.906 169.354 129.924 169.342 129.944 169.334C130.684 169 131.416 168.645 132.138 168.265C132.14 168.264 132.14 168.263 132.141 168.262C132.254 168.203 132.368 168.146 132.481 168.086C132.489 168.081 132.498 168.078 132.506 168.073C132.806 167.912 133.102 167.743 133.398 167.573C133.414 167.564 133.431 167.557 133.446 167.548C133.619 167.449 133.79 167.345 133.962 167.244C134.273 167.059 134.585 166.874 134.892 166.681C134.897 166.678 134.903 166.674 134.908 166.671C135.321 166.411 135.728 166.144 136.134 165.867C136.306 165.749 136.476 165.627 136.646 165.505C136.683 165.479 136.719 165.452 136.756 165.426C137.029 165.232 137.299 165.034 137.567 164.832C137.774 164.677 137.981 164.518 138.186 164.357C138.493 164.118 138.797 163.871 139.098 163.622C139.263 163.485 139.429 163.353 139.592 163.214C139.598 163.208 139.605 163.203 139.61 163.197C140.026 162.841 140.436 162.473 140.84 162.097C140.982 161.965 141.123 161.827 141.264 161.692C141.489 161.476 141.709 161.253 141.931 161.032C142.056 160.906 142.184 160.785 142.308 160.658C142.315 160.65 142.322 160.643 142.33 160.636C142.405 160.557 142.481 160.479 142.556 160.4C143 159.935 143.438 159.46 143.864 158.969C144.279 158.49 144.678 158.004 145.068 157.51C145.08 157.496 145.091 157.481 145.103 157.466C145.177 157.37 145.252 157.274 145.326 157.177C145.34 157.159 145.353 157.142 145.366 157.124C145.648 156.759 145.92 156.389 146.187 156.017C146.291 155.872 146.399 155.729 146.501 155.584C146.505 155.578 146.509 155.571 146.514 155.565C146.852 155.079 147.18 154.589 147.495 154.093C147.499 154.088 147.5 154.08 147.504 154.075C147.567 153.975 147.627 153.874 147.69 153.773C147.872 153.479 148.046 153.181 148.221 152.884C148.292 152.762 148.368 152.643 148.438 152.522C148.44 152.518 148.441 152.513 148.444 152.509C148.541 152.34 148.636 152.17 148.73 152C148.967 151.572 149.195 151.142 149.415 150.708C149.451 150.638 149.491 150.571 149.526 150.501C149.532 150.486 149.537 150.47 149.545 150.457C149.81 149.923 150.062 149.383 150.302 148.841C150.369 148.692 150.43 148.541 150.494 148.391C150.666 147.991 150.829 147.588 150.987 147.184C151.05 147.023 151.115 146.864 151.176 146.703C151.181 146.69 151.187 146.678 151.192 146.665C151.389 146.139 151.578 145.609 151.751 145.078C151.755 145.065 151.76 145.052 151.764 145.04C151.769 145.025 151.775 145.008 151.779 144.993C151.805 144.914 151.827 144.833 151.852 144.754C151.981 144.347 152.1 143.938 152.217 143.528C152.456 142.684 152.672 141.833 152.855 140.978C152.855 140.976 152.857 140.974 152.858 140.973C152.858 140.971 152.857 140.97 152.858 140.969C152.86 140.959 152.862 140.948 152.864 140.938C152.867 140.924 152.867 140.91 152.87 140.897C153.044 140.079 153.189 139.257 153.311 138.432C153.311 138.423 153.312 138.415 153.313 138.407C153.334 138.273 153.352 138.139 153.37 138.004C153.609 136.261 153.736 134.508 153.747 132.755C153.747 132.633 153.747 132.512 153.747 132.39C153.743 130.616 153.625 128.843 153.389 127.084V127.077C153.378 126.999 153.365 126.92 153.355 126.841C153.238 126.006 153.096 125.173 152.927 124.345C152.925 124.334 152.922 124.322 152.921 124.311C152.91 124.262 152.903 124.212 152.892 124.163C152.892 124.16 152.89 124.157 152.889 124.154C152.703 123.262 152.485 122.379 152.239 121.501C152.238 121.499 152.239 121.496 152.239 121.494C152.238 121.491 152.236 121.488 152.235 121.485C152.233 121.475 152.229 121.466 152.226 121.457C151.983 120.594 151.709 119.735 151.409 118.888C151.408 118.886 151.407 118.884 151.406 118.882C151.389 118.836 151.375 118.789 151.359 118.744C151.355 118.737 151.351 118.729 151.349 118.722C151.039 117.859 150.701 117.006 150.33 116.163L129.488 95.3834C127.293 94.4252 125.035 93.6802 122.742 93.1323Z"
        fill="#E93C20" />
</svg>