<svg width="353" height="267" viewBox="0 0 353 267" fill="none" xmlns="http://www.w3.org/2000/svg">
    <path opacity="0.4" d="M146.131 15.3313H59.9944V84.7772H132.89V50.4312H146.131V15.3313Z" fill="#FEDED7" />
    <path d="M105.214 73.5071H69.498V74.3128H105.214V73.5071Z" fill="#BBC1C5" />
    <path d="M109.106 75.686H69.498V76.4917H109.106V75.686Z" fill="#BBC1C5" />
    <path d="M100.27 77.8743H69.498V78.68H100.27V77.8743Z" fill="#BBC1C5" />
    <path
        d="M133.103 27.1973H124.991C124.505 27.1973 124.103 26.8037 124.103 26.3092C124.103 25.824 124.496 25.4211 124.991 25.4211H133.103C133.588 25.4211 133.991 25.8148 133.991 26.3092C133.991 26.7945 133.597 27.1973 133.103 27.1973Z"
        fill="#F96D4D" />
    <path
        d="M133.103 30.4842H124.991C124.505 30.4842 124.103 30.0905 124.103 29.5961C124.103 29.1109 124.496 28.708 124.991 28.708H133.103C133.588 28.708 133.991 29.1017 133.991 29.5961C133.991 30.0814 133.597 30.4842 133.103 30.4842Z"
        fill="#8B1D04" />
    <path
        d="M133.102 33.6798H124.99C124.505 33.6798 124.102 33.2861 124.102 32.7917C124.102 32.3064 124.496 31.9036 124.99 31.9036H133.102C133.588 31.9036 133.99 32.2973 133.99 32.7917C133.99 33.2769 133.597 33.6798 133.102 33.6798Z"
        fill="#F84018" />
    <path
        d="M98.4575 60.7256H93.1289V44.8496C93.1289 43.3755 94.3191 42.1853 95.7932 42.1853C97.2673 42.1853 98.4575 43.3755 98.4575 44.8496V60.7256Z"
        fill="#F96D4D" />
    <path
        d="M98.4575 60.7256H93.1289V57.2373C93.1289 55.7632 94.3191 54.573 95.7932 54.573C97.2673 54.573 98.4575 55.7632 98.4575 57.2373V60.7256Z"
        fill="#8B1D04" />
    <path
        d="M108.51 60.7256H103.182V30.8323C103.182 29.3582 104.372 28.168 105.846 28.168C107.32 28.168 108.51 29.3582 108.51 30.8323V60.7256Z"
        fill="#F84018" />
    <path
        d="M118.573 60.726H113.244V37.9192C113.244 36.4451 114.434 35.2549 115.908 35.2549C117.382 35.2549 118.573 36.4451 118.573 37.9192V60.726Z"
        fill="#F96D4D" />
    <path
        d="M118.573 60.7259H113.244V51.085C113.244 49.6109 114.434 48.4207 115.908 48.4207C117.382 48.4207 118.573 49.6109 118.573 51.085V60.7259Z"
        fill="#8B1D04" />
    <path
        d="M128.635 60.7257H123.306V46.9922C123.306 45.5181 124.496 44.3279 125.97 44.3279C127.445 44.3279 128.635 45.5181 128.635 46.9922V60.7257Z"
        fill="#F84018" />
    <path
        d="M78.3425 60.7257H73.0139V42.927C73.0139 41.4529 74.2042 40.2627 75.6782 40.2627C77.1523 40.2627 78.3425 41.4529 78.3425 42.927V60.7257Z"
        fill="#F96D4D" />
    <path
        d="M78.3425 60.7257H73.0139V49.9311C73.0139 48.4571 74.2042 47.2668 75.6782 47.2668C77.1523 47.2668 78.3425 48.4571 78.3425 49.9311V60.7257Z"
        fill="#8B1D04" />
    <path
        d="M88.3955 60.726H83.0669V37.9192C83.0669 36.4451 84.2571 35.2549 85.7312 35.2549C87.2053 35.2549 88.3955 36.4451 88.3955 37.9192V60.726Z"
        fill="#F84018" />
    <path
        d="M77.2164 65.8165H74.1309C73.5083 65.8165 73.0139 65.3129 73.0139 64.6995C73.0139 64.0769 73.5175 63.5825 74.1309 63.5825H77.2164C77.839 63.5825 78.3334 64.0861 78.3334 64.6995C78.3334 65.3221 77.8298 65.8165 77.2164 65.8165Z"
        fill="#54656F" />
    <path
        d="M87.2052 65.8165H84.1197C83.4971 65.8165 83.0027 65.3129 83.0027 64.6995C83.0027 64.0769 83.5062 63.5825 84.1197 63.5825H87.2052C87.8277 63.5825 88.3221 64.0861 88.3221 64.6995C88.3221 65.3221 87.8186 65.8165 87.2052 65.8165Z"
        fill="#54656F" />
    <path
        d="M97.3407 65.8165H94.2552C93.6326 65.8165 93.1382 65.3129 93.1382 64.6995C93.1382 64.0769 93.6417 63.5825 94.2552 63.5825H97.3407C97.9632 63.5825 98.4576 64.0861 98.4576 64.6995C98.4576 65.3221 97.9541 65.8165 97.3407 65.8165Z"
        fill="#54656F" />
    <path
        d="M107.394 65.8165H104.308C103.686 65.8165 103.191 65.3129 103.191 64.6995C103.191 64.0769 103.695 63.5825 104.308 63.5825H107.394C108.016 63.5825 108.511 64.0861 108.511 64.6995C108.511 65.3221 108.007 65.8165 107.394 65.8165Z"
        fill="#54656F" />
    <path
        d="M117.456 65.8165H114.37C113.748 65.8165 113.253 65.3129 113.253 64.6995C113.253 64.0769 113.757 63.5825 114.37 63.5825H117.456C118.078 63.5825 118.573 64.0861 118.573 64.6995C118.573 65.3221 118.069 65.8165 117.456 65.8165Z"
        fill="#54656F" />
    <path
        d="M127.509 65.8165H124.423C123.801 65.8165 123.306 65.3129 123.306 64.6995C123.306 64.0769 123.81 63.5825 124.423 63.5825H127.509C128.131 63.5825 128.626 64.0861 128.626 64.6995C128.626 65.3221 128.122 65.8165 127.509 65.8165Z"
        fill="#54656F" />
    <path d="M133.048 62.3461H69.498V28.9004H70.1389V61.7052H133.048V62.3461Z" fill="#54656F" />
    <path opacity="0.2"
        d="M269.596 266.344C223.955 266.317 156.111 266.124 166.494 263.011C176.876 259.898 231.609 262.471 276.573 261.904C298.235 261.629 291.908 260.283 321.271 261.199C367.214 262.636 354.707 264.513 334.556 265.007C297.512 265.923 295.314 266.307 292.32 266.335C286.946 266.39 287.358 266.344 269.596 266.335V266.344Z"
        fill="#005D92" />
    <path opacity="0.2"
        d="M115.652 264.284C103.923 264.265 86.5001 264.146 89.1644 262.205C91.8287 260.264 105.892 261.867 117.446 261.519C123.013 261.354 121.383 260.512 128.928 261.079C140.729 261.977 137.516 263.139 132.343 263.451C122.83 264.027 122.262 264.256 121.493 264.284C120.111 264.32 120.221 264.284 115.652 264.284Z"
        fill="#005D92" />
    <path opacity="0.2"
        d="M32.5273 264.915C20.7989 264.897 3.37562 264.778 6.03993 262.837C8.70423 260.896 22.7674 262.498 34.3219 262.15C39.8885 261.985 38.2588 261.143 45.8031 261.711C57.6048 262.608 54.3911 263.771 49.2182 264.082C39.7054 264.659 39.1378 264.888 38.3687 264.915C36.9862 264.952 37.096 264.915 32.5273 264.915Z"
        fill="#005D92" />
    <path
        d="M27.4001 231.314C27.4001 231.314 13.7215 223.129 13.5842 211.281C13.3462 190.544 20.7989 187.641 18.0797 174.714C15.3513 161.786 25.0014 146.844 29.4876 154.818C33.9739 162.793 29.6799 168.057 32.3717 172.315C35.0635 176.581 36.6749 187.587 34.0472 195.735C31.4195 203.884 48.2019 210.21 37.9841 224.438C30.7694 234.482 27.4093 231.323 27.4093 231.323L27.4001 231.314Z"
        fill="#85BD4D" />
    <path
        d="M29.268 231.735L29.1307 231.799C29.0941 231.625 25.5233 214.651 24.443 207.335C23.3626 200.002 24.0951 195.9 24.8 191.936C25.386 188.639 25.9445 185.517 25.4867 180.711C24.4796 170.118 25.4501 158.041 25.4593 157.922L25.6057 157.95C25.5966 158.069 24.6261 170.118 25.6332 180.683C26.091 185.536 25.5325 188.667 24.9374 191.99C24.2324 195.937 23.4999 200.011 24.5803 207.29C25.6607 214.596 29.2314 231.571 29.268 231.735Z"
        fill="#648E3A" />
    <path
        d="M19.9291 231.122C19.9291 231.122 6.8914 227.093 4.75812 216.976C1.0226 199.269 6.87309 195.167 2.35017 184.693C-2.17274 174.219 3.48548 159.323 8.6676 165.173C13.8406 171.024 11.0847 176.462 14.1061 179.53C17.1183 182.597 20.3686 191.67 19.5171 199.214C18.6656 206.759 34.0289 208.526 27.7572 222.927C23.3259 233.099 19.9291 231.122 19.9291 231.122Z"
        fill="#8CC751" />
    <path
        d="M21.5864 231.076L21.4765 231.158C21.4125 231.021 15.4887 217.26 13.3188 211.235C11.1489 205.193 11.0757 201.521 11.0024 197.978C10.9383 195.021 10.8834 192.237 9.67486 188.218C7.01055 179.364 5.78369 168.817 5.76538 168.707H5.89356C5.90272 168.799 7.13873 179.328 9.79389 188.154C11.0116 192.201 11.0665 195.012 11.1306 197.987C11.2039 201.512 11.2771 205.165 13.4378 211.162C15.6077 217.187 21.5315 230.939 21.5956 231.076H21.5864Z"
        fill="#69953D" />
    <path
        d="M31.6574 229.886C31.6574 229.886 24.928 219.769 28.4621 211.391C34.6605 196.733 40.5842 197.072 42.7084 187.111C44.8325 177.149 55.9292 169.724 56.5151 176.755C57.1011 183.796 52.5874 186.122 53.1001 189.976C53.6036 193.831 51.3239 202.089 47.0482 206.978C42.7725 211.868 52.1754 221.673 40.9047 228.412C32.9484 233.173 31.6483 229.877 31.6483 229.877L31.6574 229.886Z"
        fill="#A3D274" />
    <path
        d="M32.7927 230.783H32.6829C32.7103 230.655 35.5028 217.572 37.0135 212.078C38.5242 206.576 40.2821 203.93 41.9759 201.366C43.3859 199.233 44.7134 197.218 45.8854 193.693C48.449 185.92 52.8071 177.735 52.8528 177.662L52.9444 177.726C52.8986 177.808 48.5497 185.966 45.9952 193.721C44.8233 197.273 43.4774 199.306 42.0583 201.448C40.3736 203.994 38.6341 206.63 37.1234 212.096C35.6127 217.581 32.8202 230.655 32.7927 230.783Z"
        fill="#85BD4D" />
    <path
        d="M42.8824 263.588H15.4062C14.7653 263.588 14.2251 263.084 14.1885 262.443L12.0918 229.758H46.1784L44.0818 262.443C44.0452 263.084 43.5141 263.588 42.8641 263.588H42.8824Z"
        fill="#ABBED1" />
    <path
        d="M41.3075 237.119C42.0857 237.119 45.0613 237.101 45.7755 237L46.1875 229.767H12.1008L12.4487 235.791C15.2321 235.901 27.693 236.377 30.8425 236.56C34.3949 236.771 39.0643 237.11 41.3166 237.119H41.3075Z"
        fill="#F5F7FA" />
    <path
        d="M47.1214 229.758H11.167C10.7221 229.758 10.3613 230.118 10.3613 230.563V233.337C10.3613 233.782 10.7221 234.143 11.167 234.143H47.1214C47.5664 234.143 47.9271 233.782 47.9271 233.337V230.563C47.9271 230.118 47.5664 229.758 47.1214 229.758Z"
        fill="#ABBED1" />
    <g opacity="0.6">
        <path d="M34.3309 229.758L32.8477 263.588H40.7765L43.2851 229.758H34.3309Z" fill="white" />
    </g>
    <path
        d="M100.179 262.884H100.042L100.014 263.589H96.6265L96.718 262.655H96.8279V262.646L97.5695 259.203H101.085L101.159 259.652L102.047 260.842L107.174 262.307C107.174 262.307 107.577 262.481 107.568 262.701L107.549 263.103V263.351C107.549 263.351 107.476 263.461 107.064 263.58H101.177L100.82 263.103L100.472 262.884L100.17 262.865L100.179 262.884Z"
        fill="#54656F" />
    <path
        d="M119.012 262.884H118.875L118.847 263.589H115.46L115.551 262.655H115.661V262.646L116.403 259.203H119.919L119.992 259.652L120.88 260.842L126.007 262.307C126.007 262.307 126.41 262.481 126.401 262.701L126.382 263.103V263.351C126.382 263.351 126.309 263.461 125.897 263.58H120.01L119.653 263.103L119.305 262.884L119.003 262.865L119.012 262.884Z"
        fill="#54656F" />
    <path
        d="M138.184 159.909L137.333 160.056L136.381 159.763L136.628 159.982L139.237 161.09L141.315 162.106L140.72 162.894L140.363 163.04L138.349 163.819L135.492 163.233L131.958 161.786L124.67 159.781L125.98 156.045L133.094 158.563L135.877 158.582L137.58 159.158L138.669 159.378L138.734 159.543L138.184 159.909Z"
        fill="#F8AF98" />
    <path
        d="M106.057 120.558C108.117 120.421 110.232 121.684 110.488 128.194C110.726 134.255 110.891 144.518 110.497 151.028C110.397 152.749 110.095 154.837 107.073 155.084C104.446 155.295 102.779 154.443 102.45 149.316C102.056 143.09 101.818 133.22 101.745 127.342C101.717 125.447 101.616 120.86 106.057 120.558Z"
        fill="#0092C8" />
    <path
        d="M130.521 157.025C130.521 157.025 115.249 150.488 109.737 148.419C107.687 147.649 104.052 147.219 103.219 152.108C102.642 155.459 109.216 156.595 113.601 157.73C117.859 158.838 128.47 161.172 128.47 161.172L130.521 157.025Z"
        fill="#0092C8" />
    <path
        d="M106.057 120.558C108.117 120.421 110.232 121.684 110.488 128.194C110.726 134.255 110.891 144.518 110.497 151.028C110.397 152.749 110.095 154.837 107.073 155.084C104.446 155.295 102.779 154.443 102.45 149.316C102.056 143.09 101.818 133.22 101.745 127.342C101.717 125.447 101.616 120.86 106.057 120.558Z"
        fill="#3A8DC6" />
    <path
        d="M130.521 157.025C130.521 157.025 115.249 150.488 109.737 148.419C107.687 147.649 104.052 147.219 103.219 152.108C102.642 155.459 109.216 156.595 113.601 157.73C117.859 158.838 128.47 161.172 128.47 161.172L130.521 157.025Z"
        fill="#B22506" />
    <path d="M102.926 107.154L108.117 107.566L107.714 117.711L102.285 116.557L102.926 107.154Z" fill="#F8AF98" />
    <path
        d="M113.903 107.465C113.903 107.511 112.814 107.493 112.814 107.539C112.521 110.78 111.431 112.95 106.689 112.501C103.869 112.235 101.79 109.388 102.065 106.074C102.102 105.607 102.349 99.5457 102.468 99.1153L104.793 97.5131L109.096 96.7166L112.393 97.9617C112.411 98.0899 113.766 99.3992 113.519 101.496C113.409 102.457 113.519 103.538 113.674 105.002C113.812 106.211 113.922 107.301 113.903 107.465Z"
        fill="#F8AF98" />
    <path
        d="M103.356 108.811H102.33C102.33 108.811 101.506 107.456 101.378 107.09C101.232 106.651 101.305 105.451 101.305 105.451C101.333 102.997 99.831 103.043 100.161 101.111C100.261 100.525 100.28 99.3352 100.719 98.6302C101.241 97.797 102.981 97.1103 103.429 96.6068C103.759 96.2497 103.255 96.3596 104.116 95.8011C104.793 95.3616 105.901 94.8855 106.744 94.9313C108.785 95.0503 109.252 96.3962 110.323 95.6637C111.175 95.0778 112.457 95.5172 113.015 95.737C113.986 96.1124 113.748 96.8448 113.894 97.0096C114.169 97.3209 115.13 96.8265 115.213 97.4308C115.332 98.264 114.828 99.1337 114.004 99.7014C113.162 100.287 109.875 100.709 109.316 100.8C109.316 101.313 109.243 101.569 109.197 102.366C109.197 102.521 108.767 102.695 108.758 102.842C108.712 103.776 108.611 104.554 108.611 104.993L107.961 105.149C107.961 105.149 107.897 103.986 107.595 103.831C107.33 103.693 106.679 104.005 106.478 104.224C106.213 104.499 106.057 105.296 106.039 105.68C106.02 106.074 105.434 107.41 105.224 107.768C104.555 108.848 103.347 108.82 103.347 108.82L103.356 108.811Z"
        fill="#2F393E" />
    <path
        d="M117.025 165.384L117.254 168.305L97.5237 167.838L97.4962 165.65L96.2694 165.082C96.2694 165.082 95.0425 164.295 94.9967 163.178C94.777 157.108 94.6305 153.454 94.8777 145.068C95.0425 139.355 95.5919 135.235 95.5369 129.402C95.4179 117.308 102.514 114.872 102.514 114.872L108.126 115.953C113.134 120.567 115.753 126.463 116.54 138.54C117.446 152.566 118.701 163.581 118.701 163.581L117.025 165.384Z"
        fill="#ED3207" />
    <path d="M107.97 114.863L102.514 113.92L101.735 115.33L108.666 116.823L107.97 114.863Z" fill="#B22506" />
    <path
        d="M104.345 165.76H117.282L117.675 170.191L121.933 213.809L121.155 259.423L115.011 259.715L113.134 214.633L105.572 172.425L104.345 165.76Z"
        fill="#631503" />
    <path
        d="M97.3498 165.76H113.299L112.832 172.306L107.742 212.646L102.55 259.908L96.1138 259.734L97.8808 213.04L97.4413 175.566L96.3884 169.202L97.0477 167.17L97.3498 165.76Z"
        fill="#8B1D04" />
    <path
        d="M109.765 175.804L109.792 175.776L110.14 176.463L110.598 177.845L110.845 177.937L111.349 177.854L111.028 175.913L109.747 173.67L108.08 171.986L104.931 164.57L100.774 165.549L105.178 173.808L106.313 177.488L107.998 180.748L110.699 180.098L111.23 179.741L110.36 177.699L109.765 175.804Z"
        fill="#F8AF98" />
    <path
        d="M105.068 118.59C106.817 119.688 108.227 121.666 106.24 127.626C104.326 133.376 101.644 143.685 99.0436 149.664C98.3569 151.248 96.892 153.885 93.9713 153.079C91.4352 152.374 90.2816 150.104 92.0761 145.297C94.0171 140.078 96.5166 128.835 98.952 123.488C99.7119 121.822 101.113 116.09 105.068 118.59Z"
        fill="#B22506" />
    <path
        d="M107.742 169.44C107.742 169.44 101.726 155.542 99.5197 150.076C98.6957 148.044 97.0019 144.491 92.3416 147.11C89.1738 148.895 93.3305 155.661 95.4546 159.662C97.5238 163.544 103.356 171.217 103.356 171.217L107.742 169.431V169.44Z"
        fill="#B22506" />
    <path
        d="M110.314 171.876C110.314 171.876 110.241 176.747 104.748 179.731V185.499H110.909L111.34 180.748L112.402 172.865V171.876H110.314Z"
        fill="#8B1D04" />
    <path d="M245.645 182.661H240.865V214.889H245.645V182.661Z" fill="#3A8DC6" />
    <path
        d="M249.7 201.064H236.068C232.863 201.064 230.181 198.62 229.888 195.424L227.892 174C227.699 171.931 229.329 170.136 231.407 170.136H254.37C256.448 170.136 258.078 171.922 257.886 174L255.89 195.424C255.597 198.62 252.914 201.064 249.7 201.064Z"
        fill="#8B1D04" />
    <path d="M236.708 217.865H233.257V250.34H236.708V217.865Z" fill="#54656F" />
    <path opacity="0.2" d="M235.729 217.865H234.987V250.34H235.729V217.865Z" fill="#BFC3C9" />
    <path
        d="M232.359 236.827H237.615C237.77 236.827 237.889 236.946 237.889 237.101V249.901H232.094V237.101C232.094 236.946 232.213 236.827 232.368 236.827H232.359Z"
        fill="#2F393E" />
    <path opacity="0.5" d="M236.635 236.827H235.729V249.901H236.635V236.827Z" fill="#596165" />
    <path
        d="M254.022 252.529V253.279H215.943V252.529C215.943 250.853 217.298 249.498 218.974 249.498H250.991C252.667 249.498 254.022 250.853 254.022 252.529Z"
        fill="#2F393E" />
    <path d="M217.573 252.931H215.944V257.06H217.573V252.931Z" fill="#2F393E" />
    <path d="M254.022 252.931H252.392V257.06H254.022V252.931Z" fill="#2F393E" />
    <path d="M235.885 252.931H234.255V257.06H235.885V252.931Z" fill="#2F393E" />
    <path
        d="M256.915 257.848C256.915 259.899 255.258 261.556 253.207 261.556C251.156 261.556 249.499 259.899 249.499 257.848C249.499 255.797 251.156 254.14 253.207 254.14C255.258 254.14 256.915 255.797 256.915 257.848Z"
        fill="#181D1F" />
    <path
        d="M255.295 257.848C255.295 259.002 254.361 259.935 253.216 259.935C252.072 259.935 251.129 259.002 251.129 257.848C251.129 256.694 252.063 255.77 253.216 255.77C254.37 255.77 255.295 256.703 255.295 257.848Z"
        fill="#2F393E" />
    <path
        d="M220.466 257.848C220.466 259.899 218.809 261.556 216.758 261.556C214.707 261.556 213.05 259.899 213.05 257.848C213.05 255.797 214.707 254.14 216.758 254.14C218.809 254.14 220.466 255.797 220.466 257.848Z"
        fill="#181D1F" />
    <path
        d="M218.846 257.848C218.846 259.002 217.912 259.935 216.768 259.935C215.623 259.935 214.68 259.002 214.68 257.848C214.68 256.694 215.614 255.77 216.768 255.77C217.921 255.77 218.846 256.703 218.846 257.848Z"
        fill="#2F393E" />
    <path
        d="M238.778 257.848C238.778 259.899 237.121 261.556 235.07 261.556C233.019 261.556 231.362 259.899 231.362 257.848C231.362 255.797 233.019 254.14 235.07 254.14C237.121 254.14 238.778 255.797 238.778 257.848Z"
        fill="#181D1F" />
    <path
        d="M237.148 257.848C237.148 259.002 236.214 259.935 235.07 259.935C233.925 259.935 232.982 259.002 232.982 257.848C232.982 256.694 233.916 255.77 235.07 255.77C236.223 255.77 237.148 256.703 237.148 257.848Z"
        fill="#2F393E" />
    <path
        d="M243.191 217.865H226.811C225.575 217.865 224.348 217.673 223.176 217.279L214.066 213.232H254.406L246.606 217.352C245.498 217.691 244.353 217.865 243.191 217.865Z"
        fill="#3A8DC6" />
    <path
        d="M254.287 208.05H214.167C213.004 208.05 212.071 208.993 212.071 210.147V211.127C212.071 212.289 213.014 213.223 214.167 213.223H254.287C255.45 213.223 256.384 212.28 256.384 211.127V210.147C256.384 208.984 255.441 208.05 254.287 208.05Z"
        fill="#005280" />
    <path opacity="0.15" d="M146.131 48.5757H131.061V84.7773H132.89V50.4313H146.131V48.5757Z" fill="#FB8D74" />
    <path opacity="0.4" d="M132.892 137.826H274.549V67.097L251.947 67.097V50.407H132.892V137.826Z" fill="#FEDED7" />
    <path d="M180.987 80.1176C179.128 75.7687 174.798 72.7107 169.799 72.7107V84.8786L180.987 80.1268V80.1176Z"
        fill="#F84018" />
    <path
        d="M181.161 81.1613L168.883 86.38L158.931 77.5173C156.825 79.8795 155.534 82.9833 155.534 86.38C155.534 93.7229 161.54 99.729 168.883 99.729C176.226 99.729 182.232 93.7229 182.232 86.38C182.232 84.5306 181.848 82.7635 181.161 81.1613Z"
        fill="#F96D4D" />
    <path d="M168.883 73.0312C164.937 73.0312 161.375 74.7708 158.931 77.5175L168.883 86.3803V73.0312Z"
        fill="#8B1D04" />
    <path d="M185.72 101.917H174.642L174.633 101.899L169.881 97.1561L169.945 97.092L174.679 101.826H185.72V101.917Z"
        fill="#54656F" />
    <path
        d="M191.91 103.043H187.707C187.085 103.043 186.581 102.54 186.581 101.917C186.581 101.295 187.085 100.791 187.707 100.791H191.91C192.532 100.791 193.036 101.295 193.036 101.917C193.036 102.54 192.532 103.043 191.91 103.043Z"
        fill="#F96D4D" />
    <path d="M164.424 75.4297L161.421 72.4267H152.082V72.3442H161.458L161.476 72.3534L164.488 75.3656L164.424 75.4297Z"
        fill="#54656F" />
    <path
        d="M150.508 73.5069H146.305C145.683 73.5069 145.179 73.0034 145.179 72.3808C145.179 71.7582 145.683 71.2546 146.305 71.2546H150.508C151.13 71.2546 151.634 71.7582 151.634 72.3808C151.634 73.0034 151.13 73.5069 150.508 73.5069Z"
        fill="#8B1D04" />
    <path d="M175.42 76.1805L175.365 76.1164L180.401 71.0808H189.611V71.1724H180.437L175.42 76.1805Z" fill="#54656F" />
    <path
        d="M196.094 72.2526H191.891C191.269 72.2526 190.765 71.749 190.765 71.1264C190.765 70.5038 191.269 70.0002 191.891 70.0002H196.094C196.716 70.0002 197.22 70.5038 197.22 71.1264C197.22 71.749 196.716 72.2526 196.094 72.2526Z"
        fill="#F84018" />
    <path d="M191.388 112.025H145.179V113.069H191.388V112.025Z" fill="#BBC1C5" />
    <path d="M196.423 114.854H145.179V115.898H196.423V114.854Z" fill="#BBC1C5" />
    <path d="M184.997 117.674H145.179V118.718H184.997V117.674Z" fill="#BBC1C5" />
    <path d="M260.577 112.025H214.368V113.069H260.577V112.025Z" fill="#BBC1C5" />
    <path d="M265.613 114.854H214.368V115.898H265.613V114.854Z" fill="#BBC1C5" />
    <path d="M254.187 117.675H214.368V118.718H254.187V117.675Z" fill="#BBC1C5" />
    <path d="M254.013 98.0906H215.952V72.0884H216.218V97.825H254.013V98.0906Z" fill="#54656F" />
    <g opacity="0.5">
        <path d="M219.487 99.8574H218.086V100.141H219.487V99.8574Z" fill="#BBC1C5" />
        <path d="M220.484 99.2346H218.086V99.5184H220.484V99.2346Z" fill="#BBC1C5" />
    </g>
    <g opacity="0.5">
        <path d="M223.414 99.8574H222.013V100.141H223.414V99.8574Z" fill="#BBC1C5" />
        <path d="M224.412 99.2346H222.013V99.5184H224.412V99.2346Z" fill="#BBC1C5" />
    </g>
    <g opacity="0.5">
        <path d="M227.342 99.8574H225.941V100.141H227.342V99.8574Z" fill="#BBC1C5" />
        <path d="M228.34 99.2346H225.941V99.5184H228.34V99.2346Z" fill="#BBC1C5" />
    </g>
    <g opacity="0.5">
        <path d="M231.27 99.8574H229.869V100.141H231.27V99.8574Z" fill="#BBC1C5" />
        <path d="M232.268 99.2346H229.869V99.5184H232.268V99.2346Z" fill="#BBC1C5" />
    </g>
    <g opacity="0.5">
        <path d="M235.198 99.8574H233.797V100.141H235.198V99.8574Z" fill="#BBC1C5" />
        <path d="M236.196 99.2346H233.797V99.5184H236.196V99.2346Z" fill="#BBC1C5" />
    </g>
    <g opacity="0.5">
        <path d="M239.116 99.8574H237.716V100.141H239.116V99.8574Z" fill="#BBC1C5" />
        <path d="M240.114 99.2346H237.716V99.5184H240.114V99.2346Z" fill="#BBC1C5" />
    </g>
    <g opacity="0.5">
        <path d="M243.044 99.8574H241.643V100.141H243.044V99.8574Z" fill="#BBC1C5" />
        <path d="M244.042 99.2346H241.643V99.5184H244.042V99.2346Z" fill="#BBC1C5" />
    </g>
    <g opacity="0.5">
        <path d="M246.972 99.8574H245.571V100.141H246.972V99.8574Z" fill="#BBC1C5" />
        <path d="M247.97 99.2346H245.571V99.5184H247.97V99.2346Z" fill="#BBC1C5" />
    </g>
    <g opacity="0.5">
        <path d="M250.9 99.8574H249.499V100.141H250.9V99.8574Z" fill="#BBC1C5" />
        <path d="M251.898 99.2346H249.499V99.5184H251.898V99.2346Z" fill="#BBC1C5" />
    </g>
    <path
        d="M249.059 69.6072H248.84C248.556 69.6072 248.327 69.8361 248.327 70.1199C248.327 70.4037 248.556 70.6326 248.84 70.6326H249.059C249.343 70.6326 249.572 70.4037 249.572 70.1199C249.572 69.8361 249.343 69.6072 249.059 69.6072Z"
        fill="#8B1D04" />
    <path
        d="M251.065 69.6072H250.845C250.561 69.6072 250.332 69.8361 250.332 70.1199C250.332 70.4037 250.561 70.6326 250.845 70.6326H251.065C251.348 70.6326 251.577 70.4037 251.577 70.1199C251.577 69.8361 251.348 69.6072 251.065 69.6072Z"
        fill="#F96D4D" />
    <path
        d="M252.328 70.1289C252.328 70.4128 252.557 70.6417 252.841 70.6417H253.06C253.344 70.6417 253.573 70.4128 253.573 70.1289C253.573 69.8451 253.344 69.6162 253.06 69.6162H252.841C252.557 69.6162 252.328 69.8451 252.328 70.1289Z"
        fill="#F84018" />
    <path d="M217.445 75.4387H217.179V75.5761H217.445V75.4387Z" fill="#BBC1C5" />
    <path
        d="M253.61 75.5675H253.079V75.4302H253.61V75.5675ZM252.548 75.5675H252.017V75.4302H252.548V75.5675ZM251.486 75.5675H250.955V75.4302H251.486V75.5675ZM250.424 75.5675H249.893V75.4302H250.424V75.5675ZM249.362 75.5675H248.831V75.4302H249.362V75.5675ZM248.299 75.5675H247.768V75.4302H248.299V75.5675ZM247.237 75.5675H246.706V75.4302H247.237V75.5675ZM246.175 75.5675H245.644V75.4302H246.175V75.5675ZM245.113 75.5675H244.582V75.4302H245.113V75.5675ZM244.051 75.5675H243.52V75.4302H244.051V75.5675ZM242.989 75.5675H242.458V75.4302H242.989V75.5675ZM241.927 75.5675H241.396V75.4302H241.927V75.5675ZM240.865 75.5675H240.334V75.4302H240.865V75.5675ZM239.803 75.5675H239.272V75.4302H239.803V75.5675ZM238.741 75.5675H238.21V75.4302H238.741V75.5675ZM237.679 75.5675H237.148V75.4302H237.679V75.5675ZM236.617 75.5675H236.086V75.4302H236.617V75.5675ZM235.555 75.5675H235.024V75.4302H235.555V75.5675ZM234.493 75.5675H233.962V75.4302H234.493V75.5675ZM233.431 75.5675H232.9V75.4302H233.431V75.5675ZM232.369 75.5675H231.838V75.4302H232.369V75.5675ZM231.307 75.5675H230.775V75.4302H231.307V75.5675ZM230.244 75.5675H229.713V75.4302H230.244V75.5675ZM229.182 75.5675H228.651V75.4302H229.182V75.5675ZM228.12 75.5675H227.589V75.4302H228.12V75.5675ZM227.058 75.5675H226.527V75.4302H227.058V75.5675ZM225.996 75.5675H225.465V75.4302H225.996V75.5675ZM224.934 75.5675H224.403V75.4302H224.934V75.5675ZM223.872 75.5675H223.341V75.4302H223.872V75.5675ZM222.81 75.5675H222.279V75.4302H222.81V75.5675ZM221.748 75.5675H221.217V75.4302H221.748V75.5675ZM220.686 75.5675H220.155V75.4302H220.686V75.5675ZM219.624 75.5675H219.093V75.4302H219.624V75.5675ZM218.562 75.5675H218.031V75.4302H218.562V75.5675Z"
        fill="#BBC1C5" />
    <path d="M217.445 81.7842H217.179V81.9215H217.445V81.7842Z" fill="#BBC1C5" />
    <path
        d="M253.61 81.9215H253.079V81.7842H253.61V81.9215ZM252.548 81.9215H252.017V81.7842H252.548V81.9215ZM251.486 81.9215H250.955V81.7842H251.486V81.9215ZM250.424 81.9215H249.893V81.7842H250.424V81.9215ZM249.362 81.9215H248.831V81.7842H249.362V81.9215ZM248.299 81.9215H247.768V81.7842H248.299V81.9215ZM247.237 81.9215H246.706V81.7842H247.237V81.9215ZM246.175 81.9215H245.644V81.7842H246.175V81.9215ZM245.113 81.9215H244.582V81.7842H245.113V81.9215ZM244.051 81.9215H243.52V81.7842H244.051V81.9215ZM242.989 81.9215H242.458V81.7842H242.989V81.9215ZM241.927 81.9215H241.396V81.7842H241.927V81.9215ZM240.865 81.9215H240.334V81.7842H240.865V81.9215ZM239.803 81.9215H239.272V81.7842H239.803V81.9215ZM238.741 81.9215H238.21V81.7842H238.741V81.9215ZM237.679 81.9215H237.148V81.7842H237.679V81.9215ZM236.617 81.9215H236.086V81.7842H236.617V81.9215ZM235.555 81.9215H235.024V81.7842H235.555V81.9215ZM234.493 81.9215H233.962V81.7842H234.493V81.9215ZM233.431 81.9215H232.9V81.7842H233.431V81.9215ZM232.369 81.9215H231.838V81.7842H232.369V81.9215ZM231.307 81.9215H230.775V81.7842H231.307V81.9215ZM230.244 81.9215H229.713V81.7842H230.244V81.9215ZM229.182 81.9215H228.651V81.7842H229.182V81.9215ZM228.12 81.9215H227.589V81.7842H228.12V81.9215ZM227.058 81.9215H226.527V81.7842H227.058V81.9215ZM225.996 81.9215H225.465V81.7842H225.996V81.9215ZM224.934 81.9215H224.403V81.7842H224.934V81.9215ZM223.872 81.9215H223.341V81.7842H223.872V81.9215ZM222.81 81.9215H222.279V81.7842H222.81V81.9215ZM221.748 81.9215H221.217V81.7842H221.748V81.9215ZM220.686 81.9215H220.155V81.7842H220.686V81.9215ZM219.624 81.9215H219.093V81.7842H219.624V81.9215ZM218.562 81.9215H218.031V81.7842H218.562V81.9215Z"
        fill="#BBC1C5" />
    <path d="M217.445 88.1292H217.179V88.2665H217.445V88.1292Z" fill="#BBC1C5" />
    <path
        d="M253.61 88.2665H253.079V88.1292H253.61V88.2665ZM252.548 88.2665H252.017V88.1292H252.548V88.2665ZM251.486 88.2665H250.955V88.1292H251.486V88.2665ZM250.424 88.2665H249.893V88.1292H250.424V88.2665ZM249.362 88.2665H248.831V88.1292H249.362V88.2665ZM248.299 88.2665H247.768V88.1292H248.299V88.2665ZM247.237 88.2665H246.706V88.1292H247.237V88.2665ZM246.175 88.2665H245.644V88.1292H246.175V88.2665ZM245.113 88.2665H244.582V88.1292H245.113V88.2665ZM244.051 88.2665H243.52V88.1292H244.051V88.2665ZM242.989 88.2665H242.458V88.1292H242.989V88.2665ZM241.927 88.2665H241.396V88.1292H241.927V88.2665ZM240.865 88.2665H240.334V88.1292H240.865V88.2665ZM239.803 88.2665H239.272V88.1292H239.803V88.2665ZM238.741 88.2665H238.21V88.1292H238.741V88.2665ZM237.679 88.2665H237.148V88.1292H237.679V88.2665ZM236.617 88.2665H236.086V88.1292H236.617V88.2665ZM235.555 88.2665H235.024V88.1292H235.555V88.2665ZM234.493 88.2665H233.962V88.1292H234.493V88.2665ZM233.431 88.2665H232.9V88.1292H233.431V88.2665ZM232.369 88.2665H231.838V88.1292H232.369V88.2665ZM231.307 88.2665H230.775V88.1292H231.307V88.2665ZM230.244 88.2665H229.713V88.1292H230.244V88.2665ZM229.182 88.2665H228.651V88.1292H229.182V88.2665ZM228.12 88.2665H227.589V88.1292H228.12V88.2665ZM227.058 88.2665H226.527V88.1292H227.058V88.2665ZM225.996 88.2665H225.465V88.1292H225.996V88.2665ZM224.934 88.2665H224.403V88.1292H224.934V88.2665ZM223.872 88.2665H223.341V88.1292H223.872V88.2665ZM222.81 88.2665H222.279V88.1292H222.81V88.2665ZM221.748 88.2665H221.217V88.1292H221.748V88.2665ZM220.686 88.2665H220.155V88.1292H220.686V88.2665ZM219.624 88.2665H219.093V88.1292H219.624V88.2665ZM218.562 88.2665H218.031V88.1292H218.562V88.2665Z"
        fill="#BBC1C5" />
    <path d="M217.445 94.4827H217.179V94.62H217.445V94.4827Z" fill="#BBC1C5" />
    <path
        d="M253.61 94.611H253.079V94.4736H253.61V94.611ZM252.548 94.611H252.017V94.4736H252.548V94.611ZM251.486 94.611H250.955V94.4736H251.486V94.611ZM250.424 94.611H249.893V94.4736H250.424V94.611ZM249.362 94.611H248.831V94.4736H249.362V94.611ZM248.299 94.611H247.768V94.4736H248.299V94.611ZM247.237 94.611H246.706V94.4736H247.237V94.611ZM246.175 94.611H245.644V94.4736H246.175V94.611ZM245.113 94.611H244.582V94.4736H245.113V94.611ZM244.051 94.611H243.52V94.4736H244.051V94.611ZM242.989 94.611H242.458V94.4736H242.989V94.611ZM241.927 94.611H241.396V94.4736H241.927V94.611ZM240.865 94.611H240.334V94.4736H240.865V94.611ZM239.803 94.611H239.272V94.4736H239.803V94.611ZM238.741 94.611H238.21V94.4736H238.741V94.611ZM237.679 94.611H237.148V94.4736H237.679V94.611ZM236.617 94.611H236.086V94.4736H236.617V94.611ZM235.555 94.611H235.024V94.4736H235.555V94.611ZM234.493 94.611H233.962V94.4736H234.493V94.611ZM233.431 94.611H232.9V94.4736H233.431V94.611ZM232.369 94.611H231.838V94.4736H232.369V94.611ZM231.307 94.611H230.775V94.4736H231.307V94.611ZM230.244 94.611H229.713V94.4736H230.244V94.611ZM229.182 94.611H228.651V94.4736H229.182V94.611ZM228.12 94.611H227.589V94.4736H228.12V94.611ZM227.058 94.611H226.527V94.4736H227.058V94.611ZM225.996 94.611H225.465V94.4736H225.996V94.611ZM224.934 94.611H224.403V94.4736H224.934V94.611ZM223.872 94.611H223.341V94.4736H223.872V94.611ZM222.81 94.611H222.279V94.4736H222.81V94.611ZM221.748 94.611H221.217V94.4736H221.748V94.611ZM220.686 94.611H220.155V94.4736H220.686V94.611ZM219.624 94.611H219.093V94.4736H219.624V94.611ZM218.562 94.611H218.031V94.4736H218.562V94.611Z"
        fill="#BBC1C5" />
    <path d="M221.739 94.0896H218.086V97.8251H221.739V94.0896Z" fill="#F96D4D" />
    <path d="M227.736 93.0457H224.083V97.8249H227.736V93.0457Z" fill="#8B1D04" />
    <path d="M233.724 91.4067H230.071V97.8249H233.724V91.4067Z" fill="#F96D4D" />
    <path d="M239.711 87.0945H236.058V97.825H239.711V87.0945Z" fill="#8B1D04" />
    <path d="M245.699 83.1028H242.046V97.8251H245.699V83.1028Z" fill="#F96D4D" />
    <path d="M251.687 79.9622H248.034V97.8249H251.687V79.9622Z" fill="#8B1D04" />
    <path
        d="M214.863 97.9075C214.863 98.1547 214.771 98.292 214.606 98.292C214.46 98.292 214.368 98.1547 214.368 97.9166C214.368 97.6694 214.478 97.5413 214.625 97.5413C214.771 97.5413 214.863 97.6786 214.863 97.9075ZM214.469 97.9166C214.469 98.1089 214.524 98.2096 214.616 98.2096C214.716 98.2096 214.762 98.0906 214.762 97.9075C214.762 97.7244 214.716 97.6145 214.616 97.6145C214.533 97.6145 214.469 97.7152 214.469 97.9166Z"
        fill="#54656F" />
    <path d="M215.165 97.6416L215.037 97.7057L215.018 97.6324L215.174 97.55H215.256V98.2733H215.165V97.6416Z"
        fill="#54656F" />
    <path
        d="M214.863 91.7276C214.863 91.9748 214.771 92.1121 214.606 92.1121C214.46 92.1121 214.368 91.9748 214.368 91.7367C214.368 91.4895 214.478 91.3613 214.625 91.3613C214.771 91.3613 214.863 91.4987 214.863 91.7276ZM214.469 91.7367C214.469 91.929 214.524 92.0297 214.616 92.0297C214.716 92.0297 214.762 91.9107 214.762 91.7276C214.762 91.5445 214.716 91.4346 214.616 91.4346C214.533 91.4346 214.469 91.5353 214.469 91.7367Z"
        fill="#54656F" />
    <path
        d="M214.954 92.1031V92.039L215.028 91.9657C215.211 91.7918 215.293 91.6911 215.302 91.5812C215.302 91.5079 215.266 91.4347 215.156 91.4347C215.092 91.4347 215.037 91.4713 215 91.4988L214.973 91.4255C215.018 91.3798 215.092 91.3523 215.183 91.3523C215.339 91.3523 215.403 91.4622 215.403 91.5629C215.403 91.7002 215.302 91.8101 215.156 91.9566L215.101 92.0115H215.43V92.0939H214.964L214.954 92.1031Z"
        fill="#54656F" />
    <path
        d="M214.863 85.4099C214.863 85.6571 214.771 85.7945 214.606 85.7945C214.46 85.7945 214.368 85.6571 214.368 85.4191C214.368 85.1719 214.478 85.0437 214.625 85.0437C214.771 85.0437 214.863 85.181 214.863 85.4099ZM214.469 85.4191C214.469 85.6114 214.524 85.7121 214.616 85.7121C214.716 85.7121 214.762 85.593 214.762 85.4099C214.762 85.2268 214.716 85.1169 214.616 85.1169C214.533 85.1169 214.469 85.2177 214.469 85.4191Z"
        fill="#54656F" />
    <path
        d="M214.973 85.6751C214.973 85.6751 215.064 85.7209 215.138 85.7209C215.266 85.7209 215.302 85.6385 215.302 85.5835C215.302 85.4828 215.211 85.437 215.11 85.437H215.055V85.3638H215.11C215.183 85.3638 215.275 85.3272 215.275 85.2448C215.275 85.1898 215.238 85.1349 215.147 85.1349C215.092 85.1349 215.037 85.1624 215 85.1807L214.973 85.1074C214.973 85.1074 215.083 85.0525 215.165 85.0525C215.312 85.0525 215.376 85.1349 215.376 85.2265C215.376 85.2997 215.33 85.3638 215.238 85.4004C215.33 85.4187 215.403 85.492 215.403 85.5927C215.403 85.7117 215.312 85.8124 215.138 85.8124C215.055 85.8124 214.982 85.7849 214.945 85.7666L214.973 85.6934V85.6751Z"
        fill="#54656F" />
    <path
        d="M214.863 78.9185C214.863 79.1657 214.771 79.303 214.606 79.303C214.46 79.303 214.368 79.1657 214.368 78.9276C214.368 78.6804 214.478 78.5522 214.625 78.5522C214.771 78.5522 214.863 78.6896 214.863 78.9185ZM214.469 78.9276C214.469 79.1199 214.524 79.2206 214.616 79.2206C214.716 79.2206 214.762 79.1016 214.762 78.9185C214.762 78.7354 214.716 78.6255 214.616 78.6255C214.533 78.6255 214.469 78.7262 214.469 78.9276Z"
        fill="#54656F" />
    <path
        d="M215.256 79.2847V79.0833H214.918V79.0192L215.238 78.5522H215.348V79.0009H215.449V79.0741H215.348V79.2755H215.256V79.2847ZM215.256 79.01V78.7628C215.256 78.7628 215.256 78.6896 215.256 78.653C215.256 78.653 215.22 78.7262 215.192 78.7628L215.018 79.01H215.256Z"
        fill="#54656F" />
    <path
        d="M214.863 72.7747C214.863 73.0219 214.771 73.1592 214.606 73.1592C214.46 73.1592 214.368 73.0219 214.368 72.7838C214.368 72.5366 214.478 72.4084 214.625 72.4084C214.771 72.4084 214.863 72.5458 214.863 72.7747ZM214.469 72.7838C214.469 72.9761 214.524 73.0768 214.616 73.0768C214.716 73.0768 214.762 72.9578 214.762 72.7747C214.762 72.5916 214.716 72.4817 214.616 72.4817C214.533 72.4817 214.469 72.5824 214.469 72.7838Z"
        fill="#54656F" />
    <path
        d="M215.385 72.5004H215.11L215.083 72.6835C215.083 72.6835 215.119 72.6835 215.137 72.6835C215.192 72.6835 215.247 72.6926 215.293 72.7201C215.348 72.7567 215.394 72.8117 215.394 72.9032C215.394 73.0497 215.284 73.1504 215.119 73.1504C215.037 73.1504 214.973 73.1321 214.936 73.1046L214.964 73.0314C214.964 73.0314 215.055 73.068 215.119 73.068C215.211 73.068 215.293 73.0039 215.293 72.9124C215.293 72.8208 215.229 72.7476 215.083 72.7476C215.037 72.7476 215.009 72.7476 214.982 72.7476L215.028 72.3997H215.376V72.4821L215.385 72.5004Z"
        fill="#54656F" />
    <path
        d="M243.941 78.3784L237.761 81.766L231.801 86.234L225.895 88.3581L219.889 89.7772H216.081V90.1709H219.944L226.005 88.7426L231.966 86.6002L237.981 82.0956L244.161 78.708L250.323 74.2034L250.094 73.9287L243.941 78.3784Z"
        fill="#F84018" />
    <path d="M250.936 73.4983L249.627 73.718L250.451 74.6519L250.936 73.4983Z" fill="#F84018" />
    <path opacity="0.1" d="M249.279 69.8175H274.549V67.0875H251.947V50.4075H249.279V69.8175Z" fill="#8B1D04" />
    <path opacity="0.4" d="M334.006 0.975586H252.026V67.0797H334.006V0.975586Z" fill="#FEDED7" />
    <path d="M293.419 55.8918H259.424V56.6609H293.419V55.8918Z" fill="#BBC1C5" />
    <path d="M297.118 57.9702H259.424V58.7393H297.118V57.9702Z" fill="#BBC1C5" />
    <path d="M288.713 60.0486H259.424V60.8177H288.713V60.0486Z" fill="#BBC1C5" />
    <path d="M325.5 13.3269H315.411V13.6931H325.5V13.3269Z" fill="#BBC1C5" />
    <path d="M326.599 14.3157H315.411V14.6819H326.599V14.3157Z" fill="#BBC1C5" />
    <path d="M324.109 15.3044H315.411V15.6707H324.109V15.3044Z" fill="#BBC1C5" />
    <path
        d="M310.109 17.5845C308.406 17.5845 307.024 16.202 307.024 14.499C307.024 12.7961 308.406 11.4136 310.109 11.4136C311.812 11.4136 313.195 12.7961 313.195 14.499C313.195 16.202 311.812 17.5845 310.109 17.5845Z"
        fill="#F84018" />
    <path d="M325.5 25.8335H315.411V26.1997H325.5V25.8335Z" fill="#BBC1C5" />
    <path d="M326.599 26.8223H315.411V27.1885H326.599V26.8223Z" fill="#BBC1C5" />
    <path d="M324.109 27.811H315.411V28.1773H324.109V27.811Z" fill="#BBC1C5" />
    <path
        d="M310.109 30.0909C308.406 30.0909 307.024 28.7084 307.024 27.0054C307.024 25.3024 308.406 23.9199 310.109 23.9199C311.812 23.9199 313.195 25.3024 313.195 27.0054C313.195 28.7084 311.812 30.0909 310.109 30.0909Z"
        fill="#8B1D04" />
    <path
        d="M279.237 49.4549C268.314 49.4549 259.424 40.5648 259.424 29.642C259.424 18.7193 268.314 9.8291 279.237 9.8291C290.159 9.8291 299.049 18.7193 299.049 29.642C299.049 40.5648 290.159 49.4549 279.237 49.4549ZM279.237 13.5005C270.337 13.5005 263.095 20.7427 263.095 29.642C263.095 38.5414 270.337 45.7835 279.237 45.7835C288.136 45.7835 295.378 38.5414 295.378 29.642C295.378 20.7427 288.136 13.5005 279.237 13.5005Z"
        fill="#8B1D04" />
    <path
        d="M273.001 48.457C264.88 45.7652 259.424 38.2026 259.424 29.642C259.424 18.7193 268.314 9.8291 279.237 9.8291C285.691 9.8291 291.761 12.9878 295.479 18.289L292.466 20.3948C289.445 16.0824 284.501 13.5005 279.237 13.5005C270.337 13.5005 263.095 20.7427 263.095 29.642C263.095 36.6187 267.545 42.7804 274.155 44.9686L273.001 48.457Z"
        fill="#F84018" />
    <path
        d="M274.714 26.8859H272.297L272.049 28.5156C272.196 28.4973 272.333 28.479 272.571 28.479C273.057 28.479 273.551 28.5889 273.935 28.8177C274.43 29.1016 274.842 29.6509 274.842 30.4475C274.842 31.6835 273.853 32.6174 272.48 32.6174C271.784 32.6174 271.198 32.4251 270.896 32.2237L271.106 31.5645C271.372 31.7201 271.885 31.9124 272.461 31.9124C273.267 31.9124 273.963 31.3905 273.963 30.539C273.954 29.715 273.404 29.1382 272.141 29.1382C271.784 29.1382 271.5 29.1748 271.262 29.2023L271.674 26.1626H274.705V26.8859H274.714Z"
        fill="#54656F" />
    <path
        d="M279.713 26.8859H277.295L277.048 28.5156C277.195 28.4973 277.332 28.479 277.561 28.479C278.046 28.479 278.541 28.5889 278.925 28.8177C279.42 29.1016 279.832 29.6509 279.832 30.4475C279.832 31.6835 278.843 32.6174 277.469 32.6174C276.774 32.6174 276.188 32.4251 275.885 32.2237L276.096 31.5645C276.362 31.7201 276.874 31.9124 277.451 31.9124C278.257 31.9124 278.953 31.3905 278.953 30.539C278.944 29.715 278.394 29.1382 277.131 29.1382C276.774 29.1382 276.49 29.1748 276.252 29.2023L276.664 26.1626H279.694V26.8859H279.713Z"
        fill="#54656F" />
    <path
        d="M283.512 28.0212C283.512 29.3396 282.826 29.9897 282.02 29.9897C281.214 29.9897 280.573 29.3671 280.564 28.1128C280.564 26.8676 281.242 26.1626 282.075 26.1626C282.945 26.1626 283.521 26.831 283.521 28.0212H283.512ZM281.233 28.0761C281.214 28.8727 281.507 29.477 282.038 29.477C282.597 29.477 282.844 28.8818 282.844 28.0578C282.844 27.2979 282.624 26.6662 282.038 26.6662C281.507 26.6662 281.233 27.2888 281.233 28.0761ZM281.965 32.6082L285.627 26.1626H286.167L282.505 32.6082H281.965ZM287.577 30.6031C287.577 31.9215 286.891 32.5716 286.094 32.5716C285.298 32.5716 284.648 31.949 284.638 30.7038C284.638 29.4495 285.316 28.7445 286.149 28.7445C287.019 28.7445 287.587 29.4129 287.587 30.6031H287.577ZM285.298 30.658C285.289 31.4546 285.6 32.0589 286.113 32.0589C286.671 32.0589 286.918 31.4637 286.918 30.6397C286.918 29.8798 286.699 29.2481 286.113 29.2481C285.582 29.2481 285.298 29.8707 285.298 30.658Z"
        fill="#54656F" />
    <path
        d="M269.028 105.991L269.861 106.861L269.88 106.934L268.259 105.195L266.776 103.208L266.62 103.189L266.236 103.592L266.263 103.849L267.572 105.881L266.803 108.124L267.151 109.626L269.092 111.475L270.447 120.897L274.476 119.075L272.205 109.974L271.821 108.417L271.354 107.465L269.88 106.174L269.028 105.991Z"
        fill="#F9BFAD" />
    <path
        d="M276.673 136.067C284.245 134.547 294.481 130.638 299.59 127.946C301.018 127.195 302.172 126.234 302.163 122.022C302.163 120.2 300.798 119.34 298.5 120.191C290.727 123.075 282.423 126.518 275.721 129.081C273.121 130.079 271.702 132.606 272.141 133.723C273.066 136.067 275.3 136.342 276.664 136.067H276.673Z"
        fill="#DA2D07" />
    <path
        d="M269.156 115.119L273.478 113.151C273.478 113.151 275.977 123.927 277.488 130.299C277.992 132.433 278.175 134.905 276.188 135.518L276.078 135.555C274.082 136.168 272.407 134.941 271.967 133.165C270.695 128.001 269.147 115.119 269.147 115.119H269.156Z"
        fill="#DA2D07" />
    <path
        d="M312.508 120.311C312.508 120.311 311.163 120.549 309.762 120.631C308.361 120.713 309.24 120.915 306.722 121.226C304.149 121.547 303.985 121.254 302.739 119.56C302.739 119.56 301.329 117.5 303.481 116.374C305.633 115.248 299.883 113.673 303.444 111.338C307.006 109.003 303.756 108.106 302.877 106.971C302.318 106.257 301.293 104.865 301.201 103.006C301.146 101.935 301.924 99.7561 304.012 99.2342C305.697 98.8131 306.054 99.3166 306.676 99.2159C309.661 98.7581 311.062 98.0806 314.99 101.038C319.458 104.398 317.498 109.132 318.606 110.715C319.915 112.583 321.032 117.5 318.917 118.681C316.802 119.862 317.214 119.468 315.017 120.118C313.223 120.649 313.076 120.008 312.518 120.292L312.508 120.311Z"
        fill="#2F393E" />
    <path d="M311.812 112.407L306.483 112.711L307.144 124.311L312.473 124.007L311.812 112.407Z" fill="#F9BFAD" />
    <path
        d="M302.886 110.313C302.648 113.7 304.799 116.612 307.684 116.813C310.568 117.015 313.104 114.433 313.342 111.045C313.36 110.752 314.019 105.479 314.212 103.547C314.34 102.201 313.387 100.992 312.042 100.818L307.271 100.187C305.514 100.727 304.03 101.862 303.747 103.547C303.389 105.707 302.904 109.983 302.886 110.313Z"
        fill="#F9BFAD" />
    <path
        d="M298.427 147.796C298.29 143.951 296.825 137.267 296.733 132.488C296.651 128.359 295.781 121.583 298.757 120.146C300.249 119.423 305.861 119.716 305.861 119.716L306.887 119.789C306.887 119.789 307.18 121.757 307.528 122.38C308.443 124.019 310.961 123.753 312.014 122.188C312.435 121.565 312.243 119.844 312.243 119.844C312.243 119.844 314.294 119.789 315.585 119.826C318.341 119.89 323.266 120.393 324.621 120.769C328.22 121.748 327.817 125.017 327.451 128.011C327.451 128.011 325.281 136.15 324.859 139.107C324.365 142.596 323.34 147.998 323.376 151.568C323.413 155.057 323.523 153.995 323.523 153.995L324.283 163.755L323.468 164.981L323.44 166.108L297.118 166.318L297.218 164.945L296.019 164.002L297.347 157.959C297.347 157.959 298.537 150.946 298.427 147.787V147.796Z"
        fill="#DA2D07" />
    <path
        d="M317.508 103.693C317.544 104.48 318.405 108.729 319.897 109.241C321.884 109.919 323.55 111.375 323.743 114.176C323.843 115.568 323.111 118.113 322.003 119.285C321.307 120.018 320.41 120.393 319.165 120.393C317.599 120.393 316.18 121.144 313.525 120.247C313.223 120.146 312.289 120.219 312.097 119.926C311.282 118.708 311.181 116.191 311.785 114.973C312.087 114.359 312.39 113.16 312.042 112.547C311.3 111.228 310.787 109.965 311.446 109.415C312.609 108.427 311.996 107.31 311.648 106.815C311.19 106.138 310.476 107.593 310.165 107.392C309.899 107.227 309.89 105.46 309.588 105.341C309.588 105.341 307.857 105.497 306.676 105.204C305.88 105.002 305.303 104.151 305.303 104.151C304.351 103.025 303.902 101.175 304.864 100.214C305.944 99.1335 308.599 98.337 310.705 98.7673C311.895 99.0054 313.104 99.216 313.69 99.5364C314.166 99.7928 314.221 100.305 314.221 100.305C314.221 100.305 314.816 100.186 315.383 100.342C316.299 100.598 317.453 102.759 317.498 103.711L317.508 103.693Z"
        fill="#2F393E" />
    <path
        d="M323.037 121.355C325.537 120.439 327.615 121.236 329.19 127.764C330.994 135.189 333.576 150.57 333.576 150.57C333.841 152.832 332.706 154.764 330.618 154.947L330.28 154.993C328.201 155.176 326.993 153.967 326.398 151.248C325.125 145.462 323.047 135.601 321.316 127.333C321.316 127.333 320.483 122.289 323.028 121.355H323.037Z"
        fill="#DA2D07" />
    <path d="M323.962 131.325H306.932V156.64H323.962V131.325Z" fill="#F4FAFD" />
    <path
        d="M306.511 145.434L306.246 141.131L306.905 141.003L307.088 141.699L307.592 141.927L309.084 142.248L309.102 142.184L307.702 141.753L307.28 141.497L307.024 140.92L307.143 140.82L308.718 140.966L310.805 141.772L311.62 142.669L312.737 143.933L322.387 147.329L320.977 151.404L311.455 147.595L307.555 146.624L306.511 145.434Z"
        fill="#F9BFAD" />
    <path
        d="M333.411 152.585C333.997 151.028 332.23 149.747 329.401 148.996C325.244 147.897 318.734 145.892 318.734 145.892L317.965 150.47C317.965 150.47 323.23 152.768 328.696 154.81C328.696 154.81 332.074 156.092 333.402 152.585H333.411Z"
        fill="#DA2D07" />
    <path
        d="M316.143 250.166L316.811 259.633L315.173 260.192L310.814 262.151V263.176L320.767 263.222L321.307 262.27L320.986 260.732L320.776 259.175L320.794 250.166H316.143Z"
        fill="#F9BFAD" />
    <path
        d="M314.285 260.182L315.154 259.779L315.621 261.491L319.805 260.585L321.041 260.036L321.261 260.86L321.508 262.105L321.17 263.368L318.432 263.442H314.614H309.121L308.819 262.727L314.285 260.182Z"
        fill="#54656F" />
    <path
        d="M288.685 249.8L287.523 259.633L285.893 260.192L281.526 262.151V263.176L291.487 263.222L292.027 262.27L291.707 260.732L291.496 259.175L293.062 250.541L288.685 249.8Z"
        fill="#F9BFAD" />
    <path
        d="M284.996 260.182L285.875 259.779L286.342 261.491L290.517 260.585L291.753 260.036L291.981 260.86L292.219 262.105L291.881 263.368L289.152 263.442H285.325H279.832L279.539 262.727L284.996 260.182Z"
        fill="#54656F" />
    <path
        d="M323.514 165.137H296.99L296.587 169.669L296.266 174.43L291.423 214.276L287.541 250.523L294.151 251.457L300.606 215.42L309.853 174.366L310.265 174.76L312.591 214.111L315.484 252.4H321.664L321.509 213.818L324.063 175.584L324.796 169.852L323.55 165.86L323.514 165.137Z"
        fill="#8B1D04" />
    <path
        d="M175.667 182.24H337.449C338.566 182.24 339.472 183.146 339.472 184.263V188.338H173.644V184.263C173.644 183.146 174.55 182.24 175.667 182.24Z"
        fill="#ABBED1" />
    <path d="M185.839 263.588H180.785V188.346H188.714L185.839 263.588Z" fill="#ABBED1" />
    <path d="M332.312 263.588H327.267L324.392 188.346H332.312V263.588Z" fill="#ABBED1" />
    <path d="M328.943 188.347H184.155V234.858H328.943V188.347Z" fill="#ABBED1" />
    <path opacity="0.7"
        d="M180.786 188.347H332.312V202.318C332.312 202.318 293.685 197.173 262.363 195.332C223.067 193.025 180.786 195.332 180.786 195.332V188.347Z"
        fill="#89939E" />
</svg>