<svg width="353" height="350" viewBox="0 0 353 350" fill="none" xmlns="http://www.w3.org/2000/svg">
    <path
        d="M332.234 229.969H190.159C187.62 229.969 185.553 227.902 185.553 225.363V18.4164C185.553 15.8776 187.62 13.8103 190.159 13.8103H332.234C334.773 13.8103 336.841 15.8776 336.841 18.4164V225.355C336.841 227.894 334.773 229.961 332.234 229.961V229.969ZM190.159 14.0068C187.731 14.0068 185.75 15.9876 185.75 18.4164V225.355C185.75 227.784 187.731 229.764 190.159 229.764H332.234C334.663 229.764 336.644 227.784 336.644 225.355V18.4164C336.644 15.9876 334.663 14.0068 332.234 14.0068H190.159Z"
        fill="#E0E0E0" />
    <path
        d="M168.402 229.969H26.3349C23.796 229.969 21.7288 227.902 21.7288 225.363V18.4164C21.7288 15.8776 23.796 13.8103 26.3349 13.8103H168.41C170.949 13.8103 173.016 15.8776 173.016 18.4164V225.355C173.016 227.894 170.949 229.961 168.41 229.961L168.402 229.969ZM26.3349 14.0068C23.9061 14.0068 21.9253 15.9876 21.9253 18.4164V225.355C21.9253 227.784 23.9061 229.764 26.3349 229.764H168.41C170.839 229.764 172.82 227.784 172.82 225.355V18.4164C172.82 15.9876 170.839 14.0068 168.41 14.0068H26.3349Z"
        fill="#E0E0E0" />
    <path d="M36.5375 258.73H23.9138V258.926H36.5375V258.73Z" fill="#E0E0E0" />
    <path d="M159.276 256.599H117.2V256.796H159.276V256.599Z" fill="#E0E0E0" />
    <path d="M65.8171 266.032H37.3235V266.228H65.8171V266.032Z" fill="#E0E0E0" />
    <path d="M314.643 256.497H280.694V256.694H314.643V256.497Z" fill="#E0E0E0" />
    <path d="M326.622 256.497H321.646V256.694H326.622V256.497Z" fill="#E0E0E0" />
    <path d="M274.21 261.394H231.85V261.591H274.21V261.394Z" fill="#E0E0E0" />
    <path
        d="M6.41688 168.729C9.85969 175.63 17.9008 178.602 24.3777 175.379L26.6808 174.231L14.2222 149.243L11.9191 150.391C5.4422 153.622 2.97406 161.836 6.41688 168.737V168.729Z"
        fill="#E0E0E0" />
    <path
        d="M33.692 166.167C31.2475 173.477 23.3322 177.423 16.0221 174.978C8.71199 172.533 4.76612 164.618 7.21068 157.308C9.65523 149.998 17.5706 146.052 24.8806 148.497C32.1907 150.941 36.1366 158.857 33.692 166.167Z"
        fill="#EBEBEB" />
    <path
        d="M10.4492 166.717C13.2003 172.243 19.913 174.491 25.4388 171.732C30.9646 168.981 33.2127 162.268 30.4537 156.742C27.7026 151.216 20.9899 148.968 15.4641 151.727C9.93831 154.478 7.69026 161.191 10.4492 166.717Z"
        fill="#F0F0F0" />
    <path
        d="M23.9768 164.917C23.6467 165.569 23.1279 166.08 22.4362 166.45L22.5462 166.803C22.6012 166.984 22.5855 167.157 22.4991 167.338C22.4126 167.519 22.279 167.629 22.0982 167.692C21.9174 167.747 21.7523 167.731 21.5873 167.637C21.4222 167.542 21.3121 167.401 21.2571 167.212L21.1628 166.906C20.4711 167.031 19.8265 167.008 19.2449 166.827C18.6554 166.654 18.1916 166.371 17.8458 165.986C17.6807 165.797 17.5785 165.632 17.5392 165.499C17.4763 165.31 17.4999 165.129 17.5942 164.948C17.6885 164.768 17.83 164.65 18.0265 164.587C18.1837 164.54 18.341 164.54 18.4903 164.595C18.6396 164.65 18.7733 164.744 18.8755 164.878C19.072 165.153 19.3471 165.349 19.6929 165.467C20.0388 165.577 20.4004 165.616 20.7776 165.585L19.8894 162.551C19.0327 162.543 18.3174 162.409 17.7436 162.158C17.1776 161.906 16.7846 161.45 16.5881 160.806C16.3837 160.146 16.4309 159.525 16.7453 158.935C17.0597 158.346 17.5864 157.882 18.3488 157.528L18.2545 157.23C18.1995 157.049 18.2152 156.876 18.2938 156.695C18.3803 156.522 18.506 156.404 18.6711 156.349C18.8519 156.294 19.0248 156.31 19.1977 156.404C19.3707 156.499 19.4886 156.632 19.5436 156.813L19.63 157.096C20.4161 156.931 21.0763 156.962 21.6108 157.182C22.1532 157.402 22.5069 157.788 22.6798 158.33C22.7427 158.534 22.7349 158.731 22.6405 158.904C22.5541 159.085 22.4126 159.202 22.2239 159.257C22.0589 159.312 21.8938 159.305 21.7445 159.234C21.5951 159.163 21.4851 159.045 21.4065 158.88C21.32 158.692 21.1471 158.55 20.8956 158.464C20.644 158.369 20.3453 158.346 19.9995 158.385L20.7855 161.081C22.6563 161.105 23.7881 161.726 24.1733 162.944C24.3855 163.612 24.3226 164.272 23.9925 164.917H23.9768ZM18.3645 160.822C18.6082 160.947 18.9619 161.026 19.4335 161.065L18.734 158.794C18.3567 158.982 18.1051 159.202 17.9637 159.462C17.8222 159.721 17.7986 159.988 17.8851 160.271C17.9637 160.515 18.1209 160.696 18.3645 160.822ZM22.7742 164.351C22.9314 164.037 22.955 163.73 22.8606 163.423C22.782 163.18 22.617 162.983 22.3654 162.826C22.1139 162.677 21.7287 162.582 21.2257 162.543L22.0274 165.137C22.3733 164.925 22.6248 164.657 22.7742 164.343V164.351Z"
        fill="#E0E0E0" />
    <path
        d="M9.90673 157.489C12.257 151.664 18.8753 148.843 24.6998 151.193C30.5243 153.543 33.3462 160.161 30.9959 165.986C32.4894 160.429 29.5968 154.636 24.2597 152.49C18.4352 150.14 11.8089 152.961 9.46655 158.786C9.58446 158.346 9.7338 157.913 9.89887 157.489H9.90673Z"
        fill="#E0E0E0" />
    <path
        d="M327.73 178.562C330.717 184.56 337.705 187.138 343.333 184.34L345.337 183.342L334.514 161.631L332.509 162.63C326.881 165.436 324.743 172.573 327.73 178.562Z"
        fill="#E0E0E0" />
    <path
        d="M351.421 176.338C349.299 182.689 342.421 186.116 336.07 183.994C329.719 181.872 326.292 174.994 328.414 168.643C330.537 162.292 337.414 158.865 343.766 160.987C350.117 163.109 353.544 169.987 351.421 176.338Z"
        fill="#EBEBEB" />
    <path
        d="M331.228 176.817C333.618 181.62 339.45 183.569 344.253 181.172C349.056 178.783 351.005 172.95 348.607 168.148C346.21 163.345 340.386 161.396 335.583 163.793C330.78 166.182 328.831 172.015 331.228 176.817Z"
        fill="#F0F0F0" />
    <path
        d="M342.979 175.253C342.689 175.819 342.241 176.267 341.635 176.59L341.73 176.896C341.777 177.053 341.761 177.203 341.69 177.36C341.612 177.517 341.494 177.619 341.345 177.666C341.195 177.714 341.038 177.698 340.896 177.619C340.755 177.541 340.661 177.415 340.606 177.25L340.519 176.983C339.914 177.093 339.364 177.069 338.853 176.912C338.342 176.755 337.941 176.511 337.634 176.181C337.493 176.016 337.407 175.874 337.367 175.756C337.312 175.591 337.328 175.434 337.414 175.277C337.493 175.12 337.619 175.017 337.792 174.962C337.933 174.915 338.067 174.923 338.2 174.962C338.334 175.01 338.444 175.096 338.531 175.206C338.703 175.45 338.939 175.615 339.238 175.717C339.537 175.819 339.851 175.851 340.181 175.819L339.411 173.186C338.664 173.186 338.043 173.06 337.548 172.84C337.053 172.62 336.715 172.227 336.542 171.661C336.361 171.087 336.408 170.553 336.676 170.042C336.943 169.531 337.407 169.122 338.067 168.816L337.988 168.556C337.941 168.399 337.949 168.25 338.027 168.093C338.098 167.943 338.208 167.841 338.358 167.794C338.515 167.747 338.664 167.762 338.814 167.841C338.963 167.927 339.065 168.045 339.112 168.195L339.191 168.438C339.875 168.297 340.448 168.321 340.912 168.517C341.384 168.714 341.69 169.044 341.84 169.515C341.895 169.696 341.887 169.861 341.808 170.018C341.73 170.176 341.612 170.278 341.447 170.325C341.297 170.372 341.164 170.364 341.03 170.301C340.896 170.238 340.802 170.136 340.739 169.995C340.661 169.83 340.511 169.712 340.299 169.633C340.079 169.555 339.82 169.531 339.521 169.562L340.205 171.905C341.832 171.921 342.814 172.463 343.145 173.524C343.325 174.106 343.27 174.679 342.987 175.238L342.979 175.253ZM338.098 171.7C338.31 171.81 338.617 171.881 339.026 171.913L338.42 169.94C338.098 170.105 337.87 170.301 337.752 170.521C337.627 170.741 337.603 170.977 337.682 171.221C337.745 171.433 337.886 171.59 338.098 171.7ZM341.926 174.766C342.06 174.491 342.083 174.224 342.005 173.964C341.942 173.752 341.793 173.579 341.572 173.445C341.352 173.312 341.022 173.233 340.582 173.202L341.274 175.458C341.572 175.277 341.793 175.041 341.926 174.766Z"
        fill="#E0E0E0" />
    <path
        d="M330.757 168.8C332.793 163.738 338.554 161.293 343.608 163.329C348.67 165.365 351.115 171.127 349.079 176.181C350.376 171.355 347.861 166.324 343.231 164.453C338.169 162.417 332.415 164.862 330.379 169.924C330.482 169.539 330.607 169.162 330.757 168.792V168.8Z"
        fill="#E0E0E0" />
    <path
        d="M303.135 285.879C299.983 296.459 305.478 307.432 315.405 310.388L318.942 311.441L330.356 273.138L326.818 272.084C316.891 269.129 306.287 275.299 303.135 285.879Z"
        fill="#E0E0E0" />
    <path
        d="M334.152 309.869C324.445 315.12 312.316 311.504 307.065 301.796C301.815 292.089 305.43 279.96 315.138 274.71C324.845 269.459 336.974 273.075 342.225 282.782C347.475 292.49 343.859 304.618 334.152 309.869Z"
        fill="#EBEBEB" />
    <path
        d="M309.314 287.718C306.79 296.184 311.609 305.098 320.074 307.621C328.54 310.144 337.453 305.326 339.977 296.86C342.5 288.394 337.681 279.481 329.216 276.958C320.75 274.435 311.837 279.253 309.314 287.718Z"
        fill="#F0F0F0" />
    <path
        d="M325.207 299.061C324.225 299.415 323.187 299.446 322.087 299.155L321.859 299.635C321.741 299.878 321.552 300.043 321.285 300.146C321.018 300.248 320.766 300.232 320.522 300.122C320.279 300.004 320.121 299.823 320.043 299.564C319.964 299.304 319.988 299.053 320.106 298.801L320.31 298.385C319.461 297.835 318.817 297.182 318.384 296.428C317.944 295.673 317.732 294.918 317.748 294.172C317.763 293.818 317.811 293.551 317.905 293.354C318.031 293.103 318.227 292.922 318.494 292.828C318.769 292.733 319.037 292.749 319.304 292.875C319.516 292.977 319.681 293.134 319.783 293.339C319.886 293.543 319.933 293.771 319.909 294.007C319.846 294.494 319.941 294.966 320.192 295.421C320.444 295.877 320.782 296.27 321.214 296.608L323.25 292.568C322.362 291.719 321.741 290.886 321.395 290.061C321.049 289.235 321.088 288.387 321.505 287.514C321.929 286.626 322.597 286.028 323.494 285.714C324.39 285.407 325.411 285.439 326.543 285.808L326.732 285.407C326.85 285.164 327.039 284.999 327.298 284.897C327.557 284.794 327.801 284.802 328.029 284.904C328.273 285.022 328.438 285.211 328.524 285.486C328.611 285.753 328.603 286.013 328.485 286.249L328.304 286.626C329.287 287.223 329.947 287.899 330.293 288.662C330.639 289.424 330.639 290.171 330.285 290.91C330.151 291.193 329.947 291.381 329.687 291.476C329.42 291.578 329.161 291.562 328.909 291.444C328.681 291.334 328.524 291.169 328.43 290.949C328.343 290.729 328.343 290.493 328.43 290.257C328.524 289.974 328.477 289.66 328.304 289.322C328.131 288.984 327.848 288.662 327.439 288.355L325.624 291.939C327.565 293.794 328.131 295.547 327.337 297.198C326.905 298.102 326.197 298.731 325.215 299.084L325.207 299.061ZM323.336 289.29C323.47 289.66 323.761 290.092 324.209 290.587L325.702 287.53C325.128 287.365 324.641 287.341 324.24 287.475C323.839 287.6 323.549 287.86 323.368 288.237C323.211 288.567 323.195 288.913 323.328 289.283L323.336 289.29ZM324.5 297.292C324.971 297.111 325.301 296.821 325.498 296.412C325.655 296.082 325.679 295.712 325.561 295.304C325.443 294.895 325.136 294.423 324.649 293.889L322.943 297.387C323.509 297.504 324.028 297.473 324.5 297.292Z"
        fill="#E0E0E0" />
    <path
        d="M317.763 277.539C325.915 273.743 335.591 277.272 339.387 285.423C343.184 293.574 339.654 303.25 331.503 307.047C338.491 302.7 341.14 293.818 337.666 286.359C333.869 278.207 324.193 274.678 316.042 278.475C316.6 278.129 317.174 277.814 317.771 277.539H317.763Z"
        fill="#E0E0E0" />
    <path
        d="M119.432 17.4812C120.038 24.1546 125.603 29.0987 131.867 28.5328L134.1 28.3284L131.915 4.17371L129.682 4.37807C123.418 4.94402 118.835 10.8157 119.432 17.4812Z"
        fill="#E0E0E0" />
    <path
        d="M142.314 24.0209C138.022 29.1616 130.374 29.8533 125.233 25.5694C120.093 21.2777 119.401 13.6296 123.685 8.48898C127.969 3.34834 135.625 2.65663 140.765 6.9405C145.906 11.2244 146.598 18.8803 142.314 24.0209Z"
        fill="#EBEBEB" />
    <path
        d="M123.331 17.1274C123.811 22.4646 128.535 26.4026 133.88 25.9231C139.217 25.4358 143.155 20.7196 142.675 15.3746C142.196 10.0296 137.472 6.09942 132.127 6.5789C126.79 7.06624 122.852 11.7824 123.331 17.1274Z"
        fill="#F0F0F0" />
    <path
        d="M134.839 19.9493C134.367 20.3737 133.785 20.6253 133.102 20.7039L133.078 21.0261C133.07 21.1912 132.999 21.3248 132.866 21.4427C132.74 21.5606 132.591 21.6078 132.433 21.5999C132.268 21.5921 132.143 21.5213 132.04 21.3956C131.938 21.2698 131.891 21.1205 131.907 20.9475L131.923 20.6646C131.325 20.5467 130.814 20.3266 130.398 19.9964C129.981 19.6663 129.69 19.289 129.533 18.8724C129.462 18.668 129.431 18.503 129.439 18.3772C129.447 18.2043 129.525 18.0628 129.651 17.9449C129.785 17.827 129.942 17.7798 130.115 17.7877C130.256 17.7956 130.382 17.8506 130.492 17.9449C130.594 18.0392 130.673 18.1571 130.712 18.2908C130.783 18.5816 130.948 18.8253 131.192 19.0218C131.435 19.2261 131.718 19.3676 132.033 19.4619L132.268 16.7266C131.577 16.4514 131.042 16.1134 130.657 15.7283C130.28 15.3431 130.107 14.8558 130.146 14.2663C130.185 13.6689 130.429 13.1816 130.861 12.8043C131.302 12.427 131.875 12.2147 132.599 12.1676L132.614 11.9003C132.622 11.7353 132.693 11.6016 132.819 11.4837C132.944 11.3658 133.078 11.3187 133.235 11.3265C133.4 11.3344 133.534 11.413 133.644 11.5387C133.754 11.6724 133.801 11.8139 133.793 11.9789L133.778 12.2383C134.461 12.3562 134.988 12.5842 135.357 12.9379C135.727 13.2916 135.892 13.7082 135.853 14.2034C135.837 14.392 135.766 14.5414 135.64 14.6593C135.515 14.7772 135.365 14.8244 135.192 14.8165C135.035 14.8086 134.909 14.7458 134.815 14.6436C134.713 14.5414 134.666 14.4078 134.658 14.2506C134.642 14.0698 134.548 13.9047 134.375 13.7475C134.202 13.5903 133.966 13.4802 133.675 13.3938L133.455 15.8226C134.964 16.4279 135.68 17.2925 135.609 18.4008C135.57 19.006 135.31 19.517 134.839 19.9414V19.9493ZM131.585 14.8637C131.742 15.0444 132.009 15.2174 132.371 15.3982L132.52 13.3388C132.158 13.3702 131.875 13.4724 131.687 13.6375C131.49 13.8025 131.388 14.0069 131.364 14.2663C131.349 14.4864 131.419 14.6907 131.577 14.8637H131.585ZM134.037 19.1082C134.265 18.9039 134.383 18.6602 134.399 18.3851C134.414 18.165 134.344 17.9528 134.186 17.7484C134.029 17.544 133.754 17.3475 133.353 17.1589L133.18 19.5091C133.526 19.4462 133.809 19.3126 134.037 19.1082Z"
        fill="#E0E0E0" />
    <path
        d="M125.799 9.48718C129.541 5.51772 135.79 5.32908 139.759 9.06272C143.729 12.8042 143.917 19.0532 140.184 23.0226C143.147 18.9982 142.636 13.4016 138.997 9.97452C135.027 6.23301 128.771 6.42166 125.037 10.399C125.273 10.0767 125.524 9.77015 125.799 9.48718Z"
        fill="#E0E0E0" />
    <path
        d="M281.809 1.26922L200.251 20.5186C199.55 20.6842 199.115 21.3869 199.281 22.0883L211.402 73.4435C211.567 74.1449 212.27 74.5792 212.971 74.4137L294.529 55.1643C295.23 54.9988 295.665 54.296 295.499 53.5946L283.378 2.23941C283.213 1.53806 282.51 1.10369 281.809 1.26922Z"
        fill="#F0F0F0" />
    <path opacity="0.6"
        d="M226.86 25.2594L213.296 28.4607C212.426 28.6661 211.887 29.5382 212.092 30.4086L214.754 41.6848C214.959 42.5552 215.831 43.0942 216.702 42.8888L230.265 39.6875C231.136 39.4821 231.675 38.61 231.469 37.7396L228.808 26.4633C228.602 25.593 227.73 25.054 226.86 25.2594Z"
        fill="white" />
    <path
        d="M217.718 54.2516C221.341 53.3949 224.965 52.5381 228.589 51.6892C229.823 51.3983 229.367 49.4804 228.141 49.7713C224.517 50.628 220.893 51.4848 217.27 52.3337C216.036 52.6245 216.492 54.5425 217.718 54.2516Z"
        fill="#E0E0E0" />
    <path
        d="M234.452 50.3058C238.076 49.4491 241.699 48.5923 245.323 47.7434C246.557 47.4525 246.101 45.5346 244.875 45.8255C241.251 46.6822 237.628 47.539 234.004 48.3879C232.77 48.6787 233.226 50.5967 234.452 50.3058Z"
        fill="#E0E0E0" />
    <path
        d="M251.187 46.3521C254.81 45.4953 258.434 44.6385 262.058 43.7896C263.292 43.4988 262.836 41.5809 261.61 41.8717C257.986 42.7285 254.362 43.5853 250.739 44.4342C249.505 44.725 249.961 46.6429 251.187 46.3521Z"
        fill="#E0E0E0" />
    <path
        d="M267.921 42.4062C271.545 41.5494 275.169 40.6926 278.792 39.8437C280.026 39.5529 279.57 37.635 278.344 37.9258C274.721 38.7826 271.097 39.6393 267.473 40.4883C266.239 40.7791 266.695 42.697 267.921 42.4062Z"
        fill="#E0E0E0" />
    <path
        d="M168.945 349.477C262.222 349.477 337.839 345.616 337.839 340.854C337.839 336.092 262.222 332.231 168.945 332.231C75.6667 332.231 0.0500488 336.092 0.0500488 340.854C0.0500488 345.616 75.6667 349.477 168.945 349.477Z"
        fill="#F5F5F5" />
    <path
        d="M91.2069 183.519C91.2069 183.519 91.2251 183.483 91.216 183.483C91.1978 183.483 91.1978 183.501 91.2069 183.519Z"
        fill="#F84018" />
    <path
        d="M282.636 108.126L296.077 122.982L245.763 181.518L195.552 123.784L120.242 216.748C120.242 216.748 91.4969 184.662 91.2061 183.514C90.9231 185 4.29462 337.231 6.63699 340.854H33.307L94.0672 221.928L119.755 251.616L196.511 156.302L245.512 214.853L308.528 136.494L322.118 148.945L331.307 95.424L282.644 108.11L282.636 108.126Z"
        fill="#F84018" />
    <path opacity="0.7"
        d="M282.636 108.126L296.077 122.982L245.763 181.518L195.552 123.784L120.242 216.748C120.242 216.748 91.4969 184.662 91.2061 183.514C90.9231 185 4.29462 337.231 6.63699 340.854H33.307L94.0672 221.928L119.755 251.616L196.511 156.302L245.512 214.853L308.528 136.494L322.118 148.945L331.307 95.424L282.644 108.11L282.636 108.126Z"
        fill="white" />
    <path
        d="M335.654 180.551H279.398C276.945 180.551 274.957 182.539 274.957 184.992V252.827C274.957 255.279 276.945 257.268 279.398 257.268H335.654C338.107 257.268 340.095 255.279 340.095 252.827V184.992C340.095 182.539 338.107 180.551 335.654 180.551Z"
        fill="#F84018" />
    <path opacity="0.8"
        d="M333.524 185.857H281.213C280.345 185.857 279.641 186.561 279.641 187.429V202.607C279.641 203.475 280.345 204.179 281.213 204.179H333.524C334.392 204.179 335.096 203.475 335.096 202.607V187.429C335.096 186.561 334.392 185.857 333.524 185.857Z"
        fill="white" />
    <path opacity="0.8"
        d="M296.887 185.857C296.887 185.857 283.029 195.446 288.091 195.816C293.153 196.185 307.577 196.916 304.975 199.565C302.373 202.206 298.506 204.179 298.506 204.179H303.992C303.992 204.179 318.62 197.16 310.815 195.022C303.01 192.884 288.798 196.334 290.347 194.055C291.895 191.775 303.851 185.857 303.851 185.857H296.887Z"
        fill="white" />
    <path opacity="0.5"
        d="M332.832 208.321H281.905C280.655 208.321 279.641 209.335 279.641 210.585V249.431C279.641 250.681 280.655 251.695 281.905 251.695H332.832C334.082 251.695 335.096 250.681 335.096 249.431V210.585C335.096 209.335 334.082 208.321 332.832 208.321Z"
        fill="#263238" />
    <path
        d="M289.577 208.321V252.025C289.577 252.402 290.166 252.402 290.166 252.025V208.321C290.166 207.944 289.577 207.944 289.577 208.321Z"
        fill="#F84018" />
    <path
        d="M300.903 208.321V252.025C300.903 252.402 301.493 252.402 301.493 252.025V208.321C301.493 207.944 300.903 207.944 300.903 208.321Z"
        fill="#F84018" />
    <path
        d="M312.23 208.699V252.402C312.23 252.779 312.82 252.779 312.82 252.402V208.699C312.82 208.321 312.23 208.321 312.23 208.699Z"
        fill="#F84018" />
    <path
        d="M323.565 208.95V252.654C323.565 253.031 324.154 253.031 324.154 252.654V208.95C324.154 208.573 323.565 208.573 323.565 208.95Z"
        fill="#F84018" />
    <path
        d="M279.39 220.355H335.395C335.772 220.355 335.772 219.766 335.395 219.766H279.39C279.013 219.766 279.013 220.355 279.39 220.355Z"
        fill="#F84018" />
    <path
        d="M279.39 231.486H335.394C335.772 231.486 335.772 230.896 335.394 230.896H279.39C279.012 230.896 279.012 231.486 279.39 231.486Z"
        fill="#F84018" />
    <path
        d="M279.39 242.616H323.855C324.233 242.616 324.233 242.026 323.855 242.026H279.39C279.012 242.026 279.012 242.616 279.39 242.616Z"
        fill="#F84018" />
    <path d="M297.964 191.555V198.677H297.264V192.208H295.661V191.555H297.972H297.964Z" fill="#263238" />
    <path
        d="M304.102 196.625C304.102 197.812 303.277 198.732 301.627 198.732C300.644 198.732 299.701 198.378 299.174 197.82L299.512 197.238C299.952 197.718 300.738 198.064 301.627 198.064C302.758 198.064 303.379 197.514 303.379 196.633C303.379 195.753 302.806 195.218 301.54 195.218H301.053V194.676L302.939 192.208H299.449V191.555H303.835V192.074L301.909 194.605C303.371 194.684 304.102 195.493 304.102 196.633V196.625Z"
        fill="#263238" />
    <path
        d="M310.886 196.798H309.526V198.669H308.827V196.798H304.983V196.272L308.599 191.555H309.377L305.887 196.154H308.85V194.503H309.534V196.154H310.894V196.806L310.886 196.798Z"
        fill="#263238" />
    <path
        d="M311.735 198.166C311.735 197.852 311.971 197.616 312.254 197.616C312.537 197.616 312.781 197.852 312.781 198.166C312.781 198.481 312.537 198.724 312.254 198.724C311.971 198.724 311.735 198.481 311.735 198.166Z"
        fill="#263238" />
    <path
        d="M318.416 196.578C318.416 197.789 317.607 198.732 315.94 198.732C314.958 198.732 314.022 198.378 313.496 197.82L313.834 197.238C314.274 197.718 315.052 198.064 315.924 198.064C317.08 198.064 317.693 197.474 317.693 196.61C317.693 195.698 317.151 195.124 315.414 195.124H313.959L314.313 191.555H318.047V192.208H314.934L314.698 194.479H315.579C317.63 194.479 318.416 195.321 318.416 196.586V196.578Z"
        fill="#263238" />
    <path
        d="M319.304 195.116C319.304 192.845 320.444 191.493 322.024 191.493C323.604 191.493 324.752 192.845 324.752 195.116C324.752 197.388 323.604 198.74 322.024 198.74C320.444 198.74 319.304 197.388 319.304 195.116ZM324.028 195.116C324.028 193.214 323.211 192.169 322.024 192.169C320.837 192.169 320.02 193.214 320.02 195.116C320.02 197.018 320.837 198.064 322.024 198.064C323.211 198.064 324.028 197.018 324.028 195.116Z"
        fill="#263238" />
    <path
        d="M325.758 195.116C325.758 192.845 326.898 191.493 328.477 191.493C330.057 191.493 331.205 192.845 331.205 195.116C331.205 197.388 330.057 198.74 328.477 198.74C326.898 198.74 325.758 197.388 325.758 195.116ZM330.482 195.116C330.482 193.214 329.664 192.169 328.477 192.169C327.291 192.169 326.473 193.214 326.473 195.116C326.473 197.018 327.291 198.064 328.477 198.064C329.664 198.064 330.482 197.018 330.482 195.116Z"
        fill="#263238" />
    <path
        d="M258.804 44.1748H91.1746C88.2443 44.1748 85.8689 46.5503 85.8689 49.4805V299.564C85.8689 302.494 88.2443 304.87 91.1746 304.87H258.804C261.734 304.87 264.109 302.494 264.109 299.564V49.4805C264.109 46.5503 261.734 44.1748 258.804 44.1748Z"
        fill="#F84018" />
    <path opacity="0.5"
        d="M258.804 44.1748H91.1746C88.2443 44.1748 85.8689 46.5503 85.8689 49.4805V299.564C85.8689 302.494 88.2443 304.87 91.1746 304.87H258.804C261.734 304.87 264.109 302.494 264.109 299.564V49.4805C264.109 46.5503 261.734 44.1748 258.804 44.1748Z"
        fill="white" />
    <path d="M99.8131 51.2963H91.9607V298.244L256.768 299.651L261.319 293.983L257.334 61.0352L99.8131 51.2963Z"
        fill="#EBEBEB" />
    <path d="M261.319 293.983H98.3668V51.2963H91.9607V299.651H256.768L261.319 293.983Z" fill="#E0E0E0" />
    <path opacity="0.2" d="M91.9607 299.65L98.3668 293.983H261.319L256.768 299.65H91.9607Z" fill="black" />
    <path
        d="M275.357 286.021H114.339C98.6498 246.986 95.8751 147.679 98.359 51.3041H258.23C256.925 147.632 260.077 234.127 275.349 286.021H275.357Z"
        fill="white" stroke="#263238" stroke-width="0.786031" stroke-miterlimit="10" />
    <path opacity="0.2" d="M256.728 263.917H126.405V275.716H256.728V263.917Z" fill="black" />
    <path opacity="0.2" d="M143.116 70.3574H108.412V107.765H143.116V70.3574Z" fill="black" />
    <path
        d="M137.967 258.698C137.967 258.698 127.725 211.049 126.405 188.592H142.267C144.13 211.23 148.453 234.544 154.159 258.25L137.967 258.698Z"
        fill="#F84018" />
    <path
        d="M160.149 258.698C160.149 258.698 152.988 224.388 151.66 199.903H167.522C169.385 224.577 170.627 232.366 176.341 258.211L160.149 258.698Z"
        fill="#F84018" />
    <path
        d="M226.514 258.698C226.514 258.698 219.353 224.388 218.024 199.903H233.887C235.749 224.577 236.991 232.366 242.706 258.211L226.514 258.698Z"
        fill="#F84018" />
    <path
        d="M183.03 258.698C183.03 258.698 179.336 243.143 176.341 217.762H192.203C194.066 242.435 199.222 258.219 199.222 258.219L183.03 258.706V258.698Z"
        fill="#F84018" />
    <path
        d="M206.037 258.698C206.037 258.698 203.813 254.682 200.81 229.301H216.672C218.535 253.974 222.23 258.211 222.23 258.211L206.037 258.698Z"
        fill="#F84018" />
    <path
        d="M117.554 184.906C117.562 187.146 117.79 189.41 117.947 191.642C118.285 196.61 118.678 201.57 119.134 206.529C120.274 219.051 121.626 231.62 124.039 243.968C125.053 249.148 126.161 254.493 128.37 259.319C128.456 259.5 128.684 259.61 128.881 259.61C132.827 259.586 136.765 259.555 140.71 259.531C150.143 259.469 159.575 259.406 169 259.343C180.405 259.264 191.81 259.186 203.208 259.107C213.088 259.036 222.969 258.973 232.857 258.903C236.095 258.879 239.326 258.855 242.564 258.84C244.097 258.832 245.653 258.903 247.186 258.808C247.257 258.808 247.328 258.808 247.391 258.808C248.145 258.808 248.153 257.621 247.391 257.629C243.445 257.653 239.507 257.684 235.561 257.708C226.128 257.771 216.696 257.834 207.272 257.897C195.866 257.975 184.461 258.054 173.063 258.132C163.183 258.203 153.303 258.266 143.414 258.337C140.176 258.36 136.945 258.384 133.707 258.4L130.681 258.423C130.178 258.423 129.58 258.345 129.085 258.431C129.022 258.447 128.944 258.431 128.881 258.431L129.392 258.722C127.474 254.548 126.468 249.918 125.54 245.446C124.29 239.409 123.371 233.309 122.569 227.202C121.083 215.82 120.022 204.368 119.22 192.915C119.032 190.259 118.749 187.57 118.741 184.906C118.741 184.143 117.562 184.143 117.562 184.906H117.554Z"
        fill="#263238" />
    <path opacity="0.2" d="M170.894 70.6954H147.344V75.1129H170.894V70.6954Z" fill="black" />
    <path opacity="0.2" d="M155.763 78.0055H147.344V86.4239H155.763V78.0055Z" fill="black" />
    <path
        d="M179.863 120.546H213.348C213.348 138.915 198.232 154.03 179.863 154.03C161.493 154.03 146.378 138.915 146.378 120.546C146.378 107.159 154.411 94.9995 166.72 89.741L179.863 120.546Z"
        fill="#F84018" />
    <path
        d="M181.497 115.735L168.764 84.7575C172.804 83.099 177.127 82.2422 181.497 82.2422C189.986 82.2422 198.169 85.4728 204.379 91.2737L181.497 115.727V115.735Z"
        fill="#F84018" />
    <path opacity="0.2"
        d="M181.497 115.735L168.764 84.7575C172.804 83.099 177.127 82.2422 181.497 82.2422C189.986 82.2422 198.169 85.4728 204.379 91.2737L181.497 115.727V115.735Z"
        fill="black" />
    <path
        d="M184.752 117.582L208.671 94.1427C211.579 97.106 213.906 100.588 215.541 104.408C217.175 108.228 218.087 112.316 218.221 116.474L184.752 117.582Z"
        fill="#F84018" />
    <path opacity="0.3"
        d="M184.752 117.582L208.671 94.1427C211.579 97.106 213.906 100.588 215.541 104.408C217.175 108.228 218.087 112.316 218.221 116.474L184.752 117.582Z"
        fill="white" />
    <path
        d="M216.185 149.652H243.68C244.058 149.652 244.058 149.063 243.68 149.063H216.185C215.808 149.063 215.808 149.652 216.185 149.652Z"
        fill="#263238" />
    <path
        d="M216.382 152.348H243.877C244.254 152.348 244.254 151.759 243.877 151.759H216.382C216.004 151.759 216.004 152.348 216.382 152.348Z"
        fill="#263238" />
    <path
        d="M216.382 155.044H229.933C230.31 155.044 230.31 154.455 229.933 154.455H216.382C216.004 154.455 216.004 155.044 216.382 155.044Z"
        fill="#263238" />
    <path
        d="M212.019 82.5016H239.514C239.892 82.5016 239.892 81.9121 239.514 81.9121H212.019C211.642 81.9121 211.642 82.5016 212.019 82.5016Z"
        fill="#263238" />
    <path
        d="M212.019 85.1977H239.514C239.892 85.1977 239.892 84.6082 239.514 84.6082H212.019C211.642 84.6082 211.642 85.1977 212.019 85.1977Z"
        fill="#263238" />
    <path
        d="M212.019 87.8937H225.57C225.948 87.8937 225.948 87.3042 225.57 87.3042H212.019C211.642 87.3042 211.642 87.8937 212.019 87.8937Z"
        fill="#263238" />
    <path
        d="M113.655 133.994H141.15C141.528 133.994 141.528 133.405 141.15 133.405H113.655C113.278 133.405 113.278 133.994 113.655 133.994Z"
        fill="#263238" />
    <path
        d="M113.655 136.691H141.15C141.528 136.691 141.528 136.101 141.15 136.101H113.655C113.278 136.101 113.278 136.691 113.655 136.691Z"
        fill="#263238" />
    <path
        d="M113.655 139.387H127.206C127.584 139.387 127.584 138.797 127.206 138.797H113.655C113.278 138.797 113.278 139.387 113.655 139.387Z"
        fill="#263238" />
    <path d="M202.453 136.997C205.731 139.009 209.009 141.03 212.279 143.042L202.453 136.997Z" fill="white" />
    <path
        d="M202.304 137.249C205.581 139.261 208.851 141.281 212.129 143.293C212.451 143.49 212.75 142.987 212.428 142.782C209.15 140.77 205.88 138.75 202.602 136.738C202.28 136.541 201.981 137.044 202.304 137.249Z"
        fill="#263238" />
    <path
        d="M213.521 143.042C213.521 143.726 212.963 144.284 212.279 144.284C211.595 144.284 211.036 143.726 211.036 143.042C211.036 142.358 211.595 141.8 212.279 141.8C212.963 141.8 213.521 142.358 213.521 143.042Z"
        fill="#263238" />
    <path
        d="M200.087 89.2693C201.816 87.5557 203.546 85.8343 205.275 84.1208C205.526 83.8771 205.77 83.6256 206.022 83.3819C206.289 83.1146 205.872 82.6981 205.605 82.9653C203.876 84.6788 202.147 86.4003 200.417 88.1138C200.166 88.3575 199.922 88.609 199.671 88.8527C199.403 89.1199 199.82 89.5365 200.087 89.2693Z"
        fill="#263238" />
    <path
        d="M206.651 81.6292C207.327 81.81 207.736 82.4705 207.563 83.1073C207.398 83.7442 206.714 84.1216 206.038 83.9407C205.361 83.7599 204.953 83.0995 205.126 82.4626C205.299 81.8257 205.975 81.4483 206.651 81.6292Z"
        fill="#263238" />
    <path
        d="M147.345 119.767H128.676C128.299 119.767 128.299 120.357 128.676 120.357H147.345C147.722 120.357 147.722 119.767 147.345 119.767Z"
        fill="#263238" />
    <path
        d="M126.986 120.53C126.648 119.925 126.837 119.17 127.411 118.848C127.985 118.525 128.732 118.753 129.07 119.359C129.408 119.964 129.219 120.719 128.645 121.041C128.071 121.364 127.324 121.136 126.986 120.53Z"
        fill="#263238" />
    <path opacity="0.2" d="M243.201 165.852H116.516V178.586H243.201V165.852Z" fill="black" />
    <path opacity="0.2" d="M229.43 130.3H219.919V145.345H229.43V130.3Z" fill="black" />
    <path opacity="0.2" d="M241.448 137.634H231.937V145.494H241.448V137.634Z" fill="black" />
    <path opacity="0.2" d="M122.286 146.225H111.926V156.585H122.286V146.225Z" fill="black" />
    <path opacity="0.2" d="M144.664 146.225H125.76V156.585H144.664V146.225Z" fill="black" />
    <path opacity="0.2"
        d="M240.287 112.472C241.214 108.565 238.797 104.647 234.89 103.72C230.983 102.794 227.065 105.21 226.138 109.117C225.212 113.024 227.628 116.943 231.535 117.869C235.442 118.796 239.361 116.379 240.287 112.472Z"
        fill="black" />
    <path opacity="0.2" d="M146.37 44.1747V63.0394L205.063 63.3696L204.968 59.9032L176.789 43.2472L146.37 44.1747Z"
        fill="black" />
    <path
        d="M155.826 40.1896H201.864C205.165 40.1896 207.845 42.8699 207.845 46.1713V59.9032H149.844V46.1713C149.844 42.8699 152.524 40.1896 155.826 40.1896Z"
        fill="#263238" />
    <path
        d="M168.127 41.738L165.918 34.0978C165.753 33.5397 166.146 32.9659 166.688 32.9659H192.643C193.201 32.9659 193.594 33.5633 193.406 34.1293L190.804 42.1311C190.686 42.4848 190.379 42.7206 190.026 42.7127L168.882 42.3512C168.536 42.3512 168.229 42.0996 168.119 41.738H168.127Z"
        fill="#263238" />
    <path d="M105.417 40.4883H146.362" stroke="#F84018" stroke-width="0.589523" stroke-linejoin="round" />
    <path d="M103.107 40.4883H96.7319" stroke="#F84018" stroke-width="0.589523" stroke-linejoin="round" />
    <path
        d="M169.086 39.7966H191.621C192.384 39.7966 192.384 38.6176 191.621 38.6176H169.086C168.324 38.6176 168.324 39.7966 169.086 39.7966Z"
        fill="black" />
    <path
        d="M277.951 62.3242H239.75C236.993 62.3242 234.759 64.5589 234.759 67.3155V105.517C234.759 108.273 236.993 110.508 239.75 110.508H277.951C280.708 110.508 282.942 108.273 282.942 105.517V67.3155C282.942 64.5589 280.708 62.3242 277.951 62.3242Z"
        fill="#F84018" />
    <path opacity="0.8"
        d="M277.951 62.3242H239.75C236.993 62.3242 234.759 64.5589 234.759 67.3155V105.517C234.759 108.273 236.993 110.508 239.75 110.508H277.951C280.708 110.508 282.942 108.273 282.942 105.517V67.3155C282.942 64.5589 280.708 62.3242 277.951 62.3242Z"
        fill="white" />
    <g opacity="0.3">
        <path
            d="M242.037 69.5085V103.064C242.037 103.221 242.171 103.363 242.336 103.363H275.381C275.758 103.363 275.758 102.773 275.381 102.773H242.336L242.635 103.072V69.5164C242.635 69.1391 242.045 69.1391 242.045 69.5164L242.037 69.5085Z"
            fill="black" />
    </g>
    <g opacity="0.3">
        <path
            d="M250.652 69.3591V103.001C250.652 103.379 251.242 103.379 251.242 103.001V69.3591C251.242 68.9818 250.652 68.9818 250.652 69.3591Z"
            fill="black" />
    </g>
    <g opacity="0.3">
        <path
            d="M259.149 69.3593V103.001C259.149 103.379 259.739 103.379 259.739 103.001V69.3593C259.739 68.982 259.149 68.982 259.149 69.3593Z"
            fill="black" />
    </g>
    <g opacity="0.3">
        <path
            d="M267.638 69.3591V103.001C267.638 103.379 268.228 103.379 268.228 103.001V69.3591C268.228 68.9818 267.638 68.9818 267.638 69.3591Z"
            fill="black" />
    </g>
    <g opacity="0.3">
        <path
            d="M242.517 94.8581H275.114C275.491 94.8581 275.491 94.2686 275.114 94.2686H242.517C242.14 94.2686 242.14 94.8581 242.517 94.8581Z"
            fill="black" />
    </g>
    <g opacity="0.3">
        <path
            d="M242.517 86.479H275.114C275.491 86.479 275.491 85.8895 275.114 85.8895H242.517C242.14 85.8895 242.14 86.479 242.517 86.479Z"
            fill="black" />
    </g>
    <g opacity="0.3">
        <path
            d="M242.517 77.6676H275.114C275.491 77.6676 275.491 77.0781 275.114 77.0781H242.517C242.14 77.0781 242.14 77.6676 242.517 77.6676Z"
            fill="black" />
    </g>
    <path
        d="M243.059 85.7479C244.262 83.1147 245.795 80.2536 248.506 78.9566C249.434 78.5165 250.519 78.1785 251.548 78.2885C252.719 78.4143 253.561 79.2475 254.142 80.2143C255.392 82.2973 256.005 84.8676 256.815 87.1471C257.734 89.7331 259.283 96.1236 263.402 94.5279C264.919 93.9384 265.752 92.2406 266.428 90.8729C266.947 89.8275 267.45 88.7663 267.874 87.6816C268.912 85.0484 270.877 82.4309 273.958 82.3837C274.335 82.3837 274.335 81.7864 273.958 81.7942C267.693 81.8885 267.599 89.403 264.423 93.0266C263.677 93.8834 262.663 94.3707 261.523 94.0091C260.1 93.5532 259.291 92.0991 258.764 90.81C257.758 88.3654 256.964 85.8187 256.084 83.3348C255.471 81.6134 254.889 79.5933 253.38 78.4221C252.036 77.3846 250.291 77.589 248.797 78.1785C245.637 79.4283 243.892 82.4938 242.548 85.4414C242.391 85.7873 242.902 86.0859 243.059 85.7401V85.7479Z"
        fill="#263238" />
    <path
        d="M267.938 88.2643C268.902 88.2643 269.683 87.4828 269.683 86.5188C269.683 85.5548 268.902 84.7733 267.938 84.7733C266.974 84.7733 266.192 85.5548 266.192 86.5188C266.192 87.4828 266.974 88.2643 267.938 88.2643Z"
        fill="#F84018" />
    <path
        d="M263.214 94.5678C263.214 95.5348 262.428 96.3132 261.469 96.3132C260.509 96.3132 259.723 95.5348 259.723 94.5678C259.723 93.6007 260.502 92.8223 261.469 92.8223C262.436 92.8223 263.214 93.6085 263.214 94.5678Z"
        fill="#F84018" />
    <path
        d="M251.36 79.4843C252.324 79.4843 253.106 78.7028 253.106 77.7388C253.106 76.7748 252.324 75.9933 251.36 75.9933C250.396 75.9933 249.615 76.7748 249.615 77.7388C249.615 78.7028 250.396 79.4843 251.36 79.4843Z"
        fill="#F84018" />
    <path
        d="M71.8618 73.6902H26.5157C23.7591 73.6902 21.5244 75.9249 21.5244 78.6815V124.028C21.5244 126.784 23.7591 129.019 26.5157 129.019H71.8618C74.6184 129.019 76.8531 126.784 76.8531 124.028V78.6815C76.8531 75.9249 74.6184 73.6902 71.8618 73.6902Z"
        fill="#F84018" />
    <path opacity="0.7"
        d="M71.8618 73.6902H26.5157C23.7591 73.6902 21.5244 75.9249 21.5244 78.6815V124.028C21.5244 126.784 23.7591 129.019 26.5157 129.019H71.8618C74.6184 129.019 76.8531 126.784 76.8531 124.028V78.6815C76.8531 75.9249 74.6184 73.6902 71.8618 73.6902Z"
        fill="white" />
    <path
        d="M50.1134 82.6981C39.7457 82.6981 31.343 91.1008 31.343 101.469C31.343 111.836 39.7457 120.239 50.1134 120.239C60.4812 120.239 68.8838 111.836 68.8838 101.469C68.8838 91.1008 60.4812 82.6981 50.1134 82.6981ZM50.1134 112.732C44.1082 112.732 39.2426 107.867 39.2426 101.862C39.2426 95.8563 44.1082 90.9907 50.1134 90.9907C56.1187 90.9907 60.9842 95.8563 60.9842 101.862C60.9842 107.867 56.1187 112.732 50.1134 112.732Z"
        fill="#F84018" />
    <path opacity="0.3"
        d="M52.5647 82.8632L50.9534 91.0301C56.377 91.4467 60.6844 95.8406 60.9674 101.303C63.0582 100.761 66.053 99.9201 68.7334 99.1498C67.688 90.6842 61.0146 83.9636 52.5647 82.8553V82.8632Z"
        fill="white" />
    <path
        d="M50.1123 82.6981C43.1323 82.6981 37.0485 86.5104 33.8179 92.1541L40.6328 96.5558C42.4957 93.2388 46.0406 90.9986 50.1123 90.9986C50.3953 90.9986 50.6704 91.0143 50.9455 91.03L52.5568 82.8632C51.7551 82.761 50.9376 82.6981 50.1044 82.6981H50.1123Z"
        fill="white" />
    <path
        d="M31.3418 101.468C31.3418 101.799 31.3497 102.129 31.3654 102.459C34.0301 102.459 37.4493 102.49 39.265 102.514C39.2493 102.302 39.2415 102.082 39.2415 101.869C39.2415 99.9436 39.7445 98.1278 40.6249 96.5636L33.81 92.1619C32.2379 94.9051 31.334 98.0807 31.334 101.476L31.3418 101.468Z"
        fill="#263238" />
    <path d="M118.159 314.145H66.3044V323.168H118.159V314.145Z" fill="#F84018" />
    <g opacity="0.3">
        <path
            d="M70.5491 314.64V322.728C70.5491 323.105 71.1386 323.105 71.1386 322.728V314.64C71.1386 314.263 70.5491 314.263 70.5491 314.64Z"
            fill="#263238" />
    </g>
    <g opacity="0.3">
        <path
            d="M74.833 314.64V322.728C74.833 323.105 75.4225 323.105 75.4225 322.728V314.64C75.4225 314.263 74.833 314.263 74.833 314.64Z"
            fill="#263238" />
    </g>
    <g opacity="0.3">
        <path
            d="M79.054 314.64V322.728C79.054 323.105 79.6435 323.105 79.6435 322.728V314.64C79.6435 314.263 79.054 314.263 79.054 314.64Z"
            fill="#263238" />
    </g>
    <g opacity="0.3">
        <path
            d="M83.2827 314.64V322.728C83.2827 323.105 83.8722 323.105 83.8722 322.728V314.64C83.8722 314.263 83.2827 314.263 83.2827 314.64Z"
            fill="#263238" />
    </g>
    <g opacity="0.3">
        <path
            d="M87.5037 314.64V322.728C87.5037 323.105 88.0932 323.105 88.0932 322.728V314.64C88.0932 314.263 87.5037 314.263 87.5037 314.64Z"
            fill="#263238" />
    </g>
    <g opacity="0.3">
        <path
            d="M91.7249 314.64V322.728C91.7249 323.105 92.3144 323.105 92.3144 322.728V314.64C92.3144 314.263 91.7249 314.263 91.7249 314.64Z"
            fill="#263238" />
    </g>
    <g opacity="0.3">
        <path
            d="M95.9458 314.64V322.728C95.9458 323.105 96.5353 323.105 96.5353 322.728V314.64C96.5353 314.263 95.9458 314.263 95.9458 314.64Z"
            fill="#263238" />
    </g>
    <g opacity="0.3">
        <path
            d="M100.175 314.64V322.728C100.175 323.105 100.764 323.105 100.764 322.728V314.64C100.764 314.263 100.175 314.263 100.175 314.64Z"
            fill="#263238" />
    </g>
    <g opacity="0.3">
        <path
            d="M104.396 314.64V322.728C104.396 323.105 104.985 323.105 104.985 322.728V314.64C104.985 314.263 104.396 314.263 104.396 314.64Z"
            fill="#263238" />
    </g>
    <g opacity="0.3">
        <path
            d="M108.616 314.64V322.728C108.616 323.105 109.206 323.105 109.206 322.728V314.64C109.206 314.263 108.616 314.263 108.616 314.64Z"
            fill="#263238" />
    </g>
    <g opacity="0.3">
        <path
            d="M112.838 314.64V322.728C112.838 323.105 113.427 323.105 113.427 322.728V314.64C113.427 314.263 112.838 314.263 112.838 314.64Z"
            fill="#263238" />
    </g>
    <path d="M117.381 331.697H65.5264V340.72H117.381V331.697Z" fill="#F84018" />
    <path d="M121.35 322.909H69.4958V331.933H121.35V322.909Z" fill="#F84018" />
    <path opacity="0.2" d="M121.35 322.909H69.4958V331.933H121.35V322.909Z" fill="black" />
    <g opacity="0.3">
        <path
            d="M73.9761 323.373V331.461C73.9761 331.838 74.5656 331.838 74.5656 331.461V323.373C74.5656 322.996 73.9761 322.996 73.9761 323.373Z"
            fill="#263238" />
    </g>
    <g opacity="0.3">
        <path
            d="M78.2678 323.373V331.461C78.2678 331.838 78.8573 331.838 78.8573 331.461V323.373C78.8573 322.996 78.2678 322.996 78.2678 323.373Z"
            fill="#263238" />
    </g>
    <g opacity="0.3">
        <path
            d="M82.4888 323.373V331.461C82.4888 331.838 83.0783 331.838 83.0783 331.461V323.373C83.0783 322.996 82.4888 322.996 82.4888 323.373Z"
            fill="#263238" />
    </g>
    <g opacity="0.3">
        <path
            d="M86.7097 323.373V331.461C86.7097 331.838 87.2992 331.838 87.2992 331.461V323.373C87.2992 322.996 86.7097 322.996 86.7097 323.373Z"
            fill="#263238" />
    </g>
    <g opacity="0.3">
        <path
            d="M90.9307 323.373V331.461C90.9307 331.838 91.5202 331.838 91.5202 331.461V323.373C91.5202 322.996 90.9307 322.996 90.9307 323.373Z"
            fill="#263238" />
    </g>
    <g opacity="0.3">
        <path
            d="M95.1597 323.373V331.461C95.1597 331.838 95.7492 331.838 95.7492 331.461V323.373C95.7492 322.996 95.1597 322.996 95.1597 323.373Z"
            fill="#263238" />
    </g>
    <g opacity="0.3">
        <path
            d="M99.3806 323.373V331.461C99.3806 331.838 99.9701 331.838 99.9701 331.461V323.373C99.9701 322.996 99.3806 322.996 99.3806 323.373Z"
            fill="#263238" />
    </g>
    <g opacity="0.3">
        <path
            d="M103.602 323.373V331.461C103.602 331.838 104.191 331.838 104.191 331.461V323.373C104.191 322.996 103.602 322.996 103.602 323.373Z"
            fill="#263238" />
    </g>
    <g opacity="0.3">
        <path
            d="M107.83 323.373V331.461C107.83 331.838 108.42 331.838 108.42 331.461V323.373C108.42 322.996 107.83 322.996 107.83 323.373Z"
            fill="#263238" />
    </g>
    <g opacity="0.3">
        <path
            d="M112.052 323.373V331.461C112.052 331.838 112.641 331.838 112.641 331.461V323.373C112.641 322.996 112.052 322.996 112.052 323.373Z"
            fill="#263238" />
    </g>
    <g opacity="0.3">
        <path
            d="M116.272 323.373V331.461C116.272 331.838 116.862 331.838 116.862 331.461V323.373C116.862 322.996 116.272 322.996 116.272 323.373Z"
            fill="#263238" />
    </g>
    <path d="M121.35 304.988H69.4958V314.011H121.35V304.988Z" fill="#F84018" />
    <path opacity="0.2" d="M121.35 304.988H69.4958V314.011H121.35V304.988Z" fill="black" />
    <g opacity="0.3">
        <path
            d="M73.9761 305.459V313.547C73.9761 313.925 74.5656 313.925 74.5656 313.547V305.459C74.5656 305.082 73.9761 305.082 73.9761 305.459Z"
            fill="#263238" />
    </g>
    <g opacity="0.3">
        <path
            d="M78.2678 305.459V313.547C78.2678 313.925 78.8573 313.925 78.8573 313.547V305.459C78.8573 305.082 78.2678 305.082 78.2678 305.459Z"
            fill="#263238" />
    </g>
    <g opacity="0.3">
        <path
            d="M82.4888 305.459V313.547C82.4888 313.925 83.0783 313.925 83.0783 313.547V305.459C83.0783 305.082 82.4888 305.082 82.4888 305.459Z"
            fill="#263238" />
    </g>
    <g opacity="0.3">
        <path
            d="M86.7097 305.459V313.547C86.7097 313.925 87.2992 313.925 87.2992 313.547V305.459C87.2992 305.082 86.7097 305.082 86.7097 305.459Z"
            fill="#263238" />
    </g>
    <g opacity="0.3">
        <path
            d="M90.9307 305.459V313.547C90.9307 313.925 91.5202 313.925 91.5202 313.547V305.459C91.5202 305.082 90.9307 305.082 90.9307 305.459Z"
            fill="#263238" />
    </g>
    <g opacity="0.3">
        <path
            d="M95.1597 305.459V313.547C95.1597 313.925 95.7492 313.925 95.7492 313.547V305.459C95.7492 305.082 95.1597 305.082 95.1597 305.459Z"
            fill="#263238" />
    </g>
    <g opacity="0.3">
        <path
            d="M99.3806 305.459V313.547C99.3806 313.925 99.9701 313.925 99.9701 313.547V305.459C99.9701 305.082 99.3806 305.082 99.3806 305.459Z"
            fill="#263238" />
    </g>
    <g opacity="0.3">
        <path
            d="M103.602 305.459V313.547C103.602 313.925 104.191 313.925 104.191 313.547V305.459C104.191 305.082 103.602 305.082 103.602 305.459Z"
            fill="#263238" />
    </g>
    <g opacity="0.3">
        <path
            d="M107.83 305.459V313.547C107.83 313.925 108.42 313.925 108.42 313.547V305.459C108.42 305.082 107.83 305.082 107.83 305.459Z"
            fill="#263238" />
    </g>
    <g opacity="0.3">
        <path
            d="M112.052 305.459V313.547C112.052 313.925 112.641 313.925 112.641 313.547V305.459C112.641 305.082 112.052 305.082 112.052 305.459Z"
            fill="#263238" />
    </g>
    <g opacity="0.3">
        <path
            d="M116.272 305.459V313.547C116.272 313.925 116.862 313.925 116.862 313.547V305.459C116.862 305.082 116.272 305.082 116.272 305.459Z"
            fill="#263238" />
    </g>
    <g opacity="0.3">
        <path
            d="M69.3464 332.326V340.414C69.3464 340.791 69.936 340.791 69.936 340.414V332.326C69.936 331.948 69.3464 331.948 69.3464 332.326Z"
            fill="#263238" />
    </g>
    <g opacity="0.3">
        <path
            d="M73.6304 332.326V340.414C73.6304 340.791 74.2199 340.791 74.2199 340.414V332.326C74.2199 331.948 73.6304 331.948 73.6304 332.326Z"
            fill="#263238" />
    </g>
    <g opacity="0.3">
        <path
            d="M77.8591 332.326V340.414C77.8591 340.791 78.4487 340.791 78.4487 340.414V332.326C78.4487 331.948 77.8591 331.948 77.8591 332.326Z"
            fill="#263238" />
    </g>
    <g opacity="0.3">
        <path
            d="M82.0801 332.326V340.414C82.0801 340.791 82.6696 340.791 82.6696 340.414V332.326C82.6696 331.948 82.0801 331.948 82.0801 332.326Z"
            fill="#263238" />
    </g>
    <g opacity="0.3">
        <path
            d="M86.301 332.326V340.414C86.301 340.791 86.8905 340.791 86.8905 340.414V332.326C86.8905 331.948 86.301 331.948 86.301 332.326Z"
            fill="#263238" />
    </g>
    <g opacity="0.3">
        <path
            d="M90.5222 332.326V340.414C90.5222 340.791 91.1117 340.791 91.1117 340.414V332.326C91.1117 331.948 90.5222 331.948 90.5222 332.326Z"
            fill="#263238" />
    </g>
    <g opacity="0.3">
        <path
            d="M94.751 332.326V340.414C94.751 340.791 95.3405 340.791 95.3405 340.414V332.326C95.3405 331.948 94.751 331.948 94.751 332.326Z"
            fill="#263238" />
    </g>
    <g opacity="0.3">
        <path
            d="M98.9719 332.326V340.414C98.9719 340.791 99.5614 340.791 99.5614 340.414V332.326C99.5614 331.948 98.9719 331.948 98.9719 332.326Z"
            fill="#263238" />
    </g>
    <g opacity="0.3">
        <path
            d="M103.193 332.326V340.414C103.193 340.791 103.782 340.791 103.782 340.414V332.326C103.782 331.948 103.193 331.948 103.193 332.326Z"
            fill="#263238" />
    </g>
    <g opacity="0.3">
        <path
            d="M107.414 332.326V340.414C107.414 340.791 108.003 340.791 108.003 340.414V332.326C108.003 331.948 107.414 331.948 107.414 332.326Z"
            fill="#263238" />
    </g>
    <g opacity="0.3">
        <path
            d="M111.643 332.326V340.414C111.643 340.791 112.232 340.791 112.232 340.414V332.326C112.232 331.948 111.643 331.948 111.643 332.326Z"
            fill="#263238" />
    </g>
    <g opacity="0.3">
        <path
            d="M118.159 314.145H66.3045V323.176H69.4958V331.697H65.5264V340.728H117.381V331.933H121.342V322.909H118.159V314.145Z"
            fill="black" />
    </g>
    <g opacity="0.2">
        <path d="M121.35 304.988H69.4958V314.011H121.35V304.988Z" fill="black" />
    </g>
    <path d="M85.9868 314.278H34.1323V323.302H85.9868V314.278Z" fill="#F84018" />
    <g opacity="0.3">
        <path
            d="M38.3691 314.773V322.861C38.3691 323.239 38.9587 323.239 38.9587 322.861V314.773C38.9587 314.396 38.3691 314.396 38.3691 314.773Z"
            fill="#263238" />
    </g>
    <g opacity="0.3">
        <path
            d="M42.6531 314.773V322.861C42.6531 323.239 43.2426 323.239 43.2426 322.861V314.773C43.2426 314.396 42.6531 314.396 42.6531 314.773Z"
            fill="#263238" />
    </g>
    <g opacity="0.3">
        <path
            d="M46.8818 314.773V322.861C46.8818 323.239 47.4714 323.239 47.4714 322.861V314.773C47.4714 314.396 46.8818 314.396 46.8818 314.773Z"
            fill="#263238" />
    </g>
    <g opacity="0.3">
        <path
            d="M51.1028 314.773V322.861C51.1028 323.239 51.6923 323.239 51.6923 322.861V314.773C51.6923 314.396 51.1028 314.396 51.1028 314.773Z"
            fill="#263238" />
    </g>
    <g opacity="0.3">
        <path
            d="M55.324 314.773V322.861C55.324 323.239 55.9135 323.239 55.9135 322.861V314.773C55.9135 314.396 55.324 314.396 55.324 314.773Z"
            fill="#263238" />
    </g>
    <g opacity="0.3">
        <path
            d="M59.5527 314.773V322.861C59.5527 323.239 60.1423 323.239 60.1423 322.861V314.773C60.1423 314.396 59.5527 314.396 59.5527 314.773Z"
            fill="#263238" />
    </g>
    <g opacity="0.3">
        <path
            d="M63.7737 314.773V322.861C63.7737 323.239 64.3632 323.239 64.3632 322.861V314.773C64.3632 314.396 63.7737 314.396 63.7737 314.773Z"
            fill="#263238" />
    </g>
    <g opacity="0.3">
        <path
            d="M67.9946 314.773V322.861C67.9946 323.239 68.5842 323.239 68.5842 322.861V314.773C68.5842 314.396 67.9946 314.396 67.9946 314.773Z"
            fill="#263238" />
    </g>
    <g opacity="0.3">
        <path
            d="M72.2156 314.773V322.861C72.2156 323.239 72.8051 323.239 72.8051 322.861V314.773C72.8051 314.396 72.2156 314.396 72.2156 314.773Z"
            fill="#263238" />
    </g>
    <g opacity="0.3">
        <path
            d="M76.4446 314.773V322.861C76.4446 323.239 77.0341 323.239 77.0341 322.861V314.773C77.0341 314.396 76.4446 314.396 76.4446 314.773Z"
            fill="#263238" />
    </g>
    <g opacity="0.3">
        <path
            d="M80.6655 314.773V322.861C80.6655 323.239 81.2551 323.239 81.2551 322.861V314.773C81.2551 314.396 80.6655 314.396 80.6655 314.773Z"
            fill="#263238" />
    </g>
    <path d="M85.2084 331.831H33.354V340.854H85.2084V331.831Z" fill="#F84018" />
    <path d="M89.1701 323.035H37.3157V332.058H89.1701V323.035Z" fill="#F84018" />
    <path opacity="0.2" d="M89.1701 323.035H37.3157V332.058H89.1701V323.035Z" fill="black" />
    <g opacity="0.3">
        <path
            d="M41.804 323.506V331.595C41.804 331.972 42.3935 331.972 42.3935 331.595V323.506C42.3935 323.129 41.804 323.129 41.804 323.506Z"
            fill="#263238" />
    </g>
    <g opacity="0.3">
        <path
            d="M46.0879 323.506V331.595C46.0879 331.972 46.6774 331.972 46.6774 331.595V323.506C46.6774 323.129 46.0879 323.129 46.0879 323.506Z"
            fill="#263238" />
    </g>
    <g opacity="0.3">
        <path
            d="M50.3088 323.506V331.595C50.3088 331.972 50.8984 331.972 50.8984 331.595V323.506C50.8984 323.129 50.3088 323.129 50.3088 323.506Z"
            fill="#263238" />
    </g>
    <g opacity="0.3">
        <path
            d="M54.5376 323.506V331.595C54.5376 331.972 55.1271 331.972 55.1271 331.595V323.506C55.1271 323.129 54.5376 323.129 54.5376 323.506Z"
            fill="#263238" />
    </g>
    <g opacity="0.3">
        <path
            d="M58.7588 323.506V331.595C58.7588 331.972 59.3483 331.972 59.3483 331.595V323.506C59.3483 323.129 58.7588 323.129 58.7588 323.506Z"
            fill="#263238" />
    </g>
    <g opacity="0.3">
        <path
            d="M62.9797 323.506V331.595C62.9797 331.972 63.5693 331.972 63.5693 331.595V323.506C63.5693 323.129 62.9797 323.129 62.9797 323.506Z"
            fill="#263238" />
    </g>
    <g opacity="0.3">
        <path
            d="M67.2007 323.506V331.595C67.2007 331.972 67.7902 331.972 67.7902 331.595V323.506C67.7902 323.129 67.2007 323.129 67.2007 323.506Z"
            fill="#263238" />
    </g>
    <g opacity="0.3">
        <path
            d="M71.4294 323.506V331.595C71.4294 331.972 72.019 331.972 72.019 331.595V323.506C72.019 323.129 71.4294 323.129 71.4294 323.506Z"
            fill="#263238" />
    </g>
    <g opacity="0.3">
        <path
            d="M75.6504 323.506V331.595C75.6504 331.972 76.2399 331.972 76.2399 331.595V323.506C76.2399 323.129 75.6504 323.129 75.6504 323.506Z"
            fill="#263238" />
    </g>
    <g opacity="0.3">
        <path
            d="M79.8713 323.506V331.595C79.8713 331.972 80.4609 331.972 80.4609 331.595V323.506C80.4609 323.129 79.8713 323.129 79.8713 323.506Z"
            fill="#263238" />
    </g>
    <g opacity="0.3">
        <path
            d="M84.0925 323.506V331.595C84.0925 331.972 84.6821 331.972 84.6821 331.595V323.506C84.6821 323.129 84.0925 323.129 84.0925 323.506Z"
            fill="#263238" />
    </g>
    <path d="M89.1701 305.121H37.3157V314.145H89.1701V305.121Z" fill="#F84018" />
    <path opacity="0.2" d="M89.1701 305.121H37.3157V314.145H89.1701V305.121Z" fill="black" />
    <g opacity="0.3">
        <path
            d="M41.804 305.593V313.681C41.804 314.058 42.3935 314.058 42.3935 313.681V305.593C42.3935 305.215 41.804 305.215 41.804 305.593Z"
            fill="#263238" />
    </g>
    <g opacity="0.3">
        <path
            d="M46.0879 305.593V313.681C46.0879 314.058 46.6774 314.058 46.6774 313.681V305.593C46.6774 305.215 46.0879 305.215 46.0879 305.593Z"
            fill="#263238" />
    </g>
    <g opacity="0.3">
        <path
            d="M50.3088 305.593V313.681C50.3088 314.058 50.8984 314.058 50.8984 313.681V305.593C50.8984 305.215 50.3088 305.215 50.3088 305.593Z"
            fill="#263238" />
    </g>
    <g opacity="0.3">
        <path
            d="M54.5376 305.593V313.681C54.5376 314.058 55.1271 314.058 55.1271 313.681V305.593C55.1271 305.215 54.5376 305.215 54.5376 305.593Z"
            fill="#263238" />
    </g>
    <g opacity="0.3">
        <path
            d="M58.7588 305.593V313.681C58.7588 314.058 59.3483 314.058 59.3483 313.681V305.593C59.3483 305.215 58.7588 305.215 58.7588 305.593Z"
            fill="#263238" />
    </g>
    <g opacity="0.3">
        <path
            d="M62.9797 305.593V313.681C62.9797 314.058 63.5693 314.058 63.5693 313.681V305.593C63.5693 305.215 62.9797 305.215 62.9797 305.593Z"
            fill="#263238" />
    </g>
    <g opacity="0.3">
        <path
            d="M67.2007 305.593V313.681C67.2007 314.058 67.7902 314.058 67.7902 313.681V305.593C67.7902 305.215 67.2007 305.215 67.2007 305.593Z"
            fill="#263238" />
    </g>
    <g opacity="0.3">
        <path
            d="M71.4294 305.593V313.681C71.4294 314.058 72.019 314.058 72.019 313.681V305.593C72.019 305.215 71.4294 305.215 71.4294 305.593Z"
            fill="#263238" />
    </g>
    <g opacity="0.3">
        <path
            d="M75.6504 305.593V313.681C75.6504 314.058 76.2399 314.058 76.2399 313.681V305.593C76.2399 305.215 75.6504 305.215 75.6504 305.593Z"
            fill="#263238" />
    </g>
    <g opacity="0.3">
        <path
            d="M79.8713 305.593V313.681C79.8713 314.058 80.4609 314.058 80.4609 313.681V305.593C80.4609 305.215 79.8713 305.215 79.8713 305.593Z"
            fill="#263238" />
    </g>
    <g opacity="0.3">
        <path
            d="M84.0925 305.593V313.681C84.0925 314.058 84.6821 314.058 84.6821 313.681V305.593C84.6821 305.215 84.0925 305.215 84.0925 305.593Z"
            fill="#263238" />
    </g>
    <g opacity="0.3">
        <path
            d="M37.1663 332.459V340.547C37.1663 340.925 37.7558 340.925 37.7558 340.547V332.459C37.7558 332.082 37.1663 332.082 37.1663 332.459Z"
            fill="#263238" />
    </g>
    <g opacity="0.3">
        <path
            d="M41.458 332.459V340.547C41.458 340.925 42.0475 340.925 42.0475 340.547V332.459C42.0475 332.082 41.458 332.082 41.458 332.459Z"
            fill="#263238" />
    </g>
    <g opacity="0.3">
        <path
            d="M45.679 332.459V340.547C45.679 340.925 46.2685 340.925 46.2685 340.547V332.459C46.2685 332.082 45.679 332.082 45.679 332.459Z"
            fill="#263238" />
    </g>
    <g opacity="0.3">
        <path
            d="M49.9001 332.459V340.547C49.9001 340.925 50.4897 340.925 50.4897 340.547V332.459C50.4897 332.082 49.9001 332.082 49.9001 332.459Z"
            fill="#263238" />
    </g>
    <g opacity="0.3">
        <path
            d="M54.1289 332.459V340.547C54.1289 340.925 54.7184 340.925 54.7184 340.547V332.459C54.7184 332.082 54.1289 332.082 54.1289 332.459Z"
            fill="#263238" />
    </g>
    <g opacity="0.3">
        <path
            d="M58.3499 332.459V340.547C58.3499 340.925 58.9394 340.925 58.9394 340.547V332.459C58.9394 332.082 58.3499 332.082 58.3499 332.459Z"
            fill="#263238" />
    </g>
    <g opacity="0.3">
        <path
            d="M62.5708 332.459V340.547C62.5708 340.925 63.1603 340.925 63.1603 340.547V332.459C63.1603 332.082 62.5708 332.082 62.5708 332.459Z"
            fill="#263238" />
    </g>
    <g opacity="0.3">
        <path
            d="M66.7917 332.459V340.547C66.7917 340.925 67.3813 340.925 67.3813 340.547V332.459C67.3813 332.082 66.7917 332.082 66.7917 332.459Z"
            fill="#263238" />
    </g>
    <g opacity="0.3">
        <path
            d="M71.0208 332.459V340.547C71.0208 340.925 71.6103 340.925 71.6103 340.547V332.459C71.6103 332.082 71.0208 332.082 71.0208 332.459Z"
            fill="#263238" />
    </g>
    <g opacity="0.3">
        <path
            d="M75.2417 332.459V340.547C75.2417 340.925 75.8312 340.925 75.8312 340.547V332.459C75.8312 332.082 75.2417 332.082 75.2417 332.459Z"
            fill="#263238" />
    </g>
    <g opacity="0.3">
        <path
            d="M79.4626 332.459V340.547C79.4626 340.925 80.0522 340.925 80.0522 340.547V332.459C80.0522 332.082 79.4626 332.082 79.4626 332.459Z"
            fill="#263238" />
    </g>
    <path d="M85.9868 278.907H34.1323V287.931H85.9868V278.907Z" fill="#F84018" />
    <g opacity="0.3">
        <path
            d="M38.3689 279.402V287.49C38.3689 287.868 38.9584 287.868 38.9584 287.49V279.402C38.9584 279.025 38.3689 279.025 38.3689 279.402Z"
            fill="#263238" />
    </g>
    <g opacity="0.3">
        <path
            d="M42.6528 279.402V287.49C42.6528 287.868 43.2424 287.868 43.2424 287.49V279.402C43.2424 279.025 42.6528 279.025 42.6528 279.402Z"
            fill="#263238" />
    </g>
    <g opacity="0.3">
        <path
            d="M46.8816 279.402V287.49C46.8816 287.868 47.4711 287.868 47.4711 287.49V279.402C47.4711 279.025 46.8816 279.025 46.8816 279.402Z"
            fill="#263238" />
    </g>
    <g opacity="0.3">
        <path
            d="M51.1025 279.402V287.49C51.1025 287.868 51.6921 287.868 51.6921 287.49V279.402C51.6921 279.025 51.1025 279.025 51.1025 279.402Z"
            fill="#263238" />
    </g>
    <g opacity="0.3">
        <path
            d="M55.3237 279.402V287.49C55.3237 287.868 55.9133 287.868 55.9133 287.49V279.402C55.9133 279.025 55.3237 279.025 55.3237 279.402Z"
            fill="#263238" />
    </g>
    <g opacity="0.3">
        <path
            d="M59.5525 279.402V287.49C59.5525 287.868 60.142 287.868 60.142 287.49V279.402C60.142 279.025 59.5525 279.025 59.5525 279.402Z"
            fill="#263238" />
    </g>
    <g opacity="0.3">
        <path
            d="M63.7734 279.402V287.49C63.7734 287.868 64.363 287.868 64.363 287.49V279.402C64.363 279.025 63.7734 279.025 63.7734 279.402Z"
            fill="#263238" />
    </g>
    <g opacity="0.3">
        <path
            d="M67.9944 279.402V287.49C67.9944 287.868 68.5839 287.868 68.5839 287.49V279.402C68.5839 279.025 67.9944 279.025 67.9944 279.402Z"
            fill="#263238" />
    </g>
    <g opacity="0.3">
        <path
            d="M72.2153 279.402V287.49C72.2153 287.868 72.8049 287.868 72.8049 287.49V279.402C72.8049 279.025 72.2153 279.025 72.2153 279.402Z"
            fill="#263238" />
    </g>
    <g opacity="0.3">
        <path
            d="M76.4443 279.402V287.49C76.4443 287.868 77.0339 287.868 77.0339 287.49V279.402C77.0339 279.025 76.4443 279.025 76.4443 279.402Z"
            fill="#263238" />
    </g>
    <g opacity="0.3">
        <path
            d="M80.6653 279.402V287.49C80.6653 287.868 81.2548 287.868 81.2548 287.49V279.402C81.2548 279.025 80.6653 279.025 80.6653 279.402Z"
            fill="#263238" />
    </g>
    <path d="M85.2084 296.459H33.354V305.483H85.2084V296.459Z" fill="#F84018" />
    <path d="M89.1701 287.663H37.3157V296.687H89.1701V287.663Z" fill="#F84018" />
    <path opacity="0.2" d="M89.1701 287.663H37.3157V296.687H89.1701V287.663Z" fill="black" />
    <g opacity="0.3">
        <path
            d="M41.8037 288.135V296.223C41.8037 296.6 42.3932 296.6 42.3932 296.223V288.135C42.3932 287.757 41.8037 287.757 41.8037 288.135Z"
            fill="#263238" />
    </g>
    <g opacity="0.3">
        <path
            d="M46.0876 288.135V296.223C46.0876 296.6 46.6772 296.6 46.6772 296.223V288.135C46.6772 287.757 46.0876 287.757 46.0876 288.135Z"
            fill="#263238" />
    </g>
    <g opacity="0.3">
        <path
            d="M50.3086 288.135V296.223C50.3086 296.6 50.8981 296.6 50.8981 296.223V288.135C50.8981 287.757 50.3086 287.757 50.3086 288.135Z"
            fill="#263238" />
    </g>
    <g opacity="0.3">
        <path
            d="M54.5374 288.135V296.223C54.5374 296.6 55.1269 296.6 55.1269 296.223V288.135C55.1269 287.757 54.5374 287.757 54.5374 288.135Z"
            fill="#263238" />
    </g>
    <g opacity="0.3">
        <path
            d="M58.7585 288.135V296.223C58.7585 296.6 59.3481 296.6 59.3481 296.223V288.135C59.3481 287.757 58.7585 287.757 58.7585 288.135Z"
            fill="#263238" />
    </g>
    <g opacity="0.3">
        <path
            d="M62.9795 288.135V296.223C62.9795 296.6 63.569 296.6 63.569 296.223V288.135C63.569 287.757 62.9795 287.757 62.9795 288.135Z"
            fill="#263238" />
    </g>
    <g opacity="0.3">
        <path
            d="M67.2004 288.135V296.223C67.2004 296.6 67.79 296.6 67.79 296.223V288.135C67.79 287.757 67.2004 287.757 67.2004 288.135Z"
            fill="#263238" />
    </g>
    <g opacity="0.3">
        <path
            d="M71.4292 288.135V296.223C71.4292 296.6 72.0187 296.6 72.0187 296.223V288.135C72.0187 287.757 71.4292 287.757 71.4292 288.135Z"
            fill="#263238" />
    </g>
    <g opacity="0.3">
        <path
            d="M75.6501 288.135V296.223C75.6501 296.6 76.2397 296.6 76.2397 296.223V288.135C76.2397 287.757 75.6501 287.757 75.6501 288.135Z"
            fill="#263238" />
    </g>
    <g opacity="0.3">
        <path
            d="M79.8711 288.135V296.223C79.8711 296.6 80.4606 296.6 80.4606 296.223V288.135C80.4606 287.757 79.8711 287.757 79.8711 288.135Z"
            fill="#263238" />
    </g>
    <g opacity="0.3">
        <path
            d="M84.0923 288.135V296.223C84.0923 296.6 84.6818 296.6 84.6818 296.223V288.135C84.6818 287.757 84.0923 287.757 84.0923 288.135Z"
            fill="#263238" />
    </g>
    <g opacity="0.3">
        <path
            d="M37.1663 297.088V305.176C37.1663 305.553 37.7558 305.553 37.7558 305.176V297.088C37.7558 296.711 37.1663 296.711 37.1663 297.088Z"
            fill="#263238" />
    </g>
    <g opacity="0.3">
        <path
            d="M41.458 297.088V305.176C41.458 305.553 42.0475 305.553 42.0475 305.176V297.088C42.0475 296.711 41.458 296.711 41.458 297.088Z"
            fill="#263238" />
    </g>
    <g opacity="0.3">
        <path
            d="M45.679 297.088V305.176C45.679 305.553 46.2685 305.553 46.2685 305.176V297.088C46.2685 296.711 45.679 296.711 45.679 297.088Z"
            fill="#263238" />
    </g>
    <g opacity="0.3">
        <path
            d="M49.9001 297.088V305.176C49.9001 305.553 50.4897 305.553 50.4897 305.176V297.088C50.4897 296.711 49.9001 296.711 49.9001 297.088Z"
            fill="#263238" />
    </g>
    <g opacity="0.3">
        <path
            d="M54.1289 297.088V305.176C54.1289 305.553 54.7184 305.553 54.7184 305.176V297.088C54.7184 296.711 54.1289 296.711 54.1289 297.088Z"
            fill="#263238" />
    </g>
    <g opacity="0.3">
        <path
            d="M58.3499 297.088V305.176C58.3499 305.553 58.9394 305.553 58.9394 305.176V297.088C58.9394 296.711 58.3499 296.711 58.3499 297.088Z"
            fill="#263238" />
    </g>
    <g opacity="0.3">
        <path
            d="M62.5708 297.088V305.176C62.5708 305.553 63.1603 305.553 63.1603 305.176V297.088C63.1603 296.711 62.5708 296.711 62.5708 297.088Z"
            fill="#263238" />
    </g>
    <g opacity="0.3">
        <path
            d="M66.7917 297.088V305.176C66.7917 305.553 67.3813 305.553 67.3813 305.176V297.088C67.3813 296.711 66.7917 296.711 66.7917 297.088Z"
            fill="#263238" />
    </g>
    <g opacity="0.3">
        <path
            d="M71.0208 297.088V305.176C71.0208 305.553 71.6103 305.553 71.6103 305.176V297.088C71.6103 296.711 71.0208 296.711 71.0208 297.088Z"
            fill="#263238" />
    </g>
    <g opacity="0.3">
        <path
            d="M75.2417 297.088V305.176C75.2417 305.553 75.8312 305.553 75.8312 305.176V297.088C75.8312 296.711 75.2417 296.711 75.2417 297.088Z"
            fill="#263238" />
    </g>
    <g opacity="0.3">
        <path
            d="M79.4626 297.088V305.176C79.4626 305.553 80.0522 305.553 80.0522 305.176V297.088C80.0522 296.711 79.4626 296.711 79.4626 297.088Z"
            fill="#263238" />
    </g>
    <path
        d="M299.276 80.5365C309.062 87.8388 322.551 86.3139 329.405 77.1252L331.841 73.8553L296.407 47.4132L293.97 50.6831C287.116 59.8718 289.49 73.2343 299.276 80.5365Z"
        fill="#F84018" />
    <path opacity="0.3"
        d="M299.276 80.5365C309.062 87.8388 322.551 86.3139 329.405 77.1252L331.841 73.8553L296.407 47.4132L293.97 50.6831C287.116 59.8718 289.49 73.2343 299.276 80.5365Z"
        fill="black" />
    <path
        d="M336.007 57.4508C337.76 69.5321 329.389 80.7487 317.308 82.5094C305.226 84.2623 294.01 75.8911 292.249 63.8098C290.496 51.7285 298.867 40.5118 310.949 38.7511C323.03 36.9983 334.247 45.3695 336.007 57.4508Z"
        fill="#F84018" />
    <path
        d="M331.709 62.4369C332.711 52.7121 325.639 44.0167 315.915 43.0152C306.19 42.0137 297.494 49.0853 296.493 58.81C295.491 68.5348 302.563 77.2302 312.288 78.2318C322.013 79.2333 330.708 72.1617 331.709 62.4369Z"
        fill="#F84018" />
    <path opacity="0.3"
        d="M331.709 62.4369C332.711 52.7121 325.639 44.0167 315.915 43.0152C306.19 42.0137 297.494 49.0853 296.493 58.81C295.491 68.5348 302.563 77.2302 312.288 78.2318C322.013 79.2333 330.708 72.1617 331.709 62.4369Z"
        fill="white" />
    <path
        d="M321.379 62.6307C321.379 63.7862 321.01 64.8788 320.295 65.9006L320.703 66.3172C320.908 66.5294 321.01 66.7888 321.01 67.1032C321.01 67.4176 320.908 67.677 320.696 67.8814C320.483 68.0858 320.232 68.1801 319.933 68.1644C319.634 68.1487 319.375 68.0308 319.163 67.8028L318.801 67.4334C317.913 68.1015 316.985 68.5259 316.034 68.691C315.075 68.8561 314.219 68.7932 313.448 68.4945C313.087 68.3452 312.827 68.188 312.662 68.0229C312.442 67.8028 312.34 67.5277 312.34 67.2054C312.34 66.8831 312.466 66.6159 312.702 66.3879C312.89 66.2072 313.11 66.0971 313.37 66.0657C313.629 66.0342 313.873 66.0814 314.109 66.1914C314.588 66.443 315.115 66.5216 315.681 66.4351C316.247 66.3486 316.789 66.1443 317.3 65.822L313.881 62.167C312.662 62.7643 311.554 63.0866 310.571 63.1338C309.581 63.1809 308.716 62.8194 307.97 62.0491C307.207 61.2709 306.838 60.3512 306.861 59.298C306.885 58.2447 307.302 57.1992 308.119 56.1695L307.781 55.8158C307.577 55.6036 307.467 55.3442 307.459 55.0298C307.459 54.7233 307.545 54.4717 307.75 54.2752C307.962 54.0708 308.221 53.9687 308.536 53.9844C308.85 53.9922 309.109 54.1023 309.314 54.3145L309.636 54.6525C310.626 53.8586 311.585 53.4342 312.505 53.3634C313.425 53.2927 314.203 53.5835 314.832 54.228C315.068 54.4717 315.193 54.7547 315.193 55.0691C315.193 55.3835 315.083 55.6508 314.863 55.863C314.659 56.0595 314.431 56.1617 314.164 56.1695C313.896 56.1695 313.661 56.0909 313.44 55.9102C313.181 55.7058 312.835 55.635 312.419 55.6822C312.002 55.7294 311.554 55.9102 311.09 56.2088L314.116 59.4552C316.781 58.1503 318.817 58.2211 320.232 59.6752C321.002 60.4691 321.387 61.4438 321.379 62.5993V62.6307ZM310.524 60.8464C310.957 60.8464 311.523 60.7128 312.206 60.4298L309.597 57.718C309.204 58.2525 308.999 58.7477 308.984 59.2115C308.968 59.6752 309.117 60.0761 309.447 60.4063C309.73 60.6971 310.092 60.8464 310.524 60.8464ZM319.273 62.6936C319.265 62.1355 319.084 61.6796 318.738 61.3259C318.455 61.0351 318.078 60.87 317.614 60.8386C317.143 60.8071 316.545 60.9408 315.799 61.2473L318.778 64.3443C319.116 63.8019 319.281 63.2438 319.273 62.6936Z"
        fill="#F84018" />
    <path
        d="M296.187 62.1592C295.354 52.2473 302.703 43.5381 312.615 42.7049C322.527 41.8717 331.236 49.2211 332.069 59.1329C330.214 50.2194 322 44.0883 312.93 44.8508C303.018 45.684 295.668 54.401 296.502 64.305C296.352 63.5976 296.25 62.8744 296.187 62.1592Z"
        fill="#F84018" />
    <path opacity="0.3"
        d="M296.187 62.1592C295.354 52.2473 302.703 43.5381 312.615 42.7049C322.527 41.8717 331.236 49.2211 332.069 59.1329C330.214 50.2194 322 44.0883 312.93 44.8508C303.018 45.684 295.668 54.401 296.502 64.305C296.352 63.5976 296.25 62.8744 296.187 62.1592Z"
        fill="black" />
    <path
        d="M47.6991 58.8657C55.418 64.6274 66.0608 63.4247 71.4687 56.1775L73.3945 53.5993L45.4354 32.7302L43.5096 35.3084C38.1017 42.5556 39.9725 53.1041 47.6913 58.8657H47.6991Z"
        fill="#F84018" />
    <path opacity="0.3"
        d="M47.6991 58.8657C55.418 64.6274 66.0608 63.4247 71.4687 56.1775L73.3945 53.5993L45.4354 32.7302L43.5096 35.3084C38.1017 42.5556 39.9725 53.1041 47.6913 58.8657H47.6991Z"
        fill="black" />
    <path
        d="M71.3614 55.8747C78.3812 49.278 78.7242 38.2396 72.1276 31.2198C65.5309 24.2 54.4925 23.857 47.4727 30.4536C40.4529 37.0503 40.1099 48.0886 46.7065 55.1085C53.3032 62.1283 64.3415 62.4713 71.3614 55.8747Z"
        fill="#F84018" />
    <path
        d="M51.0634 54.3539C57.2416 58.9679 65.998 57.6945 70.612 51.5163C75.226 45.3381 73.9527 36.5817 67.7745 31.9756C61.5963 27.3616 52.8399 28.6349 48.2337 34.8131C43.6197 40.9913 44.8931 49.7477 51.0713 54.3539H51.0634Z"
        fill="#F84018" />
    <path opacity="0.3"
        d="M51.0634 54.3539C57.2416 58.9679 65.998 57.6945 70.612 51.5163C75.226 45.3381 73.9527 36.5817 67.7745 31.9756C61.5963 27.3616 52.8399 28.6349 48.2337 34.8131C43.6197 40.9913 44.8931 49.7477 51.0713 54.3539H51.0634Z"
        fill="white" />
    <path
        d="M65.1412 44.7407C65.1412 45.6525 64.8504 46.5172 64.2844 47.3268L64.6067 47.6569C64.7718 47.822 64.8504 48.0342 64.8504 48.2779C64.8504 48.5294 64.7718 48.7338 64.5988 48.891C64.4338 49.0561 64.2294 49.1268 63.9936 49.1189C63.7578 49.1032 63.5534 49.0168 63.3884 48.836L63.1054 48.5451C62.4058 49.0718 61.6748 49.4019 60.9202 49.5355C60.1656 49.6692 59.4897 49.6141 58.8844 49.3862C58.6014 49.2683 58.3892 49.1425 58.2634 49.0089C58.0905 48.836 58.0041 48.6159 58.0119 48.3643C58.0119 48.1128 58.1062 47.9006 58.2949 47.7198C58.4442 47.5705 58.6172 47.4919 58.8215 47.4683C59.0259 47.4447 59.2145 47.4761 59.411 47.5705C59.7883 47.767 60.2049 47.8298 60.653 47.767C61.101 47.6962 61.5255 47.539 61.9342 47.2796L59.2381 44.3949C58.2713 44.8665 57.4067 45.1259 56.6285 45.1573C55.8503 45.1966 55.1665 44.9058 54.577 44.3006C53.9796 43.6796 53.6887 42.9565 53.7045 42.1311C53.7202 41.3058 54.0503 40.4805 54.6949 39.663L54.4276 39.3879C54.2625 39.2228 54.1839 39.0184 54.1761 38.7669C54.1761 38.5232 54.2468 38.3267 54.404 38.1695C54.5691 38.0045 54.7813 37.9259 55.025 37.9337C55.2765 37.9416 55.4809 38.028 55.6381 38.1931L55.8975 38.4604C56.6835 37.8394 57.4381 37.5014 58.1613 37.4464C58.8923 37.3914 59.4975 37.6193 60.0006 38.1302C60.1892 38.3267 60.2835 38.5468 60.2835 38.7905C60.2835 39.042 60.1971 39.2464 60.0163 39.4193C59.8591 39.5765 59.6704 39.6551 59.4661 39.663C59.2538 39.663 59.0652 39.6001 58.8923 39.4586C58.6879 39.3014 58.4206 39.2385 58.0905 39.2778C57.7604 39.3171 57.4067 39.4586 57.0372 39.6944L59.4268 42.2569C61.5255 41.2272 63.1368 41.2822 64.253 42.4298C64.8582 43.0586 65.1648 43.8289 65.1569 44.7407H65.1412ZM56.5735 43.3338C56.9193 43.3338 57.3595 43.2237 57.9019 43.0036L55.8425 40.8656C55.5359 41.2901 55.3708 41.6831 55.3551 42.0447C55.3394 42.4141 55.4652 42.7285 55.7167 42.9879C55.9368 43.2158 56.2198 43.3338 56.5656 43.3338H56.5735ZM63.4748 44.7879C63.4748 44.3477 63.3255 43.9862 63.0504 43.7032C62.8303 43.4752 62.5316 43.3416 62.1622 43.318C61.7927 43.2944 61.3132 43.3966 60.7316 43.6403L63.0818 46.0849C63.3491 45.6525 63.4748 45.2202 63.4748 44.78V44.7879Z"
        fill="#F84018" />
    <path
        d="M45.2626 44.3713C44.6024 36.5503 50.4033 29.6804 58.2243 29.0201C66.0453 28.3598 72.9152 34.1607 73.5755 41.9817C72.1134 34.9468 65.6287 30.1127 58.468 30.7179C50.6469 31.3782 44.846 38.2481 45.5063 46.0691C45.3884 45.511 45.3098 44.9451 45.2626 44.3713Z"
        fill="#F84018" />
    <path opacity="0.3"
        d="M45.2626 44.3713C44.6024 36.5503 50.4033 29.6804 58.2243 29.0201C66.0453 28.3598 72.9152 34.1607 73.5755 41.9817C72.1134 34.9468 65.6287 30.1127 58.468 30.7179C50.6469 31.3782 44.846 38.2481 45.5063 46.0691C45.3884 45.511 45.3098 44.9451 45.2626 44.3713Z"
        fill="black" />
    <path
        d="M293.703 299.721C295.668 299.996 297.689 299.415 299.386 298.377C301.076 297.339 302.475 295.877 303.694 294.313C306.94 290.163 309.102 285.172 309.904 279.96C310.076 278.844 310.186 277.689 309.904 276.596C309.628 275.504 308.897 274.466 307.828 274.089C306.233 273.531 304.551 274.56 303.254 275.637C297.374 280.55 293.436 287.718 292.438 295.319C292.194 297.174 292.454 299.069 293.696 299.721"
        fill="#F84018" />
    <path
        d="M282.212 290.194C283.839 286.807 283.965 282.798 282.888 279.198C281.811 275.598 279.594 272.399 276.859 269.828C273.856 267.014 269.989 264.845 265.87 264.821C264.117 264.814 262.215 265.285 261.13 266.669C259.983 268.146 260.077 270.245 260.58 272.045C261.405 274.993 263.158 277.618 265.249 279.858C267.34 282.098 269.777 283.985 272.198 285.848C274.933 287.954 277.888 290.132 281.331 290.391"
        fill="#F84018" />
    <path
        d="M281.968 301.615C281.481 297.811 278.525 294.667 275.074 293.001C271.616 291.334 267.701 290.925 263.874 290.737C263.025 290.697 262.144 290.666 261.335 290.918C260.517 291.169 259.763 291.766 259.542 292.592C259.259 293.677 259.943 294.761 260.659 295.618C264.856 300.656 271.419 303.628 277.975 303.463C278.729 303.447 279.508 303.384 280.207 303.093C280.907 302.802 281.536 302.252 281.748 301.521"
        fill="#F84018" />
    <path
        d="M306.712 276.714C300.023 286.854 294.159 297.528 289.215 308.619C287.855 311.677 286.558 314.766 285.332 317.886C285.191 318.24 285.764 318.389 285.898 318.043C291.55 303.667 298.702 289.911 307.215 277.013C307.427 276.698 306.916 276.4 306.704 276.714H306.712Z"
        fill="#263238" />
    <path
        d="M286.723 315.513C286.951 308.485 286.377 301.372 284.365 294.612C282.408 288.033 279.067 281.933 274.501 276.8C271.584 273.515 268.212 270.669 264.589 268.186C264.274 267.973 263.983 268.484 264.29 268.697C270.413 272.894 275.742 278.215 279.476 284.669C282.88 290.556 284.853 297.159 285.678 303.887C286.15 307.747 286.26 311.637 286.134 315.513C286.118 315.89 286.708 315.89 286.723 315.513Z"
        fill="#263238" />
    <path
        d="M286.346 305.624C280.867 299.265 273.196 294.824 264.927 293.346C264.557 293.284 264.4 293.849 264.769 293.912C272.952 295.374 280.506 299.745 285.929 306.033C286.181 306.324 286.59 305.899 286.346 305.616V305.624Z"
        fill="#263238" />
    <path
        d="M273.943 320.464V312.227H296.879V320.464C296.879 320.464 297.319 335.022 289.231 336.342H281.583C273.494 335.022 273.935 320.464 273.935 320.464H273.943Z"
        fill="#F84018" />
    <path opacity="0.5"
        d="M273.943 320.464V312.227H296.879V320.464C296.879 320.464 297.319 335.022 289.231 336.342H281.583C273.494 335.022 273.935 320.464 273.935 320.464H273.943Z"
        fill="black" />
    <path
        d="M79.8477 201.821C80.1779 201.931 92.3142 222.446 93.0845 222.446C93.8548 222.446 105.331 217.856 105.331 217.856L107.626 223.319C107.626 223.319 92.8723 232.209 87.0242 231.533C81.1683 230.865 71.4451 207.355 71.4451 207.355L79.8556 201.821H79.8477Z"
        fill="#FDBBB5" />
    <path
        d="M105.103 217.818L111.753 213.283L113.404 223.344C113.404 223.344 106.879 225.946 105.142 222.589L105.111 217.818H105.103Z"
        fill="#FDBBB5" />
    <path d="M118.348 213.69L119.314 222.069L113.396 223.343L111.745 213.274L118.348 213.69Z" fill="#FDBBB5" />
    <path d="M140.301 338.284L148.02 334.259L142.809 315.709L135.09 319.741L140.301 338.284Z" fill="#FDBBB5" />
    <path
        d="M148.28 333.049L138.895 335.784C138.564 335.863 138.368 336.193 138.446 336.523L140.144 344.085C140.38 344.894 141.229 345.358 142.039 345.138C145.293 344.132 146.802 343.487 150.874 342.253C153.412 341.499 158.482 340.28 161.784 338.716C165.085 337.144 163.458 333.929 161.917 334.299C158.278 335.163 152.705 334.259 149.812 333.096C149.317 332.915 148.775 332.9 148.272 333.049H148.28Z"
        fill="#263238" />
    <path d="M166.382 302.889L170.469 296.019L158.058 284.425L153.978 291.287L166.382 302.889Z" fill="#FDBBB5" />
    <path
        d="M171.247 295.131H171.31C171.31 295.131 171.318 295.092 171.31 295.068C171.9 294.675 172.45 294.219 172.937 293.7C173.338 293.347 173.59 292.851 173.645 292.325C173.621 291.94 173.385 291.602 173.024 291.452C172.812 291.334 172.56 291.334 172.348 291.452C171.774 291.971 171.397 292.678 171.303 293.449C171.216 292.765 170.886 292.136 170.375 291.672C170.1 291.507 169.746 291.554 169.518 291.782C169.306 291.963 169.18 292.23 169.188 292.513C169.267 293.622 171.098 294.958 171.185 295.029L171.255 294.911L171.192 295.044C171.24 295.052 171.192 295.178 171.192 295.178C171.216 295.17 171.24 295.154 171.255 295.139L171.247 295.131ZM171.114 294.455V294.643C170.532 294.14 169.613 293.244 169.613 292.584C169.605 292.435 169.652 292.285 169.754 292.175L169.825 292.112C170.021 291.932 170.171 291.971 170.265 292.034C170.823 292.718 171.122 293.574 171.114 294.447V294.455ZM171.523 294.636C171.711 293.551 172.104 292.12 172.599 291.861C172.71 291.806 172.835 291.806 172.937 291.861C173.158 291.963 173.307 292.167 173.338 292.411C173.362 292.938 172.67 293.747 171.523 294.636Z"
        fill="#F84018" />
    <path
        d="M170.092 294.95L164.102 301.608C163.882 301.828 163.882 302.181 164.102 302.409L169.094 307.495C169.667 308.022 170.563 307.982 171.09 307.409C173.15 305.05 174.014 303.824 176.64 300.877C178.259 299.077 181.631 295.665 183.447 292.891C185.262 290.116 182.448 288.347 181.45 289.377C179.013 291.814 174.234 293.779 171.467 294.266C170.941 294.329 170.453 294.573 170.092 294.958V294.95Z"
        fill="#263238" />
    <path
        d="M81.8758 200.949L74.4006 206.419L68.8198 210.515L68.0102 209.516L65.9508 206.97L61.9578 202.096L66.5796 183.884C71.0128 184.088 78.3308 195.564 80.7596 199.243C81.467 200.288 81.8758 200.941 81.8758 200.941V200.949Z"
        fill="#F84018" />
    <path opacity="0.2"
        d="M74.4005 206.419L68.8197 210.515L65.9507 206.97C66.6188 201.318 67.3184 195.549 67.3184 195.549C70.3996 198.653 72.8049 202.356 74.4005 206.419Z"
        fill="black" />
    <path
        d="M148.987 327.877C148.987 327.877 132.402 267.808 129.659 264.35C125.202 258.706 82.2689 252.748 82.2689 252.748L71.0365 233.325L30.4773 239.008C30.4773 239.008 33.4721 267.533 38.4634 274.883C43.4547 282.232 108.813 281.006 113.152 282.429C117.499 283.859 133.935 330.746 133.935 330.746L148.995 327.869L148.987 327.877Z"
        fill="#263238" />
    <path opacity="0.2"
        d="M148.987 327.869L133.856 330.746C133.856 330.746 117.428 283.867 113.073 282.436C108.719 281.006 43.3446 282.24 38.3848 274.891C33.4249 267.541 30.3987 239.016 30.3987 239.016L70.9579 233.333L74.2749 239.071L76.1299 242.278L82.261 252.756C82.261 252.756 125.194 258.746 129.69 264.358C132.394 267.801 148.979 327.877 148.979 327.877L148.987 327.869Z"
        fill="white" />
    <path opacity="0.2" d="M74.2749 239.071L76.1692 242.262L45.2153 251.734L74.2749 239.071Z" fill="black" />
    <path
        d="M51.8022 250.052C51.8022 250.052 98.8933 232.005 111.713 237.012C124.534 242.011 165.077 287.247 165.077 287.247L155.912 298.849C155.912 298.849 114.85 259.838 110.047 257.606C105.244 255.381 57.0215 279.575 57.0215 279.575L51.8022 250.052Z"
        fill="#263238" />
    <path opacity="0.2"
        d="M51.8022 250.052C51.8022 250.052 98.8933 232.005 111.713 237.012C124.534 242.011 165.077 287.247 165.077 287.247L155.912 298.849C155.912 298.849 114.85 259.838 110.047 257.606C105.244 255.381 57.0215 279.575 57.0215 279.575L51.8022 250.052Z"
        fill="white" />
    <path opacity="0.2"
        d="M61.6355 277.335C61.6355 277.335 103.57 256.214 111.21 253.369C118.851 250.524 135.177 259.587 138.022 282.02L134.658 278.341C134.658 278.341 131.309 264.884 126.585 260.813C123.323 257.999 108.452 259.649 108.452 259.649C111.981 257.904 77.7413 275.048 61.6277 277.335H61.6355Z"
        fill="black" />
    <path
        d="M74.9037 240.745C61.3761 247.01 46.8896 252.041 30.4065 249.352C30.4065 249.352 29.8641 233.946 29.2353 225.41C28.8344 219.955 28.4336 213.564 28.2371 207.237C27.9148 197.647 30.8388 187.759 31.9628 182.029C40.4991 179.765 47.2826 180.551 55.3866 181.29C60.48 183.121 63.1604 182.335 68.3718 184.576C68.3718 184.576 71.9168 212.307 74.8958 240.745H74.9037Z"
        fill="#F84018" />
    <path
        d="M73.1509 223.091L80.7911 220.552L79.612 230.676C79.612 230.676 72.6242 231.384 71.8696 227.682L73.1509 223.091Z"
        fill="#FDBBB5" />
    <path d="M87.0165 222.761L85.6488 231.085L79.6121 230.684L80.7911 220.544L87.0165 222.761Z" fill="#FDBBB5" />
    <path opacity="0.2"
        d="M29.2353 225.088C28.8344 219.633 28.4336 213.242 28.2371 206.915C31.8449 200.265 37.4965 192.389 37.4965 192.389C37.4965 192.389 52.1953 208.439 29.2353 225.088Z"
        fill="black" />
    <path
        d="M24.9436 202.128C27.0187 211.702 31.562 227.611 40.4834 232.869C41.3088 233.302 42.197 233.592 43.1166 233.75C46.1979 234.056 49.3027 233.962 52.3604 233.482C60.4014 232.398 68.3561 230.723 76.1535 228.491L75.1552 222.942L59.3796 223.814C55.2136 224.042 47.9429 224.333 45.3018 223.885L45.6241 224.058C45.4826 223.924 45.1918 223.665 45.066 223.516C42.8415 220.89 41.5524 217.597 40.2555 214.193C38.597 209.501 37.19 204.714 36.0502 199.864L24.9436 202.143V202.128Z"
        fill="#FDBBB5" />
    <path
        d="M40.4991 207.622L24.299 211.419L23.8509 209.485C21.0212 196.508 24.9514 183.436 31.9628 182.029C31.9628 182.029 34.03 184.576 36.2152 188.844C37.9209 192.137 39.5637 201.617 40.2082 205.696C40.389 206.883 40.4991 207.622 40.4991 207.622Z"
        fill="#F84018" />
    <path
        d="M45.5926 161.914V165.53C45.3647 171.441 43.9498 178.154 40.1218 180.74C43.0616 185.055 48.0607 187.633 52.5018 187.806C56.3298 187.877 56.4634 183.467 55.6538 181.376C53.8066 180.755 53.9245 180.818 53.9245 180.818C52.9263 178.445 53.7359 175.615 54.9228 172.958L45.5847 161.914H45.5926Z"
        fill="#FDBBB5" />
    <path opacity="0.2"
        d="M45.5926 161.914C45.5219 163.117 45.5219 164.327 45.5926 165.53C45.8206 170.325 47.259 178.382 53.9717 180.818C52.9734 178.445 53.783 175.615 54.97 172.958L45.5926 161.914Z"
        fill="black" />
    <path
        d="M45.1759 157.064C45.3724 149.275 53.4686 144.079 60.6843 147.766C68.0023 151.507 68.0652 163.093 65.8014 169.908C63.2861 177.486 53.4135 180.205 48.045 173.713C44.4764 169.397 44.9873 164.846 45.1759 157.064Z"
        fill="#FDBBB5" />
    <path
        d="M51.5271 144.064C44.8773 142.877 43.376 146.917 42.2048 151.279C40.6956 152.073 40.4126 153.574 41.7567 156.027C41.7882 156.326 41.8432 156.632 41.9375 156.962C42.3777 158.589 44.1305 162.37 45.679 165.577C45.5847 165.161 45.5218 164.72 45.4747 164.233C45.3174 162.63 45.1838 160.421 45.1288 157.788C45.7183 157.953 46.1113 158.228 46.4493 158.526C48.9175 160.743 49.6092 162.417 51.1498 161.325C52.0852 160.657 51.8494 157.74 51.8179 155.296C51.8179 154.659 51.8572 153.229 52.1716 151.892C52.5882 150.108 54.742 149.094 54.742 149.094C54.742 149.094 54.8756 148.992 55.0328 148.827C57.0843 151.004 62.3665 155.304 67.1219 154.274C74.2277 152.733 59.5918 138.577 51.5349 144.056L51.5271 144.064Z"
        fill="#263238" />
    <path
        d="M41.7802 161.914C42.0946 164.068 43.3758 165.86 44.83 166.898C47.023 168.454 48.3121 165.994 48.485 163.447C48.6344 161.16 48.4143 158.299 45.8361 157.756C43.2972 157.222 41.4186 159.454 41.7723 161.914H41.7802Z"
        fill="#FDBBB5" />
    <path
        d="M57.0765 160.995C56.9035 161.899 57.1865 162.678 57.7055 162.733C58.2323 162.788 58.7984 162.096 58.9792 161.192C59.1522 160.287 58.8691 159.509 58.3502 159.454C57.8234 159.399 57.2573 160.091 57.0765 160.995Z"
        fill="#263238" />
    <path
        d="M64.3865 162.3C64.2136 163.204 64.4888 163.982 65.0155 164.037C65.5423 164.093 66.1084 163.401 66.2893 162.496C66.4623 161.592 66.1871 160.814 65.6603 160.759C65.1335 160.704 64.5674 161.396 64.3944 162.3H64.3865Z"
        fill="#263238" />
    <path
        d="M61.0381 161.238C61.0381 161.238 62.9089 165.538 63.4591 167.251C62.2093 168.069 60.3936 167.314 60.3936 167.314L61.0381 161.238Z"
        fill="#FB8D74" />
    <path
        d="M55.7795 157.096C55.8896 157.167 56.0311 157.167 56.1568 157.096C57.5796 156.302 58.735 156.852 58.8529 156.915C59.0337 157.009 59.2617 156.939 59.356 156.758C59.4503 156.577 59.3796 156.349 59.1988 156.255C59.1359 156.223 57.6031 155.445 55.7874 156.451C55.6066 156.554 55.5437 156.774 55.6381 156.954C55.6695 157.009 55.7167 157.057 55.7717 157.088L55.7795 157.096Z"
        fill="#263238" />
    <path
        d="M56.2833 168.942C56.2675 168.816 56.1889 168.698 56.0552 168.643C54.5535 168.007 54.2783 166.764 54.2469 166.631C54.2076 166.426 54.011 166.292 53.8144 166.332C53.61 166.371 53.4763 166.56 53.5156 166.764C53.5314 166.835 53.8616 168.525 55.7643 169.327C55.953 169.406 56.1732 169.327 56.2518 169.131C56.2754 169.068 56.2833 169.005 56.2754 168.942H56.2833Z"
        fill="#263238" />
    <path opacity="0.2"
        d="M43.9419 159.997C44.335 159.572 45.0191 159.501 45.5537 159.721C46.0884 159.949 46.4894 160.421 46.7567 160.932C47.079 161.553 47.2363 162.253 47.2048 162.953"
        stroke="black" stroke-width="0.393015" stroke-linecap="round" stroke-linejoin="round" />
    <path
        d="M67.4608 159.297C67.5316 159.297 67.6023 159.266 67.6652 159.227C67.8304 159.101 67.8697 158.873 67.7439 158.708C66.5252 157.057 64.8111 157.159 64.7325 157.159C64.5281 157.175 64.3708 157.348 64.3787 157.552C64.3866 157.756 64.5674 157.914 64.7718 157.898C64.8426 157.898 66.1635 157.827 67.1385 159.148C67.2171 159.25 67.335 159.305 67.453 159.297H67.4608Z"
        fill="#263238" />
    <path
        d="M60.1184 164.65H59.9769L55.3629 163.722C55.1821 163.683 55.0249 163.573 54.9149 163.423C54.8127 163.266 54.7813 163.078 54.8127 162.897L55.3236 160.358C55.4022 159.981 55.7717 159.737 56.1489 159.816L60.7551 160.743C61.1402 160.822 61.3839 161.191 61.3132 161.568L60.8022 164.092C60.7629 164.28 60.6529 164.437 60.4957 164.54C60.3857 164.618 60.252 164.657 60.1184 164.657V164.65ZM60.0319 164.39L56.0153 160.295C55.9367 160.295 55.8581 160.342 55.8267 160.413L55.3158 162.952C55.3 162.999 55.3 163.054 55.3158 163.101C55.3472 163.148 55.3944 163.18 55.4494 163.188L60.0555 164.115C60.1105 164.139 60.1656 164.139 60.2127 164.115C60.252 164.084 60.2835 164.037 60.2913 163.981L60.8101 161.443C60.8258 161.333 60.7551 161.23 60.6529 161.207L56.0389 160.279H56.0153L60.0319 164.39Z"
        fill="#263238" />
    <path
        d="M67.507 166.159L62.9009 165.239C62.9009 165.239 62.9009 165.239 62.893 165.239C62.5157 165.161 62.2721 164.791 62.3507 164.414L62.8616 161.875C62.8616 161.875 62.8616 161.875 62.8616 161.867C62.9402 161.49 63.3096 161.246 63.6869 161.325L68.2931 162.252C68.6704 162.331 68.914 162.7 68.8354 163.078L68.3245 165.601C68.2616 165.931 67.9708 166.175 67.6328 166.167L67.4913 166.143L67.507 166.159ZM63.5533 161.804C63.4433 161.789 63.3411 161.859 63.3254 161.961L62.8144 164.5C62.7987 164.61 62.8695 164.713 62.9716 164.736L67.5778 165.656C67.6878 165.672 67.79 165.601 67.8057 165.491L68.3167 162.968C68.3324 162.858 68.2616 162.755 68.1594 162.724L63.5533 161.796H63.5454L63.5533 161.804Z"
        fill="#263238" />
    <path
        d="M62.9724 162.826C63.0353 162.826 63.0982 162.803 63.1453 162.756C63.2397 162.661 63.2397 162.504 63.1453 162.41C62.5321 161.812 61.6279 161.623 60.8259 161.93C60.7001 161.977 60.6372 162.127 60.6844 162.252C60.7315 162.378 60.8652 162.441 60.991 162.394C60.991 162.394 60.9989 162.394 61.0067 162.394C61.6121 162.158 62.304 162.292 62.7758 162.74C62.823 162.795 62.9016 162.826 62.9724 162.819V162.826Z"
        fill="#263238" />
    <path
        d="M55.5122 161.199C55.6065 161.199 55.6851 161.113 55.7087 161.002C55.7323 160.869 55.6694 160.735 55.5594 160.704L48.5008 158.707C48.3907 158.676 48.2807 158.762 48.2571 158.896C48.2335 159.03 48.2964 159.163 48.4065 159.195L55.465 161.191H55.5122V161.199Z"
        fill="#263238" />
    <path d="M49.5383 234.937L70.9891 242.498L96.4801 231.085L49.5383 233.325V234.937Z" fill="#263238" />
    <path
        d="M73.8031 242.498H117.789C118.921 242.498 119.896 241.689 120.116 240.58L126.554 206.946C126.837 205.484 125.713 204.132 124.227 204.132H79.6276C78.48 204.132 77.4896 204.957 77.2931 206.097L71.4764 239.731C71.2249 241.178 72.3411 242.498 73.811 242.498H73.8031Z"
        fill="#263238" />
    <path opacity="0.2"
        d="M49.5383 233.325C50.0807 233.302 71.1699 240.392 71.1699 240.392L71.9245 232.248L49.5462 233.317L49.5383 233.325Z"
        fill="black" />
    <path
        d="M39.6187 180.818C39.6187 180.818 42.9986 177.336 42.9829 177.368C42.9671 177.399 51.7864 183.169 52.2659 182.689C52.7454 182.21 53.5157 179.545 53.5157 179.545C53.5157 179.545 56.5183 181.589 56.9978 182.713C57.4773 183.837 56.4004 189.795 53.5157 190.314C45.9934 191.666 39.6187 180.826 39.6187 180.826V180.818Z"
        fill="#F84018" />
    <g opacity="0.3">
        <path
            d="M39.768 181.384C41.1672 182.477 42.5584 183.569 43.9576 184.662C44.8772 185.377 45.7497 186.211 46.7794 186.776C47.5183 187.177 48.4458 187.445 49.1139 186.776C50.0729 185.833 50.686 184.599 51.4406 183.499C51.6528 183.184 51.1419 182.886 50.9297 183.2C50.238 184.214 49.6484 185.259 48.8467 186.195C48.1471 187.012 47.1331 186.344 46.4257 185.849C45.5061 185.204 44.6493 184.45 43.7611 183.758C42.5663 182.823 41.3715 181.895 40.1846 180.96C39.8859 180.732 39.4693 181.141 39.768 181.376V181.384Z"
            fill="black" />
    </g>
    <g opacity="0.3">
        <path
            d="M51.9594 183.593L53.8144 185.558C54.0974 185.857 54.3725 186.195 54.6948 186.454C54.9699 186.674 55.3236 186.808 55.6616 186.643C56.2904 186.336 56.2511 185.409 56.2747 184.827C56.314 183.931 56.2983 183.035 56.2354 182.147C56.204 181.769 55.6145 181.769 55.6459 182.147C55.7088 182.925 55.7245 183.711 55.7009 184.497C55.6931 184.851 55.6852 185.204 55.638 185.558C55.6145 185.731 55.583 186.038 55.4022 186.124C55.1743 186.226 54.907 185.865 54.7813 185.731L53.9952 184.906L52.3682 183.184C52.1088 182.909 51.6922 183.326 51.9516 183.601L51.9594 183.593Z"
            fill="black" />
    </g>
</svg>