<svg width="48" height="48" viewBox="0 0 48 48" fill="none" xmlns="http://www.w3.org/2000/svg">
    <path
        d="M36.0412 36.1784C35.3581 36.1779 34.6842 36.3367 34.0732 36.6422L31.0069 33.5759C30.8763 33.4452 30.7211 33.3415 30.5504 33.2708C30.3797 33.2001 30.1967 33.1637 30.0119 33.1637H25.3897V35.9782H29.429L32.0831 38.6322C30.6036 41.4943 32.8048 45.0653 36.0414 45.0222C41.8992 44.8002 41.8982 36.3999 36.0412 36.1784ZM43.5779 25.627C41.6316 25.627 39.9762 26.8915 39.3869 28.6416H36.6241L34.0217 26.0391C33.891 25.9084 33.7359 25.8048 33.5652 25.734C33.3944 25.6633 33.2114 25.6269 33.0266 25.6269H25.3898V28.4414H32.4438L35.0463 31.0439C35.1769 31.1746 35.332 31.2783 35.5028 31.349C35.6735 31.4198 35.8565 31.4562 36.0413 31.4562H39.387C41.0393 36.1368 47.9014 35.0717 48 30.0488C47.9999 27.6107 46.0161 25.627 43.5779 25.627ZM31.0069 14.4633L34.0732 11.397C36.935 12.8766 40.5065 10.6752 40.4632 7.43876C40.4632 5.00052 38.4795 3.01683 36.0413 3.01683C32.8051 2.97386 30.6032 6.54496 32.0831 9.40688L29.429 12.0609H25.3897V14.8754H30.0119C30.3851 14.8754 30.743 14.7272 31.0069 14.4633ZM34.0216 22L36.624 19.3975H39.3868C41.0384 24.0774 47.9012 23.0135 47.9998 17.9901C47.9007 12.9661 41.0375 11.9037 39.3868 16.5829H36.0411C35.8563 16.5829 35.6733 16.6193 35.5026 16.6901C35.3318 16.7608 35.1767 16.8645 35.0461 16.9952L32.4436 19.5977H25.3897V22.4122H33.0264C33.3998 22.4122 33.7578 22.2639 34.0216 22ZM17.2025 0.00217702C12.3552 -0.166039 9.76416 7.0147 13.8126 7.35761C14.5898 7.35751 15.2199 7.9876 15.2199 8.76478C15.2199 9.54197 14.5898 10.1721 13.8126 10.1721C11.6569 10.1721 9.82918 8.74264 9.2264 6.78213H8.72775C5.76526 6.78213 3.35508 9.19222 3.35508 12.1548C3.35508 14.1827 5.00487 15.8325 7.03274 15.8325C8.89653 15.9006 8.89766 18.5783 7.03274 18.647H5.33764C-1.78193 18.918 -1.77649 29.124 5.33764 29.3923H7.03265C8.89766 29.4618 8.89672 32.1379 7.03265 32.2068C5.00477 32.2068 3.35498 33.8566 3.35498 35.8845C3.35498 38.847 5.76517 41.2572 8.72766 41.2572H9.2263C9.82918 39.2966 11.6568 37.8672 13.8125 37.8672C14.5897 37.8672 15.2198 38.4973 15.2198 39.2745C15.2198 40.0517 14.5897 40.6818 13.8125 40.6818C12.7192 40.6818 11.8298 41.5712 11.8298 42.6644C12.0991 49.7812 22.3061 49.781 22.5751 42.6644V32.4946C22.4319 28.7438 17.0563 28.7473 16.9148 32.4946C16.9148 33.2718 16.2847 33.9018 15.5075 33.9018C14.7303 33.9018 14.1002 33.2718 14.1002 32.4946C14.0397 28.2061 18.9243 25.4115 22.5751 27.6138V20.4256C18.9232 22.6276 14.04 19.8333 14.1003 15.5447C14.1002 14.7676 14.7303 14.1376 15.5075 14.1376C16.2847 14.1376 16.9148 14.7676 16.9148 15.5448C17.0571 19.2948 22.4338 19.2926 22.5751 15.5448V5.37495C22.5752 2.41227 20.165 0.00217702 17.2025 0.00217702Z"
        fill="#F84018" />
</svg>