<svg width="32" height="33" viewBox="0 0 32 33" fill="none" xmlns="http://www.w3.org/2000/svg">
    <path
        d="M2.8125 13.4777H11.7992L15.2746 16.953C15.4057 17.0842 15.5727 17.1735 15.7546 17.2097C15.9365 17.2459 16.125 17.2273 16.2963 17.1563C16.4676 17.0853 16.614 16.9652 16.7171 16.811C16.8201 16.6568 16.8751 16.4756 16.8751 16.2902V13.4777H19.0626C20.6134 13.4777 21.8751 12.216 21.8751 10.6652V3.16516C21.8751 1.61435 20.6134 0.352661 19.0626 0.352661H2.8125C1.26169 0.352661 0 1.61435 0 3.16516V10.6652C0 12.216 1.26169 13.4777 2.8125 13.4777ZM4.6875 4.10266H17.1875C17.7052 4.10266 18.125 4.52241 18.125 5.04016C18.125 5.55791 17.7052 5.97766 17.1875 5.97766H4.6875C4.16975 5.97766 3.75 5.55791 3.75 5.04016C3.75 4.52241 4.16975 4.10266 4.6875 4.10266ZM4.6875 7.85266H17.1875C17.7052 7.85266 18.125 8.27241 18.125 8.79016C18.125 9.30791 17.7052 9.72766 17.1875 9.72766H4.6875C4.16975 9.72766 3.75 9.30791 3.75 8.79016C3.75 8.27241 4.16975 7.85266 4.6875 7.85266ZM12.8125 21.6027H11.7807C11.6606 21.0152 11.4282 20.4565 11.0964 19.957L11.8279 19.2256C12.1941 18.8595 12.1941 18.2659 11.8279 17.8998C11.4618 17.5337 10.8682 17.5337 10.5021 17.8998L9.77063 18.6313C9.27124 18.2995 8.7125 18.0671 8.12506 17.947V16.9152C8.12506 16.3974 7.70531 15.9777 7.18756 15.9777C6.66981 15.9777 6.25006 16.3974 6.25006 16.9152V17.947C5.6525 18.0687 5.09631 18.3052 4.6045 18.6312L3.873 17.8997C3.50694 17.5337 2.91331 17.5337 2.54719 17.8997C2.18113 18.2658 2.18113 18.8594 2.54719 19.2255L3.27869 19.957C2.94684 20.4564 2.71451 21.0151 2.59444 21.6026H1.5625C1.04475 21.6026 0.625 22.0223 0.625 22.5401C0.625 23.0578 1.04475 23.4776 1.5625 23.4776H2.59431C2.71444 24.065 2.94677 24.6238 3.27856 25.1232L2.54706 25.8547C2.18094 26.2207 2.18094 26.8143 2.54706 27.1805C2.63402 27.2677 2.73735 27.3368 2.85112 27.384C2.96489 27.4311 3.08685 27.4553 3.21 27.4551C3.44988 27.4551 3.68987 27.3635 3.87287 27.1805L4.60437 26.449C5.10376 26.7808 5.6625 27.0131 6.24994 27.1332V28.1652C6.24994 28.6829 6.66969 29.1027 7.18744 29.1027C7.70519 29.1027 8.12494 28.6829 8.12494 28.1652V27.1333C8.7225 27.0116 9.27869 26.7752 9.7705 26.4491L10.502 27.1806C10.6851 27.3637 10.925 27.4552 11.1649 27.4552C11.4047 27.4552 11.6447 27.3637 11.8278 27.1806C12.1939 26.8145 12.1939 26.2209 11.8278 25.8548L11.0963 25.1233C11.4282 24.6239 11.6605 24.0652 11.7806 23.4777H12.8125C13.3302 23.4777 13.75 23.058 13.75 22.5402C13.75 22.0225 13.3302 21.6027 12.8125 21.6027ZM7.1875 23.4777C6.66975 23.4777 6.25 23.0579 6.25 22.5402C6.25 22.0224 6.66975 21.6027 7.1875 21.6027C7.70525 21.6027 8.125 22.0224 8.125 22.5402C8.125 23.0579 7.70525 23.4777 7.1875 23.4777ZM31.5311 25.2295L30.7624 24.7856C30.7988 24.4937 30.8172 24.2027 30.8172 23.9152C30.8172 23.6277 30.7988 23.3367 30.7624 23.0447L31.5311 22.6008C31.9795 22.342 32.1331 21.7686 31.8743 21.3202L29.9993 18.0726C29.7404 17.6242 29.167 17.4705 28.7186 17.7295L27.9466 18.1752C27.4829 17.8229 26.9777 17.529 26.4422 17.3002V16.4152C26.4422 15.8974 26.0224 15.4777 25.5047 15.4777H21.7547C21.2369 15.4777 20.8172 15.8974 20.8172 16.4152V17.3002C20.2817 17.5289 19.7764 17.8228 19.3128 18.1752L18.5408 17.7294C18.0924 17.4705 17.5191 17.6242 17.2602 18.0725L15.3852 21.3202C15.1263 21.7685 15.2799 22.3419 15.7283 22.6008L16.4971 23.0447C16.4606 23.3366 16.4422 23.6276 16.4422 23.9151C16.4422 24.2026 16.4606 24.4936 16.4971 24.7855L15.7283 25.2294C15.2799 25.4883 15.1263 26.0617 15.3852 26.51L17.2602 29.7577C17.5191 30.2061 18.0924 30.3597 18.5409 30.1008L19.3129 29.655C19.781 30.01 20.2838 30.3025 20.8172 30.53V31.4152C20.8172 31.9329 21.237 32.3527 21.7547 32.3527H25.5047C26.0225 32.3527 26.4422 31.9329 26.4422 31.4152V30.5301C26.9757 30.3025 27.4785 30.01 27.9466 29.6551L28.7186 30.1008C29.167 30.3597 29.7404 30.2061 29.9993 29.7577L31.8743 26.5101C32.1331 26.0617 31.9795 25.4883 31.5311 25.2295ZM23.6297 26.7277C22.0789 26.7277 20.8172 25.466 20.8172 23.9152C20.8172 22.3643 22.0789 21.1027 23.6297 21.1027C25.1805 21.1027 26.4422 22.3643 26.4422 23.9152C26.4422 25.466 25.1805 26.7277 23.6297 26.7277Z"
        fill="#F84018" />
</svg>