<svg width="65" height="56" viewBox="0 0 65 56" fill="none" xmlns="http://www.w3.org/2000/svg">
    <path
        d="M65 38C65 47.9411 56.9411 56 47 56L20 56C17.2386 56 15 53.7614 15 51L15 17C15 11.4772 19.4772 7 25 7L60 7C62.7614 7 65 9.23858 65 12L65 38Z"
        fill="#FEDED7" />
    <path
        d="M14.8624 23.5417H13.9484C13.6971 23.5417 13.4914 23.7474 13.4914 23.9987C13.4914 24.25 13.6971 24.4557 13.9484 24.4557H14.8624C15.1137 24.4557 15.3193 24.25 15.3193 23.9987C15.3193 23.7474 15.1137 23.5417 14.8624 23.5417ZM14.8624 25.8266H13.9484C13.6971 25.8266 13.4914 26.0322 13.4914 26.2835C13.4914 26.5349 13.6971 26.7405 13.9484 26.7405H14.8624C15.1137 26.7405 15.3193 26.5349 15.3193 26.2835C15.3193 26.0322 15.1137 25.8266 14.8624 25.8266ZM14.8624 28.1114H13.9484C13.6971 28.1114 13.4914 28.317 13.4914 28.5684C13.4914 28.8197 13.6971 29.0253 13.9484 29.0253H14.8624C15.1137 29.0253 15.3193 28.8197 15.3193 28.5684C15.3193 28.317 15.1137 28.1114 14.8624 28.1114ZM14.8624 30.3962H13.9484C13.6971 30.3962 13.4914 30.6019 13.4914 30.8532C13.4914 31.1045 13.6971 31.3102 13.9484 31.3102H14.8624C15.1137 31.3102 15.3193 31.1045 15.3193 30.8532C15.3193 30.6019 15.1137 30.3962 14.8624 30.3962ZM21.2599 23.5417H16.6902C16.4389 23.5417 16.2333 23.7474 16.2333 23.9987C16.2333 24.25 16.4389 24.4557 16.6902 24.4557H21.2599C21.5113 24.4557 21.7169 24.25 21.7169 23.9987C21.7169 23.7474 21.5113 23.5417 21.2599 23.5417ZM21.2599 25.8266H16.6902C16.4389 25.8266 16.2333 26.0322 16.2333 26.2835C16.2333 26.5349 16.4389 26.7405 16.6902 26.7405H21.2599C21.5113 26.7405 21.7169 26.5349 21.7169 26.2835C21.7169 26.0322 21.5113 25.8266 21.2599 25.8266ZM21.2599 28.1114H16.6902C16.4389 28.1114 16.2333 28.317 16.2333 28.5684C16.2333 28.8197 16.4389 29.0253 16.6902 29.0253H21.2599C21.5113 29.0253 21.7169 28.8197 21.7169 28.5684C21.7169 28.317 21.5113 28.1114 21.2599 28.1114ZM21.2599 30.3962H16.6902C16.4389 30.3962 16.2333 30.6019 16.2333 30.8532C16.2333 31.1045 16.4389 31.3102 16.6902 31.3102H21.2599C21.5113 31.3102 21.7169 31.1045 21.7169 30.8532C21.7169 30.6019 21.5113 30.3962 21.2599 30.3962ZM37.1214 35.4046L34.0734 32.3566C33.8997 32.183 33.5981 32.183 33.4291 32.3566L32.9904 32.7953L32.3003 32.1053C33.1092 31.1502 33.6027 29.9164 33.6027 28.5684C33.6027 25.5432 31.1442 23.0848 28.1191 23.0848C25.0939 23.0848 22.6354 25.5432 22.6354 28.5684C22.6354 31.5935 25.0939 34.052 28.1191 34.052C29.4671 34.052 30.7009 33.563 31.656 32.7496L32.346 33.4396L31.9074 33.8783C31.865 33.9206 31.8314 33.9708 31.8084 34.0261C31.7855 34.0814 31.7737 34.1406 31.7737 34.2005C31.7737 34.2603 31.7855 34.3196 31.8084 34.3749C31.8314 34.4301 31.865 34.4804 31.9074 34.5226L34.9553 37.5706C35.0422 37.6574 35.1564 37.7031 35.2798 37.7031C35.4032 37.7031 35.5174 37.6529 35.6042 37.5706L37.126 36.0489C37.1683 36.0066 37.2019 35.9564 37.2249 35.9011C37.2478 35.8458 37.2596 35.7866 37.2596 35.7267C37.2596 35.6669 37.2478 35.6076 37.2249 35.5523C37.2019 35.4971 37.1683 35.4468 37.126 35.4046H37.1214ZM23.5448 28.5684C23.5448 26.0505 25.5966 23.9987 28.1145 23.9987C30.6324 23.9987 32.6842 26.0505 32.6842 28.5684C32.6842 31.0862 30.6324 33.138 28.1145 33.138C25.5966 33.138 23.5448 31.0862 23.5448 28.5684ZM35.2752 36.6064L32.8761 34.2073L33.7535 33.3299L36.1526 35.729L35.2752 36.6064ZM26.7436 15.7733C27.4976 15.7733 28.1145 15.1564 28.1145 14.4024C28.1145 13.6484 27.4976 13.0315 26.7436 13.0315C25.9896 13.0315 25.3727 13.6484 25.3727 14.4024C25.3727 14.6811 25.4595 14.9416 25.6012 15.161L23.033 18.5836C22.905 18.5425 22.7679 18.5151 22.6263 18.5151C22.4161 18.5151 22.2196 18.5654 22.0368 18.6522L20.1998 16.8152C20.2866 16.637 20.3369 16.4405 20.3369 16.2257C20.3369 15.4717 19.7199 14.8548 18.9659 14.8548C18.2119 14.8548 17.595 15.4717 17.595 16.2257C17.595 16.4085 17.6316 16.5821 17.6956 16.7421L15.5112 18.6887C15.3148 18.5791 15.0908 18.5105 14.8532 18.5105C14.0992 18.5105 13.4823 19.1274 13.4823 19.8814C13.4823 20.6354 14.0992 21.2523 14.8532 21.2523C15.6072 21.2523 16.2241 20.6354 16.2241 19.8814C16.2241 19.6986 16.1876 19.525 16.1236 19.3651L18.3079 17.4184C18.5044 17.528 18.7283 17.5966 18.9659 17.5966C19.1762 17.5966 19.3727 17.5463 19.5554 17.4595L21.3925 19.2965C21.3056 19.4747 21.2554 19.6712 21.2554 19.886C21.2554 20.64 21.8723 21.2569 22.6263 21.2569C23.3803 21.2569 23.9972 20.64 23.9972 19.886C23.9972 19.6072 23.9104 19.3468 23.7687 19.1274L26.3369 15.7047C26.4648 15.7459 26.6019 15.7733 26.7436 15.7733ZM26.7436 13.9454C26.9949 13.9454 27.2006 14.1511 27.2006 14.4024C27.2006 14.6537 26.9949 14.8594 26.7436 14.8594C26.4923 14.8594 26.2866 14.6537 26.2866 14.4024C26.2866 14.1511 26.4923 13.9454 26.7436 13.9454ZM14.8624 20.343C14.611 20.343 14.4054 20.1373 14.4054 19.886C14.4054 19.6347 14.611 19.429 14.8624 19.429C15.1137 19.429 15.3193 19.6347 15.3193 19.886C15.3193 20.1373 15.1137 20.343 14.8624 20.343ZM18.5181 16.2303C18.5181 15.9789 18.7238 15.7733 18.9751 15.7733C19.2264 15.7733 19.4321 15.9789 19.4321 16.2303C19.4321 16.3536 19.3818 16.4679 19.2995 16.5501H19.295C19.2904 16.5501 19.295 16.5501 19.295 16.5547C19.2127 16.637 19.103 16.6872 18.9751 16.6872C18.7238 16.6872 18.5181 16.4816 18.5181 16.2303ZM22.6308 20.343C22.3795 20.343 22.1739 20.1373 22.1739 19.886C22.1739 19.7626 22.2241 19.6484 22.3064 19.5661H22.311V19.5615C22.3932 19.4793 22.5029 19.429 22.6308 19.429C22.8822 19.429 23.0878 19.6347 23.0878 19.886C23.0878 20.1373 22.8822 20.343 22.6308 20.343Z"
        fill="#631503" />
    <path
        d="M30.2942 26.5805L27.1092 29.994L25.9347 28.7374C25.8523 28.6489 25.7382 28.5968 25.6173 28.5925C25.4965 28.5882 25.3789 28.6321 25.2904 28.7145C25.2019 28.7969 25.1498 28.9111 25.1456 29.032C25.1413 29.1528 25.1852 29.2704 25.2676 29.3589L26.7756 30.9765C26.8624 31.0679 26.9812 31.1227 27.1092 31.1227C27.2371 31.1227 27.3559 31.0679 27.4427 30.9765L30.9614 27.2065C31.1351 27.0238 31.1214 26.7313 30.9386 26.5622C30.8951 26.5208 30.8438 26.4885 30.7876 26.4672C30.7315 26.4459 30.6716 26.436 30.6116 26.4381C30.5516 26.4403 30.4926 26.4544 30.4381 26.4796C30.3836 26.5048 30.3347 26.5407 30.2942 26.5851V26.5805Z"
        fill="#631503" />
    <path
        d="M23.4626 33.1378H11.6636V11.2034H29.9424V22.1066C29.9424 22.3579 30.148 22.5636 30.3994 22.5636C30.6507 22.5636 30.8563 22.3579 30.8563 22.1066V10.7464C30.8563 10.4951 30.6507 10.2894 30.3994 10.2894H11.2066C10.9553 10.2894 10.7496 10.4951 10.7496 10.7464V33.5947C10.7496 33.8461 10.9553 34.0517 11.2066 34.0517H23.4626C23.7139 34.0517 23.9195 33.8461 23.9195 33.5947C23.9195 33.3434 23.7139 33.1378 23.4626 33.1378Z"
        fill="#631503" />
</svg>