<svg width="46" height="48" viewBox="0 0 46 48" fill="none" xmlns="http://www.w3.org/2000/svg">
    <path
        d="M28.3044 41.228C19.0442 41.2888 14.2174 29.8427 20.8517 23.2388C24.3042 19.7862 29.5766 19.234 33.6114 21.5843V6.93738C33.6114 5.28052 32.2683 3.93738 30.6114 3.93738H27.6585V7.21848C27.6585 7.73625 27.2388 8.15598 26.721 8.15598H7.69047C7.17271 8.15598 6.75297 7.73625 6.75297 7.21848V3.93738H3.80005C2.14319 3.93738 0.800049 5.28052 0.800049 6.93738V44.9984C0.800049 46.6552 2.1432 47.9984 3.80005 47.9984H30.6114C32.2683 47.9984 33.6114 46.6552 33.6114 44.9984V42.8629L31.4871 40.7386C30.4574 41.0632 29.3841 41.2282 28.3044 41.228ZM5.01865 14.812H22.0806V17.6244H5.01865V14.812ZM5.01865 26.0616H12.3309V28.874H5.01865V26.0616ZM5.01865 31.6864H14.2996V34.4988H5.01865V31.6864ZM16.2683 40.1236H5.01865V37.3112H16.2683V40.1236ZM16.2683 23.2492H5.01865V20.4368H16.2683V23.2492ZM45.0157 44.5166L37.0604 36.5622C36.3193 37.6769 35.2896 38.7067 34.1748 39.4477L42.1293 47.4031C42.9252 48.199 44.2198 48.199 45.0157 47.4031C45.8116 46.6072 45.8116 45.3125 45.0157 44.5166Z"
        fill="#F84018" />
    <path
        d="M33.769 25.2273C28.9152 20.3819 20.5836 23.8308 20.576 30.6919C20.4908 34.8453 24.1506 38.5059 28.3045 38.4202C35.1661 38.4115 38.6147 30.081 33.769 25.2273ZM27.0155 35.1879L23.5834 31.7567L25.5727 29.7674L27.0155 31.2111L31.0363 27.1894L33.0256 29.1787L27.0155 35.1879ZM24.8462 2.90618C24.8462 2.38842 24.4264 1.96868 23.9087 1.96868H21.34L18.6242 0H15.763L12.8597 1.96868H10.5029C9.98516 1.96868 9.56543 2.38842 9.56543 2.90618V4.78107C9.56543 5.09173 9.81727 5.34357 10.1279 5.34357H24.2837C24.5943 5.34357 24.8462 5.09173 24.8462 4.78107V2.90618Z"
        fill="#F84018" />
</svg>