<svg width="48" height="48" viewBox="0 0 48 48" fill="none" xmlns="http://www.w3.org/2000/svg">
    <path
        d="M39.3099 16.1484L45.5948 13.5451C44.6239 11.5501 43.3843 9.70943 41.9241 8.06895L37.1164 12.8767C37.9697 13.8803 38.7056 14.9779 39.3099 16.1484ZM6.80468 25.4286H0.00256348C0.706778 37.5554 10.4472 47.2958 22.5739 48V41.1979C14.191 40.517 7.48553 33.8116 6.80468 25.4286ZM25.3888 41.1979V48C30.9539 47.6768 36.016 45.4507 39.9335 41.9638L35.1258 37.156C32.4544 39.4261 29.0849 40.8976 25.3888 41.1979ZM23.9813 6.78673C28.2273 6.78673 32.1188 8.33103 35.1258 10.8863L39.9335 6.07848C35.6881 2.29974 30.0986 0 23.9813 0C11.2086 0 0.733801 10.021 0.00256348 22.6137H6.80477C7.52325 13.7664 14.9522 6.78673 23.9813 6.78673ZM41.158 22.6137H47.9602C47.8332 20.4083 47.4006 18.2312 46.6747 16.1448L40.3897 18.7481C40.7937 20.0028 41.0516 21.2999 41.158 22.6137ZM37.1163 35.1656L41.924 39.9734C45.4108 36.0559 47.6369 30.9938 47.9601 25.4286H41.1579C40.8579 29.1247 39.3863 32.4942 37.1163 35.1656Z"
        fill="#F84018" />
    <path
        d="M38.4008 24.0211C38.4008 16.0702 31.9323 9.60168 23.9814 9.60168C16.0305 9.60168 9.56201 16.0702 9.56201 24.0211C9.56201 31.972 16.0306 38.4406 23.9815 38.4406C31.9324 38.4406 38.4008 31.972 38.4008 24.0211ZM19.0582 31.7594H16.2432V28.9444H19.0582V31.7594ZM19.0582 25.4286H16.2432V22.6136H19.0582V25.4286ZM19.0582 19.0978H16.2432V16.2829H19.0582V19.0978ZM31.8948 31.7594H22.3987V28.9444H31.8948V31.7594ZM31.8948 25.4286H22.3987V22.6136H31.8948V25.4286ZM31.8948 19.0978H22.3987V16.2829H31.8948V19.0978Z"
        fill="#F84018" />
</svg>