<svg width="35" height="33" viewBox="0 0 35 33" fill="none" xmlns="http://www.w3.org/2000/svg">
    <path
        d="M18.322 32.3527H1.56836C0.69879 32.3527 -0.054833 31.657 0.00313803 30.7295L0.0611091 26.5556C0.177051 24.9903 0.988645 23.599 2.26401 22.6715L5.74227 20.1208C6.14807 19.8309 6.66981 19.9469 6.95966 20.3527C7.59734 21.3382 8.69879 21.9759 9.97415 21.9759C11.2495 21.9759 12.351 21.3382 12.9886 20.3527C13.2785 19.9469 13.8002 19.8309 14.206 20.1208L17.6843 22.6715C18.9597 23.599 19.7713 24.9903 19.8872 26.5556L19.9452 30.7295C19.9452 31.657 19.2495 32.3527 18.322 32.3527ZM15.6553 10.7874H15.5394C15.3655 7.88889 12.9307 5.57005 9.97415 5.57005C9.62633 5.57005 9.33647 5.62802 8.98865 5.62802C8.00314 5.51208 7.13357 5.51208 6.66981 5.74397C6.0901 6.09179 5.22053 6.14976 4.58285 6.14976C4.06111 6.14976 3.65531 6.6715 3.82923 7.19324L4.58285 9.62802C4.46691 9.97585 4.40894 10.3816 4.40894 10.7295H4.29299C4.00314 10.7874 3.82923 11.4251 4.00314 12.1787C4.11908 12.8744 4.52488 13.4541 4.81473 13.3961C5.62633 15.9469 7.65531 18.4976 9.97415 18.4976C12.351 18.4976 14.322 15.9469 15.1336 13.3961C15.4234 13.3961 15.8292 12.8744 15.9452 12.1787C16.1191 11.4831 16.0031 10.8454 15.6553 10.7874ZM33.0466 0.352661H20.0611C19.4814 0.352661 19.0176 0.816429 19.0176 1.39614V14.6135C19.0176 15.0773 19.4814 15.3672 19.8872 15.1932L25.1626 12.9324C25.3365 12.8744 25.5104 12.8164 25.7423 12.8164H33.0466C33.6263 12.8164 34.0901 12.3527 34.0901 11.773V1.39614C34.0901 0.816429 33.6263 0.352661 33.0466 0.352661ZM30.7857 5.686L28.9307 7.4831C28.8727 7.54107 28.8727 7.59904 28.8727 7.71498L29.3365 10.2657C29.3944 10.4396 29.1626 10.6135 28.9886 10.4976L26.6698 9.2802C26.6118 9.22223 26.4959 9.22223 26.4379 9.2802L24.1191 10.4976C23.9452 10.6135 23.7133 10.4396 23.7713 10.2657L24.235 7.71498C24.235 7.65701 24.235 7.54107 24.1771 7.4831L22.322 5.686C22.206 5.57005 22.264 5.2802 22.4379 5.2802L24.9886 4.93237C25.0466 4.93237 25.1626 4.8744 25.1626 4.81643L26.322 2.49759C26.4379 2.32368 26.6698 2.32368 26.7278 2.49759L27.8872 4.81643C27.9452 4.8744 28.0031 4.93237 28.0611 4.93237L30.6118 5.2802C30.8437 5.33817 30.9597 5.57005 30.7857 5.686Z"
        fill="#F84018" />
</svg>