<svg width="45" height="48" viewBox="0 0 45 48" fill="none" xmlns="http://www.w3.org/2000/svg">
    <path
        d="M44.1846 20.0489C44.1846 13.997 39.2887 9.06666 33.2491 9.01097C31.9543 3.79219 27.21 0 21.7223 0C15.1737 0 9.84605 5.32763 9.84605 11.8763C9.84605 11.9326 9.84642 11.989 9.84717 12.0458C9.79186 12.0447 9.73655 12.0443 9.68124 12.0443C4.43086 12.0443 0.159424 16.3153 0.159424 21.5658C0.159424 26.8162 4.43096 31.0877 9.68124 31.0877H10.7495V34.9515C9.05583 35.5382 7.83596 37.1484 7.83596 39.0392C7.83596 41.4239 9.77611 43.3642 12.1609 43.3642C14.546 43.3642 16.4862 41.4239 16.4862 39.0392C16.4862 37.1484 15.266 35.5382 13.5722 34.9515V31.0877H20.7606V39.5874C19.0669 40.174 17.8467 41.7843 17.8467 43.675C17.8467 46.0598 19.7868 48 22.172 48C24.5567 48 26.497 46.0598 26.497 43.675C26.497 41.7843 25.2771 40.174 23.5833 39.5874V31.0877H30.7713V34.9515C29.0776 35.5382 27.8578 37.1484 27.8578 39.0392C27.8578 41.4239 29.798 43.3642 32.1827 43.3642C34.5678 43.3642 36.5081 41.4239 36.5081 39.0392C36.5081 37.1484 35.2878 35.5382 33.5941 34.9515V31.0778C39.474 30.8415 44.1846 25.9856 44.1846 20.049V20.0489ZM12.1613 40.5417C11.3326 40.5417 10.6587 39.8676 10.6587 39.0392C10.6587 38.2104 11.3326 37.5367 12.1613 37.5367C12.9896 37.5367 13.6635 38.2104 13.6635 39.0392C13.6635 39.8676 12.9896 40.5417 12.1613 40.5417ZM22.1719 45.1773C21.3436 45.1773 20.6698 44.5034 20.6698 43.675C20.6698 42.8463 21.3436 42.1725 22.172 42.1725C23.0008 42.1725 23.6746 42.8463 23.6746 43.675C23.6746 44.5034 23.0003 45.1773 22.1719 45.1773ZM32.1831 40.5417C31.3544 40.5417 30.6806 39.8676 30.6806 39.0392C30.6806 38.2104 31.3544 37.5367 32.1831 37.5367C33.0115 37.5367 33.6856 38.2104 33.6856 39.0392C33.6856 39.8676 33.0115 40.5417 32.1831 40.5417Z"
        fill="#F84018" />
</svg>