<svg width="48" height="48" viewBox="0 0 48 48" fill="none" xmlns="http://www.w3.org/2000/svg">
    <path
        d="M45 21C43.7 21 42.6 21.84 42.18 23H38.96C38.73 19.62 37.39 16.54 35.28 14.13L37.56 11.85C37.97 12.04 38.41 12.15 38.85 12.15C39.62 12.15 40.39 11.86 40.97 11.27C42.14 10.1 42.14 8.2 40.97 7.03C40.4075 6.4682 39.645 6.15264 38.85 6.15264C38.055 6.15264 37.2925 6.4682 36.73 7.03C35.81 7.95 35.62 9.32 36.15 10.43L33.87 12.71C31.47 10.61 28.38 9.26 25 9.04V5.82C26.16 5.4 27 4.3 27 3C27 1.35 25.65 0 24 0C22.35 0 21 1.35 21 3C21 4.3 21.84 5.4 23 5.82V9.04C19.61 9.26 16.54 10.61 14.14 12.72L11.85 10.43C12.38 9.32 12.19 7.95 11.27 7.03C10.68 6.44 9.92 6.15 9.15 6.15C8.38 6.15 7.62 6.44 7.03 7.03C6.4682 7.5925 6.15264 8.355 6.15264 9.15C6.15264 9.945 6.4682 10.7075 7.03 11.27C7.61 11.86 8.38 12.15 9.15 12.15C9.59 12.15 10.03 12.04 10.44 11.85L12.72 14.13C10.5455 16.5979 9.25118 19.7175 9.04 23H5.82C5.4 21.84 4.3 21 3 21C1.35 21 0 22.35 0 24C0 25.65 1.35 27 3 27C4.3 27 5.4 26.16 5.82 25H9.04C9.26 28.39 10.61 31.46 12.72 33.86L10.43 36.15C9.87286 35.8833 9.24673 35.7958 8.63783 35.8997C8.02892 36.0035 7.4672 36.2936 7.03 36.73C6.4682 37.2925 6.15264 38.055 6.15264 38.85C6.15264 39.645 6.4682 40.4075 7.03 40.97C7.61 41.56 8.38 41.85 9.15 41.85C9.92 41.85 10.69 41.56 11.27 40.97C12.19 40.05 12.38 38.68 11.85 37.57L14.14 35.28C16.54 37.39 19.61 38.74 23 38.96V42.18C21.84 42.6 21 43.7 21 45C21 46.65 22.35 48 24 48C25.65 48 27 46.65 27 45C27 43.7 26.16 42.6 25 42.18V38.96C28.38 38.74 31.47 37.39 33.87 35.29L36.15 37.57C35.62 38.68 35.81 40.05 36.73 40.97C37.31 41.56 38.08 41.85 38.85 41.85C39.62 41.85 40.39 41.56 40.97 40.97C41.5318 40.4075 41.8474 39.645 41.8474 38.85C41.8474 38.055 41.5318 37.2925 40.97 36.73C40.531 36.2932 39.9675 36.0029 39.357 35.8991C38.7465 35.7952 38.1187 35.8829 37.56 36.15L35.28 33.87C37.39 31.46 38.73 28.38 38.96 25H42.18C42.6 26.16 43.7 27 45 27C46.65 27 48 25.65 48 24C48 22.35 46.65 21 45 21ZM24 13C26.76 13 29 15.24 29 18C29 20.76 26.76 23 24 23C21.24 23 19 20.76 19 18C19 15.24 21.24 13 24 13ZM32 32.37C32 32.92 31.55 33.37 31 33.37H17C16.45 33.37 16 32.92 16 32.37V27.48C16 25.84 17.13 24.41 18.74 24L21.21 23.39C21.56 23.31 21.92 23.42 22.17 23.68C23.12 24.67 24.88 24.67 25.83 23.68C26.08 23.42 26.44 23.31 26.79 23.39L29.25 24C30.87 24.41 32 25.84 32 27.48V32.37Z"
        fill="#F84018" />
</svg>