<svg width="52" height="48" viewBox="0 0 52 48" fill="none" xmlns="http://www.w3.org/2000/svg">
    <path
        d="M15.7368 47.9996H36.0034C36.9165 47.9996 37.8129 47.7541 38.5986 47.2887C39.3842 46.8233 40.0302 46.1552 40.469 45.3544L50.8293 26.444C51.2399 25.694 51.4551 24.8527 51.4551 23.9976C51.4551 23.1425 51.2399 22.3012 50.8293 21.5512L40.469 2.64079C40.0303 1.83987 39.3843 1.1717 38.5986 0.706311C37.813 0.240918 36.9166 -0.0045605 36.0034 -0.00439445H15.7368C14.8236 -0.00449995 13.9273 0.241004 13.1416 0.706391C12.3559 1.17178 11.7099 1.83991 11.2712 2.64079L0.911477 21.5529C0.500867 22.3029 0.285645 23.1442 0.285645 23.9993C0.285645 24.8544 0.500867 25.6957 0.911477 26.4457L11.2718 45.3561C11.7106 46.1569 12.3566 46.825 13.1423 47.2904C13.9279 47.7557 14.8242 48.0013 15.7374 48.0013M19.1549 6.24345H32.5836C33.4967 6.24353 34.393 6.4891 35.1786 6.95447C35.9643 7.41984 36.6103 8.08788 37.0492 8.88863L43.9879 21.5529C44.3991 22.3028 44.6146 23.1441 44.6146 23.9993C44.6146 24.8545 44.3991 25.6959 43.9879 26.4457L37.0492 39.1117C36.6106 39.9128 35.9647 40.5813 35.179 41.047C34.3934 41.5127 33.4969 41.7585 32.5836 41.7586H19.1566C18.2435 41.7586 17.3471 41.5131 16.5615 41.0477C15.7758 40.5823 15.1298 39.9142 14.691 39.1134L7.75169 26.4457C7.34052 25.6959 7.12498 24.8545 7.12498 23.9993C7.12498 23.1441 7.34052 22.3028 7.75169 21.5529L14.691 8.88692C15.1299 8.08617 15.7759 7.41813 16.5616 6.95276C17.3472 6.4874 18.2435 6.24182 19.1566 6.24174"
        fill="#1C5DAA" />
    <path
        d="M9.99854 24.1771C9.99854 22.8645 10.3877 21.5815 11.117 20.4901C11.8462 19.3988 12.8826 18.5482 14.0952 18.0459C15.3079 17.5436 16.6422 17.4122 17.9295 17.6683C19.2168 17.9244 20.3993 18.5564 21.3274 19.4845C22.2555 20.4126 22.8876 21.5951 23.1436 22.8824C23.3997 24.1697 23.2683 25.5041 22.766 26.7167C22.2637 27.9293 21.4131 28.9658 20.3218 29.695C19.2304 30.4242 17.9474 30.8134 16.6348 30.8134C14.8748 30.8132 13.1869 30.114 11.9424 28.8695C10.6979 27.625 9.99869 25.9371 9.99854 24.1771Z"
        fill="#161615" />
    <path
        d="M28.4951 24.4182C28.495 23.1056 28.8841 21.8224 29.6133 20.7309C30.3425 19.6394 31.379 18.7886 32.5916 18.2862C33.8043 17.7838 35.1388 17.6522 36.4262 17.9082C37.7137 18.1642 38.8963 18.7962 39.8246 19.7243C40.7528 20.6524 41.385 21.8349 41.6412 23.1223C41.8974 24.4097 41.7661 25.7442 41.2639 26.9569C40.7617 28.1697 39.9111 29.2063 38.8197 29.9357C37.7284 30.665 36.4452 31.0544 35.1326 31.0545C34.261 31.0546 33.3979 30.883 32.5927 30.5495C31.7874 30.2161 31.0558 29.7273 30.4394 29.111C29.8231 28.4948 29.3341 27.7632 29.0005 26.958C28.6669 26.1528 28.4952 25.2898 28.4951 24.4182Z"
        fill="#161615" />
</svg>