<svg width="33" height="33" viewBox="0 0 33 33" fill="none" xmlns="http://www.w3.org/2000/svg">
    <path
        d="M26.4443 9.88523C25.5656 9.88402 24.7233 9.53445 24.102 8.91317C23.4807 8.29188 23.1312 7.44958 23.13 6.57095V0.352661H10.1471C7.6214 0.352661 5.57568 2.39838 5.57568 4.92409V9.0818C6.31632 8.86314 7.08459 8.75229 7.85683 8.75266C9.99283 8.75266 11.9985 9.58238 13.5048 11.0875C16.6191 14.2041 16.6203 19.2715 13.5071 22.3869C12.7665 23.1306 11.8858 23.7201 10.916 24.1213C9.94613 24.5224 8.90637 24.7273 7.85683 24.7241C7.07854 24.7241 6.31168 24.6098 5.57568 24.3881V27.7812C5.57568 30.3069 7.6214 32.3527 10.1471 32.3527H28.0785C30.6043 32.3527 32.65 30.3069 32.65 27.7812V9.88523H26.4443ZM19.6877 22.1012H16.762C16.4892 22.1012 16.2276 21.9929 16.0347 21.8C15.8418 21.6071 15.7334 21.3455 15.7334 21.0727C15.7334 20.7999 15.8418 20.5382 16.0347 20.3454C16.2276 20.1525 16.4892 20.0441 16.762 20.0441H19.6877C19.9605 20.0441 20.2221 20.1525 20.415 20.3454C20.6079 20.5382 20.7163 20.7999 20.7163 21.0727C20.7163 21.3455 20.6079 21.6071 20.415 21.8C20.2221 21.9929 19.9605 22.1012 19.6877 22.1012ZM25.7448 18.2281H17.8705C17.5977 18.2281 17.3361 18.1197 17.1432 17.9268C16.9503 17.7339 16.842 17.4723 16.842 17.1995C16.842 16.9267 16.9503 16.6651 17.1432 16.4722C17.3361 16.2793 17.5977 16.1709 17.8705 16.1709H25.7448C26.0176 16.1709 26.2792 16.2793 26.4721 16.4722C26.665 16.6651 26.7734 16.9267 26.7734 17.1995C26.7734 17.4723 26.665 17.7339 26.4721 17.9268C26.2792 18.1197 26.0176 18.2281 25.7448 18.2281Z"
        fill="#F84018" />
    <path
        d="M7.85674 22.6658C8.63567 22.6671 9.40719 22.5146 10.127 22.2168C10.8468 21.9191 11.5006 21.4821 12.051 20.9309C13.1616 19.8173 13.7852 18.3088 13.7852 16.7361C13.7852 15.1634 13.1616 13.6548 12.051 12.5412C10.9372 11.4316 9.429 10.8085 7.85674 10.8085C6.28449 10.8085 4.77631 11.4316 3.66246 12.5412C1.5996 14.6052 1.39046 17.8167 3.00874 20.1298L0.405314 22.7332C0.306402 22.8279 0.227392 22.9414 0.172916 23.067C0.118441 23.1927 0.0895967 23.3279 0.0880761 23.4648C0.0865555 23.6017 0.112389 23.7376 0.164061 23.8644C0.215733 23.9912 0.292204 24.1064 0.388989 24.2033C0.485774 24.3001 0.600924 24.3767 0.727688 24.4284C0.854452 24.4802 0.990277 24.5062 1.1272 24.5047C1.26412 24.5033 1.39938 24.4746 1.52505 24.4202C1.65072 24.3658 1.76426 24.2869 1.85903 24.1881L4.4636 21.5835C5.45607 22.2854 6.64118 22.6634 7.85674 22.6658ZM5.11617 13.9972C5.84318 13.2716 6.82841 12.864 7.8556 12.864C8.8828 12.864 9.86802 13.2716 10.595 13.9972C11.3207 14.7242 11.7283 15.7095 11.7283 16.7367C11.7283 17.7639 11.3207 18.7491 10.595 19.4761C9.86783 20.2018 8.88241 20.6094 7.85503 20.6094C6.82765 20.6094 5.84223 20.2018 5.11503 19.4761C4.39035 18.7485 3.98357 17.7633 3.98378 16.7364C3.984 15.7095 4.39119 14.7245 5.11617 13.9972ZM25.1882 6.5698C25.1882 7.26237 25.7516 7.82695 26.4453 7.82695H32.651V7.48409C32.651 6.5698 32.2853 5.70123 31.6453 5.06123L27.9425 1.35838C27.2997 0.715036 26.4278 0.353284 25.5185 0.352661H25.1882V6.5698Z"
        fill="#F84018" />
</svg>