<svg width="49" height="44" viewBox="0 0 49 44" fill="none" xmlns="http://www.w3.org/2000/svg">
    <path fill-rule="evenodd" clip-rule="evenodd"
        d="M3.2124 0H45.5874C47.138 0 48.3999 1.26187 48.3999 2.8125V30.75C48.3999 32.3006 47.138 33.5625 45.5874 33.5625H3.2124C1.66178 33.5625 0.399902 32.3006 0.399902 30.75V2.8125C0.399902 1.26187 1.66178 0 3.2124 0ZM31.8062 40.5H39.3999C40.1762 40.5 40.8062 41.13 40.8062 41.9062C40.8062 42.6825 40.1762 43.3125 39.3999 43.3125H9.3999C8.62365 43.3125 7.99365 42.6825 7.99365 41.9062C7.99365 41.13 8.62365 40.5 9.3999 40.5H16.9937V36.375H31.8062V40.5ZM29.9393 16.8317C30.0339 16.9351 30.1004 17.061 30.1325 17.1974C30.1645 17.3337 30.1612 17.476 30.1229 17.6107C30.0845 17.7455 30.0124 17.8682 29.9134 17.9672L21.6932 26.1874C21.407 26.4734 20.9584 26.5077 20.6312 26.2733C20.3045 26.0372 20.1969 25.5989 20.3767 25.2385L23.2409 19.5101L19.2079 18.1655C19.0749 18.1213 18.9554 18.0438 18.8609 17.9404C18.7663 17.837 18.6998 17.7111 18.6677 17.5747C18.6356 17.4383 18.639 17.296 18.6773 17.1613C18.7157 17.0266 18.7878 16.9039 18.8868 16.8048L27.107 8.58468C27.3912 8.29895 27.8407 8.2636 28.169 8.49881C28.4957 8.73483 28.6033 9.17313 28.4235 9.53356L25.5593 15.262L29.5923 16.6066C29.7253 16.6508 29.8447 16.7283 29.9393 16.8317Z"
        fill="#F84018" />
</svg>