<svg width="26" height="48" viewBox="0 0 26 48" fill="none" xmlns="http://www.w3.org/2000/svg">
    <path
        d="M25.7474 0.712785C25.6247 0.496326 25.4468 0.316292 25.2319 0.191066C25.0169 0.0658398 24.7725 -9.2926e-05 24.5237 9.82994e-08H7.64865C7.33505 7.30763e-05 7.03048 0.105003 6.78338 0.298101C6.53627 0.491199 6.36083 0.761377 6.28496 1.06566L0.659933 23.6595C0.607827 23.8667 0.603757 24.083 0.648033 24.292C0.69231 24.5009 0.783761 24.697 0.915403 24.8652C1.04681 25.0338 1.21494 25.1701 1.40698 25.2639C1.59902 25.3576 1.80992 25.4063 2.02363 25.4063H8.43147L0.706715 46.0995C0.459495 46.7587 0.738308 47.4989 1.35762 47.8326C1.97975 48.166 2.74944 47.9876 3.16073 47.4206L25.6608 16.3892C25.9726 15.962 26.0165 15.3963 25.7775 14.9239C25.6596 14.6928 25.48 14.4989 25.2588 14.3634C25.0375 14.2279 24.7832 14.1562 24.5237 14.1562H18.5705L25.7295 2.12992C25.8576 1.91644 25.9269 1.67276 25.93 1.42377C25.9331 1.17479 25.8701 0.929429 25.7474 0.712785Z"
        fill="#F84018" />
</svg>