<svg width="49" height="40" viewBox="0 0 49 40" fill="none" xmlns="http://www.w3.org/2000/svg">
    <path
        d="M11.6991 15.203C11.0691 17.44 10.8331 19.976 10.7061 22.261L12.6981 23.408C13.608 23.946 14.306 25.171 14.295 26.2L14.287 31.164C16.236 31.974 18.287 32.592 20.981 33.01C21.081 32.063 21.554 28.631 21.905 26.779C22.582 23.207 23.882 17.643 25.618 14.459C27.859 10.325 31.89 7.14202 36.489 6.03402C37.465 5.79402 38.464 5.63102 39.486 5.56402C35.436 2.01103 29.093 -0.615967 23.19 1.43703C16.22 3.85103 13.3731 9.17302 11.6991 15.203Z"
        fill="#F84018" />
    <path
        d="M26.5349 14.957C24.8499 18.049 23.5869 23.507 22.9299 26.98C22.5642 29.0267 22.2628 31.0844 22.0259 33.15C25.1559 33.532 28.7859 33.495 32.0399 32.933C34.9199 32.435 38.2669 31.369 40.8489 29.838C44.3199 27.762 46.3839 25.045 46.6589 22.192C47.0839 17.636 45.1519 11.166 40.5739 6.57605C33.9889 6.68105 29.0499 10.318 26.5359 14.956L26.5349 14.957ZM9.02494 30.87L12.6679 32.978C13.0579 33.202 13.2359 33.101 13.2409 32.651L13.2509 26.197V26.192C13.2589 25.534 12.7549 24.654 12.1719 24.309L8.53694 22.216C8.15394 21.996 7.96094 22.07 7.96094 22.535L7.93994 28.997C7.93994 29.66 8.44694 30.535 9.02494 30.869V30.87ZM9.10494 24.73C9.10494 24.59 9.14494 24.517 9.17894 24.497C9.19559 24.4884 9.2142 24.4843 9.23294 24.485C9.27894 24.485 9.34594 24.502 9.42994 24.55L11.4879 25.735C11.8179 25.93 12.1039 26.429 12.0989 26.801V26.804L12.0929 30.458C12.0919 30.601 12.0489 30.675 12.0129 30.695C11.9779 30.715 11.8919 30.713 11.7689 30.642L9.70694 29.449C9.37894 29.259 9.09194 28.764 9.09194 28.389L9.10394 24.731L9.10494 24.73Z"
        fill="#F84018" />
    <path
        d="M5.86004 23.083C6.06004 23.909 6.42204 24.711 6.90804 25.486L6.91804 22.534C6.91804 21.294 7.93804 20.677 9.05403 21.309L9.70003 21.681C9.84003 19.463 10.071 17.1361 10.693 14.9221C12.299 9.14107 14.691 4.27007 20.995 1.23108C12.214 3.58008 5.69004 11.7281 5.66504 21.42C5.66504 21.998 5.73104 22.537 5.86004 23.083Z"
        fill="#F84018" />
    <path
        d="M48.1761 24.479C48.0332 24.0569 47.8139 23.6647 47.5291 23.322C47.5221 23.352 47.5101 23.379 47.5031 23.408C46.7531 26.526 44.1741 29.065 41.3821 30.736C38.7281 32.309 35.3461 33.416 32.2441 33.954C26.6081 34.934 19.9341 34.542 14.2851 32.301V32.657C14.2701 33.938 13.2131 34.497 12.1451 33.881L8.50314 31.773C7.60514 31.254 6.89614 30.036 6.89614 28.994L6.90214 27.256C6.07814 26.267 5.47514 25.218 5.09515 24.126C4.90915 24.291 4.72115 24.45 4.53715 24.62C3.37015 25.688 2.17715 26.873 1.33715 28.308C0.252154 30.196 0.0471539 32.262 0.794153 33.832C1.67115 35.7 3.80115 36.733 5.32815 37.349C10.5201 39.426 16.4081 39.951 21.9131 38.825C25.5591 38.08 37.6831 34.11 42.9421 31.562C44.3441 30.889 45.9311 30.065 47.0561 28.785C48.1861 27.48 48.6261 25.788 48.1761 24.479Z"
        fill="#F84018" />
</svg>