<svg width="49" height="41" viewBox="0 0 49 41" fill="none" xmlns="http://www.w3.org/2000/svg">
    <path
        d="M33.7902 14.0734C33.8102 13.8334 33.8302 13.5934 33.8302 13.3334C33.8302 13.0734 33.8102 12.8334 33.7902 12.5934L35.4502 11.3734C36.4502 10.6334 36.7502 9.25338 36.1302 8.17338L34.6502 5.53337C34.0302 4.41337 32.6702 3.97337 31.5302 4.51337L29.6902 5.37337C29.3265 5.12046 28.9456 4.89324 28.5502 4.69337L28.3502 2.55337C28.2302 1.29337 27.1902 0.333374 25.9302 0.333374H22.9702C21.7102 0.333374 20.6702 1.29337 20.5502 2.55337L20.3502 4.69337C19.9502 4.89337 19.5902 5.11337 19.2102 5.37337L17.3702 4.51337C16.2302 3.97337 14.8702 4.43337 14.2502 5.53337L12.7702 8.17338C12.1502 9.25338 12.4502 10.6334 13.4502 11.3734L15.1102 12.5934C15.0902 12.8334 15.0702 13.0734 15.0702 13.3334C15.0702 13.5934 15.0902 13.8334 15.1102 14.0734L13.4502 15.2934C12.4502 16.0334 12.1502 17.4134 12.7702 18.4934L14.2502 21.1334C14.8702 22.2334 16.2302 22.6934 17.3702 22.1534L19.2102 21.2934C19.5902 21.5534 19.9502 21.7734 20.3502 21.9734L20.5502 24.1134C20.6702 25.3734 21.7102 26.3334 22.9702 26.3334H25.9302C27.1902 26.3334 28.2302 25.3734 28.3502 24.1134L28.5502 21.9734C28.9502 21.7734 29.3102 21.5534 29.6902 21.2934L31.5302 22.1534C32.6702 22.6934 34.0302 22.2534 34.6502 21.1334L36.1302 18.4934C36.7502 17.4134 36.4502 16.0334 35.4502 15.2934L33.7902 14.0734ZM29.4502 13.3334C29.4502 14.6595 28.9234 15.9312 27.9857 16.8689C27.048 17.8066 25.7763 18.3334 24.4502 18.3334C23.1241 18.3334 21.8523 17.8066 20.9147 16.8689C19.977 15.9312 19.4502 14.6595 19.4502 13.3334C19.4502 12.0073 19.977 10.7355 20.9147 9.79784C21.8523 8.86016 23.1241 8.33337 24.4502 8.33337C25.7763 8.33337 27.048 8.86016 27.9857 9.79784C28.9234 10.7355 29.4502 12.0073 29.4502 13.3334ZM42.4502 28.3334H6.4502C3.1422 28.3334 0.450195 31.0254 0.450195 34.3334C0.450195 37.6414 3.1422 40.3334 6.4502 40.3334H42.4502C45.7582 40.3334 48.4502 37.6414 48.4502 34.3334C48.4502 31.0254 45.7582 28.3334 42.4502 28.3334ZM8.4502 36.3334C7.3482 36.3334 6.4502 35.4354 6.4502 34.3334C6.4502 33.2314 7.3482 32.3334 8.4502 32.3334C9.5522 32.3334 10.4502 33.2314 10.4502 34.3334C10.4502 35.4354 9.5522 36.3334 8.4502 36.3334ZM18.4502 36.3334C17.3482 36.3334 16.4502 35.4354 16.4502 34.3334C16.4502 33.2314 17.3482 32.3334 18.4502 32.3334C19.5522 32.3334 20.4502 33.2314 20.4502 34.3334C20.4502 35.4354 19.5522 36.3334 18.4502 36.3334ZM30.4502 36.3334C29.3482 36.3334 28.4502 35.4354 28.4502 34.3334C28.4502 33.2314 29.3482 32.3334 30.4502 32.3334C31.5522 32.3334 32.4502 33.2314 32.4502 34.3334C32.4502 35.4354 31.5522 36.3334 30.4502 36.3334ZM40.4502 36.3334C39.3482 36.3334 38.4502 35.4354 38.4502 34.3334C38.4502 33.2314 39.3482 32.3334 40.4502 32.3334C41.5522 32.3334 42.4502 33.2314 42.4502 34.3334C42.4502 35.4354 41.5522 36.3334 40.4502 36.3334Z"
        fill="#F84018" />
</svg>