<svg width="66" height="56" viewBox="0 0 66 56" fill="none" xmlns="http://www.w3.org/2000/svg">
    <path
        d="M65.5 38C65.5 47.9411 57.4411 56 47.5 56L20.5 56C17.7386 56 15.5 53.7614 15.5 51L15.5 17C15.5 11.4772 19.9772 7 25.5 7L60.5 7C63.2614 7 65.5 9.23858 65.5 12L65.5 38Z"
        fill="#FEDED7" />
    <path fill-rule="evenodd" clip-rule="evenodd"
        d="M16.166 30.6532H12.7306C11.3624 30.6532 10.255 29.5454 10.255 28.1793V11.731C10.255 10.3629 11.3625 9.25537 12.7306 9.25537H37.816C38.881 9.25537 39.745 10.1194 39.745 11.1844V28.1793C39.745 29.5455 38.6373 30.6532 37.2711 30.6532H29.0674C29.097 32.1797 29.4841 33.8041 29.9639 34.8264H31.6987C32.6172 34.8264 33.3687 35.5779 33.3687 36.4965C33.3687 37.415 32.6172 38.1666 31.6987 38.1666H18.3031C17.3845 38.1666 16.633 37.415 16.633 36.4965C16.633 35.5779 17.3845 34.8264 18.3031 34.8264H20.0333C20.1957 34.4705 20.3439 34.0412 20.4693 33.5688C19.601 33.4446 18.7712 33.1288 18.04 32.6442L17.1521 33.532C17.2342 33.897 17.1337 34.2955 16.8507 34.5785L13.0139 38.4154C12.5765 38.8543 11.8583 38.8548 11.4194 38.4159L10.5845 37.581C10.1457 37.1422 10.1457 36.4257 10.5845 35.987L14.4218 32.1496C14.7047 31.8667 15.1035 31.7664 15.4684 31.8482L16.3562 30.9604C16.2897 30.8599 16.2262 30.7575 16.166 30.6532ZM28.6516 29.8174H37.2711C38.1758 29.8174 38.9093 29.084 38.9093 28.1793V26.5614H27.162C27.2322 26.9305 27.2674 27.3054 27.2673 27.6811C27.2673 28.4341 27.1273 29.1544 26.872 29.8174H28.6516ZM38.9093 25.7257V11.1844C38.9093 10.5808 38.4196 10.0911 37.816 10.0911H12.7306C11.8244 10.0911 11.0908 10.8247 11.0908 11.731V25.7257H15.7002C16.509 23.4013 18.7195 21.7331 21.3192 21.7331C23.9191 21.7331 26.1295 23.4013 26.9383 25.7257H38.9093ZM11.0908 26.5614V28.1793C11.0908 29.0841 11.8245 29.8174 12.7306 29.8174H15.7665C15.5112 29.1544 15.3713 28.4341 15.3713 27.6811C15.3713 27.2984 15.4074 26.9241 15.4765 26.5614H11.0908ZM29.0541 34.8264C28.6062 33.7139 28.2595 32.1404 28.2317 30.6532H26.4725C25.4443 32.4321 23.5215 33.6291 21.3192 33.6291H21.3167C21.2074 34.0639 21.0794 34.4688 20.9396 34.8264H29.0541ZM20.2889 35.6621H18.3031C17.8441 35.6621 17.4687 36.0376 17.4687 36.4965C17.4687 36.9554 17.8441 37.3309 18.3031 37.3309H31.6987C32.1575 37.3309 32.533 36.9554 32.533 36.4965C32.533 36.0376 32.1575 35.6621 31.6987 35.6621H29.7105C29.7075 35.6622 29.7045 35.6622 29.7015 35.6621H20.2986C20.2954 35.6622 20.2922 35.6622 20.2889 35.6621ZM17.3718 32.1304C17.1948 31.9732 17.0272 31.8056 16.87 31.6285L16.1824 32.3161L16.6842 32.818L17.3718 32.1304ZM21.0183 32.7846C21.1185 32.7904 21.2189 32.7934 21.3192 32.7933C24.1425 32.7933 26.4315 30.5043 26.4315 27.6811C26.4315 24.8578 24.1425 22.5689 21.3192 22.5689C18.496 22.5689 16.207 24.8578 16.207 27.6811C16.207 30.3996 18.3293 32.6227 21.0073 32.784L21.0183 32.7846ZM15.4246 32.7403L15.4244 32.74C15.3115 32.6268 15.126 32.6273 15.0128 32.7406L11.1754 36.5779C11.1209 36.6326 11.0903 36.7067 11.0903 36.784C11.0903 36.8612 11.1209 36.9353 11.1754 36.99L12.0103 37.8249C12.1236 37.9382 12.309 37.9388 12.4222 37.8252L16.2598 33.9876C16.3732 33.8741 16.3732 33.6889 16.2598 33.5755L15.4246 32.7403ZM13.235 17.6551C13.0044 17.6551 12.8172 17.4679 12.8172 17.2373C12.8172 17.0066 13.0044 16.8194 13.235 16.8194H16.5476L18.0367 13.5891C18.072 13.5125 18.1297 13.4483 18.2021 13.4051C18.2746 13.3619 18.3585 13.3416 18.4427 13.347C18.5269 13.3523 18.6075 13.383 18.6739 13.4351C18.7403 13.4871 18.7894 13.558 18.8147 13.6385L20.0638 17.6058L21.9399 12.2168C21.9702 12.1297 22.0286 12.055 22.1058 12.0045C22.1831 11.954 22.2749 11.9304 22.3669 11.9376C22.4589 11.9447 22.546 11.9821 22.6145 12.044C22.683 12.1058 22.7292 12.1886 22.7457 12.2794L23.9526 18.9097L25.326 16.9937C25.3647 16.9398 25.4157 16.8958 25.4747 16.8655C25.5338 16.8352 25.5992 16.8194 25.6656 16.8194H28.3324L30.1673 12.1204C30.1997 12.0375 30.2577 11.9671 30.3329 11.9194C30.4081 11.8718 30.4966 11.8494 30.5854 11.8555C30.6742 11.8617 30.7587 11.896 30.8266 11.9536C30.8946 12.0111 30.9424 12.0888 30.963 12.1754L32.5259 18.7278L33.349 17.053C33.3834 16.9829 33.4368 16.9238 33.5031 16.8825C33.5693 16.8413 33.6459 16.8194 33.724 16.8194H36.765C36.9956 16.8194 37.1828 17.0066 37.1828 17.2373C37.1828 17.4679 36.9956 17.6551 36.765 17.6551H33.9842L32.7639 20.1386C32.7259 20.2157 32.6651 20.2793 32.5897 20.3207C32.5143 20.362 32.4279 20.3791 32.3424 20.3695C32.257 20.36 32.1765 20.3243 32.1121 20.2673C32.0476 20.2103 32.0024 20.1349 31.9824 20.0512L30.46 13.6685L29.0071 17.3892C28.9765 17.4676 28.923 17.5349 28.8536 17.5823C28.7841 17.6297 28.702 17.6551 28.6179 17.6551H25.8802L24.0576 20.1977C24.0098 20.2644 23.9435 20.3155 23.8668 20.3448C23.7901 20.374 23.7065 20.38 23.6265 20.362C23.5464 20.344 23.4734 20.3028 23.4166 20.2437C23.3597 20.1845 23.3216 20.1099 23.3069 20.0291L22.2076 13.9899L20.4385 19.0714C20.4096 19.1543 20.3554 19.2261 20.2834 19.2764C20.2114 19.3268 20.1254 19.3532 20.0376 19.3518C19.9498 19.3505 19.8646 19.3216 19.7942 19.2691C19.7237 19.2166 19.6717 19.1432 19.6453 19.0594L18.3426 14.9218L17.1946 17.4122C17.1612 17.4847 17.1077 17.5461 17.0404 17.5892C16.9731 17.6322 16.895 17.6551 16.8151 17.6551H13.235ZM21.32 23.1952C23.7966 23.1952 25.8058 25.2028 25.8058 27.6811C25.8058 30.1594 23.7966 32.167 21.32 32.167C18.8418 32.167 16.8326 30.1594 16.8326 27.6811C16.8326 25.2028 18.8418 23.1952 21.32 23.1952ZM21.32 24.0676C19.3237 24.0676 17.705 25.6847 17.705 27.6811C17.705 29.6775 19.3237 31.2945 21.32 31.2945C23.315 31.2945 24.9334 29.6774 24.9334 27.6811C24.9334 25.6848 23.315 24.0676 21.32 24.0676ZM21.5392 30.2728C21.4374 30.491 21.1777 30.5855 20.9595 30.4837C20.7413 30.3819 20.6469 30.1221 20.7487 29.904L21.5823 28.1173H20.3714C20.298 28.1173 20.2259 28.0987 20.1616 28.0635C20.0973 28.0282 20.0429 27.9772 20.0035 27.9154C19.9641 27.8535 19.9409 27.7827 19.9362 27.7095C19.9314 27.6364 19.9451 27.5631 19.9761 27.4967L21.0993 25.0894C21.1482 24.9845 21.2368 24.9035 21.3455 24.8639C21.4542 24.8244 21.5742 24.8296 21.679 24.8785C21.7838 24.9275 21.8649 25.016 21.9044 25.1247C21.944 25.2334 21.9387 25.3534 21.8899 25.4582L21.0562 27.2449H22.2672C22.3405 27.2449 22.4127 27.2634 22.477 27.2987C22.5413 27.334 22.5956 27.3849 22.635 27.4468C22.6744 27.5087 22.6976 27.5795 22.7024 27.6526C22.7072 27.7258 22.6935 27.7991 22.6625 27.8655L21.5392 30.2728Z"
        fill="#631503" />
</svg>