<svg width="48" height="48" viewBox="0 0 48 48" fill="none" xmlns="http://www.w3.org/2000/svg">
    <path
        d="M33.5822 23.9996C33.5822 29.3014 29.2841 33.5994 23.9823 33.5994C18.6806 33.5994 14.3829 29.3014 14.3829 23.9996C14.3829 18.6978 18.6806 14.4002 23.9823 14.4002C29.2841 14.4002 33.5822 18.6978 33.5822 23.9996Z"
        fill="#F84018" />
    <path
        d="M46.5601 22.5597H43.3504C42.6288 12.9742 35.0109 5.35497 25.4255 4.63253V1.43993C25.4255 0.644594 24.7804 0 23.9855 0C23.1902 0 22.5456 0.644594 22.5456 1.43993V4.63253C12.9596 5.35497 5.34125 12.9742 4.61959 22.5597H1.44004C0.644594 22.5597 0 23.2045 0 23.9996C0 24.7949 0.644594 25.4395 1.43993 25.4395H4.6197C5.34125 35.025 12.9597 42.6442 22.545 43.3667V46.5601C22.545 47.3554 23.1896 48 23.985 48C24.78 48 25.4247 47.3554 25.4247 46.5601V43.3667C35.0104 42.6447 42.6288 35.0254 43.3504 25.4395H46.5601C47.3554 25.4395 48 24.7949 48 23.9996C48 23.2046 47.3554 22.5597 46.5601 22.5597ZM23.9851 40.5588C14.8401 40.5583 7.4269 33.1442 7.4269 23.9992C7.42723 14.8537 14.8414 7.44051 23.9864 7.44051C33.1319 7.44051 40.5455 14.8546 40.5455 23.9996C40.5345 33.1411 33.1265 40.5487 23.9851 40.5588Z"
        fill="#F84018" />
</svg>