<svg width="49" height="48" viewBox="0 0 49 48" fill="none" xmlns="http://www.w3.org/2000/svg">
    <path
        d="M46.5357 25.7143C46.9904 25.7143 47.4264 25.5337 47.7479 25.2122C48.0694 24.8907 48.25 24.4547 48.25 24C48.25 23.5453 48.0694 23.1093 47.7479 22.7878C47.4264 22.4663 46.9904 22.2857 46.5357 22.2857H43.1071V15.4286H46.5357C46.9904 15.4286 47.4264 15.248 47.7479 14.9265C48.0694 14.605 48.25 14.1689 48.25 13.7143C48.25 13.2596 48.0694 12.8236 47.7479 12.5021C47.4264 12.1806 46.9904 12 46.5357 12H43.1071C43.1071 10.1814 42.3847 8.43723 41.0987 7.15127C39.8128 5.8653 38.0686 5.14286 36.25 5.14286V1.71429C36.25 1.25963 36.0694 0.823593 35.7479 0.502103C35.4264 0.180612 34.9904 0 34.5357 0C34.0811 0 33.645 0.180612 33.3235 0.502103C33.002 0.823593 32.8214 1.25963 32.8214 1.71429V5.14286H25.9643V1.71429C25.9643 1.25963 25.7837 0.823593 25.4622 0.502103C25.1407 0.180612 24.7047 0 24.25 0C23.7953 0 23.3593 0.180612 23.0378 0.502103C22.7163 0.823593 22.5357 1.25963 22.5357 1.71429V5.14286H15.6786V1.71429C15.6786 1.25963 15.498 0.823593 15.1765 0.502103C14.855 0.180612 14.4189 0 13.9643 0C13.5096 0 13.0736 0.180612 12.7521 0.502103C12.4306 0.823593 12.25 1.25963 12.25 1.71429V5.14286C10.4314 5.14286 8.68723 5.8653 7.40127 7.15127C6.1153 8.43723 5.39286 10.1814 5.39286 12H1.96429C1.50963 12 1.07359 12.1806 0.752103 12.5021C0.430612 12.8236 0.25 13.2596 0.25 13.7143C0.25 14.1689 0.430612 14.605 0.752103 14.9265C1.07359 15.248 1.50963 15.4286 1.96429 15.4286H5.39286V22.2857H1.96429C1.50963 22.2857 1.07359 22.4663 0.752103 22.7878C0.430612 23.1093 0.25 23.5453 0.25 24C0.25 24.4547 0.430612 24.8907 0.752103 25.2122C1.07359 25.5337 1.50963 25.7143 1.96429 25.7143H5.39286V32.5714H1.96429C1.50963 32.5714 1.07359 32.752 0.752103 33.0735C0.430612 33.395 0.25 33.8311 0.25 34.2857C0.25 34.7404 0.430612 35.1764 0.752103 35.4979C1.07359 35.8194 1.50963 36 1.96429 36H5.39286C5.39286 37.8186 6.1153 39.5628 7.40127 40.8487C8.68723 42.1347 10.4314 42.8571 12.25 42.8571V46.2857C12.25 46.7404 12.4306 47.1764 12.7521 47.4979C13.0736 47.8194 13.5096 48 13.9643 48C14.4189 48 14.855 47.8194 15.1765 47.4979C15.498 47.1764 15.6786 46.7404 15.6786 46.2857V42.8571H22.5357V46.2857C22.5357 46.7404 22.7163 47.1764 23.0378 47.4979C23.3593 47.8194 23.7953 48 24.25 48C24.7047 48 25.1407 47.8194 25.4622 47.4979C25.7837 47.1764 25.9643 46.7404 25.9643 46.2857V42.8571H32.8214V46.2857C32.8214 46.7404 33.002 47.1764 33.3235 47.4979C33.645 47.8194 34.0811 48 34.5357 48C34.9904 48 35.4264 47.8194 35.7479 47.4979C36.0694 47.1764 36.25 46.7404 36.25 46.2857V42.8571C38.0686 42.8571 39.8128 42.1347 41.0987 40.8487C42.3847 39.5628 43.1071 37.8186 43.1071 36H46.5357C46.9904 36 47.4264 35.8194 47.7479 35.4979C48.0694 35.1764 48.25 34.7404 48.25 34.2857C48.25 33.8311 48.0694 33.395 47.7479 33.0735C47.4264 32.752 46.9904 32.5714 46.5357 32.5714H43.1071V25.7143H46.5357ZM37.9643 36C37.9643 36.4547 37.7837 36.8907 37.4622 37.2122C37.1407 37.5337 36.7047 37.7143 36.25 37.7143H12.25C11.7953 37.7143 11.3593 37.5337 11.0378 37.2122C10.7163 36.8907 10.5357 36.4547 10.5357 36V12C10.5357 11.5453 10.7163 11.1093 11.0378 10.7878C11.3593 10.4663 11.7953 10.2857 12.25 10.2857H36.25C36.7047 10.2857 37.1407 10.4663 37.4622 10.7878C37.7837 11.1093 37.9643 11.5453 37.9643 12V36Z"
        fill="#F84018" />
    <path
        d="M13.9644 34.2857H34.5358V13.7142H13.9644V34.2857ZM19.1072 18.8571H22.5358C22.9904 18.8571 23.4265 19.0377 23.748 19.3592C24.0695 19.6807 24.2501 20.1167 24.2501 20.5714C24.2501 21.026 24.0695 21.4621 23.748 21.7836C23.4265 22.1051 22.9904 22.2857 22.5358 22.2857H19.1072C18.6526 22.2857 18.2165 22.1051 17.895 21.7836C17.5735 21.4621 17.3929 21.026 17.3929 20.5714C17.3929 20.1167 17.5735 19.6807 17.895 19.3592C18.2165 19.0377 18.6526 18.8571 19.1072 18.8571ZM19.1072 25.7142H25.9644C26.419 25.7142 26.855 25.8948 27.1765 26.2163C27.498 26.5378 27.6786 26.9739 27.6786 27.4285C27.6786 27.8832 27.498 28.3192 27.1765 28.6407C26.855 28.9622 26.419 29.1428 25.9644 29.1428H19.1072C18.6526 29.1428 18.2165 28.9622 17.895 28.6407C17.5735 28.3192 17.3929 27.8832 17.3929 27.4285C17.3929 26.9739 17.5735 26.5378 17.895 26.2163C18.2165 25.8948 18.6526 25.7142 19.1072 25.7142Z"
        fill="#F84018" />
</svg>