<svg width="52" height="48" viewBox="0 0 52 48" fill="none" xmlns="http://www.w3.org/2000/svg">
    <path
        d="M39.9556 9.44587L37.9078 8.26223L25.2071 0.934943C23.0528 -0.311322 20.3912 -0.311322 18.2368 0.934943L5.53617 8.26849L3.48829 9.45213C1.33394 10.6984 0 12.9968 0 15.4893V32.5174C0 35.01 1.32768 37.3083 3.48829 38.5546L18.2368 47.0655C20.3912 48.3118 23.0528 48.3118 25.2071 47.0655L39.9556 38.5546C42.11 37.3083 43.4439 35.01 43.4439 32.5174V15.4831C43.4377 12.9968 42.11 10.6921 39.9556 9.44587ZM9.02446 12.6398L18.2368 7.32283C20.3912 6.07657 23.0528 6.07657 25.2071 7.32283L34.4195 12.6398C35.6282 13.335 36.5926 14.3746 37.2001 15.6271C36.5926 16.8796 35.6219 17.9192 34.4195 18.6144L25.2071 23.9314C23.0528 25.1776 20.3912 25.1776 18.2368 23.9314L9.02446 18.6144C7.81577 17.9192 6.85133 16.8796 6.24385 15.6271C6.84506 14.3808 7.81577 13.335 9.02446 12.6398ZM37.9078 29.3172C37.9078 31.8098 36.5801 34.1081 34.4195 35.3544L25.2071 40.6714C23.0528 41.9177 20.3912 41.9177 18.2368 40.6714L9.02446 35.3544C6.87012 34.1081 5.53617 31.8098 5.53617 29.3172V22.9982L18.2368 30.3318C20.3912 31.578 23.0528 31.578 25.2071 30.3318L37.9078 22.9982V29.3172Z"
        fill="#D3000F" />
</svg>