<svg width="48" height="48" viewBox="0 0 48 48" fill="none" xmlns="http://www.w3.org/2000/svg">
    <path
        d="M6.85716 0C3.08794 0 0 3.08794 0 6.85716V27.4286H48V6.85716C48 3.08794 44.9121 0 41.1428 0H6.85716ZM0 30.8572V32.5715C0 36.3407 3.08794 39.4286 6.85716 39.4286H22.2857V44.5715H15.4285C14.4817 44.5715 13.7142 45.339 13.7142 46.2858C13.7142 47.2326 14.4817 48.0001 15.4285 48.0001H32.6752C33.6219 48.0001 34.3895 47.2326 34.3895 46.2858C34.3895 45.339 33.6219 44.5715 32.6752 44.5715H25.7142V39.4286H41.1427C44.912 39.4286 47.9999 36.3407 47.9999 32.5715V30.8572H0Z"
        fill="#F84018" />
</svg>