<svg width="52" height="48" viewBox="0 0 52 48" fill="none" xmlns="http://www.w3.org/2000/svg">
    <path
        d="M66.0336 2.89129L66.0392 0.436149C66.039 0.328828 66.0799 0.225451 66.1537 0.147046C66.2275 0.0686406 66.3286 0.0210973 66.4364 0.0140854L66.5688 0.00305078C66.9329 -0.020857 67.1159 0.150176 67.1178 0.516148L67.1205 2.88577C67.1205 2.97773 67.1674 3.0237 67.2612 3.0237H70.988C71.0195 3.0237 71.0497 3.01121 71.0719 2.98896C71.0942 2.96671 71.1067 2.93654 71.1067 2.90508V0.458218C71.1069 0.349488 71.1474 0.244781 71.2204 0.164651C71.2934 0.0845207 71.3935 0.0347524 71.5012 0.0251179L71.6446 0.0140854C72.0087 -0.0190177 72.1908 0.146496 72.1908 0.51063L72.1991 2.87198C72.1991 2.97313 72.2496 3.0237 72.3508 3.0237H76.0997C76.2303 3.0237 76.2956 2.95842 76.2956 2.82784V0.474769C76.2953 0.357381 76.3399 0.244252 76.4203 0.158232C76.5007 0.0722113 76.6109 0.0197089 76.7287 0.0113262L76.8473 0.00305078C77.2096 -0.022696 77.3889 0.145576 77.3852 0.507871L77.3632 2.90232C77.3632 2.93525 77.3762 2.96682 77.3995 2.9901C77.4228 3.01338 77.4544 3.02646 77.4873 3.02646L81.2638 3.02094C81.2938 3.02094 81.3226 3.00874 81.3438 2.98701C81.365 2.96528 81.3769 2.93581 81.3769 2.90508L81.3714 0.52994C81.3695 0.165806 81.5507 -0.00982263 81.9148 0.00305078L82.0445 0.00580785C82.154 0.00938918 82.2578 0.0554336 82.334 0.134201C82.4102 0.212969 82.4528 0.318285 82.4528 0.427874L82.4583 2.89957C82.4583 2.91683 82.4617 2.93392 82.4684 2.94983C82.4751 2.96574 82.4849 2.98016 82.4972 2.99223C82.5095 3.00431 82.5242 3.0138 82.5402 3.02015C82.5563 3.02651 82.5734 3.02959 82.5907 3.02922C83.7272 3.00991 85.0044 2.93267 86.0499 3.23887C88.1961 3.86415 89.5589 5.26368 90.1382 7.43744C90.3782 8.3395 90.3009 9.42914 90.3092 10.4222C90.3092 10.5142 90.3552 10.5602 90.4471 10.5602L93.5588 10.5574C93.6316 10.557 93.7037 10.5713 93.7708 10.5994C93.8378 10.6275 93.8985 10.6688 93.949 10.7209C93.9996 10.773 94.039 10.8348 94.0648 10.9024C94.0907 10.9701 94.1025 11.0423 94.0995 11.1146L94.094 11.2498C94.0897 11.3581 94.044 11.4605 93.9663 11.5356C93.8886 11.6107 93.7851 11.6526 93.6774 11.6526L90.4444 11.6553C90.3506 11.6553 90.3037 11.7013 90.3037 11.7933L90.3064 15.5118C90.3064 15.6001 90.3506 15.6442 90.4389 15.6442L93.6719 15.6498C93.7809 15.6504 93.8854 15.6928 93.9639 15.7682C94.0425 15.8437 94.089 15.9465 94.094 16.0553L94.0995 16.1794C94.1161 16.5435 93.9413 16.7256 93.5754 16.7256L90.4968 16.7229C90.3699 16.7229 90.3064 16.7863 90.3064 16.9132V20.6869C90.3064 20.7228 90.3207 20.7572 90.346 20.7825C90.3714 20.8079 90.4058 20.8221 90.4416 20.8221H93.6747C93.784 20.8221 93.889 20.8647 93.9673 20.941C94.0457 21.0173 94.0911 21.1211 94.094 21.2304L94.0967 21.3545C94.1059 21.715 93.9312 21.8943 93.5726 21.8924L90.4389 21.8759C90.3506 21.8759 90.3064 21.92 90.3064 22.0083V25.7241C90.3064 25.8142 90.3515 25.8593 90.4416 25.8593L93.6774 25.8648C93.7863 25.8647 93.8909 25.9067 93.9692 25.9819C94.0474 26.057 94.0932 26.1595 94.0967 26.2676L94.0995 26.4027C94.1017 26.4751 94.0894 26.5472 94.0632 26.6147C94.037 26.6823 93.9975 26.7438 93.9471 26.7958C93.8967 26.8478 93.8363 26.8891 93.7696 26.9173C93.7029 26.9455 93.6312 26.96 93.5588 26.96L90.4499 26.9517C90.3543 26.9517 90.3064 27.0004 90.3064 27.0979V30.4082C90.3064 30.4433 90.3204 30.477 90.3452 30.5018C90.3701 30.5267 90.4037 30.5406 90.4389 30.5406L93.6719 30.5434C93.7815 30.5433 93.8868 30.5859 93.9656 30.6621C94.0444 30.7383 94.0904 30.8421 94.094 30.9516L94.0995 31.0813C94.1124 31.4473 93.9358 31.6303 93.5699 31.6303L90.4637 31.6165C90.3589 31.6165 90.3064 31.6689 90.3064 31.7737V35.4481C90.3064 35.5401 90.3524 35.5861 90.4444 35.5861L93.6443 35.5943C93.7599 35.5943 93.8708 35.6403 93.9525 35.722C94.0343 35.8037 94.0802 35.9146 94.0802 36.0302V36.1516C94.082 36.5084 93.9036 36.6867 93.545 36.6867L90.5133 36.6895C90.3441 36.6895 90.266 36.7741 90.2789 36.9433C90.403 38.5571 90.392 40.2426 89.6278 41.6577C88.5612 43.6329 86.7874 44.6471 84.3065 44.7004C83.729 44.7133 83.1497 44.7381 82.5686 44.7749C82.4932 44.7804 82.4555 44.8209 82.4555 44.8963L82.461 47.5721C82.461 47.6831 82.4173 47.7896 82.3394 47.8686C82.2614 47.9476 82.1554 47.9927 82.0445 47.9942H81.901C81.8297 47.9953 81.7589 47.9821 81.6926 47.9554C81.6264 47.9288 81.5661 47.8891 81.5153 47.8388C81.4645 47.7885 81.4241 47.7285 81.3966 47.6624C81.369 47.5962 81.3548 47.5252 81.3548 47.4535L81.3659 44.8549C81.3662 44.8413 81.3639 44.8277 81.3589 44.815C81.3539 44.8023 81.3465 44.7907 81.337 44.781C81.3274 44.7712 81.3161 44.7634 81.3035 44.7581C81.2909 44.7528 81.2774 44.7501 81.2638 44.7501L77.4845 44.7473C77.4567 44.7473 77.4301 44.7587 77.4104 44.7789C77.3907 44.799 77.3797 44.8264 77.3797 44.8549L77.3907 47.5059C77.3912 47.5753 77.3769 47.644 77.3488 47.7075C77.3208 47.771 77.2796 47.8278 77.228 47.8742C77.1764 47.9206 77.1155 47.9555 77.0494 47.9767C76.9833 47.9978 76.9135 48.0048 76.8445 47.997L76.7066 47.9804C76.5891 47.9668 76.4808 47.9106 76.4024 47.8225C76.324 47.7345 76.2811 47.6207 76.2818 47.5032L76.2956 44.888C76.2956 44.7961 76.2505 44.7501 76.1604 44.7501H72.3646C72.2598 44.7501 72.2064 44.8025 72.2046 44.9073L72.1963 47.5032C72.1963 47.8857 72.0078 48.0475 71.6308 47.9887L71.4653 47.9639C71.3655 47.9487 71.2744 47.8977 71.2086 47.8203C71.1428 47.7429 71.1067 47.6441 71.1067 47.5418L71.1012 44.8742C71.1012 44.7915 71.0589 44.7501 70.9743 44.7501H67.2722C67.1748 44.7501 67.126 44.7988 67.126 44.8963V47.4811C67.1262 47.5539 67.1109 47.626 67.081 47.6924C67.0512 47.7589 67.0076 47.8182 66.953 47.8665C66.8985 47.9148 66.8343 47.9509 66.7647 47.9724C66.6951 47.994 66.6218 48.0004 66.5495 47.9914L66.406 47.9749C66.3024 47.9621 66.2071 47.9118 66.138 47.8336C66.0688 47.7553 66.0308 47.6545 66.0309 47.5501V44.8935C66.0309 44.7998 65.984 44.7529 65.8902 44.7529L62.5247 44.7473C62.5113 44.7473 62.498 44.75 62.4857 44.7551C62.4733 44.7602 62.462 44.7678 62.4525 44.7772C62.4431 44.7867 62.4355 44.798 62.4304 44.8103C62.4253 44.8227 62.4226 44.836 62.4226 44.8494L62.4254 47.4866C62.4254 47.8636 62.2378 48.031 61.8627 47.9887L61.7468 47.9749C61.6307 47.962 61.5235 47.9067 61.4456 47.8197C61.3677 47.7327 61.3247 47.62 61.3247 47.5032L61.3302 44.888C61.3302 44.7961 61.2852 44.7501 61.1951 44.7501H57.4793C57.3836 44.7501 57.3349 44.7988 57.333 44.8963L57.3303 47.4811C57.3303 47.8655 57.139 48.0365 56.7565 47.9942L56.6186 47.9776C56.5146 47.9661 56.4186 47.9164 56.3489 47.838C56.2791 47.7596 56.2406 47.6581 56.2407 47.5528L56.2379 44.8935C56.2379 44.7942 56.1882 44.7455 56.0889 44.7473C54.8807 44.7667 53.5538 44.8218 52.4559 44.4577C50.1699 43.7 48.8237 42.0605 48.4173 39.5391C48.4007 39.4361 48.34 39.3846 48.2352 39.3846L44.7539 39.3874C44.6441 39.3874 44.538 39.3483 44.4545 39.2769C44.3711 39.2056 44.3158 39.1069 44.2987 38.9984L44.2794 38.8743C44.2224 38.5139 44.3769 38.3336 44.7429 38.3336L48.227 38.3309C48.3465 38.3309 48.4063 38.2702 48.4063 38.1488L48.4118 34.5985C48.4118 34.5139 48.3695 34.4716 48.2849 34.4716L44.8587 34.4771C44.513 34.4771 44.3272 34.3052 44.3015 33.9613L44.2904 33.7902C44.2862 33.7381 44.2929 33.6857 44.31 33.6363C44.3271 33.5869 44.3543 33.5415 44.3898 33.5032C44.4253 33.4648 44.4684 33.4342 44.5164 33.4133C44.5643 33.3925 44.6161 33.3818 44.6684 33.382L48.318 33.3764C48.3421 33.3764 48.3653 33.3669 48.3823 33.3498C48.3994 33.3327 48.409 33.3096 48.409 33.2854L48.4063 29.5751C48.4063 29.4537 48.3465 29.393 48.227 29.393L44.7373 29.3875C44.6278 29.3877 44.5223 29.3459 44.4424 29.2705C44.3624 29.1952 44.314 29.092 44.307 28.982L44.2987 28.8689C44.2766 28.4993 44.4495 28.3144 44.8173 28.3144L48.2352 28.3117C48.3474 28.3117 48.4044 28.2547 48.4063 28.1406L48.409 24.8965C48.4109 24.7844 48.3548 24.7283 48.2407 24.7283H27.4051C27.3653 24.7285 27.3269 24.7428 27.297 24.7687C27.2671 24.7945 27.2477 24.8301 27.2424 24.869C26.6962 28.7696 23.2645 31.5778 19.3225 30.593C14.8287 29.473 12.9501 24.3476 15.568 20.6125C18.6108 16.2677 25.7693 17.4318 27.03 22.6952C27.0943 22.9582 27.1559 23.2239 27.2148 23.4924C27.2242 23.536 27.2482 23.575 27.2828 23.6031C27.3174 23.6312 27.3606 23.6467 27.4051 23.6469H48.2932C48.3232 23.6469 48.3519 23.6347 48.3731 23.613C48.3943 23.5912 48.4063 23.5618 48.4063 23.531L48.4145 19.7463C48.4145 19.7221 48.4049 19.699 48.3879 19.6819C48.3708 19.6648 48.3476 19.6552 48.3235 19.6552H44.7456C44.3631 19.6552 44.2077 19.4676 44.2794 19.0925L44.307 18.9408C44.3263 18.8392 44.3803 18.7476 44.4599 18.6816C44.5394 18.6157 44.6395 18.5795 44.7429 18.5794L48.2352 18.5877C48.3511 18.5877 48.409 18.5297 48.409 18.4139L48.4145 14.6125C48.4145 14.5818 48.4023 14.5523 48.3806 14.5306C48.3589 14.5089 48.3294 14.4967 48.2987 14.4967L44.7373 14.4856C44.6275 14.4847 44.522 14.443 44.4418 14.369C44.3616 14.2949 44.3125 14.1938 44.3042 14.0856L44.2987 13.9781C44.2711 13.6102 44.4422 13.4263 44.8118 13.4263L48.2325 13.4181C48.3483 13.4181 48.4063 13.361 48.4063 13.247L48.4173 9.56707C48.4173 9.48248 48.3741 9.44018 48.2876 9.44018L44.8091 9.42914C44.4192 9.42914 44.2482 9.23512 44.296 8.84708L44.3125 8.73122C44.3253 8.62535 44.3768 8.52785 44.4571 8.45719C44.5374 8.38653 44.6411 8.3476 44.7484 8.34778L48.238 8.34226C48.3391 8.34226 48.398 8.29261 48.4145 8.1933C48.8614 5.5616 50.2996 3.90369 52.729 3.21956C53.7441 2.93267 54.9883 3.02646 56.1055 3.0237C56.1956 3.0237 56.2407 2.97865 56.2407 2.88853V0.521665C56.2425 0.131784 56.4356 -0.0355701 56.8199 0.0196016L56.9331 0.0361525C57.0323 0.0505604 57.1232 0.099838 57.1894 0.175155C57.2556 0.250472 57.2929 0.346909 57.2944 0.447184L57.3303 2.88853C57.3321 2.97865 57.3781 3.0237 57.4682 3.0237H61.1702C61.2769 3.0237 61.3312 2.96945 61.333 2.86095L61.3385 0.516148C61.3385 0.166727 61.5123 -0.0015472 61.8599 0.0113262L61.9895 0.0168425C62.1001 0.0204075 62.2049 0.0666499 62.282 0.145861C62.3592 0.225072 62.4027 0.331091 62.4033 0.441665L62.4116 2.90784C62.4116 2.93784 62.4238 2.96661 62.4455 2.98782C62.4673 3.00903 62.4967 3.02094 62.5275 3.02094L65.8985 3.0237C65.9886 3.0237 66.0336 2.97957 66.0336 2.89129ZM59.6034 34.4744C61.4958 31.6468 63.7937 28.0937 65.6557 24.5324C67.5178 20.9683 69.2695 15.7215 67.184 11.8815C66.1164 9.91466 64.2571 8.96018 62.0061 8.89398C56.7786 8.7395 54.8338 13.2912 55.0379 17.8925C55.0416 17.9624 55.0784 17.9973 55.1482 17.9973L59.2696 18.0001C59.367 18.0001 59.4158 17.9513 59.4158 17.8539C59.402 16.276 59.2834 13.1229 61.4268 12.8388C64.8143 12.3863 63.8681 18.2842 63.2723 19.9063C61.3937 25.0124 58.0503 30.0055 54.8117 34.3337C54.681 34.5054 54.6102 34.7157 54.6103 34.9323L54.6131 38.7336C54.6131 38.8329 54.6636 38.8826 54.7648 38.8826H67.6226C67.7109 38.8826 67.755 38.8394 67.755 38.7529V34.7613C67.755 34.673 67.7099 34.6288 67.6198 34.6288L59.6916 34.6344C59.5611 34.6344 59.5316 34.581 59.6034 34.4744ZM76.7894 25.7903C76.7894 25.7545 76.8036 25.7201 76.8289 25.6947C76.8543 25.6694 76.8887 25.6552 76.9245 25.6552L81.9065 25.6524C81.9424 25.6524 81.9768 25.6382 82.0021 25.6128C82.0275 25.5875 82.0417 25.5531 82.0417 25.5172L82.039 21.5752C82.039 21.5394 82.0247 21.505 81.9994 21.4796C81.974 21.4543 81.9396 21.44 81.9038 21.44H76.9245C76.8887 21.44 76.8543 21.4258 76.8289 21.4004C76.8036 21.3751 76.7894 21.3407 76.7894 21.3049L76.7921 13.8374C76.7921 13.8015 76.8064 13.7671 76.8317 13.7418C76.8571 13.7164 76.8914 13.7022 76.9273 13.7022L83.9589 13.705C83.9948 13.705 84.0292 13.6907 84.0545 13.6654C84.0799 13.64 84.0941 13.6056 84.0941 13.5698L84.1024 9.58638C84.1024 9.55053 84.0881 9.51615 84.0628 9.4908C84.0374 9.46545 84.0031 9.45121 83.9672 9.45121L72.3729 9.47604C72.337 9.47604 72.3026 9.49028 72.2773 9.51563C72.2519 9.54098 72.2377 9.57536 72.2377 9.61121V38.7474C72.2377 38.7833 72.2519 38.8176 72.2773 38.843C72.3026 38.8683 72.337 38.8826 72.3729 38.8826H83.9645C83.9822 38.8826 83.9998 38.8791 84.0162 38.8723C84.0326 38.8655 84.0475 38.8555 84.06 38.843C84.0726 38.8304 84.0825 38.8155 84.0893 38.7991C84.0961 38.7827 84.0996 38.7652 84.0996 38.7474V34.6178C84.0996 34.6001 84.0961 34.5825 84.0893 34.5661C84.0825 34.5497 84.0726 34.5348 84.06 34.5222C84.0475 34.5097 84.0326 34.4997 84.0162 34.4929C83.9998 34.4861 83.9822 34.4826 83.9645 34.4826H76.9218C76.904 34.4826 76.8864 34.4791 76.87 34.4724C76.8536 34.4656 76.8388 34.4556 76.8262 34.443C76.8137 34.4305 76.8037 34.4156 76.7969 34.3992C76.7901 34.3828 76.7866 34.3652 76.7866 34.3475L76.7894 25.7903Z"
        fill="#FA993A" />
    <path
        d="M5.72689 25.4482C5.69562 25.3618 5.64596 25.2836 5.57792 25.2138C4.02392 23.6377 2.48002 22.0984 0.946249 20.5959C0.856135 20.5076 0.822114 20.4019 0.844183 20.2786C2.52692 10.4939 10.5075 2.8692 20.6426 2.76713C28.1625 2.69265 34.7307 6.70639 38.4299 13.2608C38.4473 13.2918 38.4541 13.3278 38.4491 13.3636C38.4441 13.3994 38.4277 13.433 38.4023 13.4594L34.2369 17.6607C34.2248 17.673 34.2099 17.6819 34.1935 17.6869C34.1771 17.6918 34.1597 17.6925 34.1429 17.6889C34.1262 17.6853 34.1106 17.6776 34.0976 17.6664C34.0846 17.6552 34.0746 17.6409 34.0686 17.6249C29.1638 5.18917 10.9379 5.38227 6.75032 18.3531C3.86484 27.2965 8.25375 37.4315 17.7985 39.7625C24.6922 41.448 30.7776 37.7212 33.1776 31.2082C33.1955 31.1603 33.2274 31.119 33.2688 31.0899C33.3102 31.0609 33.3592 31.0453 33.4093 31.0454L39.7541 31.0426C39.8515 31.0426 39.8855 31.0895 39.8561 31.1833C38.8943 34.0964 37.3909 36.7345 35.3458 39.0977C26.9873 48.7555 13.0289 47.8535 5.18068 38.2315C2.18118 34.5516 0.502115 30.3245 0.143499 25.5503C0.142358 25.5351 0.144368 25.5199 0.149401 25.5055C0.154433 25.4912 0.162383 25.478 0.172745 25.4669C0.183107 25.4557 0.195661 25.4469 0.209618 25.4408C0.223575 25.4347 0.238627 25.4316 0.253841 25.4317L5.69102 25.4979C5.69726 25.4977 5.7034 25.4961 5.70891 25.4933C5.71443 25.4904 5.71915 25.4864 5.72268 25.4815C5.7262 25.4766 5.72843 25.471 5.72917 25.4652C5.7299 25.4595 5.72912 25.4536 5.72689 25.4482Z"
        fill="#3357A3" />
</svg>