<svg width="30" height="33" viewBox="0 0 30 33" fill="none" xmlns="http://www.w3.org/2000/svg">
    <path fill-rule="evenodd" clip-rule="evenodd"
        d="M22.0756 20.1477L25.4521 25.996L26.6052 24.8429L25.5141 22.386C26.434 21.0157 27.0944 19.4567 27.4239 17.7788L29.931 16.8138V13.8227L27.4245 12.8579C27.0949 11.1797 26.4347 9.6201 25.5144 8.24972L26.6052 5.79354L24.4902 3.67854L22.0333 4.76972C20.663 3.84985 19.104 3.18947 17.4261 2.85991L16.461 0.352661H13.4699L12.5049 2.85979C10.8269 3.18935 9.26794 3.84972 7.89769 4.7696L5.44081 3.67841L3.32575 5.79347L4.41681 8.25022C3.49675 9.62041 2.83644 11.1797 2.50694 12.8577L0 13.8226V16.8137L2.50656 17.7785C2.83625 19.4567 3.49638 21.0163 4.41663 22.3867L3.32575 24.8429L4.47887 25.996L7.85538 20.1477C6.9185 18.7712 6.37075 17.1087 6.37075 15.3182C6.37075 10.5715 10.2188 6.72341 14.9655 6.72341C19.7122 6.72341 23.5602 10.5715 23.5602 15.3182C23.5602 17.1087 23.0125 18.7712 22.0756 20.1477ZM16.8899 14.4199L25.3189 29.0195C25.7213 29.7164 25.7213 30.5447 25.3189 31.2416C24.9166 31.9385 24.1993 32.3527 23.3946 32.3527H6.53644C5.73169 32.3527 5.01444 31.9385 4.61206 31.2416C4.20969 30.5447 4.20969 29.7164 4.61206 29.0195L13.0411 14.4199C13.4435 13.723 14.1607 13.3089 14.9655 13.3089C15.7702 13.3089 16.4875 13.723 16.8899 14.4199ZM14.9655 27.9845C14.3534 27.9845 13.8572 28.4807 13.8572 29.0928C13.8572 29.7049 14.3534 30.2011 14.9655 30.2011C15.5776 30.2011 16.0738 29.7049 16.0738 29.0928C16.0738 28.4807 15.5776 27.9845 14.9655 27.9845ZM14.9656 26.0061C14.5 26.0061 14.1178 25.6375 14.1009 25.1722L13.8822 19.1164C13.8734 18.8728 13.9549 18.66 14.1241 18.4846C14.2933 18.3092 14.5031 18.2201 14.7467 18.2201H15.1841C15.4279 18.2201 15.6376 18.3092 15.8068 18.4846C15.976 18.66 16.0574 18.8728 16.0487 19.1164L15.83 25.1722C15.8132 25.6374 15.4311 26.0061 14.9656 26.0061Z"
        fill="#F84018" />
</svg>