<svg width="66" height="56" viewBox="0 0 66 56" fill="none" xmlns="http://www.w3.org/2000/svg">
    <path
        d="M65.5 38C65.5 47.9411 57.4411 56 47.5 56L20.5 56C17.7386 56 15.5 53.7614 15.5 51L15.5 17C15.5 11.4772 19.9772 7 25.5 7L60.5 7C63.2614 7 65.5 9.23858 65.5 12L65.5 38Z"
        fill="#FEDED7" />
    <path
        d="M30.8778 19.5212H29.5248C29.4423 19.2593 29.3371 19.0051 29.2103 18.7616L30.1669 17.8049C30.2259 17.7462 30.2726 17.6764 30.3045 17.5996C30.3363 17.5228 30.3525 17.4404 30.3523 17.3572C30.3523 17.188 30.2865 17.029 30.1669 16.9095L29.041 15.7835C28.7942 15.5369 28.3926 15.5368 28.1457 15.7836L27.189 16.7403C26.9454 16.6135 26.6912 16.5083 26.4293 16.4258V15.0727C26.4292 14.7237 26.1452 14.4396 25.7961 14.4396H24.2038C23.8547 14.4396 23.5707 14.7236 23.5707 15.0727V16.4258C23.3088 16.5083 23.0545 16.6135 22.811 16.7403L21.8542 15.7835C21.6073 15.5368 21.2057 15.5369 20.9589 15.7836L19.833 16.9094C19.774 16.9681 19.7273 17.0379 19.6954 17.1147C19.6636 17.1916 19.6473 17.274 19.6475 17.3571C19.6475 17.5263 19.7134 17.6852 19.833 17.8048L20.7897 18.7615C20.6629 19.0051 20.5576 19.2593 20.4752 19.5212H19.1221C18.773 19.5212 18.489 19.8052 18.489 20.1543V21.7466C18.489 22.0957 18.773 22.3797 19.1221 22.3797H20.4752C20.5577 22.6416 20.6629 22.8958 20.7897 23.1394L19.833 24.0961C19.5861 24.343 19.5861 24.7446 19.833 24.9915L20.9589 26.1174C21.2057 26.3643 21.6074 26.3642 21.8542 26.1174L22.811 25.1607C23.0545 25.2875 23.3087 25.3927 23.5707 25.4752V26.8283C23.5707 27.1773 23.8547 27.4613 24.2038 27.4613H25.7961C26.1451 27.4613 26.4292 27.1773 26.4292 26.8283V25.4752C26.6911 25.3927 26.9453 25.2875 27.1889 25.1607L28.1456 26.1174C28.3925 26.3643 28.7942 26.3642 29.041 26.1174L30.1669 24.9915C30.2258 24.9328 30.2726 24.8631 30.3044 24.7862C30.3362 24.7094 30.3525 24.627 30.3522 24.5438C30.3522 24.3747 30.2864 24.2157 30.1669 24.0961L29.2102 23.1394C29.337 22.8958 29.4422 22.6416 29.5247 22.3797H30.8778C31.2268 22.3797 31.5109 22.0957 31.5109 21.7466V20.1543C31.511 19.8053 31.2269 19.5212 30.8778 19.5212ZM30.6175 21.4862H29.1844C29.0836 21.4862 28.9857 21.5203 28.9067 21.5829C28.8278 21.6456 28.7723 21.7331 28.7493 21.8312C28.6546 22.2372 28.4941 22.6248 28.2741 22.9789C28.2209 23.0646 28.1982 23.1657 28.2098 23.2658C28.2213 23.366 28.2664 23.4593 28.3377 23.5306L29.351 24.5439L28.5934 25.3015L27.5801 24.2882C27.5088 24.2169 27.4155 24.1718 27.3153 24.1602C27.2151 24.1487 27.114 24.1713 27.0284 24.2245C26.6743 24.4445 26.2866 24.605 25.8807 24.6998C25.7826 24.7228 25.6951 24.7783 25.6324 24.8572C25.5698 24.9362 25.5357 25.0341 25.5357 25.1349V26.5681H24.4644V25.1349C24.4644 25.0341 24.4303 24.9362 24.3677 24.8572C24.305 24.7783 24.2175 24.7228 24.1194 24.6998C23.7134 24.6051 23.3257 24.4446 22.9717 24.2245C22.886 24.1714 22.7849 24.1487 22.6848 24.1603C22.5846 24.1718 22.4913 24.2169 22.42 24.2882L21.4067 25.3015L20.6491 24.5439L21.6624 23.5306C21.7337 23.4593 21.7788 23.366 21.7903 23.2658C21.8019 23.1657 21.7792 23.0646 21.726 22.9789C21.5061 22.6248 21.3456 22.2372 21.2508 21.8312C21.2279 21.7331 21.1724 21.6456 21.0934 21.5829C21.0144 21.5203 20.9166 21.4862 20.8158 21.4862H19.3827V20.4149H20.8158C20.9166 20.4149 21.0144 20.3808 21.0934 20.3182C21.1724 20.2555 21.2279 20.168 21.2508 20.0699C21.3456 19.6639 21.5061 19.2763 21.726 18.9222C21.7792 18.8365 21.8019 18.7354 21.7903 18.6353C21.7788 18.5351 21.7337 18.4418 21.6624 18.3705L20.6491 17.3572L21.4067 16.5996L22.42 17.6129C22.4913 17.6842 22.5846 17.7293 22.6848 17.7409C22.7849 17.7524 22.886 17.7297 22.9717 17.6766C23.3257 17.4566 23.7134 17.2961 24.1194 17.2013C24.2175 17.1784 24.305 17.1229 24.3677 17.0439C24.4303 16.9649 24.4644 16.8671 24.4644 16.7663V15.3331H25.5357V16.7663C25.5357 16.8671 25.5698 16.9649 25.6324 17.0439C25.6951 17.1229 25.7826 17.1784 25.8807 17.2013C26.2866 17.2961 26.6743 17.4566 27.0284 17.6766C27.1141 17.7297 27.2152 17.7523 27.3153 17.7408C27.4155 17.7292 27.5088 17.6842 27.5801 17.6129L28.5934 16.5996L29.351 17.3572L28.3377 18.3705C28.2664 18.4418 28.2213 18.5351 28.2098 18.6353C28.1982 18.7354 28.2209 18.8365 28.2741 18.9222C28.494 19.2763 28.6546 19.6639 28.7493 20.0699C28.7723 20.168 28.8278 20.2555 28.9067 20.3182C28.9857 20.3808 29.0836 20.4149 29.1844 20.4149H30.6175V21.4862Z"
        fill="#631503" />
    <path
        d="M25 18.5571C23.6802 18.5571 22.6066 19.6309 22.6066 20.9506C22.6066 22.2703 23.6803 23.344 25 23.344C26.3197 23.344 27.3935 22.2703 27.3935 20.9506C27.3935 19.6309 26.3198 18.5571 25 18.5571ZM25 22.4505C24.173 22.4505 23.5001 21.7776 23.5001 20.9506C23.5001 20.1235 24.173 19.4507 25 19.4507C25.8271 19.4507 26.4999 20.1235 26.4999 20.9506C26.4999 21.7776 25.8271 22.4505 25 22.4505ZM14.729 20.5038H13.2468C13.1283 20.5038 13.0147 20.5509 12.9309 20.6347C12.8471 20.7185 12.8 20.8321 12.8 20.9506C12.8 21.0691 12.8471 21.1827 12.9309 21.2665C13.0147 21.3503 13.1283 21.3973 13.2468 21.3973H14.729C14.8475 21.3973 14.9611 21.3503 15.0449 21.2665C15.1287 21.1827 15.1757 21.0691 15.1757 20.9506C15.1757 20.8321 15.1287 20.7185 15.0449 20.6347C14.9611 20.5509 14.8475 20.5038 14.729 20.5038ZM36.7533 20.5038H35.2711C35.0243 20.5038 34.8244 20.7038 34.8244 20.9506C34.8244 21.1973 35.0243 21.3973 35.2711 21.3973H36.7533C36.8718 21.3973 36.9854 21.3503 37.0692 21.2665C37.153 21.1827 37.2 21.0691 37.2 20.9506C37.2 20.8321 37.153 20.7185 37.0692 20.6347C36.9854 20.5509 36.8718 20.5038 36.7533 20.5038ZM18.0532 27.8974C18.0117 27.8559 17.9624 27.823 17.9082 27.8006C17.854 27.7781 17.7959 27.7666 17.7372 27.7666C17.6786 27.7666 17.6205 27.7781 17.5663 27.8006C17.5121 27.823 17.4628 27.8559 17.4213 27.8974L16.3733 28.9455C16.2895 29.0293 16.2424 29.1429 16.2424 29.2614C16.2424 29.3799 16.2895 29.4935 16.3733 29.5773C16.4571 29.6611 16.5707 29.7082 16.6892 29.7082C16.8077 29.7082 16.9213 29.6611 17.0051 29.5773L18.0532 28.5293C18.0946 28.4878 18.1276 28.4385 18.15 28.3843C18.1725 28.3301 18.184 28.272 18.184 28.2134C18.184 28.1547 18.1725 28.0966 18.15 28.0424C18.1276 27.9882 18.0946 27.9389 18.0532 27.8974ZM33.6268 12.324C33.5429 12.2402 33.4293 12.1931 33.3108 12.1931C33.1923 12.1931 33.0787 12.2402 32.9949 12.324L31.9468 13.372C31.863 13.4558 31.816 13.5694 31.816 13.6879C31.816 13.8064 31.8631 13.9201 31.9469 14.0039C32.0306 14.0877 32.1443 14.1347 32.2628 14.1347C32.3813 14.1347 32.4949 14.0876 32.5787 14.0038L33.6268 12.9558C33.6682 12.9143 33.7012 12.8651 33.7236 12.8109C33.7461 12.7567 33.7576 12.6986 33.7576 12.6399C33.7576 12.5812 33.7461 12.5231 33.7236 12.4689C33.7012 12.4147 33.6682 12.3655 33.6268 12.324ZM25.0001 8.75061C24.8816 8.75061 24.768 8.79768 24.6842 8.88146C24.6004 8.96525 24.5533 9.07888 24.5533 9.19737V10.6795C24.5533 10.9263 24.7533 11.1263 25.0001 11.1263C25.2469 11.1263 25.4468 10.9263 25.4468 10.6795V9.19737C25.4468 9.07888 25.3998 8.96525 25.316 8.88146C25.2322 8.79768 25.1186 8.75061 25.0001 8.75061ZM33.6268 28.9455L32.5787 27.8974C32.4944 27.8163 32.3816 27.7714 32.2646 27.7725C32.1475 27.7736 32.0356 27.8206 31.9528 27.9034C31.8701 27.9861 31.8231 28.0981 31.8219 28.2151C31.8208 28.3321 31.8657 28.4449 31.9468 28.5293L32.9949 29.5773C33.0792 29.6585 33.192 29.7033 33.309 29.7022C33.4261 29.7011 33.538 29.6541 33.6208 29.5714C33.7035 29.4886 33.7505 29.3767 33.7516 29.2596C33.7528 29.1426 33.7079 29.0298 33.6268 28.9455ZM18.0532 13.372L17.0051 12.324C16.9213 12.2402 16.8077 12.1931 16.6892 12.1931C16.5707 12.1931 16.4571 12.2402 16.3733 12.324C16.2895 12.4078 16.2424 12.5214 16.2424 12.6399C16.2424 12.7584 16.2895 12.872 16.3733 12.9558L17.4213 14.0038C17.5051 14.0876 17.6187 14.1347 17.7372 14.1347C17.8557 14.1347 17.9694 14.0876 18.0532 14.0038C18.1369 13.9201 18.184 13.8064 18.184 13.6879C18.184 13.5694 18.1369 13.4558 18.0532 13.372ZM33.9131 19.8561C33.4323 15.7534 30.1801 12.5009 26.0966 12.0031C25.8521 11.9731 25.6289 12.1476 25.599 12.3925C25.5846 12.5102 25.6176 12.6287 25.6907 12.722C25.7637 12.8153 25.8708 12.8758 25.9884 12.8902C29.6969 13.3422 32.5907 16.2495 33.0255 19.9601C33.0393 20.0778 33.0993 20.1852 33.1923 20.2587C33.2852 20.3321 33.4036 20.3657 33.5213 20.3519C33.5795 20.3451 33.6359 20.3268 33.6872 20.2982C33.7384 20.2696 33.7835 20.2312 33.8199 20.1852C33.8563 20.1391 33.8832 20.0864 33.8992 20.0299C33.9152 19.9735 33.9199 19.9144 33.9131 19.8561Z"
        fill="#631503" />
    <path
        d="M33.516 21.5497C33.4578 21.5423 33.3987 21.5464 33.342 21.5618C33.2854 21.5773 33.2324 21.6037 33.186 21.6397C33.1397 21.6757 33.1008 21.7204 33.0717 21.7714C33.0427 21.8224 33.0239 21.8786 33.0166 21.9368C32.7121 24.3426 31.3541 26.4655 29.2911 27.7608C28.4017 28.3192 27.8707 29.2749 27.8707 30.3172V32.1559H22.1294V30.2766C22.1294 29.2672 21.6019 28.3137 20.7529 27.7881C18.352 26.3019 16.9185 23.7311 16.9185 20.9112C16.9185 16.8397 19.9682 13.3915 24.0125 12.8905C24.0707 12.8833 24.1269 12.8647 24.178 12.8358C24.229 12.8068 24.2738 12.7681 24.3099 12.7218C24.346 12.6756 24.3726 12.6226 24.3882 12.5661C24.4038 12.5095 24.4081 12.4504 24.4009 12.3922C24.3706 12.1474 24.1476 11.973 23.9026 12.0038C19.4341 12.5573 16.0247 16.4 16.0248 20.9112C16.0248 22.4679 16.4297 24.0017 17.1958 25.3467C17.9384 26.6507 19.0058 27.7575 20.2825 28.5478C20.8704 28.9118 21.2357 29.5742 21.2357 30.2765V32.221C20.7814 32.3788 20.4538 32.8102 20.4538 33.3175V33.9545C20.4538 34.2241 20.547 34.472 20.7017 34.6693C20.5469 34.8667 20.4538 35.1145 20.4538 35.3842V36.021C20.4538 36.6616 20.975 37.1827 21.6155 37.1827H23.0201V38.1926C23.0201 38.7753 23.4941 39.2493 24.0766 39.2493H25.923C26.5057 39.2493 26.9796 38.7753 26.9796 38.1926V37.1827H28.3842C29.0247 37.1827 29.5458 36.6615 29.5458 36.021V35.3842C29.5458 35.1145 29.4527 34.8667 29.2979 34.6693C29.4527 34.472 29.5458 34.2242 29.5458 33.9545V33.3175C29.5458 32.8102 29.2183 32.3788 28.764 32.221V30.3172C28.764 29.5842 29.1385 28.9114 29.766 28.5175C32.0566 27.0793 33.5645 24.7216 33.9028 22.049C33.9102 21.9909 33.9061 21.9318 33.8907 21.8752C33.8752 21.8186 33.8488 21.7656 33.8129 21.7192C33.777 21.6728 33.7323 21.634 33.6813 21.6049C33.6304 21.5758 33.5742 21.557 33.516 21.5497ZM26.0862 38.1926C26.0862 38.2809 26.0116 38.3556 25.9232 38.3556H24.0768C23.9885 38.3556 23.9138 38.281 23.9138 38.1926V37.1826H26.0862V38.1926ZM28.6525 36.021C28.6525 36.1663 28.5297 36.289 28.3845 36.289H21.6156C21.4704 36.289 21.3476 36.1663 21.3476 36.021V35.3841C21.3476 35.2388 21.4704 35.1161 21.6156 35.1161H28.3845C28.5297 35.1161 28.6525 35.2388 28.6525 35.3841V36.021ZM28.6525 33.9544C28.6525 34.0997 28.5297 34.2224 28.3845 34.2224H21.6156C21.4704 34.2224 21.3476 34.0997 21.3476 33.9544V33.3175C21.3476 33.1722 21.4704 33.0494 21.6156 33.0494H28.3845C28.5297 33.0494 28.6525 33.1722 28.6525 33.3175V33.9544Z"
        fill="#631503" />
</svg>