<svg width="44" height="48" viewBox="0 0 44 48" fill="none" xmlns="http://www.w3.org/2000/svg">
    <path d="M17.6447 19.7117H26.2171V28.2849H17.6447V19.7117Z" fill="#F84018" />
    <path
        d="M28.788 16.2827H15.0721C14.8448 16.2827 14.6267 16.373 14.466 16.5338C14.3052 16.6946 14.2149 16.9126 14.2149 17.14V30.8558C14.2149 31.0831 14.3052 31.3012 14.466 31.462C14.6267 31.6227 14.8448 31.713 15.0721 31.713H28.788C29.0153 31.713 29.2334 31.6227 29.3941 31.462C29.5549 31.3012 29.6452 31.0831 29.6452 30.8558V17.14C29.6452 16.9126 29.5549 16.6946 29.3941 16.5338C29.2334 16.373 29.0153 16.2827 28.788 16.2827ZM27.9307 28.2841C27.9307 28.7388 27.7501 29.1749 27.4286 29.4964C27.1071 29.8179 26.671 29.9986 26.2163 29.9986H17.6439C17.1892 29.9986 16.7531 29.8179 16.4315 29.4964C16.11 29.1749 15.9294 28.7388 15.9294 28.2841V19.7117C15.9294 19.257 16.11 18.8209 16.4315 18.4994C16.7531 18.1778 17.1892 17.9972 17.6439 17.9972H26.2163C26.671 17.9972 27.1071 18.1778 27.4286 18.4994C27.7501 18.8209 27.9307 19.257 27.9307 19.7117V28.2841Z"
        fill="#F84018" />
    <path
        d="M43.3611 32.5702C43.3649 31.5569 43.1052 30.5599 42.6076 29.6771C42.5365 29.5522 42.4979 29.4115 42.4954 29.2679C42.4928 29.1242 42.5264 28.9822 42.5931 28.855C43.2711 27.5497 43.5098 26.0604 43.2736 24.6086C43.0375 23.1568 42.3391 21.82 41.2823 20.7969C41.1568 20.6759 41.0712 20.5195 41.0369 20.3486C41.0026 20.1776 41.0212 20.0003 41.0903 19.8402C41.459 18.9878 41.6483 18.0687 41.6467 17.1399C41.647 16.0097 41.3674 14.8969 40.8328 13.9011C40.2981 12.9053 39.5252 12.0575 38.5829 11.4333C38.4569 11.3497 38.3553 11.2344 38.2883 11.0989C38.2213 10.9634 38.1913 10.8126 38.2014 10.6618C38.21 10.534 38.2177 10.4046 38.2177 10.2786C38.2086 8.91875 37.7419 7.60159 36.8928 6.53942C36.0437 5.47724 34.8616 4.73193 33.5372 4.42363C33.3845 4.38909 33.2441 4.31339 33.1314 4.20473C33.0186 4.09608 32.9378 3.95862 32.8977 3.80728C32.5737 2.60311 31.8234 1.55763 30.7862 0.865379C29.749 0.173124 28.4957 -0.118762 27.2593 0.0440316C26.023 0.206825 24.888 0.813211 24.0653 1.75036C23.2427 2.68751 22.7886 3.89159 22.7874 5.13857C22.7874 5.36592 22.6971 5.58397 22.5363 5.74473C22.3755 5.90549 22.1575 5.99581 21.9301 5.99581C21.7028 5.99581 21.4847 5.90549 21.324 5.74473C21.1632 5.58397 21.0729 5.36592 21.0729 5.13857C21.0702 3.8927 20.6154 2.69017 19.7929 1.75435C18.9704 0.818528 17.8363 0.213042 16.6011 0.0503666C15.3659 -0.112309 14.1136 0.178883 13.0769 0.869852C12.0402 1.56082 11.2895 2.60459 10.9643 3.80728C10.9242 3.95862 10.8434 4.09608 10.7306 4.20473C10.6179 4.31339 10.4776 4.38909 10.3248 4.42363C8.9995 4.73174 7.81663 5.47741 6.96711 6.54032C6.1176 7.60322 5.65099 8.92136 5.64259 10.282C5.64259 10.4115 5.6503 10.5392 5.65716 10.6695C5.66579 10.8188 5.6352 10.9678 5.56843 11.1016C5.50166 11.2355 5.40103 11.3495 5.27655 11.4324C3.94027 12.3193 2.95746 13.6469 2.49928 15.1839C2.0411 16.7208 2.13659 18.3698 2.76912 19.8437C2.83829 20.0037 2.85706 20.1809 2.8229 20.3518C2.78875 20.5228 2.7033 20.6792 2.57796 20.8003C1.52129 21.8235 0.82293 23.1603 0.586637 24.612C0.350343 26.0637 0.588731 27.553 1.26638 28.8584C1.33316 28.9856 1.36691 29.1275 1.36451 29.2712C1.36212 29.4148 1.32365 29.5556 1.25266 29.6805C0.755632 30.5623 0.495995 31.558 0.499148 32.5702C0.49982 34.0885 1.07673 35.55 2.11333 36.6593C2.20593 36.7589 2.2735 36.8791 2.31047 37.01C2.34743 37.1408 2.35273 37.2786 2.32593 37.4119C2.25019 37.7936 2.21258 38.1818 2.21363 38.5709C2.21544 40.1618 2.84824 41.6871 3.97319 42.812C5.09814 43.937 6.62339 44.5698 8.21431 44.5716C8.4701 44.5738 8.72569 44.5569 8.97897 44.521C9.15104 44.4961 9.32663 44.5237 9.48278 44.6002C9.63893 44.6766 9.76838 44.7984 9.85421 44.9497C10.5055 46.1039 11.5209 47.0098 12.7416 47.5259C13.9623 48.0419 15.3196 48.139 16.6013 47.802C17.8831 47.465 19.0171 46.7129 19.8261 45.6631C20.6351 44.6134 21.0735 43.3252 21.0729 41.9999C21.0729 41.7725 21.1632 41.5545 21.324 41.3937C21.4847 41.233 21.7028 41.1427 21.9301 41.1427C22.1575 41.1427 22.3755 41.233 22.5363 41.3937C22.6971 41.5545 22.7874 41.7725 22.7874 41.9999C22.7866 43.3253 23.2249 44.6136 24.0338 45.6635C24.8428 46.7134 25.9767 47.4657 27.2585 47.8028C28.5403 48.1399 29.8977 48.0429 31.1185 47.5268C32.3393 47.0108 33.3547 46.1048 34.0061 44.9505C34.0911 44.7988 34.2203 44.6765 34.3765 44.6C34.5327 44.5234 34.7085 44.4962 34.8805 44.5219C35.134 44.5577 35.3899 44.5746 35.646 44.5725C37.2369 44.5707 38.7622 43.9379 39.8871 42.8129C41.0121 41.688 41.6449 40.1627 41.6467 38.5718C41.6477 38.1827 41.6101 37.7945 41.5344 37.4128C41.5076 37.2795 41.5129 37.1417 41.5498 37.0108C41.5868 36.8799 41.6544 36.7597 41.747 36.6601C42.7838 35.5506 43.3607 34.0888 43.3611 32.5702ZM36.5032 24.8551H31.3598V27.4268H33.9315C34.3862 27.4268 34.8223 27.6074 35.1438 27.929C35.4654 28.2505 35.646 28.6866 35.646 29.1413V30.8558C35.646 31.0831 35.5557 31.3012 35.3949 31.4619C35.2341 31.6227 35.0161 31.713 34.7887 31.713C34.5614 31.713 34.3433 31.6227 34.1826 31.4619C34.0218 31.3012 33.9315 31.0831 33.9315 30.8558V29.1413H31.3598V30.8558C31.3598 31.5378 31.0888 32.192 30.6065 32.6743C30.1243 33.1565 29.4701 33.4275 28.7881 33.4275H27.0736V35.9992H28.7881C29.0154 35.9992 29.2335 36.0895 29.3942 36.2503C29.555 36.4111 29.6453 36.6291 29.6453 36.8564C29.6453 37.0838 29.555 37.3018 29.3942 37.4626C29.2335 37.6234 29.0154 37.7137 28.7881 37.7137H27.0736C26.6189 37.7137 26.1828 37.5331 25.8613 37.2115C25.5397 36.89 25.3591 36.4539 25.3591 35.9992V33.4275H22.7874V38.5709C22.7874 38.7983 22.6971 39.0163 22.5363 39.1771C22.3755 39.3379 22.1575 39.4282 21.9301 39.4282C21.7028 39.4282 21.4847 39.3379 21.324 39.1771C21.1632 39.0163 21.0729 38.7983 21.0729 38.5709V33.4275H18.5012V35.9992C18.5012 36.4539 18.3206 36.89 17.999 37.2115C17.6775 37.5331 17.2414 37.7137 16.7867 37.7137H15.0722C14.8449 37.7137 14.6268 37.6234 14.4661 37.4626C14.3053 37.3018 14.215 37.0838 14.215 36.8564C14.215 36.6291 14.3053 36.4111 14.4661 36.2503C14.6268 36.0895 14.8449 35.9992 15.0722 35.9992H16.7867V33.4275H15.0722C14.3902 33.4275 13.736 33.1565 13.2537 32.6743C12.7715 32.192 12.5005 31.5378 12.5005 30.8558V29.1413H9.92879V30.8558C9.92879 31.0831 9.83847 31.3012 9.67771 31.4619C9.51694 31.6227 9.2989 31.713 9.07155 31.713C8.84419 31.713 8.62615 31.6227 8.46539 31.4619C8.30462 31.3012 8.21431 31.0831 8.21431 30.8558V29.1413C8.21431 28.6866 8.39494 28.2505 8.71647 27.929C9.038 27.6074 9.47408 27.4268 9.92879 27.4268H12.5005V24.8551H7.35707C7.12971 24.8551 6.91167 24.7648 6.75091 24.604C6.59014 24.4432 6.49983 24.2252 6.49983 23.9978C6.49983 23.7705 6.59014 23.5525 6.75091 23.3917C6.91167 23.2309 7.12971 23.1406 7.35707 23.1406H12.5005V20.5689H9.92879C9.47408 20.5689 9.038 20.3883 8.71647 20.0667C8.39494 19.7452 8.21431 19.3091 8.21431 18.8544V17.1451C8.21431 16.9177 8.30462 16.6997 8.46539 16.5389C8.62615 16.3781 8.84419 16.2878 9.07155 16.2878C9.2989 16.2878 9.51694 16.3781 9.67771 16.5389C9.83847 16.6997 9.92879 16.9177 9.92879 17.1451V18.8596H12.5005V17.1451C12.5005 16.463 12.7715 15.8089 13.2537 15.3266C13.736 14.8443 14.3902 14.5734 15.0722 14.5734H16.7867V12.0016H15.0722C14.8449 12.0016 14.6268 11.9113 14.4661 11.7506C14.3053 11.5898 14.215 11.3717 14.215 11.1444C14.215 10.917 14.3053 10.699 14.4661 10.5382C14.6268 10.3775 14.8449 10.2872 15.0722 10.2872H16.7867C17.2414 10.2872 17.6775 10.4678 17.999 10.7893C18.3206 11.1108 18.5012 11.5469 18.5012 12.0016V14.5734H21.0729V9.42991C21.0729 9.20256 21.1632 8.98452 21.324 8.82375C21.4847 8.66299 21.7028 8.57267 21.9301 8.57267C22.1575 8.57267 22.3755 8.66299 22.5363 8.82375C22.6971 8.98452 22.7874 9.20256 22.7874 9.42991V14.5734H25.3591V12.0016C25.3591 11.5469 25.5397 11.1108 25.8613 10.7893C26.1828 10.4678 26.6189 10.2872 27.0736 10.2872H28.7881C29.0154 10.2872 29.2335 10.3775 29.3942 10.5382C29.555 10.699 29.6453 10.917 29.6453 11.1444C29.6453 11.3717 29.555 11.5898 29.3942 11.7506C29.2335 11.9113 29.0154 12.0016 28.7881 12.0016H27.0736V14.5734H28.7881C29.4701 14.5734 30.1243 14.8443 30.6065 15.3266C31.0888 15.8089 31.3598 16.463 31.3598 17.1451V18.8596H33.9315V17.1451C33.9315 16.9177 34.0218 16.6997 34.1826 16.5389C34.3433 16.3781 34.5614 16.2878 34.7887 16.2878C35.0161 16.2878 35.2341 16.3781 35.3949 16.5389C35.5557 16.6997 35.646 16.9177 35.646 17.1451V18.8596C35.646 19.3143 35.4654 19.7503 35.1438 20.0719C34.8223 20.3934 34.3862 20.574 33.9315 20.574H31.3598V23.1458H36.5032C36.7306 23.1458 36.9486 23.2361 37.1094 23.3968C37.2702 23.5576 37.3605 23.7756 37.3605 24.003C37.3605 24.2303 37.2702 24.4484 37.1094 24.6092C36.9486 24.7699 36.7306 24.8602 36.5032 24.8602V24.8551Z"
        fill="#F84018" />
</svg>