<svg width="49" height="48" viewBox="0 0 49 48" fill="none" xmlns="http://www.w3.org/2000/svg">
    <path
        d="M13.8911 7.27274C14.6944 7.27274 15.3456 6.62152 15.3456 5.81819C15.3456 5.01487 14.6944 4.36365 13.8911 4.36365C13.0877 4.36365 12.4365 5.01487 12.4365 5.81819C12.4365 6.62152 13.0877 7.27274 13.8911 7.27274Z"
        fill="#F84018" />
    <path
        d="M21.164 7.27274C21.9673 7.27274 22.6186 6.62152 22.6186 5.81819C22.6186 5.01487 21.9673 4.36365 21.164 4.36365C20.3607 4.36365 19.7095 5.01487 19.7095 5.81819C19.7095 6.62152 20.3607 7.27274 21.164 7.27274Z"
        fill="#F84018" />
    <path
        d="M6.61861 7.27274C7.42193 7.27274 8.07315 6.62152 8.07315 5.81819C8.07315 5.01487 7.42193 4.36365 6.61861 4.36365C5.81528 4.36365 5.16406 5.01487 5.16406 5.81819C5.16406 6.62152 5.81528 7.27274 6.61861 7.27274Z"
        fill="#F84018" />
    <path
        d="M45.8912 11.6364C47.4985 11.6364 48.8003 10.3345 48.8003 8.72727V2.90909C48.8003 1.30182 47.4985 0 45.8912 0H3.70938C2.10211 0 0.800293 1.30182 0.800293 2.90909V8.72727C0.800293 10.3345 2.10211 11.6364 3.70938 11.6364H4.43666V14.5455H3.70938C2.10211 14.5455 0.800293 15.8473 0.800293 17.4545V23.2727C0.800293 24.88 2.10211 26.1818 3.70938 26.1818H21.1639V35.6364H13.0985C12.7494 33.5782 10.9603 32 8.80029 32C6.39302 32 4.43666 33.9564 4.43666 36.3636C4.43666 38.7709 6.39302 40.7273 8.80029 40.7273C10.9603 40.7273 12.7494 39.1491 13.0985 37.0909H21.8912C22.2912 37.0909 22.6185 36.7636 22.6185 36.3636V26.1818H24.073V39.3382C22.0148 39.6873 20.4367 41.4764 20.4367 43.6364C20.4367 46.0436 22.393 48 24.8003 48C27.2076 48 29.1639 46.0436 29.1639 43.6364C29.1639 41.4764 27.5857 39.6873 25.5276 39.3382V26.1818H27.7094V32C27.7094 32.4 28.0367 32.7273 28.4367 32.7273H40.1385C40.4876 34.7855 42.2767 36.3636 44.4367 36.3636C46.8439 36.3636 48.8003 34.4073 48.8003 32C48.8003 29.5927 46.8439 27.6364 44.4367 27.6364C42.2767 27.6364 40.4876 29.2145 40.1385 31.2727H29.1639V26.1818H45.8912C47.4985 26.1818 48.8003 24.88 48.8003 23.2727V17.4545C48.8003 15.8473 47.4985 14.5455 45.8912 14.5455H45.1639V11.6364H45.8912ZM21.1639 2.90909C22.7712 2.90909 24.073 4.21091 24.073 5.81818C24.073 7.42545 22.7712 8.72727 21.1639 8.72727C19.5567 8.72727 18.2548 7.42545 18.2548 5.81818C18.2548 4.21091 19.5567 2.90909 21.1639 2.90909ZM13.8912 2.90909C15.4985 2.90909 16.8003 4.21091 16.8003 5.81818C16.8003 7.42545 15.4985 8.72727 13.8912 8.72727C12.2839 8.72727 10.9821 7.42545 10.9821 5.81818C10.9821 4.21091 12.2839 2.90909 13.8912 2.90909ZM6.61847 2.90909C8.22575 2.90909 9.52757 4.21091 9.52757 5.81818C9.52757 7.42545 8.22575 8.72727 6.61847 8.72727C5.0112 8.72727 3.70938 7.42545 3.70938 5.81818C3.70938 4.21091 5.0112 2.90909 6.61847 2.90909ZM6.61847 23.2727C5.0112 23.2727 3.70938 21.9709 3.70938 20.3636C3.70938 18.7564 5.0112 17.4545 6.61847 17.4545C8.22575 17.4545 9.52757 18.7564 9.52757 20.3636C9.52757 21.9709 8.22575 23.2727 6.61847 23.2727ZM13.8912 23.2727C12.2839 23.2727 10.9821 21.9709 10.9821 20.3636C10.9821 18.7564 12.2839 17.4545 13.8912 17.4545C15.4985 17.4545 16.8003 18.7564 16.8003 20.3636C16.8003 21.9709 15.4985 23.2727 13.8912 23.2727ZM21.1639 23.2727C19.5567 23.2727 18.2548 21.9709 18.2548 20.3636C18.2548 18.7564 19.5567 17.4545 21.1639 17.4545C22.7712 17.4545 24.073 18.7564 24.073 20.3636C24.073 21.9709 22.7712 23.2727 21.1639 23.2727ZM43.7094 14.5455H5.8912V11.6364H43.7094V14.5455Z"
        fill="#F84018" />
    <path
        d="M13.8911 21.8181C14.6944 21.8181 15.3456 21.1669 15.3456 20.3636C15.3456 19.5603 14.6944 18.9091 13.8911 18.9091C13.0877 18.9091 12.4365 19.5603 12.4365 20.3636C12.4365 21.1669 13.0877 21.8181 13.8911 21.8181Z"
        fill="#F84018" />
    <path
        d="M6.61861 21.8181C7.42193 21.8181 8.07315 21.1669 8.07315 20.3636C8.07315 19.5603 7.42193 18.9091 6.61861 18.9091C5.81528 18.9091 5.16406 19.5603 5.16406 20.3636C5.16406 21.1669 5.81528 21.8181 6.61861 21.8181Z"
        fill="#F84018" />
    <path
        d="M21.164 21.8181C21.9673 21.8181 22.6186 21.1669 22.6186 20.3636C22.6186 19.5603 21.9673 18.9091 21.164 18.9091C20.3607 18.9091 19.7095 19.5603 19.7095 20.3636C19.7095 21.1669 20.3607 21.8181 21.164 21.8181Z"
        fill="#F84018" />
</svg>