<svg width="52" height="48" viewBox="0 0 52 48" fill="none" xmlns="http://www.w3.org/2000/svg">
    <path d="M5.13977 43.3051L8.30827 40.1816L7.52418 39.3943L4.35889 42.521L5.13977 43.3051Z" fill="#A90019" />
    <path d="M7.6886 45.9142L10.8854 42.7559L10.021 41.8909L6.82031 45.0497L7.6886 45.9142Z" fill="#A90019" />
    <path d="M2.6319 40.8539L5.79013 37.6571L5.00604 36.8762L1.84717 40.0698L2.6319 40.8539Z" fill="#A90019" />
    <path
        d="M10.5531 27.8328C10.553 27.6868 10.5096 27.5441 10.4283 27.4227C10.3471 27.3013 10.2317 27.2068 10.0968 27.151C9.96184 27.0952 9.81338 27.0807 9.67017 27.1092C9.52697 27.1378 9.39545 27.2082 9.29224 27.3115C9.18902 27.4148 9.11876 27.5464 9.09031 27.6896C9.06187 27.8328 9.07653 27.9813 9.13245 28.1162C9.18836 28.2511 9.28301 28.3664 9.40443 28.4475C9.52586 28.5286 9.66861 28.5719 9.81463 28.5719C10.0104 28.5712 10.1979 28.4931 10.3363 28.3546C10.4746 28.2161 10.5526 28.0285 10.5531 27.8328Z"
        fill="#A90019" />
    <path
        d="M31.4862 30.6146L15.1166 14.2444L0.714355 28.6434V32.589L5.79168 37.6663L5.00952 36.8841L9.26418 32.5979V29.3992C8.89345 29.2683 8.58095 29.0105 8.38193 28.6714C8.1829 28.3324 8.11017 27.9338 8.17659 27.5463C8.24301 27.1588 8.4443 26.8072 8.74489 26.5538C9.04547 26.3003 9.42598 26.1613 9.81916 26.1613C10.2123 26.1613 10.5928 26.3003 10.8934 26.5538C11.194 26.8072 11.3953 27.1588 11.4617 27.5463C11.5281 27.9338 11.4554 28.3324 11.2564 28.6714C11.0574 29.0105 10.7449 29.2683 10.3741 29.3992V32.8242C10.3739 32.8971 10.3592 32.9693 10.331 33.0366C10.3027 33.1039 10.2615 33.1649 10.2096 33.2162L5.79168 37.6663L7.93894 39.8135L7.51411 39.3849L14.1429 32.846V29.8896H13.6178V26.2866H15.7747V29.8896H15.2529V33.08C15.2511 33.2277 15.1907 33.3687 15.0851 33.472L8.29692 40.1689L10.0091 41.8811L18.7684 33.2406V29.9918H18.1945V26.0334H20.5616V29.9944H19.9831V33.499C19.983 33.5798 19.9669 33.6597 19.9358 33.7343C19.9047 33.8088 19.8592 33.8765 19.8019 33.9335L10.8722 42.7436L15.114 46.9854L31.4862 30.6146Z"
        fill="#A90019" />
    <path d="M5.79131 37.6634L5.78906 37.6611L5.79131 37.6634Z" fill="white" />
    <path d="M8.29551 40.1703L8.29679 40.169L7.93945 39.811L8.29551 40.1703Z" fill="white" />
    <path d="M10.0078 41.883L10.869 42.7481L10.8729 42.7442L10.0097 41.8811L10.0078 41.883Z" fill="white" />
    <path d="M15.1167 0.000244141V12.0875L39.6697 36.6862V24.5989L15.1167 0.000244141Z" fill="#A90019" />
    <path d="M28.3006 48.0002L39.6706 36.69V24.5989L16.2339 48.0002H28.3006Z" fill="#3B3839" />
</svg>