<svg width="52" height="48" viewBox="0 0 52 48" fill="none" xmlns="http://www.w3.org/2000/svg">
    <path
        d="M33.3974 32.3206L27.3501 38.368C26.4496 39.2684 25.2283 39.7742 23.9549 39.7742C22.6815 39.7742 21.4602 39.2684 20.5597 38.368L9.54365 27.3518C8.64328 26.4513 8.13747 25.23 8.13747 23.9566C8.13747 22.6831 8.64328 21.4618 9.54365 20.5613L20.5597 9.54512C21.4602 8.64474 22.6815 8.13892 23.9549 8.13892C25.2283 8.13892 26.4496 8.64474 27.3501 9.54512L33.3974 15.5933H41.5364L27.3501 1.40595C26.4496 0.50557 25.2283 -0.000244141 23.9549 -0.000244141C22.6815 -0.000244141 21.4602 0.50557 20.5597 1.40595L1.40617 20.5597C0.505808 21.4603 0 22.6815 0 23.955C0 25.2284 0.505808 26.4497 1.40617 27.3502L20.5597 46.504C21.4602 47.4044 22.6815 47.9102 23.9549 47.9102C25.2283 47.9102 26.4496 47.4044 27.3501 46.504L41.5364 32.3175L33.3974 32.3206Z"
        fill="#AE0018" />
    <path
        d="M59.6004 12.3569L47.2436 -0.00012207H30.6563L54.7055 24.0494L30.7549 47.9996H47.1522L59.6004 35.5504V12.3569Z"
        fill="#3C3839" />
    <path d="M54.7055 24.0494L59.6004 18.5576V12.3569L47.2436 -0.00012207H30.6563L54.7055 24.0494Z" fill="#AE0018" />
</svg>