<svg width="66" height="56" viewBox="0 0 66 56" fill="none" xmlns="http://www.w3.org/2000/svg">
    <path
        d="M65.5 38C65.5 47.9411 57.4411 56 47.5 56L20.5 56C17.7386 56 15.5 53.7614 15.5 51L15.5 17C15.5 11.4772 19.9772 7 25.5 7L60.5 7C63.2614 7 65.5 9.23858 65.5 12L65.5 38Z"
        fill="#FEDED7" />
    <path
        d="M19.416 17.3224H10.2979C10.219 17.3224 10.1433 17.3537 10.0874 17.4096C10.0316 17.4654 10.0002 17.5411 10.0002 17.6201V18.874C10.0002 18.953 10.0316 19.0287 10.0874 19.0845C10.1433 19.1404 10.219 19.1717 10.2979 19.1717H19.2471M24.1863 10.4582C25.734 9.52361 27.5466 8.98944 29.4763 9.00016C35.0484 9.03112 39.5589 13.5423 39.5898 19.1138C39.6089 22.5033 37.946 25.5319 35.3853 27.3984"
        stroke="#631503" stroke-width="0.952596" stroke-miterlimit="10" stroke-linecap="round"
        stroke-linejoin="round" />
    <path
        d="M19.3262 26.6483L20.2097 25.7648C20.6759 25.2992 20.7789 24.583 20.4657 24.0037C19.6655 22.5242 19.2214 20.8244 19.2482 19.0186C19.2902 16.1541 20.5291 13.5729 22.4811 11.748M21.9416 29.2638L22.8252 28.3803C23.2914 27.9147 24.007 27.8111 24.5869 28.1249C25.9294 28.8506 27.4536 29.2835 29.0736 29.3376M13.2538 31.4133L10.4359 34.2311C9.85469 34.8124 9.85469 35.7548 10.4359 36.3361L12.2541 38.1542C12.8353 38.7355 13.7778 38.7355 14.359 38.1542L21.1387 31.3746C21.2367 31.2766 21.3106 31.1571 21.3544 31.0256L21.9416 29.264L19.3262 26.6486L17.5647 27.2358C17.4331 27.2796 17.3136 27.3535 17.2156 27.4515L14.7479 29.9193M18.6723 28.6101L19.98 29.9179M30.343 17.848V17.6201C30.343 17.5411 30.3744 17.4654 30.4302 17.4096C30.4861 17.3537 30.5618 17.3224 30.6407 17.3224H31.8947C31.9736 17.3224 32.0494 17.3537 32.1052 17.4096C32.161 17.4654 32.1924 17.5411 32.1924 17.6201V18.608C32.1924 19.4301 32.8588 20.0965 33.6808 20.0965H36.7585C36.7963 19.7935 36.8158 19.4849 36.8158 19.1718C36.8158 18.8586 36.7963 18.55 36.7585 18.2471H34.3394C34.2604 18.2471 34.1847 18.2157 34.1289 18.1599C34.0731 18.1041 34.0417 18.0284 34.0417 17.9494V16.9614C34.0417 16.1394 33.3753 15.473 32.5533 15.473H29.982C29.16 15.473 28.4936 16.1394 28.4936 16.9614V20.7234C28.4936 20.8024 28.4622 20.8781 28.4064 20.9339C28.3506 20.9898 28.2748 21.0211 28.1959 21.0211H26.9419C26.8629 21.0211 26.7872 20.9898 26.7314 20.9339C26.6755 20.8781 26.6442 20.8024 26.6442 20.7234V18.8108C26.6442 17.9888 25.9778 17.3224 25.1558 17.3224H22.2538C22.0986 17.9266 22.0203 18.5479 22.0208 19.1717H24.4972C24.5761 19.1717 24.6518 19.2031 24.7077 19.2589C24.7635 19.3147 24.7948 19.3905 24.7948 19.4694V21.3821C24.7948 22.2041 25.4612 22.8705 26.2833 22.8705H28.8545C29.6766 22.8705 30.343 22.2041 30.343 21.3821V19.9913"
        stroke="#631503" stroke-width="0.952596" stroke-miterlimit="10" stroke-linecap="round"
        stroke-linejoin="round" />
    <path
        d="M33.9919 24.9854C35.4833 23.8113 36.5121 22.0752 36.7585 20.0962M22.0208 19.1716C22.0208 23.2571 25.3328 26.5691 29.4182 26.5691C29.8695 26.5691 30.3113 26.5286 30.7405 26.4506M22.2539 17.3224C23.0751 14.1317 25.9713 11.7742 29.4183 11.7742C33.1907 11.7742 36.3034 14.5979 36.7585 18.247"
        stroke="#631503" stroke-width="0.952596" stroke-miterlimit="10" stroke-linecap="round"
        stroke-linejoin="round" />
    <path
        d="M32.789 27.5256V29.375M32.0157 24.2417L27.6899 31.7341C27.3462 32.3295 27.7759 33.0737 28.4633 33.0737H37.1148C37.8022 33.0737 38.2319 32.3295 37.8882 31.7341L33.5624 24.2417C33.2187 23.6463 32.3594 23.6463 32.0157 24.2417Z"
        stroke="#631503" stroke-width="0.952596" stroke-miterlimit="10" stroke-linecap="round"
        stroke-linejoin="round" />
</svg>