<svg width="48" height="47" viewBox="0 0 48 47" fill="none" xmlns="http://www.w3.org/2000/svg">
    <path fill-rule="evenodd" clip-rule="evenodd"
        d="M0 33.8786L12.3031 46.1818L16.2189 42.266L3.91572 29.9629L0 33.8786ZM36.9433 18.1483C37.1963 18.2407 37.4543 18.3189 37.7161 18.3825V19.2296C37.7161 19.5634 37.9883 19.8356 38.322 19.8356H40.5728C40.9065 19.8356 41.1787 19.5634 41.1787 19.2296V18.3821C41.9067 18.205 42.6028 17.9164 43.2425 17.5265L43.8423 18.1263C44.0783 18.3623 44.4633 18.3623 44.6993 18.1263L46.2907 16.5348C46.5267 16.2988 46.5267 15.9138 46.2907 15.6778L45.6911 15.0782C46.0812 14.4384 46.3698 13.7422 46.5469 13.0142H47.394C47.7278 13.0142 48 12.742 48 12.4082V10.1575C48 9.82373 47.7278 9.55153 47.394 9.55153H46.5469C46.3698 8.8235 46.0812 8.12726 45.6911 7.48753L46.2906 6.88792C46.5266 6.65192 46.5266 6.26694 46.2906 6.03094L44.6992 4.43942C44.4632 4.20342 44.0782 4.20342 43.8422 4.43942L43.2423 5.03933C42.6026 4.64936 41.9065 4.36071 41.1785 4.18362V3.3361C41.1785 3.00235 40.9063 2.73015 40.5726 2.73015H38.3218C37.9881 2.73015 37.7159 3.00235 37.7159 3.3361V4.18323C37.4541 4.24689 37.1962 4.32506 36.9431 4.41737C37.1148 5.07279 36.9445 5.80001 36.4317 6.31279L36.2623 6.48216C36.3009 6.55982 36.3385 6.63796 36.3752 6.7165C37.2527 6.12499 38.3096 5.77962 39.4472 5.77962C42.4861 5.77962 44.9504 8.24392 44.9504 11.2829C44.9504 14.3218 42.4861 16.7861 39.4472 16.7861C38.3095 16.7861 37.2526 16.4407 36.3751 15.8492C36.3384 15.9277 36.3009 16.0059 36.2622 16.0835L36.4316 16.2529C36.9444 16.7657 37.1148 17.4929 36.943 18.1483H36.9433ZM43.7799 11.2829C43.7799 13.6756 41.8402 15.6153 39.4474 15.6153C38.5033 15.6167 37.5848 15.3084 36.8329 14.7376H37.0595C38.1459 14.7376 39.0296 13.8539 39.0296 12.7674V9.79826C39.0296 8.71182 38.1459 7.82811 37.0595 7.82811H36.8329C37.5848 7.25724 38.5033 6.94885 39.4474 6.95026C41.8402 6.95026 43.7799 8.88997 43.7799 11.2828V11.2829ZM6.60567 9.55153H5.75816C5.4244 9.55153 5.15221 9.82373 5.15221 10.1575V12.4082C5.15221 12.742 5.4244 13.0142 5.75816 13.0142H6.60567C6.78273 13.7421 7.07135 14.4383 7.46128 15.078L6.86148 15.6778C6.62548 15.9138 6.62548 16.2988 6.86148 16.5348L8.4529 18.1263C8.6889 18.3623 9.07387 18.3623 9.30987 18.1263L9.90948 17.5267C10.5492 17.9167 11.2455 18.2054 11.9735 18.3825V19.2296C11.9735 19.5634 12.2457 19.8356 12.5794 19.8356H14.8302C15.1639 19.8356 15.4361 19.5634 15.4361 19.2296V18.3821C15.6978 18.3185 15.9558 18.2403 16.2088 18.148C16.0372 17.4927 16.2076 16.7656 16.7203 16.253L16.89 16.0833C16.8514 16.0057 16.8139 15.9276 16.7772 15.8491C15.8997 16.4408 14.8426 16.7863 13.7048 16.7863C10.6659 16.7863 8.20158 14.322 8.20158 11.283C8.20158 8.24411 10.6659 5.77982 13.7048 5.77982C14.8426 5.77982 15.8998 6.12528 16.7773 6.71699C16.814 6.63845 16.8515 6.5604 16.8901 6.48274L16.7203 6.31299C16.2076 5.8003 16.0372 5.07328 16.2088 4.41796C15.9558 4.32556 15.6979 4.24739 15.4361 4.18381V3.3363C15.4361 3.00254 15.1639 2.73035 14.8302 2.73035H12.5794C12.2457 2.73035 11.9735 3.00254 11.9735 3.3363V4.18342C11.2455 4.3605 10.5492 4.64919 9.90948 5.03923L9.30987 4.43962C9.07387 4.20362 8.6889 4.20362 8.4529 4.43962L6.86148 6.03113C6.62548 6.26713 6.62548 6.65211 6.86148 6.88811L7.46138 7.48802C7.07141 8.12767 6.78276 8.8238 6.60567 9.55173V9.55153ZM16.3193 14.7376C15.5674 15.3084 14.6489 15.6168 13.7048 15.6153C11.312 15.6153 9.37231 13.6756 9.37231 11.2829C9.37231 8.89007 11.312 6.95036 13.7048 6.95036C14.6489 6.94895 15.5674 7.25734 16.3193 7.82821H16.0927C15.0063 7.82821 14.1227 8.71192 14.1227 9.79836V12.7675C14.1227 13.854 15.0064 14.7377 16.0927 14.7377H16.3193V14.7376ZM17.2108 8.99895C17.4444 8.03866 17.8252 7.12029 18.3395 6.2764L17.5481 5.48499C17.2368 5.17367 17.2368 4.66577 17.5481 4.35445L19.6476 2.25493C19.959 1.94361 20.4669 1.94361 20.7781 2.25493L21.5691 3.04586C22.4131 2.53133 23.3316 2.1505 24.292 1.91688V0.799319C24.292 0.359025 24.6512 0 25.0915 0H28.0606C28.5009 0 28.8601 0.359123 28.8601 0.799319V1.91737C29.8204 2.15097 30.7387 2.53173 31.5826 3.04615L32.374 2.25474C32.6853 1.94342 33.1932 1.94342 33.5046 2.25474L35.6041 4.35425C35.9154 4.66557 35.9154 5.17347 35.6041 5.48479L34.8131 6.27572C35.3277 7.1197 35.7085 8.03821 35.9421 8.99865H37.0596C37.4999 8.99865 37.859 9.35777 37.859 9.79807V12.7672C37.859 13.2075 37.4999 13.5667 37.0596 13.5667H35.9421C35.7085 14.5271 35.3277 15.4456 34.8131 16.2895L35.6042 17.0805C35.9155 17.3918 35.9155 17.8997 35.6042 18.2111L33.5047 20.3106C33.1933 20.6219 32.6854 20.6219 32.3741 20.3106L31.5829 19.5194C30.739 20.0337 29.8206 20.4144 28.8603 20.648V21.7661C28.8603 22.2064 28.5011 22.5655 28.0608 22.5655H25.0917C24.6514 22.5655 24.2922 22.2064 24.2922 21.7661V20.6485C23.3318 20.415 22.4133 20.0341 21.5694 19.5196L20.7784 20.3106C20.4671 20.6219 19.9593 20.6219 19.6479 20.3106L17.5484 18.2111C17.2371 17.8997 17.2371 17.3918 17.5484 17.0805L18.3396 16.2893C17.8253 15.4454 17.4445 14.527 17.211 13.5667H16.0929C15.6526 13.5667 15.2936 13.2075 15.2936 12.7672V9.79807C15.2936 9.35777 15.6527 8.99865 16.0929 8.99865H17.211L17.2108 8.99895ZM33.4074 11.2829C33.4074 7.51016 30.3488 4.45162 26.5761 4.45162C22.8033 4.45162 19.7447 7.51006 19.7447 11.2829C19.7447 15.0558 22.8033 18.1143 26.5761 18.1143C30.3488 18.1143 33.4074 15.0557 33.4074 11.2829ZM32.2366 11.2829C32.2366 8.15631 29.7027 5.62235 26.5761 5.62235C23.4494 5.62235 20.9155 8.15631 20.9155 11.2829C20.9155 14.4096 23.4494 16.9435 26.5761 16.9435C29.7027 16.9435 32.2366 14.4096 32.2366 11.2829ZM23.3545 11.5356L25.1545 13.9838C25.5256 14.4893 26.2684 14.4618 26.6227 13.968L29.7976 9.64978C30.0924 9.24753 30.0054 8.68246 29.6032 8.38763C29.2009 8.0928 28.6359 8.17982 28.341 8.58207L25.8828 11.9255L24.8111 10.4679C24.5162 10.0657 23.9512 9.97865 23.5489 10.2735C23.1467 10.5683 23.0597 11.1334 23.3545 11.5356ZM36.6451 28.5515L41.8233 22.9582C43.3851 21.2712 46.1409 23.5697 44.7889 25.434L37.7816 35.0961C36.3955 37.0074 34.4139 38.1121 32.0527 38.1121H18.4963C17.3607 38.1121 16.3831 38.5573 15.6374 39.4137L15.3511 39.7426L6.39172 30.7833L10.7939 26.4853C12.1009 25.2091 13.6576 24.5424 15.4843 24.5424H19.2343C20.4521 24.5424 21.4963 24.8222 22.5511 25.4311L23.7013 26.0952H32.8311C34.2955 26.0952 35.4936 27.2933 35.4936 28.7577C35.4936 29.4824 35.2388 30.0144 34.8141 30.5294L34.8026 30.5273C34.3141 31.0743 33.6044 31.4202 32.8177 31.4202H25.0474C24.8921 31.4202 24.7432 31.4818 24.6335 31.5916C24.5237 31.7014 24.462 31.8503 24.462 32.0055C24.462 32.1608 24.5237 32.3097 24.6335 32.4194C24.7432 32.5292 24.8921 32.5909 25.0474 32.5909H32.8177C35.0078 32.5909 36.765 30.7393 36.6453 28.5515H36.6451Z"
        fill="#F84018" />
</svg>