<svg width="48" height="48" viewBox="0 0 48 48" fill="none" xmlns="http://www.w3.org/2000/svg">
    <path
        d="M33.8824 4.81977V11.2941C33.8824 13.1767 31.0588 13.1767 31.0588 11.2941V4.81977L30.6452 5.23341C30.3789 5.49058 30.0223 5.63287 29.6521 5.62966C29.282 5.62644 28.9279 5.47797 28.6661 5.21621C28.4044 4.95446 28.2559 4.60037 28.2527 4.23021C28.2495 3.86005 28.3918 3.50344 28.6489 3.23718L31.4725 0.413647C31.7372 0.148982 32.0962 0.000301477 32.4706 0.000301477C32.8449 0.000301477 33.204 0.148982 33.4687 0.413647L36.2922 3.23718C36.5494 3.50344 36.6917 3.86005 36.6885 4.23021C36.6853 4.60037 36.5368 4.95446 36.275 5.21621C36.0133 5.47797 35.6592 5.62644 35.289 5.62966C34.9189 5.63287 34.5623 5.49058 34.296 5.23341L33.8824 4.81977ZM40.9412 7.88612V1.41176C40.9412 1.03734 41.0899 0.678254 41.3547 0.413496C41.6194 0.148739 41.9785 0 42.3529 0C42.7274 0 43.0865 0.148739 43.3512 0.413496C43.616 0.678254 43.7647 1.03734 43.7647 1.41176V7.88612L44.1784 7.47247C44.4446 7.21531 44.8012 7.07301 45.1714 7.07622C45.5415 7.07944 45.8956 7.22792 46.1574 7.48967C46.4191 7.75142 46.5676 8.10551 46.5708 8.47567C46.5741 8.84583 46.4318 9.20244 46.1746 9.46871L43.3511 12.2922C43.0863 12.5569 42.7273 12.7056 42.3529 12.7056C41.9786 12.7056 41.6196 12.5569 41.3548 12.2922L38.5313 9.46871C38.2741 9.20244 38.1318 8.84583 38.135 8.47567C38.1383 8.10551 38.2867 7.75142 38.5485 7.48967C38.8102 7.22792 39.1643 7.07944 39.5345 7.07622C39.9047 7.07301 40.2613 7.21531 40.5275 7.47247L40.9412 7.88612ZM29.6471 45.1765H31.7647V19.7647C31.7647 19.3903 31.9134 19.0312 32.1782 18.7664C32.443 18.5017 32.802 18.3529 33.1765 18.3529H41.6471C42.0215 18.3529 42.3806 18.5017 42.6453 18.7664C42.9101 19.0312 43.0588 19.3903 43.0588 19.7647V45.1765H46.5882C46.9627 45.1765 47.3217 45.3252 47.5865 45.59C47.8513 45.8547 48 46.2138 48 46.5882C48 46.9627 47.8513 47.3217 47.5865 47.5865C47.3217 47.8513 46.9627 48 46.5882 48H1.41176C1.03734 48 0.678254 47.8513 0.413496 47.5865C0.148739 47.3217 0 46.9627 0 46.5882C0 46.2138 0.148739 45.8547 0.413496 45.59C0.678254 45.3252 1.03734 45.1765 1.41176 45.1765H4.94118V35.2941C4.94118 34.9197 5.08992 34.5606 5.35467 34.2958C5.61943 34.0311 5.97852 33.8824 6.35294 33.8824H14.8235C15.198 33.8824 15.557 34.0311 15.8218 34.2958C16.0866 34.5606 16.2353 34.9197 16.2353 35.2941V45.1765H18.3529V28.9412C18.3529 28.5668 18.5017 28.2077 18.7664 27.9429C19.0312 27.6782 19.3903 27.5294 19.7647 27.5294H28.2353C28.6097 27.5294 28.9688 27.6782 29.2336 27.9429C29.4983 28.2077 29.6471 28.5668 29.6471 28.9412V45.1765Z"
        fill="#F84018" />
</svg>