<svg width="48" height="48" viewBox="0 0 48 48" fill="none" xmlns="http://www.w3.org/2000/svg">
    <path
        d="M39.1822 25.7525V22.2538C39.182 22.0784 39.1202 21.9087 39.0076 21.7743C38.895 21.6398 38.7387 21.5493 38.566 21.5184L36.1402 21.0865C35.8383 19.848 35.3584 18.6095 34.623 17.4717L36.0442 15.4383C36.1448 15.2944 36.1916 15.1196 36.1763 14.9447C36.161 14.7698 36.0846 14.6058 35.9606 14.4815L33.5099 12.0317C33.3858 11.9077 33.222 11.8313 33.0473 11.8159C32.8725 11.8005 32.6979 11.847 32.554 11.9473L30.5283 13.3615C29.3982 12.6416 28.152 12.1695 26.9212 11.8598L26.4824 9.42622C26.4513 9.2536 26.3606 9.09739 26.226 8.9849C26.0914 8.87241 25.9216 8.81081 25.7462 8.81085L22.2421 8.81704C22.0673 8.81748 21.8983 8.87911 21.7642 8.99124C21.6302 9.10338 21.5396 9.25892 21.5083 9.43087L21.0694 11.8521C19.8309 12.1617 18.6157 12.6648 17.4856 13.3692L15.4367 11.9334C15.2929 11.8326 15.1182 11.7858 14.9433 11.8009C14.7683 11.816 14.6043 11.8923 14.4799 12.0162L12.0262 14.463C11.9028 14.5863 11.8265 14.7489 11.8103 14.9227C11.7942 15.0964 11.8394 15.2703 11.938 15.4143L13.3599 17.4949C12.671 18.6173 12.1679 19.8093 11.8582 21.0633L9.42773 21.5084C9.25607 21.54 9.10089 21.6307 8.98906 21.7647C8.87724 21.8987 8.81582 22.0676 8.81546 22.2422L8.80927 25.7439C8.80927 26.1078 9.07012 26.4189 9.4285 26.4808L11.8745 26.9066C12.1686 28.1528 12.6787 29.368 13.3676 30.5214L11.9535 32.5471C11.853 32.6911 11.8065 32.866 11.8221 33.0409C11.8377 33.2158 11.9143 33.3797 12.0386 33.5038L14.4877 35.9537C14.612 36.0779 14.7761 36.1544 14.9512 36.1697C15.1263 36.185 15.3012 36.1381 15.4452 36.0373L17.4856 34.6091C18.6312 35.3213 19.8542 35.8321 21.1004 36.1263L21.5199 38.563C21.5819 38.9214 21.893 39.1838 22.2568 39.1838H25.7524C26.1155 39.1838 26.4258 38.9237 26.4885 38.5661L26.922 36.1185C28.1597 35.8089 29.375 35.3213 30.4981 34.6324L32.5555 36.0396C32.852 36.2424 33.2522 36.2052 33.5061 35.9506L35.9598 33.4968C36.0843 33.3727 36.1611 33.2087 36.1766 33.0336C36.1922 32.8585 36.1456 32.6835 36.045 32.5393L34.623 30.5067C35.3197 29.3766 35.8228 28.1536 36.1247 26.9151L38.5629 26.4894C38.9213 26.4267 39.1822 26.1163 39.1822 25.7525ZM29.2279 29.214C26.3407 32.1167 21.65 32.0935 18.7782 29.214C15.8988 26.3346 15.8756 21.6438 18.7705 18.7566C21.6345 15.8926 26.3407 15.8926 29.2202 18.7721C32.0996 21.6438 32.0996 26.35 29.2279 29.214Z"
        fill="#F84018" />
    <path
        d="M41.1019 40.0306L38.981 45.966C38.9522 46.0468 38.9015 46.1179 38.8347 46.1716C38.7678 46.2252 38.6873 46.2592 38.6022 46.2698C38.5172 46.2804 38.4308 46.2672 38.3528 46.2316C38.2748 46.196 38.2083 46.1394 38.1605 46.0682L36.9453 44.2538C36.8524 44.3157 36.7518 44.3777 36.6589 44.4318C36.5815 44.486 36.4963 44.5325 36.4112 44.5867C27.0607 50.2295 14.8152 48.7665 7.02826 40.9951C-0.80047 33.1586 -2.25104 20.7924 3.50092 11.4186C3.53389 11.3659 3.57699 11.3202 3.62773 11.2842C3.67846 11.2483 3.73583 11.2227 3.79651 11.209C3.85719 11.1953 3.91997 11.1938 3.98124 11.2046C4.04251 11.2153 4.10104 11.2381 4.15345 11.2716L7.35336 13.3228C7.21404 13.5395 7.08245 13.7563 6.95086 13.973C2.44589 21.6438 3.69211 31.6058 10.0548 37.9608C16.5413 44.4473 26.8284 45.5929 34.5535 40.7009L33.942 39.7914C33.894 39.7201 33.8668 39.6368 33.8635 39.5509C33.8602 39.465 33.8808 39.3798 33.9232 39.305C33.9655 39.2302 34.0279 39.1687 34.1033 39.1273C34.1786 39.0859 34.264 39.0663 34.3499 39.0708L38.4856 39.2922L40.6917 39.4129C41.0013 39.4299 41.2064 39.7396 41.1019 40.0306ZM43.8598 36.7161L41.0051 34.8925C40.9083 34.8299 40.84 34.7318 40.8148 34.6193C40.7896 34.5068 40.8096 34.3889 40.8705 34.291C45.5581 26.5892 44.3715 16.4654 37.9616 10.0555C31.441 3.53496 21.0951 2.3971 13.3499 7.34328L14.1526 8.60111C14.1988 8.6735 14.2239 8.75732 14.2252 8.84318C14.2265 8.92905 14.2038 9.01357 14.1598 9.08731C14.1158 9.16104 14.0521 9.22108 13.976 9.2607C13.8998 9.30033 13.8141 9.31798 13.7284 9.31168L7.43851 8.84416C7.3666 8.83886 7.29693 8.81684 7.23504 8.77985C7.17315 8.74286 7.12075 8.69192 7.08204 8.6311C7.04332 8.57028 7.01934 8.50125 7.01202 8.42952C7.0047 8.35779 7.01424 8.28534 7.03987 8.21795L9.27378 2.32821C9.3042 2.24784 9.3564 2.17753 9.42453 2.12514C9.49266 2.07276 9.57402 2.04037 9.65951 2.03161C9.745 2.02286 9.83124 2.03807 9.90858 2.07555C9.98591 2.11304 10.0513 2.17131 10.0974 2.24384L11.0479 3.74008C20.4611 -2.29286 33.058 -0.906537 40.9912 7.02669C48.7991 14.843 50.238 27.1969 44.4845 36.5745C44.4529 36.625 44.4116 36.6687 44.3629 36.7032C44.3143 36.7377 44.2594 36.7622 44.2013 36.7754C44.1431 36.7886 44.083 36.7901 44.0242 36.7799C43.9655 36.7698 43.9102 36.7481 43.8598 36.7161Z"
        fill="#F84018" />
    <path
        d="M39.1822 25.7525V22.2538C39.182 22.0784 39.1202 21.9087 39.0076 21.7743C38.895 21.6398 38.7387 21.5493 38.566 21.5184L36.1402 21.0865C35.8383 19.848 35.3584 18.6095 34.623 17.4717L36.0442 15.4383C36.1448 15.2944 36.1916 15.1196 36.1763 14.9447C36.161 14.7698 36.0846 14.6058 35.9606 14.4815L33.5099 12.0317C33.3858 11.9077 33.222 11.8313 33.0473 11.8159C32.8725 11.8005 32.6979 11.847 32.554 11.9473L30.5283 13.3615C29.3982 12.6416 28.152 12.1695 26.9212 11.8598L26.4824 9.42622C26.4513 9.2536 26.3606 9.09739 26.226 8.9849C26.0914 8.87241 25.9216 8.81081 25.7462 8.81085L22.2421 8.81704C22.0673 8.81748 21.8983 8.87911 21.7642 8.99124C21.6302 9.10338 21.5396 9.25892 21.5083 9.43087L21.0694 11.8521C19.8309 12.1617 18.6157 12.6648 17.4856 13.3692L15.4367 11.9334C15.2929 11.8326 15.1182 11.7858 14.9433 11.8009C14.7683 11.816 14.6043 11.8923 14.4799 12.0162L12.0262 14.463C11.9028 14.5863 11.8265 14.7489 11.8103 14.9227C11.7942 15.0964 11.8394 15.2703 11.938 15.4143L13.3599 17.4949C12.671 18.6173 12.1679 19.8093 11.8582 21.0633L9.42773 21.5084C9.25607 21.54 9.10089 21.6307 8.98906 21.7647C8.87724 21.8987 8.81582 22.0676 8.81546 22.2422L8.80927 25.7439C8.80927 26.1078 9.07012 26.4189 9.4285 26.4808L11.8745 26.9066C12.1686 28.1528 12.6787 29.368 13.3676 30.5214L11.9535 32.5471C11.853 32.6911 11.8065 32.866 11.8221 33.0409C11.8377 33.2158 11.9143 33.3797 12.0386 33.5038L14.4877 35.9537C14.612 36.0779 14.7761 36.1544 14.9512 36.1697C15.1263 36.185 15.3012 36.1381 15.4452 36.0373L17.4856 34.6091C18.6312 35.3213 19.8542 35.8321 21.1004 36.1263L21.5199 38.563C21.5819 38.9214 21.893 39.1838 22.2568 39.1838H25.7524C26.1155 39.1838 26.4258 38.9237 26.4885 38.5661L26.922 36.1185C28.1597 35.8089 29.375 35.3213 30.4981 34.6324L32.5555 36.0396C32.852 36.2424 33.2522 36.2052 33.5061 35.9506L35.9598 33.4968C36.0843 33.3727 36.1611 33.2087 36.1766 33.0336C36.1922 32.8585 36.1456 32.6835 36.045 32.5393L34.623 30.5067C35.3197 29.3766 35.8228 28.1536 36.1247 26.9151L38.5629 26.4894C38.9213 26.4267 39.1822 26.1163 39.1822 25.7525ZM29.2279 29.214C26.3407 32.1167 21.65 32.0935 18.7782 29.214C15.8988 26.3346 15.8756 21.6438 18.7705 18.7566C21.6345 15.8926 26.3407 15.8926 29.2202 18.7721C32.0996 21.6438 32.0996 26.35 29.2279 29.214Z"
        fill="#F84018" />
    <path
        d="M41.0988 40.0283L38.9803 45.9637C38.9515 46.0444 38.9008 46.1156 38.8339 46.1693C38.767 46.2229 38.6866 46.2569 38.6015 46.2675C38.5164 46.2781 38.4301 46.2649 38.3521 46.2293C38.2741 46.1936 38.2075 46.1371 38.1598 46.0659L36.943 44.2523C27.5305 50.286 14.9584 48.9167 7.02597 40.992C-0.803537 33.1547 -2.25333 20.7932 3.50405 11.4179C3.53702 11.3652 3.58008 11.3196 3.63075 11.2837C3.68143 11.2478 3.73871 11.2223 3.79929 11.2086C3.85988 11.1949 3.92257 11.1934 3.98376 11.2041C4.04495 11.2147 4.10342 11.2374 4.1558 11.2708L6.60721 12.8475C7.02133 13.113 7.13666 13.6541 6.89051 14.0798C2.45753 21.7313 3.72697 31.6353 10.0548 37.9623C16.5414 44.4489 26.8285 45.596 34.5558 40.7009L33.9443 39.7937C33.8965 39.7224 33.8695 39.6391 33.8663 39.5532C33.8631 39.4674 33.8839 39.3823 33.9263 39.3076C33.9688 39.2329 34.0311 39.1714 34.1065 39.1302C34.1818 39.0889 34.2672 39.0694 34.353 39.0739L40.6878 39.4098C40.9974 39.4268 41.2033 39.7365 41.0988 40.0283ZM43.8599 36.7161L41.0052 34.8925C40.9084 34.8299 40.84 34.7318 40.8148 34.6193C40.7896 34.5068 40.8096 34.3889 40.8705 34.291C45.5581 26.5892 44.3715 16.4654 37.9616 10.0555C31.441 3.53496 21.0951 2.3971 13.3499 7.34328L14.1526 8.60111C14.1988 8.6735 14.224 8.75732 14.2252 8.84319C14.2265 8.92905 14.2039 9.01357 14.1599 9.08731C14.1158 9.16104 14.0522 9.22108 13.976 9.26071C13.8998 9.30033 13.8141 9.31798 13.7285 9.31169L7.43854 8.84416C7.36663 8.83886 7.29696 8.81684 7.23507 8.77985C7.17318 8.74286 7.12078 8.69192 7.08206 8.6311C7.04334 8.57028 7.01937 8.50125 7.01205 8.42952C7.00473 8.35779 7.01427 8.28535 7.0399 8.21795L9.27381 2.32821C9.30423 2.24784 9.35643 2.17753 9.42456 2.12514C9.49268 2.07276 9.57405 2.04037 9.65954 2.03161C9.74503 2.02286 9.83127 2.03807 9.9086 2.07555C9.98594 2.11304 10.0513 2.17131 10.0974 2.24384L11.0479 3.74008C20.4611 -2.29286 33.058 -0.906537 40.9912 7.02669C48.7991 14.843 50.238 27.1969 44.4845 36.5745C44.4529 36.625 44.4116 36.6687 44.363 36.7032C44.3144 36.7377 44.2594 36.7622 44.2013 36.7754C44.1431 36.7886 44.083 36.7901 44.0243 36.7799C43.9655 36.7698 43.9102 36.7481 43.8599 36.7161Z"
        fill="#F84018" />
</svg>