<svg width="32" height="48" viewBox="0 0 32 48" fill="none" xmlns="http://www.w3.org/2000/svg">
    <path
        d="M31.9141 15.4688C31.9141 6.93928 24.9735 0 16.4453 0C7.91716 0 0.976562 6.93928 0.976562 15.4688C0.976562 18.5298 1.87469 21.4934 3.57212 24.0395L15.2753 41.5627C15.5362 41.9527 15.9757 42.1875 16.4453 42.1875C16.9149 42.1875 17.3544 41.9527 17.6153 41.5627L29.3185 24.0381C31.0159 21.4934 31.9141 18.5298 31.9141 15.4688ZM16.4453 22.5C15.6687 22.5 15.0391 21.8704 15.0391 21.0938C15.0391 20.3169 15.6687 19.6875 16.4453 19.6875C17.2219 19.6875 17.8516 20.3169 17.8516 21.0938C17.8516 21.8704 17.2219 22.5 16.4453 22.5ZM21.4166 18.1123C20.8616 18.6645 19.9688 18.6558 19.4253 18.1096C17.8378 16.5166 15.0527 16.5166 13.4653 18.1096C12.916 18.6617 12.0233 18.6589 11.474 18.1123C10.9248 17.5643 10.9248 16.6731 11.4713 16.1238C14.1245 13.4651 18.7662 13.4651 21.4194 16.1238C21.966 16.6732 21.966 17.5644 21.4166 18.1123ZM25.3909 14.1367C24.8417 14.6859 23.9518 14.686 23.4024 14.1367C19.678 10.4151 13.2126 10.4151 9.48822 14.1367C8.93894 14.6859 8.04897 14.6859 7.49969 14.1367C6.95041 13.5874 6.95041 12.6961 7.49969 12.1481C9.89472 9.7545 13.0697 8.4375 16.4453 8.4375C19.8209 8.4375 22.9959 9.7545 25.3909 12.1481C25.9402 12.6961 25.9402 13.5874 25.3909 14.1367ZM26.2891 46.5938C26.2891 45.8165 25.6601 45.1875 24.8828 45.1875H8.00781C7.23053 45.1875 6.60156 45.8165 6.60156 46.5938C6.60156 47.371 7.23053 48 8.00781 48H24.8828C25.6601 48 26.2891 47.371 26.2891 46.5938Z"
        fill="#F84018" />
</svg>