<svg width="48" height="34" viewBox="0 0 48 34" fill="none" xmlns="http://www.w3.org/2000/svg">
    <path
        d="M45.8507 3.59206C44.1791 5.50251 41.5522 5.50251 39.8806 3.59206C38.209 1.44281 35.8209 0.248779 33.4328 0.248779C31.0448 0.248779 28.6567 1.44281 26.7463 3.59206C25.0746 5.50251 22.4478 5.50251 20.7761 3.59206C19.1045 1.44281 16.7164 0.248779 14.3284 0.248779C11.9403 0.248779 9.55224 1.44281 7.64179 3.59206C5.97015 5.50251 3.34328 5.50251 1.67164 3.59206L0 1.44281V8.36818C1.43284 9.32341 3.10448 9.80102 4.77612 9.80102C7.16418 9.80102 9.55224 8.60699 11.4627 6.45773C13.1343 4.54729 15.7612 4.54729 17.4328 6.45773C18.8657 8.60699 21.2537 9.80102 23.8806 9.80102C26.5075 9.80102 28.6567 8.60699 30.5672 6.45773C32.2388 4.54729 34.8657 4.54729 36.5373 6.45773C37.9701 8.60699 40.3582 9.80102 42.9851 9.80102C44.6567 9.80102 46.3284 9.32341 47.7612 8.12938V1.204L45.8507 3.59206ZM40.1194 15.5324C38.209 13.3831 35.8209 12.1891 33.4328 12.1891C31.0448 12.1891 28.6567 13.3831 26.7463 15.5324C25.0746 17.4428 22.4478 17.4428 20.7761 15.5324C19.1045 13.3831 16.7164 12.1891 14.3284 12.1891C11.9403 12.1891 9.55224 13.3831 7.64179 15.5324C5.97015 17.4428 3.34328 17.4428 1.67164 15.5324L0 13.3831V20.3085C1.43284 21.2637 3.10448 21.7413 4.77612 21.7413C7.40299 21.7413 9.55224 20.5473 11.4627 18.398C13.1343 16.4876 15.7612 16.4876 17.4328 18.398C18.8657 20.5473 21.2537 21.7413 23.8806 21.7413C26.5075 21.7413 28.6567 20.5473 30.5672 18.398C32.2388 16.4876 34.8657 16.4876 36.5373 18.398C38.209 20.5473 40.597 21.7413 43.2239 21.7413C44.8955 21.7413 46.5672 21.2637 48 20.0697V13.1443L46.0896 15.5324C44.1791 17.4428 41.5522 17.4428 40.1194 15.5324ZM40.1194 27.4727C38.209 25.3234 35.8209 24.1294 33.4328 24.1294C31.0448 24.1294 28.6567 25.3234 26.7463 27.4727C25.0746 29.3831 22.4478 29.3831 20.7761 27.4727C19.1045 25.3234 16.7164 24.1294 14.3284 24.1294C11.9403 24.1294 9.55224 25.3234 7.64179 27.4727C5.97015 29.3831 3.34328 29.3831 1.67164 27.4727L0 25.3234V32.2488C1.43284 33.204 3.10448 33.6816 4.77612 33.6816C7.40299 33.6816 9.55224 32.4876 11.4627 30.3383C13.1343 28.4279 15.7612 28.4279 17.4328 30.3383C18.8657 32.4876 21.2537 33.6816 23.8806 33.6816C26.5075 33.6816 28.6567 32.4876 30.5672 30.3383C32.2388 28.4279 34.8657 28.4279 36.5373 30.3383C38.209 32.4876 40.597 33.6816 43.2239 33.6816C44.8955 33.6816 46.5672 33.204 48 32.01V25.0846L46.0896 27.4727C44.1791 29.3831 41.5522 29.3831 40.1194 27.4727Z"
        fill="#F84018" />
</svg>