<svg width="49" height="31" viewBox="0 0 49 31" fill="none" xmlns="http://www.w3.org/2000/svg">
    <path
        d="M17.7518 27.3621L26.2855 1.76115C26.5291 1.11575 27.0131 0.589705 27.6361 0.29323C28.259 -0.00324622 28.9725 -0.0471444 29.627 0.170735C30.2816 0.388615 30.8264 0.851364 31.1474 1.46202C31.4683 2.07268 31.5405 2.78386 31.3488 3.44654L22.8151 29.0475C22.5714 29.6929 22.0874 30.2189 21.4645 30.5154C20.8416 30.8119 20.1281 30.8558 19.4736 30.6379C18.819 30.42 18.2742 29.9573 17.9532 29.3466C17.6323 28.7359 17.5601 28.0248 17.7518 27.3621Z"
        fill="#F84018" />
    <path
        d="M42.1118 15.4043L35.4662 8.75518C35.2188 8.5077 35.0225 8.21391 34.8885 7.89056C34.7546 7.56721 34.6857 7.22066 34.6857 6.87067C34.6857 6.52068 34.7546 6.17412 34.8885 5.85077C35.0225 5.52743 35.2188 5.23363 35.4662 4.98615C35.7137 4.73867 36.0075 4.54237 36.3309 4.40843C36.6542 4.2745 37.0008 4.20556 37.3508 4.20556C37.7008 4.20556 38.0473 4.2745 38.3707 4.40843C38.694 4.54237 38.9878 4.73867 39.2353 4.98615L47.7689 13.5198C48.0166 13.7672 48.2131 14.0609 48.3472 14.3843C48.4813 14.7076 48.5503 15.0543 48.5503 15.4043C48.5503 15.7544 48.4813 16.101 48.3472 16.4244C48.2131 16.7477 48.0166 17.0415 47.7689 17.2888L39.2353 25.8225C38.9878 26.07 38.694 26.2663 38.3707 26.4002C38.0473 26.5341 37.7008 26.6031 37.3508 26.6031C37.0008 26.6031 36.6542 26.5341 36.3309 26.4002C36.0075 26.2663 35.7137 26.07 35.4662 25.8225C35.2188 25.575 35.0225 25.2812 34.8885 24.9578C34.7546 24.6345 34.6857 24.2879 34.6857 23.938C34.6857 23.588 34.7546 23.2414 34.8885 22.9181C35.0225 22.5947 35.2188 22.3009 35.4662 22.0534L42.1118 15.4043Z"
        fill="#F84018" />
    <path
        d="M1.33167 13.5198L9.86531 4.98615C10.1128 4.73867 10.4066 4.54237 10.7299 4.40843C11.0533 4.2745 11.3998 4.20556 11.7498 4.20556C12.0998 4.20556 12.4464 4.2745 12.7697 4.40843C13.0931 4.54237 13.3869 4.73867 13.6343 4.98615C13.8818 5.23363 14.0781 5.52743 14.2121 5.85077C14.346 6.17412 14.4149 6.52068 14.4149 6.87067C14.4149 7.22066 14.346 7.56721 14.2121 7.89056C14.0781 8.21391 13.8818 8.5077 13.6343 8.75518L6.98876 15.4043L13.6343 22.0534C13.8818 22.3009 14.0781 22.5947 14.2121 22.9181C14.346 23.2414 14.4149 23.588 14.4149 23.938C14.4149 24.2879 14.346 24.6345 14.2121 24.9578C14.0781 25.2812 13.8818 25.575 13.6343 25.8225C13.3869 26.07 13.0931 26.2663 12.7697 26.4002C12.4464 26.5341 12.0998 26.6031 11.7498 26.6031C11.3998 26.6031 11.0533 26.5341 10.7299 26.4002C10.4066 26.2663 10.1128 26.07 9.86531 25.8225L1.33167 17.2888C1.08397 17.0415 0.887457 16.7477 0.753381 16.4244C0.619305 16.101 0.550293 15.7544 0.550293 15.4043C0.550293 15.0543 0.619305 14.7076 0.753381 14.3843C0.887457 14.0609 1.08397 13.7672 1.33167 13.5198Z"
        fill="#F84018" />
</svg>