<svg width="25" height="24" viewBox="0 0 24 24" fill="none" xmlns="http://www.w3.org/2000/svg">
    <path
        d="M12 0C5.37247 0 0 5.37247 0 12C0 18.6275 5.37247 24 12 24C18.6275 24 24 18.6275 24 12C23.9923 5.3758 18.6241 0.00787498 12 0Z"
        fill="#F5F7FA" />
    <path
        d="M16.2442 12.2924L16.1429 12.341C14.6744 13.0754 13.0754 14.6746 12.341 16.1429L12.2924 16.2442C12.0151 16.799 11.762 16.8993 11.6816 16.8962C11.6016 16.8922 11.3584 16.7754 11.1279 16.1995L8.25458 9.01177C8.13878 8.72208 8.10012 8.4934 8.10405 8.35217C8.10797 8.21115 8.13878 8.17476 8.15698 8.15698C8.17455 8.13878 8.21095 8.10797 8.35217 8.10405C8.4934 8.10032 8.72229 8.13878 9.01156 8.25478L16.1995 11.1279C16.7752 11.3584 16.8922 11.6016 16.8959 11.6816C16.8993 11.762 16.799 12.0151 16.2442 12.2924ZM16.6065 10.1023L9.42242 7.2292C9.03307 7.07309 8.6675 6.99141 8.31971 7.00072C7.97171 7.01064 7.62434 7.12602 7.37518 7.37518C7.12581 7.62434 7.01064 7.97171 7.00072 8.31971C6.99141 8.6677 7.07309 9.03307 7.22899 9.42242L10.1023 16.6065C10.4155 17.3895 10.9327 17.9695 11.6369 17.9989C12.3414 18.028 12.9001 17.4948 13.2772 16.7411L13.3302 16.6352C13.9042 15.4866 15.4866 13.9042 16.6352 13.3302L16.7411 13.2772C17.4948 12.9001 18.028 12.3414 17.9987 11.6369C17.9695 10.9327 17.3895 10.4155 16.6065 10.1023Z"
        fill="#263238" />
</svg>