<svg width="25" height="24" viewBox="0 0 25 24" fill="none" xmlns="http://www.w3.org/2000/svg">
    <path
        d="M12.4939 13.1485C12.4171 13.1826 12.334 13.2002 12.2501 13.2002C12.1661 13.2002 12.083 13.1826 12.0063 13.1485L7.45001 11.1235V15.0001C7.45057 15.3312 7.71884 15.5996 8.05006 15.6001H16.4501C16.7811 15.5996 17.0494 15.3312 17.0501 15.0001V11.1235L12.4939 13.1485Z"
        fill="#F5F7FA" />
    <path
        d="M12.25 11.9437L17.0501 9.80995V8.9999C17.0494 8.66882 16.7811 8.40037 16.4501 8.3999H8.04989C7.71886 8.40037 7.45059 8.66887 7.44989 8.9999V9.80995L12.25 11.9437Z"
        fill="#F5F7FA" />
    <path
        d="M12.25 0C5.62247 0 0.25 5.37247 0.25 12C0.25 18.6275 5.62247 24 12.25 24C18.8775 24 24.25 18.6275 24.25 12C24.2423 5.3758 18.8741 0.00787498 12.25 0ZM18.25 15C18.2489 15.9937 17.4436 16.799 16.4501 16.8001H8.04989C7.05638 16.799 6.25107 15.9937 6.24999 15V8.99998C6.25107 8.00623 7.05638 7.20097 8.04989 7.19989H16.4501C17.4436 7.20092 18.2489 8.00623 18.25 8.99998V15Z"
        fill="#F5F7FA" />
</svg>