<svg width="25" height="24" viewBox="0 0 512 512" fill="none" xmlns="http://www.w3.org/2000/svg">
    <path
        d="M256 0C114.62 0 0 114.62 0 256C0 397.38 114.62 512 256 512C397.38 512 512 397.38 512 256C512 114.62 397.38 0 256 0Z"
        fill="#F5F7FA" />
    <path
        d="M296.401 291.623L296.422 291.607L296.443 291.59C303.481 286.095 312.128 283.07 321.051 282.977C337.588 283.877 347.506 289.985 353.399 297.233C359.544 304.79 362.179 314.669 361.972 324.066C361.447 345.767 347.408 365.267 323.302 365.291C318.425 365.248 313.571 364.604 308.851 363.375C288.789 357.286 263.028 343.005 238.354 323.736L238.353 323.736C212.35 303.435 191.65 280.941 179.771 260.711C179.77 260.71 179.77 260.709 179.769 260.708L166.026 237.247L166.014 237.226L166.002 237.205C148.09 206.944 146.35 182.527 155.412 166.635L155.414 166.632C162.32 154.51 175.982 146.627 191.343 146.627H191.395L191.447 146.626C200.905 146.534 210.059 149.961 217.132 156.239C224.723 163.143 230.118 174.101 231.788 188.964C231.534 198.572 227.928 207.796 221.584 215.033L221.578 215.04L221.572 215.047C218.921 218.081 217.17 221.796 216.516 225.772C215.862 229.747 216.331 233.825 217.87 237.548C223.249 250.594 240.367 284.778 277.207 295.302C280.47 296.237 283.908 296.392 287.243 295.753C290.577 295.114 293.714 293.699 296.401 291.623Z"
        stroke="#263238" stroke-width="21.3333" />
</svg>