<svg width="25" height="24" viewBox="0 0 25 24" fill="none" xmlns="http://www.w3.org/2000/svg">
    <g clip-path="url(#clip0_634_84)">
        <path
            d="M12.75 0C6.12258 0 0.75 5.37258 0.75 12C0.75 18.6274 6.12258 24 12.75 24C19.3774 24 24.75 18.6274 24.75 12C24.75 5.37258 19.3774 0 12.75 0Z"
            fill="#F5F7FA" />
        <path
            d="M9.47764 9.81832C10.0801 9.81832 10.5686 9.3299 10.5686 8.7274C10.5686 8.1249 10.0801 7.63647 9.47764 7.63647C8.87514 7.63647 8.38672 8.1249 8.38672 8.7274C8.38672 9.3299 8.87514 9.81832 9.47764 9.81832Z"
            fill="#263238" />
        <path d="M8.38672 10.3635H10.5685V16.3635H8.38672V10.3635Z" fill="#263238" />
        <path
            d="M15.6737 10.3635C14.0373 10.3635 13.841 11.3344 13.841 11.3344V10.3635H11.6592V16.3635H13.841V13.0908C13.841 13.0908 13.841 11.9999 14.7683 11.9999C15.3137 11.9999 15.4773 12.4853 15.4773 13.0908V16.3635H17.6591V13.0908C17.6591 11.3835 16.9173 10.3635 15.6737 10.3635Z"
            fill="#263238" />
    </g>
    <defs>
        <clipPath id="clip0_634_84">
            <rect width="24" height="24" fill="white" transform="translate(0.75)" />
        </clipPath>
    </defs>
</svg>