<svg width="25" height="24" viewBox="0 0 512 512" fill="none" xmlns="http://www.w3.org/2000/svg">
    <g clip-path="url(#clip0_633_3258)">
        <path
            d="M255.999 0C114.613 0 0 114.613 0 255.999C0 397.386 114.613 511.999 255.999 511.999C397.386 511.999 511.999 397.386 511.999 255.999C511.835 114.684 397.315 0.168 255.999 0Z"
            fill="#F5F7FA" />
        <mask id="path-2-inside-1_633_3258" fill="white">
            <path
                d="M327.139 171.839C311.602 145.027 284.006 128.646 253.319 128.02C252.009 127.993 250.69 127.993 249.38 128.02C218.693 128.646 191.097 145.027 175.56 171.839C159.679 199.245 159.244 232.165 174.397 259.9L237.879 376.094C237.907 376.145 237.936 376.197 237.965 376.248C240.758 381.102 245.762 384 251.35 384C256.938 384 261.942 381.102 264.734 376.248C264.764 376.197 264.792 376.145 264.821 376.094L328.302 259.9C343.454 232.165 343.02 199.245 327.139 171.839Z" />
        </mask>
        <path
            d="M327.139 171.839L307.002 183.507L307.003 183.507L327.139 171.839ZM253.319 128.02L252.839 151.288L252.844 151.288L253.319 128.02ZM249.38 128.02L249.855 151.288L249.859 151.288L249.38 128.02ZM175.56 171.839L155.424 160.17L155.424 160.17L175.56 171.839ZM174.397 259.9L153.974 271.058L153.974 271.058L174.397 259.9ZM237.879 376.094L217.455 387.252L217.486 387.307L217.516 387.362L237.879 376.094ZM237.965 376.248L258.138 364.642L258.124 364.618L258.111 364.595L237.965 376.248ZM264.734 376.248L244.589 364.595L244.575 364.619L244.562 364.642L264.734 376.248ZM264.821 376.094L285.183 387.362L285.214 387.307L285.244 387.252L264.821 376.094ZM328.302 259.9L348.726 271.058L348.726 271.058L328.302 259.9ZM347.275 160.17C327.709 126.405 292.707 105.546 253.794 104.752L252.844 151.288C275.306 151.746 295.495 163.648 307.002 183.507L347.275 160.17ZM253.798 104.752C252.169 104.719 250.53 104.719 248.9 104.752L249.859 151.288C250.85 151.268 251.849 151.268 252.839 151.288L253.798 104.752ZM248.905 104.752C209.992 105.546 174.99 126.405 155.424 160.17L195.696 183.507C207.204 163.648 227.393 151.746 249.855 151.288L248.905 104.752ZM155.424 160.17C135.477 194.593 134.912 236.167 153.974 271.058L194.821 248.742C183.577 228.162 183.881 203.896 195.696 183.507L155.424 160.17ZM153.974 271.058L217.455 387.252L258.302 364.935L194.821 248.742L153.974 271.058ZM217.516 387.362C217.525 387.378 217.661 387.625 217.82 387.9L258.111 364.595C258.169 364.695 258.212 364.772 258.232 364.807C258.249 364.837 258.261 364.86 258.242 364.825L217.516 387.362ZM217.793 387.853C224.728 399.906 237.412 407.273 251.35 407.273V360.727C254.111 360.727 256.789 362.298 258.138 364.642L217.793 387.853ZM251.35 407.273C265.289 407.273 277.974 399.905 284.907 387.853L244.562 364.642C245.91 362.298 248.588 360.727 251.35 360.727V407.273ZM284.88 387.9C285.038 387.626 285.173 387.381 285.183 387.362L244.458 364.825C244.439 364.859 244.452 364.836 244.469 364.806C244.489 364.77 244.532 364.694 244.589 364.595L284.88 387.9ZM285.244 387.252L348.726 271.058L307.879 248.742L244.397 364.935L285.244 387.252ZM348.726 271.058C367.787 236.167 367.222 194.593 347.275 160.17L307.003 183.507C318.817 203.896 319.121 228.163 307.879 248.743L348.726 271.058Z"
            fill="#263238" mask="url(#path-2-inside-1_633_3258)" />
        <path
            d="M251.352 232.364C237.928 232.364 226.988 221.424 226.988 208C226.988 194.576 237.928 183.636 251.352 183.636C264.775 183.636 275.715 194.576 275.715 208C275.715 221.424 264.776 232.364 251.352 232.364Z"
            stroke="#263238" stroke-width="23.2727" />
    </g>
    <defs>
        <clipPath id="clip0_633_3258">
            <rect width="512" height="512" fill="white" />
        </clipPath>
    </defs>
</svg>