<svg width="24" height="48" viewBox="0 0 24 48" fill="none" xmlns="http://www.w3.org/2000/svg">
    <path
        d="M20.5672 27.6082V8.56873C20.5672 3.83645 16.7309 0 11.9984 0C7.26601 0 3.4297 3.8363 3.4297 8.56873V27.6083C-1.20705 32.3406 -1.12959 39.9357 3.60284 44.5725C8.33527 49.2093 15.9303 49.1318 20.567 44.3994C25.1371 39.7351 25.1371 32.2724 20.5672 27.6082ZM11.9984 41.1296C9.16603 41.1365 6.86436 38.8459 6.85765 36.0135C6.85508 34.9494 7.18358 33.9108 7.79763 33.0417C8.41167 32.1727 9.28085 31.5161 10.2847 31.1631V20.5648C10.2847 19.6184 11.052 18.8511 11.9984 18.8511C12.9449 18.8511 13.7122 19.6184 13.7122 20.5648V31.1631C16.3842 32.1028 17.7885 35.0306 16.8488 37.7026C16.4958 38.7064 15.8392 39.5756 14.9702 40.1896C14.1011 40.8037 13.0625 41.1322 11.9984 41.1296Z"
        fill="#F84018" />
</svg>