<svg width="48" height="48" viewBox="0 0 48 48" fill="none" xmlns="http://www.w3.org/2000/svg">
    <path
        d="M1.60307 9.60068C2.02736 9.60068 2.43427 9.43213 2.73429 9.13212C3.0343 8.8321 3.20285 8.42519 3.20285 8.0009V3.20157H8.00219C8.42647 3.20157 8.83338 3.03302 9.1334 2.73301C9.43342 2.43299 9.60196 2.02608 9.60196 1.60179C9.60196 1.1775 9.43342 0.770595 9.1334 0.470578C8.83338 0.170562 8.42647 0.00201416 8.00219 0.00201416H1.60307C1.17879 0.00201416 0.771877 0.170562 0.47186 0.470578C0.171843 0.770595 0.0032959 1.1775 0.0032959 1.60179V8.0009C0.0032959 8.42519 0.171843 8.8321 0.47186 9.13212C0.771877 9.43213 1.17879 9.60068 1.60307 9.60068ZM39.9977 3.20157H44.7971V8.0009C44.7971 8.42519 44.9656 8.8321 45.2656 9.13212C45.5657 9.43213 45.9726 9.60068 46.3969 9.60068C46.8211 9.60068 47.2281 9.43213 47.5281 9.13212C47.8281 8.8321 47.9966 8.42519 47.9966 8.0009V1.60179C47.9966 1.1775 47.8281 0.770595 47.5281 0.470578C47.2281 0.170562 46.8211 0.00201416 46.3969 0.00201416H39.9977C39.5735 0.00201416 39.1665 0.170562 38.8665 0.470578C38.5665 0.770595 38.398 1.1775 38.398 1.60179C38.398 2.02608 38.5665 2.43299 38.8665 2.73301C39.1665 3.03302 39.5735 3.20157 39.9977 3.20157ZM8.00219 44.7958H3.20285V39.9965C3.20285 39.5722 3.0343 39.1653 2.73429 38.8652C2.43427 38.5652 2.02736 38.3967 1.60307 38.3967C1.17879 38.3967 0.771877 38.5652 0.47186 38.8652C0.171843 39.1653 0.0032959 39.5722 0.0032959 39.9965V46.3956C0.0032959 46.8199 0.171843 47.2268 0.47186 47.5268C0.771877 47.8268 1.17879 47.9954 1.60307 47.9954H8.00219C8.42647 47.9954 8.83338 47.8268 9.1334 47.5268C9.43342 47.2268 9.60196 46.8199 9.60196 46.3956C9.60196 45.9713 9.43342 45.5644 9.1334 45.2644C8.83338 44.9643 8.42647 44.7958 8.00219 44.7958ZM46.3969 38.3967C45.9726 38.3967 45.5657 38.5652 45.2656 38.8652C44.9656 39.1653 44.7971 39.5722 44.7971 39.9965V44.7958H39.9977C39.5735 44.7958 39.1665 44.9643 38.8665 45.2644C38.5665 45.5644 38.398 45.9713 38.398 46.3956C38.398 46.8199 38.5665 47.2268 38.8665 47.5268C39.1665 47.8268 39.5735 47.9954 39.9977 47.9954H46.3969C46.8211 47.9954 47.2281 47.8268 47.5281 47.5268C47.8281 47.2268 47.9966 46.8199 47.9966 46.3956V39.9965C47.9966 39.5722 47.8281 39.1653 47.5281 38.8652C47.2281 38.5652 46.8211 38.3967 46.3969 38.3967Z"
        fill="#F84018" />
    <path
        d="M24.0001 30.3978C27.5342 30.3978 30.3992 27.5329 30.3992 23.9987C30.3992 20.4646 27.5342 17.5996 24.0001 17.5996C20.4659 17.5996 17.601 20.4646 17.601 23.9987C17.601 27.5329 20.4659 30.3978 24.0001 30.3978Z"
        fill="#F84018" />
    <path
        d="M47.8207 24.7346C47.9385 24.5072 48 24.2548 48 23.9987C48 23.7426 47.9385 23.4902 47.8207 23.2628C45.6323 18.7784 42.2525 14.9826 38.051 12.2907C33.8496 9.59886 28.9885 8.11477 24 8.00092C19.0115 8.11477 14.1504 9.59886 9.94899 12.2907C5.74755 14.9826 2.36765 18.7784 0.179305 23.2628C0.0614917 23.4902 0 23.7426 0 23.9987C0 24.2548 0.0614917 24.5072 0.179305 24.7346C2.36765 29.2189 5.74755 33.0148 9.94899 35.7067C14.1504 38.3985 19.0115 39.8826 24 39.9965C28.9885 39.8826 33.8496 38.3985 38.051 35.7067C42.2525 33.0148 45.6323 29.2189 47.8207 24.7346ZM24 33.5974C22.1016 33.5974 20.2458 33.0344 18.6673 31.9797C17.0888 30.925 15.8585 29.4259 15.132 27.6719C14.4055 25.918 14.2154 23.988 14.5858 22.1261C14.9561 20.2641 15.8703 18.5538 17.2127 17.2114C18.5551 15.869 20.2654 14.9548 22.1274 14.5845C23.9894 14.2141 25.9193 14.4042 27.6733 15.1307C29.4272 15.8572 30.9263 17.0875 31.981 18.666C33.0357 20.2445 33.5987 22.1003 33.5987 23.9987C33.5987 26.5444 32.5874 28.9859 30.7873 30.786C28.9872 32.5861 26.5457 33.5974 24 33.5974Z"
        fill="#F84018" />
</svg>