<svg width="146" height="43" viewBox="0 0 146 43" fill="none" xmlns="http://www.w3.org/2000/svg">
    <g clip-path="url(#clip0_475_781)">
        <path
            d="M121.215 3.02948L121.22 0.881208C121.219 0.787301 121.255 0.696845 121.32 0.628239C121.384 0.559634 121.473 0.518033 121.567 0.511898L121.683 0.502242C122.002 0.481323 122.162 0.630978 122.163 0.951208L122.166 3.02466C122.166 3.10512 122.207 3.14534 122.289 3.14534H125.55C125.577 3.14534 125.604 3.13441 125.623 3.11494C125.643 3.09548 125.654 3.06908 125.654 3.04155V0.900518C125.654 0.805379 125.689 0.713759 125.753 0.643644C125.817 0.573529 125.905 0.529981 125.999 0.521551L126.124 0.511898C126.443 0.482932 126.602 0.627759 126.602 0.946379L126.61 3.01259C126.61 3.10109 126.654 3.14534 126.742 3.14534H130.023C130.137 3.14534 130.194 3.08822 130.194 2.97397V0.915001C130.194 0.812285 130.233 0.713296 130.303 0.638027C130.374 0.562758 130.47 0.516818 130.573 0.509483L130.677 0.502242C130.994 0.479713 131.151 0.626953 131.148 0.943965L131.128 3.03914C131.128 3.06795 131.14 3.09557 131.16 3.11594C131.18 3.13631 131.208 3.14776 131.237 3.14776L134.541 3.14293C134.568 3.14293 134.593 3.13225 134.611 3.11324C134.63 3.09423 134.64 3.06844 134.64 3.04155L134.635 0.963276C134.634 0.644655 134.792 0.490978 135.111 0.502242L135.224 0.504655C135.32 0.507788 135.411 0.548078 135.478 0.617C135.544 0.685923 135.582 0.778075 135.582 0.873967L135.586 3.03673C135.586 3.05183 135.589 3.06678 135.595 3.0807C135.601 3.09463 135.61 3.10724 135.621 3.11781C135.631 3.12838 135.644 3.13668 135.658 3.14224C135.672 3.1478 135.687 3.15049 135.702 3.15017C136.697 3.13328 137.814 3.06569 138.729 3.33362C140.607 3.88075 141.8 5.10534 142.306 7.00741C142.516 7.79672 142.449 8.75017 142.456 9.61914C142.456 9.6996 142.496 9.73983 142.577 9.73983L145.3 9.73741C145.363 9.73705 145.426 9.74954 145.485 9.77413C145.544 9.79872 145.597 9.8349 145.641 9.88049C145.685 9.92607 145.72 9.9801 145.742 10.0393C145.765 10.0985 145.775 10.1617 145.773 10.225L145.768 10.3433C145.764 10.438 145.724 10.5277 145.656 10.5934C145.588 10.6591 145.498 10.6957 145.403 10.6957L142.574 10.6981C142.492 10.6981 142.451 10.7383 142.451 10.8188L142.454 14.0726C142.454 14.1498 142.492 14.1884 142.57 14.1884L145.399 14.1933C145.494 14.1938 145.585 14.2309 145.654 14.2969C145.723 14.363 145.764 14.4529 145.768 14.5481L145.773 14.6567C145.787 14.9753 145.634 15.1347 145.314 15.1347L142.62 15.1322C142.509 15.1322 142.454 15.1878 142.454 15.2988V18.6009C142.454 18.6322 142.466 18.6623 142.488 18.6845C142.511 18.7067 142.541 18.7191 142.572 18.7191H145.401C145.497 18.7191 145.589 18.7564 145.657 18.8232C145.726 18.8899 145.765 18.9808 145.768 19.0764L145.77 19.185C145.778 19.5004 145.625 19.6573 145.312 19.6557L142.57 19.6412C142.492 19.6412 142.454 19.6798 142.454 19.7571V23.0084C142.454 23.0873 142.493 23.1267 142.572 23.1267L145.403 23.1316C145.499 23.1315 145.59 23.1682 145.659 23.234C145.727 23.2997 145.767 23.3894 145.77 23.484L145.773 23.6022C145.775 23.6656 145.764 23.7287 145.741 23.7877C145.718 23.8468 145.683 23.9007 145.639 23.9462C145.595 23.9917 145.542 24.0278 145.484 24.0525C145.426 24.0772 145.363 24.0899 145.3 24.0898L142.579 24.0826C142.496 24.0826 142.454 24.1252 142.454 24.2105V27.1071C142.454 27.1378 142.466 27.1673 142.488 27.189C142.509 27.2107 142.539 27.2229 142.57 27.2229L145.399 27.2253C145.494 27.2253 145.587 27.2625 145.656 27.3292C145.724 27.3959 145.765 27.4867 145.768 27.5826L145.773 27.696C145.784 28.0163 145.629 28.1764 145.309 28.1764L142.591 28.1643C142.5 28.1643 142.454 28.2102 142.454 28.3019V31.5171C142.454 31.5975 142.494 31.6378 142.574 31.6378L145.374 31.645C145.476 31.645 145.573 31.6852 145.644 31.7567C145.716 31.8282 145.756 31.9252 145.756 32.0264V32.1326C145.757 32.4448 145.601 32.6009 145.288 32.6009L142.635 32.6033C142.487 32.6033 142.418 32.6773 142.43 32.8253C142.538 34.2374 142.529 35.7122 141.86 36.9505C140.927 38.6788 139.375 39.5663 137.204 39.6129C136.698 39.6242 136.192 39.6459 135.683 39.6781C135.617 39.6829 135.584 39.7183 135.584 39.7843L135.589 42.1257C135.589 42.2228 135.551 42.316 135.482 42.3851C135.414 42.4543 135.322 42.4937 135.224 42.495H135.099C135.036 42.496 134.974 42.4844 134.917 42.4611C134.859 42.4377 134.806 42.403 134.761 42.359C134.717 42.315 134.682 42.2625 134.657 42.2046C134.633 42.1468 134.621 42.0846 134.621 42.0219L134.631 39.7481C134.631 39.7362 134.629 39.7243 134.625 39.7132C134.62 39.7021 134.614 39.6919 134.605 39.6834C134.597 39.6748 134.587 39.668 134.576 39.6634C134.565 39.6588 134.553 39.6564 134.541 39.6564L131.234 39.654C131.21 39.654 131.187 39.6639 131.17 39.6815C131.152 39.6992 131.143 39.7231 131.143 39.7481L131.152 42.0678C131.153 42.1285 131.14 42.1886 131.116 42.2441C131.091 42.2997 131.055 42.3494 131.01 42.39C130.965 42.4306 130.912 42.4612 130.854 42.4797C130.796 42.4982 130.735 42.5042 130.674 42.4974L130.554 42.4829C130.451 42.471 130.356 42.4218 130.288 42.3448C130.219 42.2677 130.181 42.1682 130.182 42.0653L130.194 39.7771C130.194 39.6966 130.155 39.6564 130.076 39.6564H126.754C126.663 39.6564 126.616 39.7022 126.614 39.794L126.607 42.0653C126.607 42.4001 126.442 42.5417 126.112 42.4902L125.968 42.4684C125.88 42.4552 125.8 42.4106 125.743 42.3428C125.685 42.2751 125.654 42.1886 125.654 42.0991L125.649 39.765C125.649 39.6926 125.612 39.6564 125.538 39.6564H122.299C122.213 39.6564 122.171 39.699 122.171 39.7843V42.046C122.171 42.1098 122.157 42.1728 122.131 42.2309C122.105 42.2891 122.067 42.341 122.019 42.3833C121.972 42.4255 121.915 42.4571 121.854 42.4759C121.794 42.4948 121.729 42.5005 121.666 42.4926L121.541 42.4781C121.45 42.4669 121.367 42.4229 121.306 42.3544C121.246 42.286 121.212 42.1977 121.212 42.1064V39.7819C121.212 39.6998 121.171 39.6588 121.089 39.6588L118.144 39.654C118.133 39.654 118.121 39.6563 118.11 39.6608C118.099 39.6653 118.09 39.6718 118.081 39.6801C118.073 39.6884 118.066 39.6983 118.062 39.7091C118.057 39.7199 118.055 39.7315 118.055 39.7433L118.058 42.0509C118.058 42.3807 117.893 42.5272 117.565 42.4902L117.464 42.4781C117.362 42.4668 117.268 42.4185 117.2 42.3423C117.132 42.2662 117.094 42.1675 117.094 42.0653L117.099 39.7771C117.099 39.6966 117.06 39.6564 116.981 39.6564H113.73C113.646 39.6564 113.603 39.699 113.602 39.7843L113.599 42.046C113.599 42.3824 113.432 42.532 113.097 42.495L112.976 42.4805C112.886 42.4704 112.801 42.4269 112.74 42.3583C112.679 42.2897 112.646 42.2009 112.646 42.1088L112.643 39.7819C112.643 39.695 112.6 39.6524 112.513 39.654C111.456 39.6709 110.295 39.7191 109.334 39.4005C107.334 38.7375 106.156 37.3029 105.8 35.0967C105.786 35.0066 105.733 34.9616 105.641 34.9616L102.595 34.964C102.499 34.964 102.406 34.9297 102.333 34.8673C102.26 34.8049 102.211 34.7185 102.196 34.6236L102.18 34.515C102.13 34.1996 102.265 34.0419 102.585 34.0419L105.634 34.0395C105.738 34.0395 105.791 33.9864 105.791 33.8802L105.795 30.7736C105.795 30.6996 105.758 30.6626 105.684 30.6626L102.686 30.6674C102.384 30.6674 102.221 30.517 102.199 30.216L102.189 30.0664C102.186 30.0208 102.191 29.9749 102.206 29.9317C102.221 29.8884 102.245 29.8488 102.276 29.8152C102.307 29.7816 102.345 29.7549 102.387 29.7366C102.429 29.7183 102.474 29.709 102.52 29.7091L105.713 29.7043C105.734 29.7043 105.755 29.6959 105.77 29.681C105.785 29.666 105.793 29.6458 105.793 29.6247L105.791 26.3781C105.791 26.2719 105.738 26.2188 105.634 26.2188L102.58 26.214C102.484 26.2141 102.392 26.1775 102.322 26.1116C102.252 26.0457 102.21 25.9554 102.204 25.8591L102.196 25.7602C102.177 25.4367 102.328 25.275 102.65 25.275L105.641 25.2726C105.739 25.2726 105.789 25.2227 105.791 25.1229L105.793 22.2843C105.795 22.1862 105.746 22.1371 105.646 22.1371H87.4144C87.3795 22.1373 87.3459 22.1498 87.3198 22.1724C87.2936 22.195 87.2766 22.2262 87.272 22.2602C86.7941 25.6733 83.7913 28.1305 80.342 27.2688C76.4099 26.2888 74.7661 21.804 77.0568 18.5357C79.7192 14.734 85.983 15.7526 87.0861 20.3581C87.1424 20.5882 87.1964 20.8207 87.2478 21.0557C87.2561 21.0938 87.2771 21.128 87.3074 21.1526C87.3376 21.1771 87.3754 21.1906 87.4144 21.1909H105.692C105.718 21.1909 105.743 21.1802 105.762 21.1612C105.78 21.1422 105.791 21.1164 105.791 21.0895L105.798 17.7778C105.798 17.7566 105.789 17.7364 105.775 17.7214C105.76 17.7065 105.739 17.6981 105.718 17.6981H102.588C102.253 17.6981 102.117 17.534 102.18 17.2057L102.204 17.0729C102.221 16.9841 102.268 16.9039 102.337 16.8462C102.407 16.7885 102.495 16.7568 102.585 16.7567L105.641 16.764C105.742 16.764 105.793 16.7133 105.793 16.6119L105.798 13.2857C105.798 13.2588 105.787 13.233 105.768 13.214C105.749 13.195 105.723 13.1843 105.696 13.1843L102.58 13.1747C102.484 13.1738 102.392 13.1374 102.322 13.0726C102.252 13.0078 102.209 12.9193 102.201 12.8247L102.196 12.7305C102.172 12.4087 102.322 12.2478 102.645 12.2478L105.639 12.2405C105.74 12.2405 105.791 12.1906 105.791 12.0909L105.8 8.87086C105.8 8.79684 105.762 8.75983 105.687 8.75983L102.643 8.75017C102.302 8.75017 102.152 8.5804 102.194 8.24086L102.209 8.13948C102.22 8.04684 102.265 7.96153 102.335 7.8997C102.405 7.83787 102.496 7.80381 102.59 7.80397L105.643 7.79914C105.732 7.79914 105.783 7.75569 105.798 7.66879C106.189 5.36603 107.447 3.91534 109.573 3.31672C110.461 3.06569 111.55 3.14776 112.528 3.14534C112.606 3.14534 112.646 3.10592 112.646 3.02707V0.956035C112.647 0.614885 112.816 0.468449 113.153 0.516724L113.252 0.531207C113.338 0.543814 113.418 0.586932 113.476 0.652835C113.534 0.718739 113.566 0.803121 113.568 0.890863L113.599 3.02707C113.601 3.10592 113.641 3.14534 113.72 3.14534H116.959C117.053 3.14534 117.1 3.09787 117.102 3.00293L117.106 0.951208C117.106 0.645461 117.259 0.498219 117.563 0.509483L117.676 0.51431C117.773 0.51743 117.865 0.557892 117.932 0.627202C118 0.696513 118.038 0.789281 118.038 0.886034L118.045 3.04397C118.045 3.07021 118.056 3.09538 118.075 3.11394C118.094 3.1325 118.12 3.14293 118.147 3.14293L121.096 3.14534C121.175 3.14534 121.215 3.10673 121.215 3.02948ZM115.588 30.665C117.244 28.1909 119.255 25.0819 120.884 21.9657C122.513 18.8471 124.046 14.256 122.221 10.896C121.287 9.175 119.66 8.33983 117.691 8.2819C113.116 8.14672 111.415 12.1295 111.593 16.1557C111.597 16.2168 111.629 16.2474 111.69 16.2474L115.296 16.2498C115.381 16.2498 115.424 16.2072 115.424 16.1219C115.412 14.7412 115.308 11.9822 117.184 11.7336C120.148 11.3378 119.32 16.4985 118.799 17.9178C117.155 22.3857 114.229 26.7547 111.395 30.5419C111.281 30.6922 111.219 30.8762 111.219 31.0657L111.222 34.3919C111.222 34.4788 111.266 34.5222 111.354 34.5222H122.605C122.682 34.5222 122.721 34.4844 122.721 34.4088V30.916C122.721 30.8388 122.682 30.8002 122.603 30.8002L115.665 30.805C115.551 30.805 115.525 30.7583 115.588 30.665ZM130.626 23.0664C130.626 23.035 130.639 23.0049 130.661 22.9827C130.683 22.9606 130.713 22.9481 130.744 22.9481L135.104 22.9457C135.135 22.9457 135.165 22.9332 135.187 22.911C135.21 22.8889 135.222 22.8588 135.222 22.8274L135.22 19.3781C135.22 19.3467 135.207 19.3167 135.185 19.2945C135.163 19.2723 135.133 19.2598 135.101 19.2598H130.744C130.713 19.2598 130.683 19.2474 130.661 19.2252C130.639 19.203 130.626 19.1729 130.626 19.1416L130.629 12.6074C130.629 12.576 130.641 12.546 130.663 12.5238C130.685 12.5016 130.715 12.4891 130.747 12.4891L136.9 12.4916C136.931 12.4916 136.961 12.4791 136.983 12.4569C137.005 12.4347 137.018 12.4046 137.018 12.3733L137.025 8.88776C137.025 8.85639 137.013 8.82631 136.99 8.80413C136.968 8.78194 136.938 8.76948 136.907 8.76948L126.762 8.79121C126.73 8.79121 126.7 8.80367 126.678 8.82585C126.656 8.84803 126.643 8.87811 126.643 8.90948V34.404C126.643 34.4353 126.656 34.4654 126.678 34.4876C126.7 34.5098 126.73 34.5222 126.762 34.5222H136.904C136.92 34.5222 136.935 34.5192 136.95 34.5132C136.964 34.5073 136.977 34.4986 136.988 34.4876C136.999 34.4766 137.008 34.4636 137.014 34.4492C137.02 34.4349 137.023 34.4195 137.023 34.404V30.7905C137.023 30.775 137.02 30.7596 137.014 30.7453C137.008 30.7309 136.999 30.7179 136.988 30.7069C136.977 30.6959 136.964 30.6872 136.95 30.6812C136.935 30.6753 136.92 30.6722 136.904 30.6722H130.742C130.726 30.6722 130.711 30.6692 130.697 30.6632C130.682 30.6573 130.669 30.6486 130.658 30.6376C130.647 30.6266 130.639 30.6136 130.633 30.5992C130.627 30.5849 130.624 30.5695 130.624 30.554L130.626 23.0664Z"
            fill="#FA993A" />
        <path
            d="M5.78198 17.6692L5.78439 2.99336C5.78439 2.97223 5.79278 2.95197 5.80772 2.93703C5.82266 2.9221 5.84292 2.9137 5.86405 2.9137H26.1761C26.1916 2.91351 26.2068 2.91783 26.2198 2.92612C26.2329 2.93441 26.2432 2.94631 26.2496 2.96039C26.256 2.97446 26.2582 2.9901 26.2558 3.00538C26.2535 3.02067 26.2468 3.03494 26.2365 3.04646L22.0268 7.87163C22.0192 7.88011 22.0099 7.88687 21.9995 7.89145C21.9891 7.89603 21.9778 7.89832 21.9665 7.89819L10.752 7.89577C10.7309 7.89577 10.7106 7.90416 10.6957 7.9191C10.6807 7.93404 10.6723 7.9543 10.6723 7.97543V17.6692C10.6723 17.6797 10.6744 17.69 10.6784 17.6997C10.6824 17.7094 10.6883 17.7181 10.6957 17.7255C10.703 17.7329 10.7118 17.7388 10.7215 17.7428C10.7312 17.7468 10.7415 17.7489 10.752 17.7489H22.5265C22.5476 17.7489 22.5678 17.7573 22.5828 17.7722C22.5977 17.7871 22.6061 17.8074 22.6061 17.8285V22.6441C22.6061 22.6652 22.5977 22.6854 22.5828 22.7004C22.5678 22.7153 22.5476 22.7237 22.5265 22.7237L10.752 22.7189C10.7309 22.7189 10.7106 22.7273 10.6957 22.7422C10.6807 22.7571 10.6723 22.7774 10.6723 22.7985V34.2906C10.6721 34.3081 10.6662 34.3251 10.6554 34.3389L5.92439 40.5206C5.91422 40.5336 5.90026 40.5432 5.88443 40.5479C5.8686 40.5526 5.8517 40.5523 5.83606 40.547C5.82041 40.5417 5.80681 40.5317 5.79712 40.5183C5.78743 40.5049 5.78214 40.4888 5.78198 40.4723L5.78439 22.7044C5.78453 22.693 5.78223 22.6818 5.77765 22.6713C5.77307 22.6609 5.76632 22.6516 5.75784 22.6441L0.353357 17.8889C0.34112 17.8783 0.332376 17.8643 0.328284 17.8487C0.324191 17.8331 0.324944 17.8166 0.330442 17.8014C0.33594 17.7862 0.345922 17.7731 0.359067 17.7637C0.372212 17.7543 0.387899 17.7491 0.404046 17.7489H5.70232C5.71278 17.7489 5.72314 17.7468 5.7328 17.7428C5.74247 17.7388 5.75125 17.7329 5.75865 17.7255C5.76604 17.7181 5.77191 17.7094 5.77591 17.6997C5.77992 17.69 5.78198 17.6797 5.78198 17.6692Z"
            fill="#3357A3" />
        <path
            d="M54.7031 18.8544C54.7031 18.6436 54.6629 18.6355 54.5824 18.8302L45.5862 40.6123C45.5776 40.6338 45.5628 40.6521 45.5439 40.665C45.525 40.678 45.5027 40.6848 45.48 40.6847L41.6928 40.6799C41.6636 40.6799 41.6349 40.671 41.6104 40.6542C41.5859 40.6375 41.5667 40.6136 41.5552 40.5858L32.7787 18.8206C32.7111 18.6565 32.6773 18.6629 32.6773 18.8399L32.6797 40.5085C32.6797 40.626 32.6218 40.6847 32.5059 40.6847L27.8521 40.6823C27.77 40.6823 27.729 40.6421 27.729 40.5616V8.57163C27.7291 8.47149 27.7622 8.37466 27.8231 8.29646L31.9169 3.03439C31.9272 3.02134 31.9407 3.01124 31.9562 3.00511C31.9716 2.99899 31.9884 2.99705 32.0048 2.9995C32.0212 3.00195 32.0367 3.0087 32.0497 3.01907C32.0626 3.02944 32.0726 3.04305 32.0787 3.05852L43.5611 31.8792C43.6254 32.0369 43.689 32.0369 43.7518 31.8792L55.2656 2.98611C55.2742 2.96466 55.289 2.94629 55.3079 2.93339C55.3268 2.92048 55.3491 2.91362 55.3718 2.9137H59.5814C59.5942 2.9137 59.6065 2.91878 59.6156 2.92784C59.6246 2.93689 59.6297 2.94917 59.6297 2.96197V40.4989C59.63 40.5152 59.6255 40.5313 59.6169 40.5452C59.6082 40.559 59.5957 40.5701 59.5809 40.577C59.566 40.5839 59.5495 40.5863 59.5334 40.584C59.5172 40.5817 59.502 40.5748 59.4897 40.564L54.7997 36.5065C54.7353 36.4501 54.7031 36.3785 54.7031 36.2916V18.8544Z"
            fill="#3357A3" />
        <path
            d="M68.4454 22.767C68.418 22.6914 68.3746 22.623 68.315 22.5618C66.9552 21.1828 65.6043 19.8359 64.2623 18.5212C64.1834 18.4439 64.1536 18.3514 64.1729 18.2436C65.6454 9.68185 72.6285 3.01012 81.4967 2.92081C88.0767 2.85564 93.824 6.36771 97.0609 12.1029C97.0761 12.13 97.082 12.1615 97.0776 12.1928C97.0733 12.2241 97.059 12.2535 97.0367 12.2767L93.3919 15.9529C93.3814 15.9636 93.3683 15.9714 93.354 15.9757C93.3396 15.98 93.3244 15.9807 93.3097 15.9775C93.295 15.9744 93.2814 15.9676 93.27 15.9578C93.2586 15.948 93.2499 15.9355 93.2447 15.9215C88.9529 5.04012 73.005 5.20909 69.3409 16.5587C66.8161 24.3843 70.6564 33.2525 79.0081 35.2922C85.0402 36.767 90.365 33.506 92.465 27.807C92.4807 27.7651 92.5086 27.729 92.5448 27.7036C92.581 27.6781 92.624 27.6645 92.6678 27.6646L98.2195 27.6622C98.3048 27.6622 98.3346 27.7032 98.3088 27.7853C97.4672 30.3343 96.1517 32.6426 94.3623 34.7105C87.0485 43.1612 74.8347 42.3718 67.9674 33.9525C65.3428 30.7325 63.8736 27.0338 63.5598 22.8563C63.5588 22.8431 63.5606 22.8297 63.565 22.8172C63.5694 22.8046 63.5764 22.7931 63.5854 22.7833C63.5945 22.7736 63.6055 22.7658 63.6177 22.7605C63.6299 22.7552 63.6431 22.7525 63.6564 22.7525L68.414 22.8105C68.4194 22.8103 68.4248 22.8089 68.4296 22.8064C68.4345 22.8039 68.4386 22.8004 68.4417 22.7961C68.4448 22.7919 68.4467 22.787 68.4474 22.7819C68.448 22.7768 68.4473 22.7717 68.4454 22.767Z"
            fill="#3357A3" />
    </g>
    <defs>
        <clipPath id="clip0_475_781">
            <rect width="145.552" height="42" fill="white" transform="translate(0.224121 0.5)" />
        </clipPath>
    </defs>
</svg>