<svg width="391" height="262" viewBox="0 0 391 262" fill="none" xmlns="http://www.w3.org/2000/svg">
    <g clip-path="url(#clip0_319_2011)">
        <path
            d="M353.341 164.507L352.02 163.846C355.379 157.129 360.357 152.383 365.17 147.796C371.167 142.079 376.828 136.684 378.707 128.066C379.474 124.542 378.943 121.593 377.12 119.297C372.787 113.835 362.546 113.625 362.442 113.625L362.461 112.149C362.907 112.156 373.496 112.366 378.271 118.375C380.382 121.032 381.013 124.398 380.146 128.38C378.172 137.436 372.348 142.987 366.185 148.862C361.464 153.365 356.578 158.019 353.338 164.507H353.341Z"
            fill="black" />
        <path
            d="M349.998 190.901C370.737 190.901 387.549 187.268 387.549 182.786C387.549 178.304 370.737 174.67 349.998 174.67C329.259 174.67 312.446 178.304 312.446 182.786C312.446 187.268 329.259 190.901 349.998 190.901Z"
            fill="black" />
        <path d="M312.45 182.786H387.549V168.444H312.45V182.786Z" fill="black" />
        <path
            d="M349.998 176.563C370.737 176.563 387.549 172.93 387.549 168.448C387.549 163.966 370.737 160.332 349.998 160.332C329.259 160.332 312.446 163.966 312.446 168.448C312.446 172.93 329.259 176.563 349.998 176.563Z"
            fill="#263238" />
        <path
            d="M339.122 170.662C350.036 170.662 358.885 168.977 358.885 166.898C358.885 164.819 350.036 163.134 339.122 163.134C328.207 163.134 319.359 164.819 319.359 166.898C319.359 168.977 328.207 170.662 339.122 170.662Z"
            fill="black" />
        <path
            d="M343.254 166.361C353.083 164.041 359.171 154.192 356.851 144.362C354.531 134.533 344.682 128.445 334.852 130.765C325.023 133.085 318.935 142.934 321.255 152.764C323.575 162.593 333.424 168.681 343.254 166.361Z"
            fill="#2194F3" />
        <path
            d="M333.922 91.629C333.922 91.629 335.977 123.065 321.798 141.559C342.344 164.366 356.729 154.298 356.729 154.298C356.729 154.298 376.658 131.081 370.085 87.621C366.65 64.902 333.719 82.1775 333.922 91.629Z"
            fill="#F84018" />
        <path
            d="M358.855 166.85H319.322V149.888C319.322 138.979 328.179 130.122 339.088 130.122C349.998 130.122 358.855 138.979 358.855 149.888V166.85Z"
            fill="black" />
        <path
            d="M332.073 143.714C328.821 147.464 329.223 153.143 332.973 156.398C336.723 159.65 342.402 159.248 345.654 155.494C348.905 151.745 348.503 146.065 344.753 142.813C341 139.558 335.324 139.964 332.069 143.718L332.073 143.714ZM334.804 146.083C335.852 144.873 338.952 142.566 342.388 145.544C344.632 147.489 344.871 150.885 342.927 153.129C340.982 155.372 337.586 155.612 335.342 153.667C333.099 151.722 332.859 148.327 334.804 146.083Z"
            fill="#F84018" />
        <path
            d="M272.168 124.431C282.428 124.431 290.746 122.633 290.746 120.415C290.746 118.198 282.428 116.4 272.168 116.4C261.907 116.4 253.589 118.198 253.589 120.415C253.589 122.633 261.907 124.431 272.168 124.431Z"
            fill="black" />
        <path d="M253.589 120.416H290.75V113.319H253.589V120.416Z" fill="black" />
        <path
            d="M272.168 117.338C282.428 117.338 290.746 115.54 290.746 113.322C290.746 111.105 282.428 109.307 272.168 109.307C261.907 109.307 253.589 111.105 253.589 113.322C253.589 115.54 261.907 117.338 272.168 117.338Z"
            fill="#4D4D4D" />
        <path
            d="M266.787 114.415C272.188 114.415 276.567 113.582 276.567 112.554C276.567 111.527 272.188 110.694 266.787 110.694C261.385 110.694 257.007 111.527 257.007 112.554C257.007 113.582 261.385 114.415 266.787 114.415Z"
            fill="black" />
        <path
            d="M273.153 109.874C276.687 106.34 276.687 100.611 273.153 97.0767C269.619 93.5427 263.89 93.5427 260.356 97.0767C256.822 100.611 256.822 106.34 260.356 109.874C263.89 113.408 269.619 113.408 273.153 109.874Z"
            fill="#2194F3" />
        <path
            d="M264.211 75.3131C264.211 75.3131 265.226 90.8688 258.214 100.018C268.381 111.303 275.496 106.321 275.496 106.321C275.496 106.321 285.358 94.8325 282.106 73.3313C280.405 62.0898 264.111 70.6372 264.211 75.3131Z"
            fill="#F96D4D" />
        <path
            d="M276.548 112.529H256.985V104.136C256.985 98.7372 261.369 94.3565 266.765 94.3565C272.164 94.3565 276.545 98.7409 276.545 104.136V112.529H276.548Z"
            fill="black" />
        <path
            d="M263.299 101.081C261.69 102.937 261.89 105.745 263.746 107.355C265.602 108.964 268.411 108.764 270.02 106.908C271.629 105.052 271.43 102.243 269.573 100.634C267.717 99.025 264.908 99.2242 263.299 101.081ZM264.65 102.251C265.613 101.14 267.293 101.022 268.403 101.985C269.514 102.948 269.632 104.627 268.669 105.738C267.706 106.849 266.027 106.967 264.916 106.004C263.805 105.041 263.687 103.361 264.65 102.251Z"
            fill="#F96D4D" />
        <path d="M231.272 51.6471L228.502 58.6877L230.852 59.6117L233.621 52.571L231.272 51.6471Z" fill="black" />
        <path d="M226.807 63.4912L229.138 64.3792L229.511 63.3997L227.18 62.5117L226.807 63.4912Z" fill="black" />
        <path d="M226.877 64.7099L228.277 65.2432L228.834 63.7808L227.434 63.2475L226.877 64.7099Z" fill="black" />
        <path d="M226.807 63.4912L229.138 64.3792L229.511 63.3997L227.18 62.5117L226.807 63.4912Z" fill="black" />
        <path
            d="M226.224 64.8465L226.46 64.7432C226.822 64.5882 227.228 64.5808 227.593 64.7174C227.958 64.8576 228.257 65.1344 228.423 65.4887L228.534 65.7212L228.091 66.88L227.851 66.9834C227.493 67.1347 227.091 67.1421 226.729 67.0018H226.718C226.357 66.8579 226.061 66.5885 225.895 66.2379L225.781 66.0017L226.224 64.8429V64.8465Z"
            fill="black" />
        <path d="M225.985 66.9445L227.32 67.4529L227.676 66.5182L226.341 66.0099L225.985 66.9445Z" fill="black" />
        <path d="M227.527 65.7213L226.006 69.7182L225.641 69.8769L225.46 69.5115L226.984 65.5146L227.527 65.7213Z"
            fill="black" />
        <path d="M226.748 62.9128L229.56 63.9831L231.605 62.9608L225.903 60.7908L226.748 62.9128Z" fill="#F96D4D" />
        <path d="M231.966 57.9786L228.944 56.8308L226.988 57.3069L233.111 59.6393L231.966 57.9786Z" fill="#F96D4D" />
        <path d="M225.481 60.7247L231.971 63.1968L233.386 59.4823L226.895 57.0102L225.481 60.7247Z" fill="black" />
        <path d="M233.563 53.4688L244.081 48.0657L242.342 44.6812L231.824 50.0843L233.563 53.4688Z" fill="black" />
        <path
            d="M243.839 50.7561L250.652 47.2538C252.696 46.202 253.504 43.6924 252.453 41.6441C251.401 39.5995 248.891 38.7913 246.843 39.8431L240.03 43.3455L243.839 50.7561Z"
            fill="#F96D4D" />
        <path
            d="M235.015 55.2917L239.816 52.8228L236.008 45.4121L231.206 47.8811C229.162 48.9329 228.353 51.4425 229.405 53.4907C230.457 55.5353 232.967 56.3435 235.015 55.2917Z"
            fill="#F96D4D" />
        <path
            d="M230.785 51.7859C230.693 50.5791 231.597 49.5199 232.804 49.4276C234.011 49.3354 235.07 50.2395 235.162 51.4464C235.255 52.6532 234.35 53.7124 233.144 53.8046C231.937 53.8969 230.878 52.9927 230.785 51.7859ZM231.708 51.7158C231.763 52.4133 232.376 52.9373 233.074 52.8857C233.771 52.8303 234.295 52.2177 234.243 51.5202C234.192 50.8227 233.575 50.2986 232.878 50.3503C232.18 50.4019 231.656 51.0183 231.708 51.7158Z"
            fill="black" />
        <path
            d="M284.55 73.8886L283.516 73.6155C283.527 73.5786 284.487 69.8954 284.265 65.3155C283.974 59.2371 281.852 54.5427 277.958 51.3615C273.105 47.3941 268.665 46.6929 265.794 46.8036C262.683 46.9217 260.683 47.992 260.664 48.003L260.151 47.0656C260.24 47.0177 262.347 45.8773 265.694 45.737C268.761 45.6079 273.496 46.3349 278.634 50.5348C282.719 53.871 285.037 58.9751 285.332 65.297C285.553 70.0357 284.586 73.7373 284.546 73.8923L284.55 73.8886Z"
            fill="black" />
        <path d="M259.163 65.8428L269.113 58.8394L267.652 56.763L257.702 63.7665L259.163 65.8428Z" fill="black" />
        <path
            d="M274.792 77.4427C276.286 76.3872 276.644 74.3168 275.585 72.8221L263.879 56.2441L258.461 60.0712L270.167 76.6492C271.223 78.1439 273.293 78.5019 274.788 77.4427H274.792Z"
            fill="black" />
        <path
            d="M257.848 65.5258L245.85 45.9363C244.308 43.4193 244.99 40.1347 247.411 38.4445C249.829 36.7505 253.147 37.2303 254.988 39.5406L269.263 57.4951L257.852 65.5258H257.848Z"
            fill="#F96D4D" />
        <path
            d="M248.574 40.1015C250.194 38.9685 252.431 39.3634 253.567 40.9799C254.7 42.6 254.305 44.8365 252.689 45.9732C251.069 47.1062 248.832 46.7113 247.696 45.0948C246.563 43.4747 246.957 41.2382 248.574 40.1015ZM249.441 41.3379C248.504 41.9948 248.275 43.2902 248.932 44.2276C249.589 45.165 250.884 45.3938 251.822 44.7369C252.759 44.0799 252.988 42.7846 252.331 41.8472C251.674 40.9098 250.379 40.6809 249.441 41.3379Z"
            fill="black" />
        <path
            d="M280.768 77.95C282.702 73.3418 280.534 68.038 275.926 66.1037C271.318 64.1694 266.014 66.337 264.08 70.9453C262.145 75.5536 264.313 80.8574 268.921 82.7917C273.53 84.726 278.833 82.5583 280.768 77.95Z"
            fill="#F96D4D" />
        <path
            d="M267.739 71.5303C266.185 74.2465 267.126 77.7083 269.846 79.262C272.563 80.8157 276.024 79.8709 277.578 77.1547C279.132 74.4384 278.191 70.9767 275.471 69.4229C272.755 67.8692 269.289 68.814 267.735 71.5303H267.739ZM269.717 72.6596C270.647 71.0357 272.718 70.4711 274.341 71.4011C275.965 72.3311 276.53 74.4015 275.6 76.0254C274.67 77.6492 272.6 78.2139 270.976 77.2838C269.352 76.3538 268.787 74.2834 269.717 72.6596Z"
            fill="black" />
        <path
            d="M134.48 120.655C144.741 120.655 153.059 118.858 153.059 116.64C153.059 114.422 144.741 112.625 134.48 112.625C124.22 112.625 115.902 114.422 115.902 116.64C115.902 118.858 124.22 120.655 134.48 120.655Z"
            fill="black" />
        <path d="M153.062 109.543H115.902V116.64H153.062V109.543Z" fill="black" />
        <path
            d="M134.48 113.558C144.741 113.558 153.059 111.761 153.059 109.543C153.059 107.326 144.741 105.528 134.48 105.528C124.22 105.528 115.902 107.326 115.902 109.543C115.902 111.761 124.22 113.558 134.48 113.558Z"
            fill="#4D4D4D" />
        <path
            d="M139.865 110.635C145.266 110.635 149.645 109.803 149.645 108.775C149.645 107.748 145.266 106.915 139.865 106.915C134.463 106.915 130.085 107.748 130.085 108.775C130.085 109.803 134.463 110.635 139.865 110.635Z"
            fill="black" />
        <path
            d="M148.832 101.153C149.632 96.2196 146.282 91.5713 141.349 90.7706C136.416 89.9698 131.768 93.3198 130.967 98.253C130.166 103.186 133.516 107.834 138.449 108.635C143.383 109.436 148.031 106.086 148.832 101.153Z"
            fill="#2194F3" />
        <path
            d="M142.437 71.5341C142.437 71.5341 141.422 87.0898 148.434 96.2387C138.267 107.524 131.151 102.542 131.151 102.542C131.151 102.542 121.29 91.0534 124.542 69.5522C126.243 58.3108 142.537 66.8581 142.437 71.5341Z"
            fill="#F96D4D" />
        <path
            d="M139.879 90.5811C145.279 90.5811 149.659 94.9654 149.659 100.361V108.753H130.096V100.361C130.096 94.9618 134.48 90.5811 139.876 90.5811H139.879Z"
            fill="black" />
        <path
            d="M137.075 96.8586C135.218 98.4677 135.019 101.276 136.628 103.133C138.237 104.989 141.046 105.188 142.902 103.579C144.758 101.97 144.958 99.1579 143.349 97.3052C141.739 95.4489 138.931 95.2496 137.075 96.8586ZM141.732 102.228C140.621 103.192 138.942 103.07 137.979 101.963C137.016 100.852 137.137 99.1726 138.245 98.2094C139.355 97.2462 141.035 97.3679 141.998 98.4751C142.961 99.586 142.839 101.265 141.732 102.228Z"
            fill="#F96D4D" />
        <path d="M175.383 47.8654L173.034 48.7893L175.803 55.83L178.152 54.906L175.383 47.8654Z" fill="black" />
        <path d="M179.478 58.7353L177.146 59.6233L177.52 60.6028L179.851 59.7148L179.478 58.7353Z" fill="black" />
        <path d="M179.224 59.4728L177.823 60.0061L178.38 61.4684L179.781 60.9351L179.224 59.4728Z" fill="black" />
        <path d="M179.478 58.7353L177.146 59.6233L177.52 60.6028L179.851 59.7148L179.478 58.7353Z" fill="black" />
        <path
            d="M180.424 61.0677L180.188 60.9644C179.826 60.8094 179.42 60.802 179.055 60.9386C178.689 61.0788 178.39 61.3556 178.224 61.7099L178.114 61.9424L178.556 63.1012L178.796 63.2046C179.154 63.3559 179.557 63.3633 179.918 63.223H179.929C180.291 63.0791 180.586 62.8097 180.752 62.4591L180.867 62.2229L180.424 61.064V61.0677Z"
            fill="black" />
        <path d="M180.313 62.2331L178.978 62.7415L179.334 63.6761L180.669 63.1678L180.313 62.2331Z" fill="black" />
        <path d="M179.121 61.9423L180.645 65.9391L181.007 66.0978L181.188 65.7325L179.663 61.7356L179.121 61.9423Z"
            fill="black" />
        <path d="M179.903 59.1338L177.088 60.2077L175.047 59.1855L180.749 57.0117L179.903 59.1338Z" fill="#F96D4D" />
        <path d="M174.681 54.2032L177.704 53.0518L179.66 53.5278L173.541 55.8603L174.681 54.2032Z" fill="#F96D4D" />
        <path d="M179.761 53.2344L173.27 55.7065L174.685 59.421L181.176 56.9489L179.761 53.2344Z" fill="black" />
        <path d="M174.831 46.3157L164.313 40.9126L162.574 44.2971L173.092 49.7002L174.831 46.3157Z" fill="black" />
        <path
            d="M162.809 46.9768L155.996 43.4745C153.952 42.4227 153.143 39.9131 154.195 37.8648C155.247 35.8202 157.757 35.012 159.805 36.0638L166.618 39.5662L162.809 46.9768Z"
            fill="#F96D4D" />
        <path
            d="M171.637 51.5124L166.835 49.0435L170.644 41.6328L175.446 44.1018C177.49 45.1536 178.298 47.6632 177.247 49.7114C176.195 51.756 173.685 52.5642 171.637 51.5124Z"
            fill="#F96D4D" />
        <path
            d="M173.504 50.0253C172.298 49.9331 171.393 48.8739 171.486 47.6671C171.578 46.4602 172.637 45.5561 173.844 45.6483C175.051 45.7406 175.955 46.7998 175.863 48.0066C175.77 49.2134 174.711 50.1176 173.504 50.0253ZM173.774 46.571C173.076 46.5156 172.464 47.0397 172.408 47.7409C172.353 48.4421 172.877 49.051 173.578 49.1064C174.276 49.1617 174.888 48.6377 174.944 47.9365C174.999 47.2353 174.475 46.6263 173.774 46.571Z"
            fill="black" />
        <path
            d="M122.977 69.3049L124.01 69.0318C123.999 68.9949 123.04 65.3117 123.261 60.7317C123.553 54.6534 125.675 49.959 129.568 46.7777C134.421 42.8104 138.861 42.1092 141.732 42.2199C144.843 42.338 146.844 43.4082 146.862 43.4193L147.375 42.4819C147.287 42.4339 145.179 41.2935 141.832 41.1533C138.765 41.0241 134.03 41.7512 128.893 45.951C124.807 49.2873 122.49 54.3913 122.194 60.7133C121.973 65.4519 122.94 69.1536 122.981 69.3086L122.977 69.3049Z"
            fill="black" />
        <path d="M148.947 59.9913L138.997 52.9878L137.536 55.0641L147.486 62.0676L148.947 59.9913Z" fill="black" />
        <path
            d="M131.856 73.6671C130.362 72.6116 130.004 70.5412 131.063 69.0465L142.769 52.4685L148.187 56.2956L136.481 72.8736C135.425 74.3683 133.355 74.7263 131.86 73.6671H131.856Z"
            fill="black" />
        <path
            d="M148.8 61.7465L160.798 42.157C162.34 39.6401 161.658 36.3555 159.237 34.6615C156.819 32.9675 153.501 33.4473 151.66 35.7576L137.385 53.7122L148.796 61.7428L148.8 61.7465Z"
            fill="#F96D4D" />
        <path
            d="M158.956 41.3155C157.823 42.9356 155.583 43.3305 153.963 42.1938C152.343 41.0608 151.948 38.8207 153.084 37.2005C154.217 35.5804 156.458 35.1855 158.078 36.3222C159.698 37.4552 160.093 39.6953 158.956 41.3155ZM154.321 38.0678C153.664 39.0052 153.893 40.3006 154.83 40.9575C155.767 41.6144 157.063 41.3856 157.72 40.4482C158.377 39.5108 158.148 38.2154 157.21 37.5585C156.273 36.9016 154.978 37.1304 154.321 38.0678Z"
            fill="black" />
        <path
            d="M142.626 74.0212C144.48 69.3799 142.22 64.1147 137.579 62.2611C132.937 60.4075 127.672 62.6675 125.818 67.3088C123.965 71.9501 126.225 77.2153 130.866 79.0688C135.507 80.9224 140.773 78.6625 142.626 74.0212Z"
            fill="#F96D4D" />
        <path
            d="M131.177 65.6437C128.461 67.1974 127.516 70.6591 129.07 73.3754C130.624 76.0917 134.085 77.0364 136.802 75.4827C139.518 73.929 140.463 70.4672 138.909 67.7473C137.355 65.031 133.893 64.0863 131.174 65.64L131.177 65.6437ZM135.672 73.5046C134.048 74.4346 131.978 73.8699 131.048 72.2461C130.118 70.6222 130.683 68.5518 132.307 67.6218C133.93 66.6918 136.001 67.2564 136.931 68.8803C137.861 70.5041 137.296 72.5745 135.672 73.5046Z"
            fill="black" />
        <path
            d="M52.1181 158.502L50.6603 158.277C51.5793 152.302 45.4861 148.478 38.4298 144.053C29.1185 138.215 17.5302 130.945 17.7479 115.64C17.9804 99.2944 32.8091 93.0905 32.9567 93.0315L33.514 94.4007C33.3737 94.4597 19.4419 100.317 19.2241 115.662C19.0174 130.136 29.7459 136.864 39.2122 142.802C46.7114 147.504 53.1846 151.567 52.1181 158.502Z"
            fill="black" />
        <path
            d="M38.1162 87.2558C36.0421 78.2435 36.127 69.1315 38.3561 60.9089C40.67 52.38 45.191 45.2572 51.4391 40.3082C58.8239 34.4587 65.5481 34.1228 69.8882 34.872C74.6195 35.6876 77.5756 37.9093 77.7011 38.0053L76.1363 40.0646C76.1105 40.0462 73.4717 38.0865 69.3309 37.4037C63.8135 36.4922 58.3367 38.1529 53.0482 42.338C41.434 51.5386 36.5624 68.9432 40.6405 86.6764L38.1199 87.2558H38.1162Z"
            fill="black" />
        <path
            d="M50.3429 198.449C71.239 198.449 88.1786 194.789 88.1786 190.274C88.1786 185.759 71.239 182.099 50.3429 182.099C29.4469 182.099 12.5073 185.759 12.5073 190.274C12.5073 194.789 29.4469 198.449 50.3429 198.449Z"
            fill="black" />
        <path d="M88.1786 175.826H12.5073V190.274H88.1786V175.826Z" fill="black" />
        <path
            d="M50.3429 184C71.239 184 88.1786 180.34 88.1786 175.826C88.1786 171.311 71.239 167.651 50.3429 167.651C29.4469 167.651 12.5073 171.311 12.5073 175.826C12.5073 180.34 29.4469 184 50.3429 184Z"
            fill="#263238" />
        <path
            d="M61.8944 178.055C72.8927 178.055 81.8086 176.358 81.8086 174.264C81.8086 172.171 72.8927 170.474 61.8944 170.474C50.896 170.474 41.9801 172.171 41.9801 174.264C41.9801 176.358 50.896 178.055 61.8944 178.055Z"
            fill="black" />
        <path
            d="M61.3665 174.202C71.5435 174.202 79.7935 165.952 79.7935 155.775C79.7935 145.598 71.5435 137.348 61.3665 137.348C51.1896 137.348 42.9396 145.598 42.9396 155.775C42.9396 165.952 51.1896 174.202 61.3665 174.202Z"
            fill="#2194F3" />
        <path
            d="M66.5445 98.4272C66.5445 98.4272 64.4741 130.103 78.7602 148.737C58.0562 171.718 43.5633 161.573 43.5633 161.573C43.5633 161.573 23.483 138.178 30.1076 94.3897C33.5693 71.4971 66.7511 88.9018 66.5445 98.4272Z"
            fill="#F84018" />
        <path
            d="M61.9313 137.211C72.9254 137.211 81.8492 146.135 81.8492 157.129V174.216H42.0133V157.129C42.0133 146.135 50.9371 137.211 61.9313 137.211Z"
            fill="black" />
        <path
            d="M54.8417 149.995C51.0626 153.272 50.6566 158.993 53.9338 162.776C57.2111 166.555 62.9314 166.964 66.7106 163.684C70.4897 160.406 70.8957 154.686 67.6184 150.903C64.3412 147.124 58.6209 146.714 54.838 149.995H54.8417ZM64.3265 160.934C62.0678 162.894 58.6467 162.65 56.6833 160.392C54.7236 158.129 54.9672 154.708 57.2258 152.748C59.4881 150.789 62.9093 151.032 64.869 153.291C66.8287 155.553 66.5851 158.974 64.3265 160.934Z"
            fill="#F84018" />
        <path d="M361.129 221.304H31.761L174.486 78.8413H216.758L361.129 221.304Z"
            fill="url(#paint0_linear_319_2011)" />
        <path d="M219.596 79.5867H171.655L171.53 79.6974H219.721L219.596 79.5867Z" fill="#631503" />
        <path d="M220.338 80.2549H170.925L170.792 80.373H220.47L220.338 80.2549Z" fill="#631503" />
        <path d="M221.124 80.9634H170.146L170.006 81.0889H221.264L221.124 80.9634Z" fill="#631503" />
        <path d="M221.961 81.7162H169.315L169.164 81.8527H222.113L221.961 81.7162Z" fill="#631503" />
        <path d="M222.854 82.5244H168.43L168.271 82.672H223.017L222.854 82.5244Z" fill="#631503" />
        <path d="M223.814 83.3881H167.481L167.312 83.5431H223.987L223.814 83.3881Z" fill="#631503" />
        <path d="M224.84 84.3145H166.466L166.282 84.4805H225.028L224.84 84.3145Z" fill="#631503" />
        <path d="M225.943 85.3071H165.374L165.175 85.488H226.146L225.943 85.3071Z" fill="#631503" />
        <path d="M227.136 86.3811H164.197L163.983 86.5767H227.353L227.136 86.3811Z" fill="#631503" />
        <path d="M228.424 87.5436H162.92L162.687 87.7539H228.656L228.424 87.5436Z" fill="#631503" />
        <path d="M229.889 88.8649H161.469L161.215 89.0974H230.147L229.889 88.8649Z" fill="#631503" />
        <path d="M231.417 90.2415H159.96L159.683 90.4924H231.697L231.417 90.2415Z" fill="#631503" />
        <path d="M233.085 91.7472H158.307L158.004 92.0203H233.391L233.085 91.7472Z" fill="#631503" />
        <path d="M234.915 93.3969H156.495L156.162 93.6995H235.255L234.915 93.3969Z" fill="#631503" />
        <path d="M236.934 95.2163H154.498L154.129 95.5522H237.307L236.934 95.2163Z" fill="#631503" />
        <path d="M239.174 97.235H152.284L151.874 97.6077H239.587L239.174 97.235Z" fill="#631503" />
        <path d="M241.665 99.4789H149.815L149.357 99.8959H242.127L241.665 99.4789Z" fill="#631503" />
        <path d="M244.459 102H147.05L146.537 102.468H244.979L244.459 102Z" fill="#631503" />
        <path d="M247.614 104.841H143.932L143.345 105.376H248.205L247.614 104.841Z" fill="#631503" />
        <path d="M251.202 108.078H140.378L139.71 108.687H251.877L251.202 108.078Z" fill="#631503" />
        <path d="M255.534 111.983H136.089L135.314 112.691H256.32L255.534 111.983Z" fill="#631503" />
        <path d="M260.347 116.323H131.329L130.421 117.149H261.266L260.347 116.323Z" fill="#631503" />
        <path d="M266.001 121.416H125.737L124.66 122.394H267.086L266.001 121.416Z" fill="#631503" />
        <path d="M272.729 127.483H119.076L117.784 128.66H274.035L272.729 127.483Z" fill="#631503" />
        <path d="M280.881 134.834H111.008L109.429 136.274H282.479L280.881 134.834Z" fill="#631503" />
        <path d="M290.956 143.917H101.036L99.0583 145.718H292.96L290.956 143.917Z" fill="#631503" />
        <path d="M303.729 155.428H88.3962L85.8461 157.753H306.309L303.729 155.428Z" fill="#631503" />
        <path d="M320.448 170.5H71.8552L68.4377 173.611H323.898L320.448 170.5Z" fill="#631503" />
        <path d="M343.274 191.075H49.2653L44.4639 195.448H348.123L343.274 191.075Z" fill="#631503" />
        <path d="M53.491 223.098H2.67566L171.054 78.8118H177.497L53.491 223.098Z" fill="#631503" />
        <path d="M50.8116 223.098H0L170.714 78.8118H177.158L50.8116 223.098Z" fill="url(#paint1_linear_319_2011)" />
        <path d="M388.313 223.098H337.502L213.503 78.8118H219.946L388.313 223.098Z" fill="#631503" />
        <path d="M391 223.098H340.188L213.842 78.8118H220.286L391 223.098Z" fill="url(#paint2_linear_319_2011)" />
        <path d="M246.848 78.1647L241.747 78.186L241.811 93.4759L246.912 93.4545L246.848 78.1647Z" fill="black" />
        <path d="M242.232 103.755L247.273 103.679L247.241 101.561L242.2 101.637L242.232 103.755Z" fill="black" />
        <path d="M243.273 106.003L246.303 105.957L246.255 102.795L243.226 102.84L243.273 106.003Z" fill="black" />
        <path d="M242.232 103.755L247.273 103.679L247.241 101.561L242.2 101.637L242.232 103.755Z" fill="black" />
        <path
            d="M242.152 106.731L242.521 106.362C243.082 105.801 243.839 105.48 244.629 105.469C245.422 105.458 246.186 105.753 246.762 106.299L247.142 106.657L247.179 109.163L246.803 109.536C246.245 110.086 245.496 110.399 244.71 110.41H244.684C243.902 110.422 243.141 110.134 242.569 109.599L242.182 109.237L242.145 106.731H242.152Z"
            fill="black" />
        <path d="M243.279 110.858L246.161 110.815L246.131 108.793L243.249 108.836L243.279 110.858Z" fill="black" />
        <path d="M245.252 107.399L245.382 116.046L244.821 116.611L244.208 116.061L244.075 107.418L245.252 107.399Z"
            fill="black" />
        <path d="M241.687 102.712L247.773 102.62L250.844 99.1729L238.514 99.3574L241.687 102.712Z" fill="#F84018" />
        <path d="M247.799 89.5441L241.267 89.6437L237.953 92.002L251.183 91.8027L247.799 89.5441Z" fill="#F84018" />
        <path d="M251.574 91.3481L237.537 91.5588L237.657 99.5886L251.694 99.3779L251.574 91.3481Z" fill="black" />
        <path d="M264.739 63.2914L242.636 72.3835L245.562 79.4964L267.665 70.4042L264.739 63.2914Z" fill="black" />
        <path
            d="M266.717 75.7376L281.036 69.8474C285.336 68.0796 287.388 63.1601 285.62 58.8606C283.852 54.5611 278.933 52.5092 274.633 54.277L260.314 60.1671L266.717 75.7376Z"
            fill="#F84018" />
        <path
            d="M248.168 83.3696L258.258 79.2177L251.855 63.6472L241.765 67.7991C237.465 69.5669 235.413 74.4864 237.181 78.7859C238.949 83.0854 243.869 85.1373 248.168 83.3696Z"
            fill="#F84018" />
        <path
            d="M240.252 75.59C240.267 73.1431 242.271 71.1687 244.717 71.1834C247.164 71.1982 249.139 73.2022 249.124 75.649C249.109 78.0959 247.105 80.0703 244.658 80.0555C242.211 80.0408 240.237 78.0368 240.252 75.59ZM242.119 75.601C242.108 77.0182 243.256 78.177 244.669 78.1881C246.087 78.1992 247.245 77.0514 247.256 75.6379C247.268 74.2208 246.12 73.0619 244.706 73.0509C243.293 73.0398 242.13 74.1875 242.119 75.601Z"
            fill="black" />
        <path
            d="M365.96 86.5658L363.026 86.2447C363.033 86.1746 363.779 78.9337 361.682 71.2057C358.944 61.1046 352.851 54.9487 343.573 52.9042C320.909 47.9108 310.417 60.9238 310.313 61.0566L307.988 59.2372C308.11 59.0859 310.989 55.4543 316.927 52.513C322.345 49.8262 331.475 47.217 344.208 50.0218C354.526 52.2952 361.561 59.3848 364.554 70.5192C366.772 78.7713 365.993 86.2484 365.96 86.5621V86.5658Z"
            fill="black" />
        <path d="M320.055 89.9137L329.239 67.1028L324.477 65.1855L315.293 87.9964L320.055 89.9137Z" fill="black" />
        <path
            d="M359.313 92.4226C360.689 88.9867 359.018 85.0857 355.582 83.7092L317.51 68.4524L312.528 80.897L350.6 96.1537C354.035 97.5303 357.936 95.8585 359.313 92.4226Z"
            fill="black" />
        <path
            d="M317.477 90.8246L275.604 70.7775C270.223 68.2015 267.776 61.8832 270.016 56.3548C272.256 50.8263 278.412 47.9957 284.07 49.8926L328.01 64.6659L317.477 90.8283V90.8246Z"
            fill="#F84018" />
        <path
            d="M273.81 57.89C275.312 54.1884 279.541 52.3985 283.243 53.8968C286.945 55.3952 288.735 59.6283 287.236 63.3299C285.734 67.0315 281.505 68.8214 277.803 67.3231C274.102 65.8247 272.312 61.5916 273.81 57.89ZM276.637 59.0341C275.77 61.1783 276.807 63.6288 278.947 64.4961C281.092 65.3634 283.542 64.3263 284.409 62.1858C285.277 60.0416 284.24 57.5911 282.099 56.7238C279.955 55.8565 277.504 56.8936 276.637 59.0341Z"
            fill="black" />
        <path
            d="M352.57 108.201C362.665 107.887 370.594 99.4498 370.28 89.3552C369.967 79.2606 361.529 71.3317 351.434 71.6454C341.34 71.9591 333.411 80.3967 333.725 90.4913C334.038 100.586 342.476 108.515 352.57 108.201Z"
            fill="#F84018" />
        <path
            d="M340.849 90.142C341.2 96.4565 346.603 101.295 352.921 100.944C359.235 100.594 364.074 95.1907 363.723 88.8724C363.373 82.5579 357.97 77.7196 351.655 78.0702C345.337 78.4208 340.502 83.8237 340.853 90.142H340.849ZM345.448 89.8873C345.237 86.1082 348.131 82.879 351.91 82.6686C355.685 82.4582 358.918 85.3516 359.128 89.1308C359.339 92.9099 356.445 96.1391 352.67 96.3495C348.891 96.5599 345.662 93.6665 345.451 89.8873H345.448Z"
            fill="black" />
        <path d="M119.265 69.4031L110.589 82.1317L114.837 85.0273L123.513 72.2987L119.265 69.4031Z" fill="black" />
        <path d="M109.914 91.6538L105.749 88.7483L104.529 90.4978L108.694 93.4033L109.914 91.6538Z" fill="black" />
        <path d="M108.384 92.0795L105.881 90.3333L104.057 92.9484L106.56 94.6947L108.384 92.0795Z" fill="black" />
        <path d="M109.914 91.6538L105.749 88.7483L104.529 90.4978L108.694 93.4033L109.914 91.6538Z" fill="black" />
        <path
            d="M107.074 95.9211L106.975 95.4044C106.823 94.622 106.373 93.9282 105.716 93.4706C105.063 93.013 104.255 92.8284 103.465 92.9576L102.945 93.0425H102.941L101.498 95.1129L101.605 95.637C101.76 96.412 102.21 97.0947 102.856 97.5487L102.878 97.5634C103.524 98.0137 104.321 98.2019 105.103 98.0801L105.631 97.9989L107.074 95.9285V95.9211Z"
            fill="black" />
        <path d="M104.985 97.0705L102.603 95.4087L101.435 97.0825L103.817 98.7443L104.985 97.0705Z" fill="black" />
        <path d="M104.111 94.729L99.1248 101.874L99.2761 102.664L100.099 102.553L105.081 95.4081L104.111 94.729Z"
            fill="black" />
        <path d="M109.731 92.8247L104.701 89.315L104.081 84.7054L114.271 91.8172L109.731 92.8247Z" fill="#F84018" />
        <path d="M112.053 78.3872L117.452 82.1515L118.888 85.9934L107.953 78.3613L112.053 78.3872Z" fill="#F84018" />
        <path d="M119.5 85.8325L107.899 77.739L103.27 84.3738L114.872 92.4673L119.5 85.8325Z" fill="black" />
        <path d="M122.202 68.2495L102.778 47.479L108.377 42.124L127.8 62.8945L122.202 68.2495Z" fill="black" />
        <path
            d="M101.476 52.7823L90.688 41.5113C87.4514 38.1271 87.5695 32.7573 90.9501 29.5207C94.3343 26.2841 99.7041 26.4022 102.941 29.7827L113.728 41.0537L101.472 52.7823H101.476Z"
            fill="#F84018" />
        <path
            d="M118.22 70.7554L110.617 62.8133L122.873 51.0847L130.476 59.0268C133.713 62.411 133.594 67.7808 130.214 71.0174C126.83 74.254 121.46 74.1359 118.223 70.7554H118.22Z"
            fill="#F84018" />
        <path
            d="M122.807 69.1351C120.548 68.1534 119.508 65.5147 120.493 63.2524C121.475 60.9937 124.113 59.953 126.376 60.9384C128.638 61.9238 129.675 64.5588 128.69 66.8211C127.708 69.0798 125.069 70.1205 122.807 69.1351ZM125.623 62.6656C124.313 62.0972 122.785 62.6988 122.216 64.0052C121.648 65.3117 122.25 66.8433 123.556 67.4116C124.866 67.98 126.394 67.3784 126.963 66.072C127.531 64.7618 126.929 63.2339 125.623 62.6656Z"
            fill="black" />
        <path d="M78.5082 75.3071L58.7401 60.3674L55.6227 64.4924L75.3908 79.432L78.5082 75.3071Z" fill="black" />
        <path
            d="M42.7958 101.955C39.8249 99.7003 39.2454 95.4635 41.4967 92.4926L66.4633 59.5618L77.2213 67.7253L52.2547 100.656C49.9997 103.627 45.763 104.206 42.7921 101.955H42.7958Z"
            fill="black" />
        <path
            d="M78.0996 78.8672L103.863 39.8247C107.174 34.8056 106.011 28.0814 101.206 24.4683C96.4011 20.8552 89.6141 21.6044 85.7132 26.177L55.4285 61.7356L78.0996 78.8672Z"
            fill="#F84018" />
        <path
            d="M100.173 37.9831C97.7555 41.2013 93.1681 41.8471 89.9537 39.4298C86.7355 37.0125 86.0897 32.4251 88.507 29.2106C90.9243 25.9925 95.5117 25.3466 98.7261 27.7639C101.944 30.1812 102.59 34.7686 100.173 37.9831ZM90.9612 31.0559C89.5625 32.9196 89.9352 35.5732 91.7989 36.9719C93.6627 38.3706 96.3162 37.9978 97.7149 36.1341C99.1136 34.2704 98.7409 31.6169 96.8772 30.2181C95.0134 28.8194 92.3599 29.1922 90.9612 31.0559Z"
            fill="black" />
        <path
            d="M60.8555 109.048C68.0517 101.851 68.0517 90.184 60.8555 82.9879C53.6593 75.7917 41.992 75.7917 34.7958 82.9879C27.5996 90.184 27.5996 101.851 34.7958 109.048C41.992 116.244 53.6593 116.244 60.8555 109.048Z"
            fill="#F84018" />
        <path
            d="M41.9617 85.5877C36.3262 88.5623 34.1672 95.5448 37.1418 101.18C40.1164 106.816 47.0989 108.975 52.7344 106C58.3736 103.026 60.5289 96.0431 57.5543 90.4076C54.5797 84.7721 47.5971 82.6131 41.9617 85.5877ZM50.5717 101.9C47.2022 103.679 43.0282 102.387 41.2457 99.0177C39.4668 95.6482 40.7548 91.4705 44.128 89.6916C47.4975 87.9128 51.6752 89.2008 53.4541 92.5739C55.2329 95.9434 53.9449 100.121 50.5717 101.9Z"
            fill="black" />
        <path
            d="M284.848 261.184C279.457 252.227 273.755 243.056 267.669 233.564L265.861 229.062C264.58 221.363 262.048 212.336 258.878 204.187L258.848 204.106C254.316 192.972 247.253 179.73 237.842 164.735L237.38 84.2811C237.336 76.7302 231.243 70.5891 223.788 70.5891L153.513 70.6334C146.098 70.6371 140.038 76.7708 140.005 84.3069L139.802 133.122C133.897 130.638 129.339 129.461 125.76 129.461C120.268 129.461 117.725 132.31 116.699 134.008C112.163 141.503 119.139 150.324 121.43 153.224C124.649 157.295 129.295 162.03 135.285 167.348C132.181 169.865 129.051 173.441 127.789 178.191C126.553 182.837 127.273 187.624 129.922 192.459C125.874 198.954 126.306 206.608 131.292 214.015C131.746 214.694 132.244 215.381 132.775 216.056C133.846 217.418 134.901 218.625 135.957 219.68C133.598 221.618 131.229 224.316 130.059 227.873C129.033 230.999 128.583 235.967 132.273 241.872C132.764 242.665 133.329 243.47 133.96 244.278C137.975 249.4 142.087 251.999 146.179 251.999C146.493 251.999 146.807 251.984 147.113 251.951C148.914 252.84 150.9 253.32 152.911 253.335L182.568 253.585L195.197 261.177H284.848V261.184Z"
            fill="#F5F7FA" />
        <path
            d="M257.978 261.184C262.768 257.534 266.163 252.788 267.078 246.965L243.322 187.783C182.018 122.571 132.214 217.326 153.343 229.56L205.933 261.184H257.974H257.978Z"
            fill="#FDB477" />
        <path d="M278.379 261.184C273.293 252.792 267.879 244.123 262.085 235.114L214.503 261.184H278.379Z"
            fill="#FDB477" />
        <path
            d="M187.156 248.083C187.156 248.083 204.461 246.946 221.762 252.165C231.859 255.209 235.524 247.74 232.192 239.307C226.977 226.113 211.558 214.429 196.611 219.876C183.472 224.663 179.21 244.249 187.159 248.083H187.156Z"
            fill="#D98641" />
        <path
            d="M229.582 197.615C229.582 197.615 130.266 122.275 121.438 136.868C111.329 153.579 216.256 218.459 216.256 218.459L229.582 197.615Z"
            fill="#FDB477" />
        <path
            d="M224.622 248.408L152.955 247.802C148.482 247.766 144.877 243.942 144.895 239.27L145.541 84.3291C145.559 79.8229 149.128 76.1693 153.516 76.1693L223.792 76.125C228.213 76.125 231.819 79.786 231.845 84.3144L232.741 239.975C232.767 244.669 229.136 248.448 224.626 248.411L224.622 248.408Z"
            fill="black" />
        <path
            d="M225.615 247.286C225.316 247.323 225.013 247.341 224.711 247.337L153.066 246.655C149.224 246.618 146.091 243.267 146.106 239.189L146.729 84.4178C146.744 80.4836 149.844 77.2802 153.612 77.2765L223.884 77.1621C223.995 77.1621 224.106 77.1621 224.213 77.1695C225.98 77.2507 227.63 78.0072 228.863 79.3026C230.121 80.6239 230.819 82.3769 230.83 84.2332L231.708 240.052C231.73 243.747 229.117 246.854 225.611 247.286H225.615Z"
            fill="#33201B" />
        <path d="M228.324 85.3551L229.154 240.632L148.445 239.982L149.025 85.1632L228.324 85.3551Z" fill="white" />
        <path
            d="M220.548 145.674H157.395C156.439 145.674 155.664 146.449 155.664 147.404V178.49C155.664 179.446 156.439 180.221 157.395 180.221H220.548C221.504 180.221 222.279 179.446 222.279 178.49V147.404C222.279 146.449 221.504 145.674 220.548 145.674Z"
            fill="#F84018" />
        <path
            d="M215.68 155.546H161.049C161.004 155.546 160.967 155.509 160.967 155.465C160.967 155.42 161.004 155.383 161.049 155.383H215.68C215.724 155.383 215.761 155.42 215.761 155.465C215.761 155.509 215.724 155.546 215.68 155.546Z"
            fill="black" />
        <path
            d="M215.68 167.127H161.049C161.004 167.127 160.967 167.09 160.967 167.046C160.967 167.001 161.004 166.964 161.049 166.964H215.68C215.724 166.964 215.761 167.001 215.761 167.046C215.761 167.09 215.724 167.127 215.68 167.127Z"
            fill="black" />
        <path
            d="M215.68 161.488H161.049C161.004 161.488 160.967 161.451 160.967 161.407C160.967 161.362 161.004 161.325 161.049 161.325H215.68C215.724 161.325 215.761 161.362 215.761 161.407C215.761 161.451 215.724 161.488 215.68 161.488Z"
            fill="black" />
        <path
            d="M215.68 172.998H160.886L160.816 152.346C160.816 152.258 160.886 152.184 160.975 152.184C161.063 152.184 161.134 152.254 161.137 152.342L161.204 172.674H215.676C215.765 172.674 215.839 172.744 215.839 172.836C215.839 172.928 215.765 172.998 215.676 172.998H215.68Z"
            fill="black" />
        <path
            d="M189.241 157.594L176.811 169.54L170.404 163.875L160.934 172.722C160.868 172.781 160.864 172.884 160.927 172.951C160.96 172.984 161.001 173.002 161.045 173.002C161.085 173.002 161.122 172.987 161.156 172.958L170.412 164.311L176.818 169.98L189.237 158.041V157.594H189.241Z"
            fill="black" />
        <path
            d="M171.275 164.112C171.275 164.588 170.888 164.975 170.412 164.975C169.935 164.975 169.548 164.588 169.548 164.112C169.548 163.636 169.935 163.248 170.412 163.248C170.888 163.248 171.275 163.636 171.275 164.112Z"
            fill="black" />
        <path
            d="M177.782 169.673C177.782 170.149 177.394 170.537 176.918 170.537C176.442 170.537 176.055 170.149 176.055 169.673C176.055 169.197 176.442 168.81 176.918 168.81C177.394 168.81 177.782 169.197 177.782 169.673Z"
            fill="black" />
        <path
            d="M189.344 158.546C189.821 158.546 190.208 158.16 190.208 157.683C190.208 157.206 189.821 156.819 189.344 156.819C188.867 156.819 188.48 157.206 188.48 157.683C188.48 158.16 188.867 158.546 189.344 158.546Z"
            fill="black" />
        <path
            d="M186.141 102.778H157.572C156.616 102.778 155.841 103.553 155.841 104.509V126.711C155.841 127.667 156.616 128.442 157.572 128.442H186.141C187.097 128.442 187.872 127.667 187.872 126.711V104.509C187.872 103.553 187.097 102.778 186.141 102.778Z"
            fill="#F84018" />
        <path
            d="M186.392 122.988H158.952V104.07C158.952 103.989 159.019 103.922 159.1 103.922C159.181 103.922 159.248 103.989 159.248 104.07V122.696H186.392C186.473 122.696 186.539 122.763 186.539 122.844C186.539 122.925 186.473 122.991 186.392 122.991V122.988Z"
            fill="black" />
        <path d="M164.713 117.05H161.683V122.844H164.713V117.05Z" fill="black" />
        <path d="M168.935 115.728H165.906V122.84H168.935V115.728Z" fill="black" />
        <path d="M173.157 113.053H170.127V122.84H173.157V113.053Z" fill="black" />
        <path d="M177.379 111.182H174.349V122.84H177.379V111.182Z" fill="black" />
        <path d="M181.601 107.151H178.571V122.844H181.601V107.151Z" fill="black" />
        <path
            d="M220.544 102.778H191.976C191.02 102.778 190.245 103.553 190.245 104.509V126.711C190.245 127.667 191.02 128.442 191.976 128.442H220.544C221.5 128.442 222.275 127.667 222.275 126.711V104.509C222.275 103.553 221.5 102.778 220.544 102.778Z"
            fill="#F84018" />
        <path
            d="M220.795 122.988H193.356V105.096C193.356 105.015 193.422 104.948 193.503 104.948C193.585 104.948 193.651 105.015 193.651 105.096V122.696H220.795C220.876 122.696 220.943 122.763 220.943 122.844C220.943 122.925 220.876 122.991 220.795 122.991V122.988Z"
            fill="black" />
        <path
            d="M193.503 122.844C198.098 122.445 198.74 103.963 205.56 112.248C212.037 120.12 212.381 105.502 219.419 105.502V122.681L193.503 122.844Z"
            fill="black" />
        <path d="M222.301 100.357H155.875V94.6996H222.301V100.357ZM156.037 100.199H222.142V94.8583H156.037V100.199Z"
            fill="black" />
        <path d="M183.059 96.5781H172.032V98.4788H183.059V96.5781Z" fill="black" />
        <path d="M189.846 96.5781H184.144V98.4788H189.846V96.5781Z" fill="black" />
        <path d="M170.567 96.5781H157.096V98.4788H170.567V96.5781Z" fill="black" />
        <path d="M187.676 132.052H156.063V133.845H187.676V132.052Z" fill="black" />
        <path d="M183.709 138.651H156.063V140.444H183.709V138.651Z" fill="black" />
        <path d="M204.025 135.311H156.063V137.104H204.025V135.311Z" fill="black" />
        <path
            d="M188.414 192.042C188.414 192.042 188.396 192.042 188.385 192.042C178.154 192.042 169.862 200.334 169.862 210.565C169.862 220.795 178.154 229.088 188.385 229.088C191.485 229.088 194.408 228.324 196.976 226.977L188.414 210.561V192.038V192.042Z"
            fill="#F84018" />
        <path d="M196.976 226.98C202.881 223.884 206.907 217.695 206.907 210.565H188.41L196.972 226.98H196.976Z"
            fill="#8B1D04" />
        <path d="M188.414 192.042V210.565H206.911C206.911 200.342 198.633 192.057 188.414 192.042Z" fill="#FDBEB0" />
        <path
            d="M252.958 252.08C209.926 249.12 221.541 186.307 221.541 186.307C221.541 186.307 206.144 166.415 208.428 154.07C210.712 141.728 217.304 144.109 217.304 144.109C217.304 144.109 217.669 144.607 218.333 145.533C219.581 147.279 221.899 150.553 224.814 154.87C233.125 167.182 246.315 187.99 253.719 206.191C260.509 223.651 267.008 253.043 252.958 252.08Z"
            fill="#FDB477" />
        <path
            d="M223.801 154.341C222.59 155.153 220.645 156.348 218.726 157.064C213.832 151.514 216.944 145.661 217.324 145C218.571 146.746 220.889 150.019 223.804 154.337L223.801 154.341Z"
            fill="#FFD3AD" />
        <path
            d="M145.567 219.566C143.205 218.883 140.352 216.746 137.134 212.639C136.68 212.059 136.267 211.487 135.89 210.93C125.151 194.976 144.987 187.111 144.987 187.111C144.987 187.111 146.788 193.747 149.678 198.858C155.624 209.362 153.025 221.725 145.567 219.566Z"
            fill="#FDB477" />
        <path
            d="M144.172 217.315C142.54 216.842 140.57 215.366 138.344 212.528C138.031 212.126 137.746 211.735 137.484 211.347C137.828 210.358 138.614 208.867 140.407 207.158C144.784 207.516 145.231 215.082 144.172 217.315Z"
            fill="#FFD3AD" />
        <path
            d="M146.655 246.433C144.548 246.703 141.695 245.171 138.318 240.861C137.809 240.207 137.363 239.573 136.982 238.956C129.45 226.895 144.448 220.95 144.448 220.95C144.448 220.95 145.851 226.124 148.106 230.11C152.239 237.417 151.08 245.872 146.659 246.433H146.655Z"
            fill="#FDB477" />
        <path
            d="M145.762 244.437C144.197 244.636 142.083 243.499 139.577 240.303C139.197 239.82 138.868 239.347 138.584 238.89C139.079 237.934 139.898 236.753 141.263 235.45C145.057 235.76 146.098 241.123 145.762 244.433V244.437Z"
            fill="#FFD3AD" />
        <path
            d="M146.464 200.515C143.947 200.143 140.802 198.013 137.182 193.396C136.957 193.112 136.743 192.828 136.54 192.547C124.49 176.021 145.035 167.872 145.035 167.872C145.035 167.872 146.836 174.508 149.726 179.616C155.439 189.713 153.265 201.527 146.464 200.515Z"
            fill="#FDB477" />
        <path
            d="M144.884 198.124C143.212 197.877 141.12 196.459 138.713 193.392C138.562 193.204 138.422 193.012 138.285 192.828C138.566 191.887 139.293 190.34 141.179 188.543C145.272 188.879 145.792 195.773 144.884 198.127V198.124Z"
            fill="#FFD3AD" />
        <path
            d="M261.79 18.1537H265.986C266.314 18.1537 266.58 17.888 266.58 17.5595C266.58 17.2311 266.314 16.9653 265.986 16.9653H261.79C261.461 16.9653 261.196 17.2311 261.196 17.5595C261.196 17.888 261.461 18.1537 261.79 18.1537Z"
            fill="#DA2D07" />
        <path
            d="M261.79 20.3126H265.986C266.314 20.3126 266.58 20.0469 266.58 19.7184C266.58 19.39 266.314 19.1243 265.986 19.1243H261.79C261.461 19.1243 261.196 19.39 261.196 19.7184C261.196 20.0469 261.461 20.3126 261.79 20.3126Z"
            fill="#DA2D07" />
        <path
            d="M261.79 22.4752H265.986C266.314 22.4752 266.58 22.2095 266.58 21.881C266.58 21.5526 266.314 21.2869 265.986 21.2869H261.79C261.461 21.2869 261.196 21.5526 261.196 21.881C261.196 22.2095 261.461 22.4752 261.79 22.4752Z"
            fill="#DA2D07" />
        <path
            d="M275.035 35.9828C276.493 36.7468 278.154 37.1822 279.914 37.1822C285.727 37.1822 290.436 32.4694 290.436 26.6605C290.436 20.8515 285.723 16.1387 279.914 16.1387H279.899V21.2427C282.892 21.2427 285.317 23.6674 285.317 26.6605C285.317 29.6535 282.892 32.0782 279.899 32.0782C278.995 32.0782 278.143 31.8568 277.394 31.4656L275.035 35.9828Z"
            fill="#DA2D07" />
        <path
            d="M269.392 26.6567C269.392 30.7053 271.681 34.2224 275.035 35.9828L277.394 31.4655C275.663 30.5614 274.482 28.7493 274.482 26.6604H269.392V26.6567Z"
            fill="#F84018" />
        <path
            d="M269.392 26.6568H274.482C274.482 23.6638 276.906 21.2391 279.899 21.2391V16.135C274.094 16.1424 269.392 20.8515 269.392 26.6568Z"
            fill="#FB8D74" />
        <path
            d="M160.458 8.35889H146.648C145.217 8.35889 144.057 9.51881 144.057 10.9497V23.7559C144.057 25.1867 145.217 26.3467 146.648 26.3467H160.458C161.889 26.3467 163.049 25.1867 163.049 23.7559V10.9497C163.049 9.51881 161.889 8.35889 160.458 8.35889Z"
            fill="#DA2D07" />
        <path d="M149.257 18.1499H147.46V23.3388H149.257V18.1499Z" fill="#FDBEB0" />
        <path d="M151.759 17.3674H149.962V23.3388H151.759V17.3674Z" fill="#FDBEB0" />
        <path d="M154.262 15.7805H152.464V23.3388H154.262V15.7805Z" fill="#FDBEB0" />
        <path d="M156.768 14.6733H154.97V23.3425H156.768V14.6733Z" fill="#FDBEB0" />
        <path d="M159.27 12.282H157.472V23.3426H159.27V12.282Z" fill="#FDBEB0" />
        <path
            d="M94.338 0.81543C94.338 0.81543 94.3307 0.81543 94.327 0.81543C89.9426 0.81543 86.3849 4.36944 86.3849 8.75751C86.3849 13.1456 89.9389 16.6996 94.327 16.6996C95.6556 16.6996 96.9104 16.3711 98.0101 15.7954L94.338 8.75751V0.81543Z"
            fill="#F84018" />
        <path d="M98.0101 15.7918C100.542 14.4632 102.269 11.8134 102.269 8.75391H94.3417L98.0138 15.7918H98.0101Z"
            fill="#DA2D07" />
        <path d="M94.338 0.81543V8.75751H102.265C102.269 4.37313 98.7187 0.822811 94.338 0.81543Z" fill="#FEDED7" />
    </g>
    <defs>
        <linearGradient id="paint0_linear_319_2011" x1="198.689" y1="305.228" x2="192.584" y2="77.0145"
            gradientUnits="userSpaceOnUse">
            <stop offset="0.09" stop-color="#ED5E3E" />
            <stop offset="0.87" stop-color="#FFC9BD" />
        </linearGradient>
        <linearGradient id="paint1_linear_319_2011" x1="92.7807" y1="308.058" x2="86.6765" y2="79.8488"
            gradientUnits="userSpaceOnUse">
            <stop offset="0.09" stop-color="#FB8D74" />
            <stop offset="0.87" stop-color="#FFC9BD" />
        </linearGradient>
        <linearGradient id="paint2_linear_319_2011" x1="306.471" y1="302.342" x2="300.367" y2="74.1321"
            gradientUnits="userSpaceOnUse">
            <stop offset="0.09" stop-color="#FB8D74" />
            <stop offset="0.87" stop-color="#FFC9BD" />
        </linearGradient>
        <clipPath id="clip0_319_2011">
            <rect width="391" height="260.369" fill="white" transform="translate(0 0.81543)" />
        </clipPath>
    </defs>
</svg>