<svg width="143" height="28" viewBox="0 0 143 28" fill="none" xmlns="http://www.w3.org/2000/svg">
    <path
        d="M5.83935 7.88701C7.16892 7.88701 8.3308 8.15053 9.32499 8.67757C10.3192 9.20461 11.0858 9.94725 11.6248 10.9055C12.1758 11.8518 12.4513 12.9478 12.4513 14.1935C12.4513 15.4273 12.1758 16.5233 11.6248 17.4815C11.0858 18.4398 10.3132 19.1824 9.30702 19.7094C8.31283 20.2365 7.15694 20.5 5.83935 20.5H1.11397V7.88701H5.83935ZM5.64171 17.8409C6.80359 17.8409 7.70794 17.5234 8.35476 16.8886C9.00158 16.2537 9.32499 15.3554 9.32499 14.1935C9.32499 13.0316 9.00158 12.1273 8.35476 11.4805C7.70794 10.8336 6.80359 10.5102 5.64171 10.5102H4.18636V17.8409H5.64171ZM15.7135 9.43219C15.1744 9.43219 14.7312 9.27648 14.3839 8.96504C14.0485 8.64163 13.8808 8.24636 13.8808 7.77921C13.8808 7.30008 14.0485 6.9048 14.3839 6.59337C14.7312 6.26996 15.1744 6.10826 15.7135 6.10826C16.2405 6.10826 16.6717 6.26996 17.0071 6.59337C17.3545 6.9048 17.5281 7.30008 17.5281 7.77921C17.5281 8.24636 17.3545 8.64163 17.0071 8.96504C16.6717 9.27648 16.2405 9.43219 15.7135 9.43219ZM17.2407 10.4743V20.5H14.1683V10.4743H17.2407ZM23.2763 10.3306C23.983 10.3306 24.5998 10.4743 25.1269 10.7618C25.6659 11.0492 26.0791 11.4266 26.3666 11.8937V10.4743H29.439V20.482C29.439 21.4044 29.2533 22.2368 28.882 22.9795C28.5227 23.7341 27.9657 24.333 27.2111 24.7762C26.4684 25.2194 25.5401 25.441 24.4262 25.441C22.9409 25.441 21.7371 25.0876 20.8147 24.3809C19.8924 23.6862 19.3654 22.7399 19.2336 21.5421H22.2701C22.3659 21.9254 22.5935 22.2249 22.9528 22.4405C23.3122 22.668 23.7554 22.7818 24.2824 22.7818C24.9173 22.7818 25.4203 22.5962 25.7917 22.2249C26.175 21.8655 26.3666 21.2846 26.3666 20.482V19.0626C26.0672 19.5298 25.6539 19.9131 25.1269 20.2125C24.5998 20.5 23.983 20.6437 23.2763 20.6437C22.4498 20.6437 21.7011 20.4341 21.0304 20.0149C20.3596 19.5837 19.8265 18.9788 19.4313 18.2002C19.048 17.4096 18.8563 16.4993 18.8563 15.4692C18.8563 14.4391 19.048 13.5347 19.4313 12.7561C19.8265 11.9775 20.3596 11.3786 21.0304 10.9594C21.7011 10.5402 22.4498 10.3306 23.2763 10.3306ZM26.3666 15.4871C26.3666 14.7205 26.151 14.1156 25.7198 13.6725C25.3006 13.2293 24.7855 13.0077 24.1746 13.0077C23.5637 13.0077 23.0427 13.2293 22.6115 13.6725C22.1922 14.1037 21.9826 14.7026 21.9826 15.4692C21.9826 16.2358 22.1922 16.8467 22.6115 17.3018C23.0427 17.745 23.5637 17.9666 24.1746 17.9666C24.7855 17.9666 25.3006 17.745 25.7198 17.3018C26.151 16.8586 26.3666 16.2537 26.3666 15.4871ZM33.2069 9.43219C32.6679 9.43219 32.2247 9.27648 31.8774 8.96504C31.542 8.64163 31.3743 8.24636 31.3743 7.77921C31.3743 7.30008 31.542 6.9048 31.8774 6.59337C32.2247 6.26996 32.6679 6.10826 33.2069 6.10826C33.734 6.10826 34.1652 6.26996 34.5006 6.59337C34.8479 6.9048 35.0216 7.30008 35.0216 7.77921C35.0216 8.24636 34.8479 8.64163 34.5006 8.96504C34.1652 9.27648 33.734 9.43219 33.2069 9.43219ZM34.7341 10.4743V20.5H31.6618V10.4743H34.7341ZM43.0695 10.3665C44.2434 10.3665 45.1777 10.7498 45.8724 11.5164C46.5791 12.271 46.9325 13.3131 46.9325 14.6427V20.5H43.8781V15.0559C43.8781 14.3852 43.7044 13.8641 43.357 13.4928C43.0096 13.1215 42.5425 12.9358 41.9556 12.9358C41.3686 12.9358 40.9015 13.1215 40.5541 13.4928C40.2068 13.8641 40.0331 14.3852 40.0331 15.0559V20.5H36.9607V10.4743H40.0331V11.8039C40.3445 11.3607 40.7637 11.0133 41.2908 10.7618C41.8178 10.4982 42.4107 10.3665 43.0695 10.3665ZM48.4566 15.4692C48.4566 14.4391 48.6483 13.5347 49.0316 12.7561C49.4268 11.9775 49.9599 11.3786 50.6306 10.9594C51.3014 10.5402 52.0501 10.3306 52.8765 10.3306C53.5353 10.3306 54.1343 10.4683 54.6733 10.7438C55.2243 11.0193 55.6555 11.3906 55.9669 11.8578V7.20426H59.0393V20.5H55.9669V19.0626C55.6794 19.5417 55.2662 19.925 54.7272 20.2125C54.2001 20.5 53.5833 20.6437 52.8765 20.6437C52.0501 20.6437 51.3014 20.4341 50.6306 20.0149C49.9599 19.5837 49.4268 18.9788 49.0316 18.2002C48.6483 17.4096 48.4566 16.4993 48.4566 15.4692ZM55.9669 15.4871C55.9669 14.7205 55.7513 14.1156 55.3201 13.6725C54.9009 13.2293 54.3858 13.0077 53.7749 13.0077C53.164 13.0077 52.643 13.2293 52.2118 13.6725C51.7925 14.1037 51.5829 14.7026 51.5829 15.4692C51.5829 16.2358 51.7925 16.8467 52.2118 17.3018C52.643 17.745 53.164 17.9666 53.7749 17.9666C54.3858 17.9666 54.9009 17.745 55.3201 17.3018C55.7513 16.8586 55.9669 16.2537 55.9669 15.4871ZM71.162 10.4743V20.5H68.0896V19.1345C67.7782 19.5777 67.3529 19.937 66.8139 20.2125C66.2869 20.476 65.7 20.6078 65.0531 20.6078C64.2865 20.6078 63.6098 20.4401 63.0228 20.1047C62.4359 19.7574 61.9807 19.2603 61.6573 18.6134C61.3339 17.9666 61.1722 17.206 61.1722 16.3316V10.4743H64.2266V15.9184C64.2266 16.5891 64.4003 17.1102 64.7477 17.4815C65.0951 17.8528 65.5622 18.0385 66.1491 18.0385C66.748 18.0385 67.2212 17.8528 67.5685 17.4815C67.9159 17.1102 68.0896 16.5891 68.0896 15.9184V10.4743H71.162ZM77.4474 20.6437C76.573 20.6437 75.7944 20.494 75.1117 20.1946C74.4289 19.8951 73.8899 19.4878 73.4946 18.9728C73.0994 18.4457 72.8778 17.8588 72.8298 17.212H75.8663C75.9022 17.5594 76.0639 17.8409 76.3514 18.0565C76.6389 18.2721 76.9923 18.3799 77.4115 18.3799C77.7948 18.3799 78.0883 18.308 78.2919 18.1643C78.5075 18.0085 78.6153 17.8109 78.6153 17.5713C78.6153 17.2839 78.4656 17.0742 78.1661 16.9425C77.8667 16.7988 77.3815 16.643 76.7108 16.4753C75.9921 16.3076 75.3932 16.134 74.914 15.9543C74.4349 15.7626 74.0217 15.4692 73.6743 15.0739C73.3269 14.6666 73.1533 14.1216 73.1533 13.4389C73.1533 12.8639 73.309 12.3429 73.6204 11.8757C73.9438 11.3966 74.411 11.0193 75.0219 10.7438C75.6447 10.4683 76.3814 10.3306 77.2318 10.3306C78.4895 10.3306 79.4777 10.642 80.1964 11.2648C80.9271 11.8877 81.3463 12.7142 81.4541 13.7443H78.6153C78.5674 13.397 78.4117 13.1215 78.1481 12.9178C77.8966 12.7142 77.5612 12.6124 77.142 12.6124C76.7826 12.6124 76.5071 12.6843 76.3155 12.828C76.1238 12.9598 76.028 13.1454 76.028 13.385C76.028 13.6725 76.1777 13.8881 76.4772 14.0318C76.7886 14.1755 77.2678 14.3193 77.9146 14.463C78.6572 14.6547 79.2621 14.8463 79.7293 15.038C80.1964 15.2176 80.6037 15.5171 80.951 15.9363C81.3104 16.3436 81.496 16.8946 81.508 17.5893C81.508 18.1762 81.3403 18.7033 81.0049 19.1704C80.6815 19.6256 80.2084 19.9849 79.5855 20.2485C78.9746 20.512 78.2619 20.6437 77.4474 20.6437ZM88.9755 17.8948V20.5H87.4124C86.2984 20.5 85.43 20.2305 84.8071 19.6915C84.1842 19.1405 83.8728 18.2481 83.8728 17.0144V13.0256H82.651V10.4743H83.8728V8.03075H86.9452V10.4743H88.9575V13.0256H86.9452V17.0503C86.9452 17.3497 87.0171 17.5654 87.1608 17.6971C87.3045 17.8289 87.5441 17.8948 87.8795 17.8948H88.9755ZM93.7593 12.1452C94.1186 11.5942 94.5678 11.163 95.1068 10.8516C95.6458 10.5282 96.2447 10.3665 96.9035 10.3665V13.6186H96.0591C95.2925 13.6186 94.7175 13.7862 94.3342 14.1216C93.9509 14.445 93.7593 15.02 93.7593 15.8465V20.5H90.6869V10.4743H93.7593V12.1452ZM108.613 10.4743L102.325 25.2613H99.0189L101.319 20.1586L97.2401 10.4743H100.672L102.99 16.7449L105.289 10.4743H108.613ZM121.258 20.5L118.689 16.637L116.425 20.5H112.939L116.982 14.0857L112.849 7.88701H116.425L118.958 11.6961L121.186 7.88701H124.672L120.665 14.2474L124.833 20.5H121.258ZM127.813 20.6437C127.274 20.6437 126.831 20.488 126.483 20.1766C126.148 19.8532 125.98 19.4579 125.98 18.9908C125.98 18.5116 126.148 18.1104 126.483 17.7869C126.831 17.4635 127.274 17.3018 127.813 17.3018C128.34 17.3018 128.771 17.4635 129.107 17.7869C129.454 18.1104 129.628 18.5116 129.628 18.9908C129.628 19.4579 129.454 19.8532 129.107 20.1766C128.771 20.488 128.34 20.6437 127.813 20.6437ZM131.141 13.7623C131.141 11.7021 131.536 10.079 132.327 8.89318C133.129 7.70734 134.417 7.11442 136.19 7.11442C137.963 7.11442 139.244 7.70734 140.035 8.89318C140.837 10.079 141.239 11.7021 141.239 13.7623C141.239 15.8465 140.837 17.4815 140.035 18.6673C139.244 19.8532 137.963 20.4461 136.19 20.4461C134.417 20.4461 133.129 19.8532 132.327 18.6673C131.536 17.4815 131.141 15.8465 131.141 13.7623ZM138.22 13.7623C138.22 12.5525 138.088 11.6242 137.825 10.9774C137.561 10.3186 137.016 9.98918 136.19 9.98918C135.363 9.98918 134.818 10.3186 134.555 10.9774C134.291 11.6242 134.16 12.5525 134.16 13.7623C134.16 14.5768 134.207 15.2536 134.303 15.7926C134.399 16.3196 134.591 16.7508 134.878 17.0862C135.178 17.4096 135.615 17.5713 136.19 17.5713C136.765 17.5713 137.196 17.4096 137.483 17.0862C137.783 16.7508 137.981 16.3196 138.076 15.7926C138.172 15.2536 138.22 14.5768 138.22 13.7623Z"
        fill="#F84018" />
</svg>