<svg width="124" height="43" viewBox="0 0 124 43" fill="none" xmlns="http://www.w3.org/2000/svg">
    <g clip-path="url(#clip0_483_862)">
        <path d="M4.64323 38.3919L7.41568 35.6589L6.72959 34.97L3.95996 37.7059L4.64323 38.3919Z" fill="#A90019" />
        <path d="M6.87352 40.6746L9.67071 37.9111L8.91433 37.1542L6.11377 39.9182L6.87352 40.6746Z" fill="#A90019" />
        <path
            d="M56.0404 32.7172H51.4763C50.6716 32.7172 49.9793 32.4663 49.4276 31.9737C48.8298 31.4451 48.5278 30.7489 48.5278 29.916V24.388C48.5278 23.554 48.8298 22.8618 49.4276 22.3331C49.9793 21.84 50.6693 21.5891 51.4763 21.5891H56.0477V23.6946H51.4763C51.217 23.6869 50.9644 23.7777 50.7694 23.9488C50.572 24.1248 50.5445 24.2772 50.5445 24.3908V25.9784H55.662V28.0833H50.5445V29.9149C50.5445 30.0274 50.5703 30.1837 50.7632 30.3569C50.954 30.5286 51.204 30.6196 51.4606 30.6106H56.0691L56.0404 32.7172Z"
            fill="#3B3839" />
        <path
            d="M46.7263 32.6575H44.8615L40.0623 24.9937V32.6575H38.27V21.6791H40.7551L40.781 21.7173L44.817 28.1839V21.6791H46.7263V32.6575Z"
            fill="#3B3839" />
        <path
            d="M66.1602 32.6429H63.5002L61.5719 29.0376L59.4518 32.6429H56.9268L60.2661 26.9203L57.1871 21.7055H59.7841L61.5769 25.0538L63.435 21.7055H65.897L62.8327 26.9349L66.1602 32.6429Z"
            fill="#3B3839" />
        <path d="M71.9957 32.6429H69.7733V23.9128H66.7944V21.7235H76.3023V23.9128H71.9957V32.6429Z" fill="#3B3839" />
        <path
            d="M85.47 32.6249H83.0097L80.6478 28.7632H79.7193V32.6249H77.5503V21.7415H81.8169C82.4052 21.7415 82.9186 21.8433 83.3353 22.0402C83.7356 22.2217 84.0899 22.4907 84.3723 22.8275C84.6419 23.1601 84.8405 23.5444 84.956 23.9567C85.0753 24.3775 85.1365 24.8127 85.1377 25.2501C85.1365 25.6186 85.0912 25.9856 85.0027 26.3434C84.917 26.6974 84.779 27.0366 84.5933 27.35C84.4101 27.6574 84.172 27.9286 83.8909 28.1502C83.6286 28.3525 83.3315 28.5049 83.0142 28.6001L85.47 32.6249ZM79.7221 26.8067H81.2664C81.4971 26.8072 81.7275 26.7872 81.9547 26.7471C82.1533 26.7128 82.3417 26.6342 82.5058 26.5171C82.6662 26.3936 82.7924 26.2312 82.8725 26.0453C82.9641 25.8451 83.0097 25.5763 83.0097 25.2541C83.0097 24.9166 82.9641 24.6445 82.8725 24.4448C82.7939 24.2605 82.6673 24.1006 82.5058 23.982C82.3414 23.8682 82.1527 23.7944 81.9547 23.7666C81.7272 23.729 81.497 23.7102 81.2664 23.7104H79.7221V26.8067Z"
            fill="#A90019" />
        <path
            d="M92.4434 32.7441C91.7806 32.7486 91.1258 32.5982 90.5314 32.3049C89.9393 32.0117 89.4115 31.6035 88.9787 31.1043C88.5256 30.5784 88.1704 29.9756 87.9299 29.3244C87.6694 28.6228 87.5387 27.8796 87.5441 27.1312C87.5391 26.3803 87.6698 25.6346 87.9299 24.9301C88.1698 24.2758 88.525 23.6697 88.9787 23.1407C89.4124 22.6424 89.94 22.2345 90.5314 21.94C91.1246 21.6496 91.7764 21.4986 92.4369 21.4986C93.0975 21.4986 93.7493 21.6496 94.3425 21.94C94.9375 22.2322 95.4681 22.6405 95.9031 23.1407C96.3556 23.6702 96.7119 24.2749 96.9558 24.9273C97.2204 25.6308 97.3538 26.3768 97.3495 27.1284C97.3544 27.8775 97.221 28.621 96.9558 29.3216C96.7121 29.9721 96.3558 30.5746 95.9031 31.1015C95.4679 31.6015 94.9374 32.0097 94.3425 32.3021C93.7518 32.5962 93.1004 32.7476 92.4406 32.7441M92.4406 23.9066C92.0622 23.905 91.6891 23.9943 91.3524 24.167C91.0133 24.3404 90.7114 24.5787 90.4639 24.8683C90.2061 25.1732 90.0018 25.5196 89.8599 25.8929C89.7085 26.2894 89.6322 26.7107 89.635 27.1351C89.6299 27.9617 89.923 28.7623 90.4605 29.3902C90.7118 29.6763 91.0155 29.9116 91.3552 30.0836C91.6922 30.2554 92.0652 30.3444 92.4434 30.3434C92.8195 30.3447 93.1904 30.2556 93.5248 30.0836C93.8608 29.9111 94.1607 29.6759 94.4083 29.3908C94.6656 29.0899 94.8679 28.7461 95.0061 28.3751C95.297 27.5735 95.297 26.6951 95.0061 25.8934C94.8681 25.5197 94.6658 25.1729 94.4083 24.8688C94.1608 24.5813 93.861 24.3433 93.5248 24.1676C93.1908 23.9943 92.8197 23.905 92.4434 23.9072"
            fill="#A90019" />
        <path
            d="M107.832 32.6249H106.004L105.988 32.5979L101.165 24.8953V32.6249H99.4287V21.7117H101.873L101.889 21.7387L105.976 28.2824V21.7117H107.832V32.6249Z"
            fill="#A90019" />
        <path d="M112.074 21.7415H109.905V32.6098H112.074V21.7415Z" fill="#A90019" />
        <path
            d="M118.957 32.6395C118.309 32.6414 117.669 32.4932 117.088 32.2065C116.507 31.9188 115.988 31.519 115.562 31.0301C115.118 30.5138 114.769 29.9221 114.533 29.2828C114.024 27.9005 114.024 26.3821 114.533 24.9998C114.768 24.3576 115.117 23.7629 115.562 23.2442C115.985 22.7491 116.504 22.3455 117.088 22.0581C118.075 21.5752 119.21 21.4928 120.257 21.8281C120.669 21.9648 121.059 22.1589 121.417 22.4045C121.778 22.6574 122.104 22.9567 122.387 23.2948C122.676 23.6451 122.923 24.0278 123.124 24.4352L123.154 24.501L123.098 24.5342C122.898 24.6534 122.735 24.7524 122.614 24.8266C122.494 24.9009 122.373 24.9729 122.256 25.0387L121.878 25.2568C121.743 25.3311 121.573 25.4301 121.338 25.5583L121.294 25.5825L121.268 25.5313C121.052 25.0896 120.724 24.7119 120.317 24.4352C119.916 24.159 119.44 24.0122 118.952 24.0146C118.584 24.0125 118.221 24.0985 117.892 24.2654C117.563 24.4339 117.268 24.6628 117.023 24.9402C116.768 25.2318 116.569 25.5679 116.436 25.9317C116.154 26.7113 116.154 27.5651 116.436 28.3448C116.571 28.7079 116.769 29.0438 117.023 29.3362C117.265 29.6149 117.561 29.8424 117.892 30.0054C118.284 30.1964 118.721 30.278 119.155 30.2417C119.59 30.2053 120.007 30.0524 120.362 29.799C120.787 29.498 121.126 29.0909 121.345 28.6181L121.37 28.5618L121.415 28.5888C121.633 28.7176 121.809 28.825 121.947 28.9055C122.086 28.9859 122.208 29.0607 122.32 29.1304C122.432 29.2001 122.556 29.2732 122.673 29.339C122.789 29.4048 122.964 29.5004 123.171 29.6078L123.227 29.6382L123.196 29.7068C122.999 30.1337 122.748 30.5338 122.45 30.8979C122.167 31.2503 121.837 31.5628 121.471 31.8269C121.106 32.0846 120.706 32.287 120.282 32.4275C119.855 32.5715 119.407 32.6441 118.957 32.6423"
            fill="#A90019" />
        <path d="M2.44885 36.2471L5.2123 33.4499L4.52622 32.7666L1.76221 35.561L2.44885 36.2471Z" fill="#A90019" />
        <path
            d="M9.3802 24.8537C9.38009 24.7259 9.3421 24.601 9.27103 24.4948C9.19996 24.3886 9.09901 24.3059 8.98093 24.2571C8.86285 24.2083 8.73295 24.1956 8.60764 24.2206C8.48234 24.2455 8.36726 24.3071 8.27695 24.3975C8.18664 24.4879 8.12515 24.603 8.10027 24.7284C8.07538 24.8537 8.08821 24.9836 8.13713 25.1016C8.18605 25.2197 8.26887 25.3205 8.37512 25.3915C8.48137 25.4625 8.60627 25.5004 8.73405 25.5004C8.90533 25.4998 9.06942 25.4314 9.19049 25.3103C9.31155 25.1891 9.37975 25.0249 9.3802 24.8537Z"
            fill="#A90019" />
        <path
            d="M27.6963 27.2875L13.373 12.9636L0.770996 25.5628V29.0151L5.21366 33.4578L4.52926 32.7734L8.2521 29.023V26.2241C7.92771 26.1096 7.65427 25.884 7.48012 25.5873C7.30597 25.2906 7.24233 24.9419 7.30045 24.6028C7.35857 24.2637 7.5347 23.9561 7.79771 23.7343C8.06072 23.5126 8.39367 23.3909 8.7377 23.3909C9.08172 23.3909 9.41467 23.5126 9.67768 23.7343C9.94069 23.9561 10.1168 24.2637 10.1749 24.6028C10.2331 24.9419 10.1694 25.2906 9.99527 25.5873C9.82113 25.884 9.54769 26.1096 9.2233 26.2241V29.2209C9.22307 29.2848 9.21024 29.348 9.18553 29.4068C9.16083 29.4657 9.12474 29.5191 9.07933 29.564L5.21366 33.4578L7.09251 35.3366L6.72079 34.9615L12.521 29.2401V26.6532H12.0615V23.5006H13.9488V26.6532H13.4922V29.4448C13.4906 29.574 13.4378 29.6974 13.3454 29.7878L7.40574 35.6476L8.90387 37.1457L16.5683 29.5854V26.7426H16.0661V23.279H18.1373V26.7449H17.6312V29.8114C17.631 29.8821 17.6169 29.9521 17.5897 30.0173C17.5625 30.0825 17.5227 30.1417 17.4726 30.1916L9.65913 37.9004L13.3707 41.612L27.6963 27.2875Z"
            fill="#A90019" />
        <path d="M5.21368 33.4555L5.21143 33.4533L5.21368 33.4555Z" fill="white" />
        <path d="M7.40481 35.6487L7.40594 35.6476L7.09326 35.3344L7.40481 35.6487Z" fill="white" />
        <path d="M8.90283 37.1474L9.6564 37.9044L9.65977 37.901L8.90452 37.1458L8.90283 37.1474Z" fill="white" />
        <path d="M13.373 0.5V11.0763L34.857 32.6002V22.0238L13.373 0.5Z" fill="#A90019" />
        <path d="M24.9089 42.5L34.8577 32.6035V22.0238L14.3506 42.5H24.9089Z" fill="#3B3839" />
        <path d="M38.0923 35.2809H38.7587V39.8023H38.0923V35.2809Z" fill="#A90019" />
        <path
            d="M39.7316 39.5667C39.5329 39.3665 39.4336 39.1028 39.4336 38.7755V36.3078C39.4336 35.9805 39.5324 35.7168 39.73 35.5166C39.9275 35.3164 40.186 35.2163 40.5055 35.2163C40.8249 35.2163 41.0834 35.3164 41.281 35.5166C41.4785 35.7168 41.5773 35.9805 41.5773 36.3078V38.7755C41.5773 39.1028 41.4785 39.3665 41.281 39.5667C41.0834 39.7669 40.8254 39.8676 40.5071 39.8687C40.1877 39.8687 39.9292 39.768 39.7316 39.5667ZM40.8035 39.105C40.8801 39.0129 40.9185 38.895 40.9109 38.7755V36.3078C40.9185 36.1883 40.88 36.0704 40.8035 35.9783C40.7228 35.9038 40.617 35.8624 40.5071 35.8624C40.3973 35.8624 40.2915 35.9038 40.2108 35.9783C40.1345 36.0705 40.0962 36.1884 40.1039 36.3078V38.7755C40.0961 38.8949 40.1344 39.0129 40.2108 39.105C40.2913 39.1799 40.3972 39.2215 40.5071 39.2215C40.6171 39.2215 40.723 39.1799 40.8035 39.105Z"
            fill="#A90019" />
        <path d="M42.0386 35.2809H44.1694V35.9271H43.4383V39.8023H42.7702V35.9271H42.0391L42.0386 35.2809Z"
            fill="#A90019" />
        <path
            d="M45.9478 35.2809H46.9943C47.3137 35.2809 47.5679 35.379 47.7569 35.5751C47.9458 35.7711 48.0396 36.0336 48.0381 36.3624V36.8882C48.0381 37.2155 47.9443 37.4779 47.7569 37.6755C47.5694 37.8731 47.3152 37.9709 46.9943 37.969H46.6158V39.8035H45.9478V35.2809ZM46.96 37.3223C47.0155 37.3255 47.071 37.3171 47.1231 37.2978C47.1751 37.2784 47.2226 37.2485 47.2626 37.2098C47.3 37.1678 47.3287 37.1188 47.347 37.0656C47.3654 37.0124 47.373 36.9561 47.3694 36.9V36.3444C47.373 36.2882 47.3654 36.2319 47.347 36.1787C47.3287 36.1255 47.3 36.0765 47.2626 36.0345C47.2225 35.996 47.175 35.9661 47.123 35.9468C47.0709 35.9274 47.0155 35.919 46.96 35.922H46.613V37.3173L46.96 37.3223Z"
            fill="#A90019" />
        <path
            d="M50.1027 39.8023L49.6168 37.9359H49.2704V39.8023H48.6001V35.2809H49.6467C49.9657 35.2809 50.2199 35.379 50.4092 35.5751C50.5985 35.7711 50.6923 36.0336 50.6904 36.3624V36.8601C50.6938 37.0499 50.6528 37.2378 50.5706 37.4089C50.4948 37.5636 50.3766 37.6935 50.2298 37.7835L50.7922 39.808L50.1027 39.8023ZM49.2704 37.2897H49.6168C49.6722 37.2932 49.7276 37.2852 49.7798 37.2663C49.8319 37.2475 49.8796 37.2181 49.92 37.18C49.9574 37.138 49.9861 37.089 50.0044 37.0358C50.0228 36.9826 50.0304 36.9263 50.0268 36.8702V36.3466C50.0304 36.2905 50.0228 36.2342 50.0044 36.181C49.9861 36.1278 49.9574 36.0788 49.92 36.0368C49.8799 35.9982 49.8323 35.9683 49.7801 35.949C49.728 35.9296 49.6724 35.9212 49.6168 35.9243H49.2704V37.2897Z"
            fill="#A90019" />
        <path
            d="M51.584 39.5667C51.3868 39.3665 51.288 39.1028 51.2876 38.7755V36.3078C51.2876 35.9805 51.3864 35.7168 51.584 35.5166C51.7815 35.3164 52.04 35.2163 52.3595 35.2163C52.6789 35.2163 52.9374 35.3164 53.135 35.5166C53.3325 35.7168 53.4313 35.9805 53.4313 36.3078V38.7755C53.4313 39.1028 53.3325 39.3665 53.135 39.5667C52.9374 39.7669 52.6789 39.8676 52.3595 39.8687C52.04 39.8687 51.7815 39.768 51.584 39.5667ZM52.6558 39.105C52.7324 39.0129 52.7708 38.895 52.7632 38.7755V36.3078C52.7708 36.1883 52.7323 36.0704 52.6558 35.9783C52.5751 35.9038 52.4693 35.8624 52.3595 35.8624C52.2496 35.8624 52.1438 35.9038 52.0631 35.9783C51.9868 36.0705 51.9486 36.1884 51.9562 36.3078V38.7755C51.9484 38.8949 51.9867 39.0129 52.0631 39.105C52.1436 39.1799 52.2495 39.2215 52.3595 39.2215C52.4694 39.2215 52.5753 39.1799 52.6558 39.105Z"
            fill="#A90019" />
        <path
            d="M56.2431 35.2809L55.512 39.8023H54.6173L53.8862 35.2809H54.5672L55.0734 38.8334L55.5795 35.2809H56.2431Z"
            fill="#A90019" />
        <path d="M56.7603 35.281H57.4289V39.8024H56.7608L56.7603 35.281Z" fill="#A90019" />
        <path
            d="M58.1602 35.2809H59.2067C59.5261 35.2809 59.7805 35.379 59.9698 35.5751C60.1592 35.7711 60.2529 36.0336 60.251 36.3624V38.7243C60.251 39.0516 60.1573 39.314 59.9698 39.5116C59.7824 39.7092 59.528 39.807 59.2067 39.8051H58.1602V35.2809ZM59.1724 39.1567C59.2279 39.16 59.2834 39.1516 59.3355 39.1322C59.3876 39.1129 59.4351 39.0829 59.475 39.0443C59.5125 39.0023 59.5413 38.9533 59.5598 38.9001C59.5782 38.8469 59.5859 38.7906 59.5824 38.7344V36.3444C59.5859 36.2882 59.5782 36.2319 59.5597 36.1787C59.5413 36.1255 59.5125 36.0765 59.475 36.0345C59.435 35.9959 59.3875 35.966 59.3354 35.9467C59.2834 35.9273 59.2279 35.9189 59.1724 35.922H58.826V39.1517L59.1724 39.1567Z"
            fill="#A90019" />
        <path
            d="M60.9214 35.2809H62.8188V35.9271H61.5906V37.1868H62.5674V37.8324H61.5906V39.1567H62.8199V39.8023H60.9214V35.2809Z"
            fill="#A90019" />
        <path
            d="M64.8803 39.8023L64.3949 37.9359H64.048V39.8023H63.3799V35.2809H64.4264C64.7459 35.2809 65.0001 35.379 65.189 35.5751C65.378 35.7711 65.4717 36.0336 65.4702 36.3624V36.8601C65.4739 37.0499 65.4329 37.2379 65.3504 37.4089C65.2746 37.5636 65.1564 37.6935 65.0096 37.7835L65.572 39.808L64.8803 39.8023ZM64.048 37.2897H64.3949C64.4502 37.2931 64.5056 37.2851 64.5576 37.2663C64.6096 37.2474 64.6573 37.2181 64.6975 37.18C64.7349 37.138 64.7636 37.089 64.782 37.0358C64.8003 36.9826 64.8079 36.9263 64.8044 36.8702V36.3466C64.8079 36.2905 64.8003 36.2342 64.782 36.181C64.7636 36.1278 64.7349 36.0788 64.6975 36.0368C64.6575 35.9982 64.61 35.9684 64.5579 35.949C64.5059 35.9297 64.4504 35.9213 64.3949 35.9243H64.048V37.2897Z"
            fill="#A90019" />
        <path d="M67.9761 34.312H68.5812V40.7713H67.9761V34.312Z" fill="#A90019" />
        <path
            d="M71.3991 39.5701C71.2056 39.3721 71.1089 39.1136 71.1089 38.7946V36.2887C71.1089 35.9697 71.2056 35.7113 71.3991 35.5138C71.5925 35.3162 71.8446 35.217 72.1554 35.2163C72.4666 35.2163 72.7189 35.3154 72.9124 35.5138C73.1058 35.7121 73.2024 35.9704 73.202 36.2887V36.8184H72.5463V36.2887C72.552 36.1753 72.5137 36.0641 72.4394 35.9783C72.4031 35.9416 72.3599 35.9124 72.3123 35.8925C72.2646 35.8726 72.2135 35.8624 72.1619 35.8624C72.1103 35.8624 72.0592 35.8726 72.0115 35.8925C71.9639 35.9124 71.9207 35.9416 71.8844 35.9783C71.8101 36.0641 71.7718 36.1753 71.7775 36.2887V38.7946C71.7718 38.908 71.8101 39.0192 71.8844 39.105C71.9206 39.1419 71.9638 39.1711 72.0114 39.1911C72.0591 39.2111 72.1102 39.2214 72.1619 39.2214C72.2136 39.2214 72.2647 39.2111 72.3124 39.1911C72.36 39.1711 72.4032 39.1419 72.4394 39.105C72.5137 39.0192 72.552 38.908 72.5463 38.7946V38.149H73.202V38.7946C73.202 39.1136 73.1055 39.3721 72.9124 39.5701C72.7193 39.768 72.467 39.8676 72.1554 39.8687C71.8443 39.8687 71.5921 39.7692 71.3991 39.5701Z"
            fill="#A90019" />
        <path
            d="M74.0786 39.5667C73.8806 39.3665 73.7819 39.1028 73.7822 38.7755V36.3078C73.7822 35.9805 73.881 35.7168 74.0786 35.5166C74.2762 35.3164 74.5347 35.2163 74.8541 35.2163C75.1735 35.2163 75.432 35.3164 75.6296 35.5166C75.8272 35.7168 75.926 35.9805 75.926 36.3078V38.7755C75.926 39.1028 75.8272 39.3665 75.6296 39.5667C75.432 39.7669 75.1735 39.8676 74.8541 39.8687C74.5347 39.8687 74.2762 39.768 74.0786 39.5667ZM75.1471 39.105C75.2236 39.0129 75.2621 38.895 75.2545 38.7755V36.3078C75.262 36.1883 75.2236 36.0704 75.1471 35.9783C75.0665 35.9038 74.9607 35.8625 74.851 35.8625C74.7413 35.8625 74.6355 35.9038 74.5549 35.9783C74.4784 36.0704 74.44 36.1883 74.4475 36.3078V38.7755C74.4399 38.895 74.4783 39.0129 74.5549 39.105C74.6353 39.1798 74.7411 39.2214 74.851 39.2214C74.9609 39.2214 75.0666 39.1798 75.1471 39.105Z"
            fill="#A90019" />
        <path
            d="M76.6007 35.2809H77.3369L78.1883 38.3177V35.2809H78.844V39.8023H78.1377L77.2553 36.9084V39.8023H76.5996L76.6007 35.2809Z"
            fill="#A90019" />
        <path
            d="M79.5767 35.2809H80.3139L81.1653 38.3177V35.2809H81.8205V39.8023H81.1147L80.2324 36.9084V39.8023H79.5767V35.2809Z"
            fill="#A90019" />
        <path
            d="M82.5522 35.2809H84.4497V35.9271H83.2203V37.1868H84.1977V37.8324H83.2203V39.1567H84.4497V39.8023H82.5522V35.2809Z"
            fill="#A90019" />
        <path
            d="M85.2443 39.5701C85.0508 39.3721 84.9541 39.1136 84.9541 38.7946V36.2887C84.9541 35.9697 85.0508 35.7113 85.2443 35.5138C85.4377 35.3162 85.6899 35.217 86.0007 35.2163C86.3118 35.2163 86.5641 35.3154 86.7576 35.5138C86.9511 35.7121 87.0476 35.9704 87.0472 36.2887V36.8184H86.3909V36.2887C86.3967 36.1753 86.3584 36.0641 86.2841 35.9783C86.2478 35.9416 86.2046 35.9124 86.1569 35.8925C86.1093 35.8726 86.0582 35.8624 86.0066 35.8624C85.9549 35.8624 85.9038 35.8726 85.8562 35.8925C85.8086 35.9124 85.7653 35.9416 85.729 35.9783C85.6547 36.0641 85.6165 36.1753 85.6222 36.2887V38.7946C85.6165 38.908 85.6547 39.0192 85.729 39.105C85.7653 39.1419 85.8084 39.1711 85.8561 39.1911C85.9037 39.2111 85.9549 39.2214 86.0066 39.2214C86.0582 39.2214 86.1094 39.2111 86.157 39.1911C86.2047 39.1711 86.2479 39.1419 86.2841 39.105C86.3584 39.0192 86.3967 38.908 86.3909 38.7946V38.149H87.0467V38.7946C87.0467 39.1136 86.9501 39.3721 86.757 39.5701C86.564 39.768 86.3118 39.8676 86.0007 39.8687C85.6899 39.8687 85.4377 39.7692 85.2443 39.5701Z"
            fill="#A90019" />
        <path d="M87.4692 35.2809H89.6006V35.9271H88.8695V39.8023H88.2014V35.9271H87.4704L87.4692 35.2809Z"
            fill="#A90019" />
        <path d="M90.1177 35.2809H90.7858V39.8023H90.1177V35.2809Z" fill="#A90019" />
        <path
            d="M91.5171 35.2809H92.2543L93.1058 38.3177V35.2809H93.7615V39.8023H93.0551L92.1728 36.9084V39.8023H91.5171V35.2809Z"
            fill="#A90019" />
        <path
            d="M95.9111 36.6891V36.3078C95.9188 36.1884 95.8806 36.0705 95.8043 35.9783C95.7235 35.9038 95.6177 35.8624 95.5079 35.8624C95.3981 35.8624 95.2922 35.9038 95.2115 35.9783C95.135 36.0704 95.0966 36.1883 95.1041 36.3078V38.7755C95.0965 38.895 95.135 39.0129 95.2115 39.105C95.2921 39.1799 95.3979 39.2215 95.5079 39.2215C95.6178 39.2215 95.7237 39.1799 95.8043 39.105C95.8807 39.0129 95.9189 38.8949 95.9111 38.7755V37.9747H95.5079V37.3285H96.5798V38.7755C96.5798 39.1028 96.481 39.3665 96.2834 39.5667C96.0858 39.7669 95.8273 39.8676 95.5079 39.8687C95.1885 39.8687 94.93 39.7686 94.7324 39.5684C94.5348 39.3682 94.436 39.1044 94.436 38.7772V36.3078C94.436 35.9805 94.5348 35.7168 94.7324 35.5166C94.93 35.3164 95.1885 35.2163 95.5079 35.2163C95.8273 35.2163 96.0858 35.3164 96.2834 35.5166C96.481 35.7168 96.5798 35.9805 96.5798 36.3078V36.6891H95.9111Z"
            fill="#A90019" />
        <path
            d="M98.49 35.2809H100.387V35.9271H99.1564V37.1868H100.134V37.8324H99.1564V39.1567H100.386V39.8023H98.4883L98.49 35.2809Z"
            fill="#A90019" />
        <path
            d="M103.155 35.2809L102.424 39.8023H101.529L100.798 35.2809H101.479L101.985 38.8334L102.491 35.2809H103.155Z"
            fill="#A90019" />
        <path
            d="M103.672 35.2809H105.568V35.9271H104.339V37.1868H105.316V37.8324H104.339V39.1567H105.568V39.8023H103.672V35.2809Z"
            fill="#A90019" />
        <path
            d="M107.632 39.8023L107.146 37.9359H106.8V39.8023H106.13V35.2809H107.176C107.496 35.2809 107.75 35.379 107.94 35.5751C108.129 35.7711 108.223 36.0336 108.221 36.3624V36.8601C108.224 37.0499 108.183 37.238 108.1 37.4089C108.026 37.5634 107.909 37.6933 107.763 37.7835L108.325 39.808L107.632 39.8023ZM106.8 37.2897H107.146C107.201 37.2932 107.257 37.2852 107.309 37.2664C107.361 37.2475 107.408 37.2181 107.449 37.18C107.486 37.1381 107.515 37.0891 107.533 37.0359C107.552 36.9827 107.56 36.9264 107.556 36.8702V36.3466C107.56 36.2904 107.552 36.2341 107.533 36.1809C107.515 36.1277 107.486 36.0787 107.449 36.0368C107.409 35.9982 107.361 35.9683 107.309 35.9489C107.257 35.9296 107.202 35.9212 107.146 35.9243H106.8V37.2897Z"
            fill="#A90019" />
        <path
            d="M110.979 35.2809L110.084 37.91V39.8023H109.415V37.91L108.52 35.2809H109.233L109.749 37.0057L110.279 35.2809H110.979Z"
            fill="#A90019" />
        <path d="M111.256 35.2809H113.387V35.9271H112.656V39.8023H111.987V35.9271H111.256V35.2809Z" fill="#A90019" />
        <path
            d="M113.904 39.8023V35.2809H114.573V37.1868H115.367V35.2809H116.036V39.8023H115.367V37.8341H114.573V39.8023H113.904Z"
            fill="#A90019" />
        <path d="M116.767 35.2809H117.433V39.8023H116.765L116.767 35.2809Z" fill="#A90019" />
        <path
            d="M118.164 35.2809H118.901L119.753 38.3177V35.2809H120.414V39.8023H119.707L118.825 36.9084V39.8023H118.164V35.2809Z"
            fill="#A90019" />
        <path
            d="M122.561 36.6891V36.3078C122.568 36.1883 122.53 36.0704 122.453 35.9783C122.372 35.9038 122.267 35.8624 122.157 35.8624C122.047 35.8624 121.941 35.9038 121.86 35.9783C121.784 36.0705 121.746 36.1884 121.754 36.3078V38.7755C121.746 38.8949 121.784 39.0129 121.86 39.105C121.941 39.1799 122.047 39.2215 122.157 39.2215C122.267 39.2215 122.373 39.1799 122.453 39.105C122.53 39.0129 122.568 38.895 122.561 38.7755V37.9747H122.157V37.3285H123.229V38.7755C123.229 39.1028 123.13 39.3665 122.932 39.5667C122.735 39.7669 122.476 39.8676 122.157 39.8687C121.837 39.8687 121.579 39.7686 121.381 39.5684C121.184 39.3682 121.085 39.1044 121.085 38.7772V36.3078C121.085 35.9805 121.184 35.7168 121.381 35.5166C121.579 35.3164 121.837 35.2163 122.157 35.2163C122.476 35.2163 122.735 35.3164 122.932 35.5166C123.13 35.7168 123.229 35.9805 123.229 36.3078V36.6891H122.561Z"
            fill="#A90019" />
    </g>
    <defs>
        <clipPath id="clip0_483_862">
            <rect width="122.458" height="42" fill="white" transform="translate(0.770996 0.5)" />
        </clipPath>
    </defs>
</svg>