<svg width="128" height="43" viewBox="0 0 128 43" fill="none" xmlns="http://www.w3.org/2000/svg">
    <g clip-path="url(#clip0_489_1008)">
        <path
            d="M14.4167 42.4996H32.15C32.949 42.4996 33.7333 42.2848 34.4208 41.8776C35.1082 41.4704 35.6735 40.8858 36.0574 40.185L45.1227 23.6384C45.4819 22.9822 45.6703 22.246 45.6703 21.4978C45.6703 20.7497 45.4819 20.0135 45.1227 19.3572L36.0574 2.81063C35.6736 2.10983 35.1083 1.52518 34.4208 1.11796C33.7334 0.710742 32.949 0.495949 32.15 0.496094H14.4167C13.6177 0.496002 12.8334 0.710818 12.1459 1.11803C11.4585 1.52524 10.8932 2.10986 10.5093 2.81063L1.44458 19.3587C1.08529 20.015 0.896973 20.7512 0.896973 21.4993C0.896973 22.2475 1.08529 22.9837 1.44458 23.6399L10.5098 40.1865C10.8938 40.8872 11.4591 41.4718 12.1465 41.879C12.8339 42.2862 13.6182 42.5011 14.4172 42.5011M17.4076 5.96296H29.1577C29.9566 5.96302 30.7409 6.17791 31.4283 6.5851C32.1158 6.9923 32.6811 7.57683 33.0651 8.27749L39.1365 19.3587C39.4962 20.0149 39.6848 20.7511 39.6848 21.4993C39.6848 22.2476 39.4962 22.9838 39.1365 23.6399L33.0651 34.7227C32.6813 35.4237 32.1161 36.0086 31.4287 36.416C30.7412 36.8235 29.9568 37.0386 29.1577 37.0387H17.4091C16.6101 37.0387 15.8258 36.8239 15.1383 36.4167C14.4509 36.0095 13.8856 35.4249 13.5017 34.7242L7.42977 23.6399C7.06999 22.9838 6.88139 22.2476 6.88139 21.4993C6.88139 20.7511 7.06999 20.0149 7.42977 19.3587L13.5017 8.27599C13.8857 7.57534 14.451 6.9908 15.1384 6.58361C15.8258 6.17641 16.6101 5.96153 17.4091 5.96146"
            fill="#1C5DAA" />
        <path
            d="M9.396 21.6549C9.396 20.5064 9.73656 19.3838 10.3746 18.4288C11.0127 17.4739 11.9196 16.7297 12.9806 16.2902C14.0417 15.8507 15.2092 15.7357 16.3356 15.9597C17.462 16.1838 18.4967 16.7368 19.3088 17.5489C20.1209 18.361 20.6739 19.3957 20.898 20.5221C21.122 21.6485 21.007 22.816 20.5675 23.8771C20.128 24.9381 19.3837 25.845 18.4288 26.4831C17.4739 27.1211 16.3512 27.4617 15.2028 27.4617C13.6628 27.4615 12.1859 26.8497 11.0969 25.7608C10.008 24.6718 9.39613 23.1949 9.396 21.6549Z"
            fill="#161615" />
        <path
            d="M25.5806 21.8659C25.5805 20.7173 25.921 19.5945 26.559 18.6394C27.197 17.6844 28.1039 16.94 29.165 16.5004C30.2261 16.0607 31.3938 15.9456 32.5203 16.1696C33.6468 16.3936 34.6816 16.9466 35.4938 17.7587C36.3061 18.5708 36.8592 19.6055 37.0834 20.7319C37.3076 21.8584 37.1927 23.0261 36.7532 24.0873C36.3138 25.1484 35.5695 26.0555 34.6146 26.6937C33.6596 27.3319 32.5369 27.6725 31.3883 27.6726C30.6257 27.6727 29.8705 27.5226 29.1659 27.2308C28.4614 26.939 27.8211 26.5113 27.2818 25.9721C26.7425 25.4329 26.3147 24.7927 26.0228 24.0882C25.7309 23.3836 25.5806 22.6285 25.5806 21.8659Z"
            fill="#161615" />
        <path
            d="M53.7964 13.9855C58.3636 13.9855 60.8735 16.78 60.8735 21.1823C60.8735 26.0665 58.2351 29.014 53.6773 29.014H48.5737V13.9855H53.7964ZM51.6563 26.6008H53.6449C56.3043 26.6008 57.7053 24.6072 57.7053 21.2286C57.7053 18.4376 56.4493 16.4371 53.6683 16.4371H51.6578L51.6563 26.6008ZM66.614 13.9855V29.015H63.5504V13.9855H66.614ZM82.0288 29.015H79.7751C79.6636 28.4387 79.5874 27.8562 79.5468 27.2706C78.7738 28.7703 77.2657 29.2343 75.3822 29.2343C71.4509 29.2343 69.3796 25.9623 69.3796 21.586C69.3796 17.2714 71.8217 13.7866 76.2509 13.7866C79.8299 13.7866 81.6834 15.7852 82.0532 18.2976H79.0474C78.7668 17.3506 78.1124 16.2437 76.0745 16.2437C73.4589 16.2437 72.5279 18.7411 72.5279 21.6054C72.5279 24.4582 73.5317 26.7966 76.0665 26.7966C78.3297 26.7966 78.9851 25.2187 78.9851 23.289V23.2182H75.8452V20.6221H82.0253L82.0288 29.015ZM88.1017 13.9865V29.015H85.0381V13.9855L88.1017 13.9865Z"
            fill="#1C5DAA" />
        <path
            d="M101.029 22.4563H94.4937V26.5012H101.707L101.34 29.0146H91.5088V13.9851H101.302V16.5169H94.4937V19.922H101.027L101.029 22.4563ZM107.446 29.0146V23.3499C107.453 23.1786 107.408 23.0093 107.317 22.864L102.562 13.9851H106.013C107.07 16.2483 108.45 19.1185 109.119 20.5165C110.105 18.3784 111.25 16.0724 112.228 13.9876H115.421L110.634 22.7997C110.545 22.9368 110.502 23.0982 110.51 23.2612V29.0146H107.446ZM126.354 22.4573H119.82V26.5022H127.034L126.665 29.0146H116.834V13.9851H126.627V16.5169H119.82V19.922H126.354V22.4573Z"
            fill="#161615" />
        <path
            d="M48.3775 31.4996C48.7698 31.4407 49.1659 31.4109 49.5626 31.4104C50.3635 31.4104 50.9337 31.5958 51.312 31.9477C51.6903 32.2995 51.9205 32.7999 51.9205 33.4987C51.9205 34.1974 51.7032 34.7795 51.299 35.1772C50.8948 35.575 50.229 35.7987 49.3892 35.7987C49.0511 35.8013 48.7131 35.7847 48.377 35.7489L48.3775 31.4996ZM48.9352 35.3183C49.1219 35.3439 49.3104 35.3546 49.4988 35.3502C50.6905 35.3502 51.3374 34.6833 51.3374 33.5176C51.3439 32.4994 50.7672 31.8525 49.5885 31.8525C49.3694 31.8489 49.1504 31.8679 48.9352 31.9093V35.3183Z"
            fill="#161615" />
        <path d="M53.2008 31.4424V35.7604H52.6431V31.4424H53.2008Z" fill="#161615" />
        <path
            d="M57.4605 35.5675C57.0352 35.7209 56.5869 35.8011 56.1348 35.8048C55.4814 35.8048 54.9432 35.6383 54.52 35.2351C54.1482 34.8757 53.918 34.2991 53.918 33.6273C53.9244 32.3389 54.8086 31.397 56.2564 31.397C56.7548 31.397 57.1466 31.5066 57.333 31.5963L57.1984 32.0509C56.9676 31.9482 56.6796 31.8655 56.244 31.8655C55.1929 31.8655 54.5076 32.5189 54.5076 33.6019C54.5076 34.6983 55.1669 35.3462 56.1732 35.3462C56.538 35.3462 56.7882 35.2964 56.9168 35.2306V33.9408H56.0386V33.4922H57.4605V35.5675Z"
            fill="#161615" />
        <path d="M58.8702 31.4424V35.7604H58.311V31.4424H58.8702Z" fill="#161615" />
        <path d="M60.6624 31.9164H59.3491V31.4424H62.5468V31.9164H61.2276V35.7604H60.6634L60.6624 31.9164Z"
            fill="#161615" />
        <path
            d="M63.2508 34.4018L62.8022 35.7604H62.2256L63.6938 31.4424H64.3662L65.8369 35.7604H65.2389L64.7774 34.4018H63.2508ZM64.6667 33.9667L64.2441 32.7208C64.1479 32.4392 64.0836 32.1825 64.0193 31.9328H64.0068C63.9425 32.1895 63.8723 32.4516 63.7885 32.7148L63.3659 33.9642L64.6667 33.9667Z"
            fill="#161615" />
        <path d="M66.4717 31.4424H67.0299V35.2945H68.8739V35.7624H66.4707L66.4717 31.4424Z" fill="#161615" />
        <path d="M71.4182 31.9164H70.105V31.4424H73.3017V31.9164H71.9824V35.7604H71.4182V31.9164Z" fill="#161615" />
        <path
            d="M74.3375 31.4424V33.251H76.4257V31.4424H76.9894V35.7604H76.4257V33.736H74.3375V35.7604H73.7798V31.4424H74.3375Z"
            fill="#161615" />
        <path d="M78.5133 31.4424V35.7604H77.9556V31.4424H78.5133Z" fill="#161615" />
        <path
            d="M79.4868 35.7604V31.4424H80.0959L81.4799 33.6273C81.7685 34.0776 82.0274 34.5462 82.2549 35.0303L82.2678 35.0233C82.218 34.4472 82.2036 33.9214 82.2036 33.2486V31.4424H82.7289V35.7604H82.1657L80.7936 33.5675C80.4961 33.1037 80.2268 32.6224 79.9872 32.1262L79.9673 32.1327C79.9997 32.6774 80.0126 33.1962 80.0126 33.9134V35.7575L79.4868 35.7604Z"
            fill="#161615" />
        <path
            d="M86.9879 35.5675C86.5625 35.7209 86.1143 35.8011 85.6622 35.8048C85.0083 35.8048 84.4705 35.6383 84.0474 35.2351C83.6766 34.8757 83.4453 34.2991 83.4453 33.6273C83.4518 32.3389 84.3359 31.397 85.7838 31.397C86.2822 31.397 86.6744 31.5066 86.8603 31.5963L86.7257 32.0509C86.495 31.9482 86.2069 31.8655 85.7713 31.8655C84.7202 31.8655 84.0349 32.5189 84.0349 33.6019C84.0349 34.6983 84.6943 35.3462 85.7005 35.3462C86.0654 35.3462 86.3155 35.2964 86.4431 35.2306V33.9408H85.566V33.4922H86.9879V35.5675Z"
            fill="#161615" />
        <path
            d="M87.7632 35.0813C88.0644 35.2623 88.4086 35.3596 88.76 35.3629C89.3301 35.3629 89.6636 35.0639 89.6636 34.6268C89.6636 34.2226 89.4328 33.9919 88.8497 33.7681C88.145 33.5189 87.7089 33.1531 87.7089 32.5445C87.7089 31.8712 88.2666 31.3723 89.1044 31.3723C89.5464 31.3723 89.8669 31.4745 90.0588 31.5836L89.9053 32.0382C89.6533 31.9028 89.3715 31.8324 89.0854 31.8333C88.4963 31.8333 88.2716 32.1852 88.2716 32.4812C88.2716 32.8849 88.5347 33.0838 89.1298 33.3141C89.8609 33.5961 90.2317 33.9485 90.2317 34.583C90.2317 35.2488 89.7388 35.8254 88.7201 35.8254C88.3035 35.8254 87.8489 35.7038 87.6182 35.5503L87.7632 35.0813Z"
            fill="#161615" />
        <path
            d="M92.3545 31.4932C92.7085 31.4363 93.0665 31.4086 93.425 31.4105C93.9733 31.4105 94.379 31.5381 94.6356 31.7688C94.8729 31.9737 95.0134 32.2877 95.0134 32.6724C95.0134 33.0572 94.8983 33.3702 94.68 33.5949C94.3859 33.9089 93.9055 34.0684 93.3608 34.0684C93.2102 34.0735 93.0597 34.0606 92.9122 34.03V35.7605H92.354L92.3545 31.4932ZM92.9127 33.5755C93.0638 33.6095 93.2184 33.6245 93.3732 33.6204C94.0465 33.6204 94.4562 33.2939 94.4562 32.6973C94.4562 32.1277 94.0525 31.8526 93.4375 31.8526C93.2615 31.8474 93.0854 31.8623 92.9127 31.8969V33.5755Z"
            fill="#161615" />
        <path d="M95.7617 31.4424H96.3194V35.2945H98.1635V35.7624H95.7603L95.7617 31.4424Z" fill="#161615" />
        <path
            d="M99.4842 34.4018L99.0356 35.7604H98.459L99.9267 31.4424H100.599L102.073 35.7604H101.475L101.013 34.4018H99.4842ZM100.9 33.9667L100.477 32.7208C100.381 32.4392 100.317 32.1825 100.253 31.9328H100.24C100.176 32.1895 100.106 32.4516 100.022 32.7148L99.5993 33.9642L100.9 33.9667Z"
            fill="#161615" />
        <path d="M103.031 31.9164H101.72V31.4424H104.916V31.9164H103.597V35.7604H103.033L103.031 31.9164Z"
            fill="#161615" />
        <path
            d="M107.631 33.736H105.953V35.2945H107.823V35.7624H105.395V31.4424H107.727V31.9094H105.953V33.2745H107.631V33.736Z"
            fill="#161615" />
        <path d="M108.549 31.4424H110.874V31.9094H109.107V33.3447H110.74V33.8063H109.107V35.7604H108.549V31.4424Z"
            fill="#161615" />
        <path
            d="M115.356 33.5566C115.356 35.0428 114.453 35.8307 113.351 35.8307C112.211 35.8307 111.408 34.9466 111.408 33.6378C111.408 32.2667 112.26 31.3701 113.413 31.3701C114.594 31.3721 115.356 32.2752 115.356 33.5566ZM112.006 33.6273C112.006 34.5499 112.504 35.3762 113.383 35.3762C114.262 35.3762 114.767 34.5623 114.767 33.582C114.767 32.7233 114.319 31.8266 113.39 31.8266C112.461 31.8266 112.006 32.6789 112.006 33.6273Z"
            fill="#161615" />
        <path
            d="M116.079 31.4998C116.432 31.4373 116.791 31.4074 117.15 31.4106C117.745 31.4106 118.129 31.5193 118.398 31.7625C118.616 31.9549 118.738 32.2494 118.738 32.5829C118.738 33.153 118.38 33.5298 117.924 33.6843V33.7037C118.258 33.8189 118.456 34.1264 118.559 34.5749C118.7 35.1775 118.802 35.5936 118.892 35.7606H118.317C118.247 35.6385 118.15 35.2672 118.028 34.7289C117.9 34.1309 117.67 33.9091 117.164 33.8896H116.638V35.7606H116.079V31.4998ZM116.637 33.467H117.206C117.805 33.467 118.181 33.1401 118.181 32.6466C118.181 32.0894 117.777 31.8457 117.188 31.8392C117.003 31.8333 116.818 31.85 116.637 31.8891V33.467Z"
            fill="#161615" />
        <path
            d="M123.165 33.8638C123.132 33.2618 123.094 32.5381 123.1 31.9999H123.081C122.931 32.5062 122.754 33.0435 122.536 33.6401L121.774 35.7333H121.351L120.654 33.6769C120.449 33.0679 120.276 32.5107 120.155 31.9984H120.142C120.129 32.5366 120.097 33.2603 120.059 33.9077L119.943 35.7592H119.412L119.711 31.4412H120.422L121.159 33.5294C121.338 34.0612 121.486 34.5352 121.595 34.9837H121.614C121.723 34.5486 121.877 34.0742 122.069 33.5294L122.838 31.4412H123.55L123.819 35.7592H123.274L123.165 33.8638Z"
            fill="#161615" />
        <path
            d="M126.913 33.736H125.234V35.2945H127.104V35.7624H124.676V31.4424H127.008V31.9094H125.234V33.2745H126.913V33.736Z"
            fill="#161615" />
    </g>
    <defs>
        <clipPath id="clip0_489_1008">
            <rect width="126.207" height="42" fill="white" transform="translate(0.896484 0.5)" />
        </clipPath>
    </defs>
</svg>