<svg width="144" height="43" viewBox="0 0 144 43" fill="none" xmlns="http://www.w3.org/2000/svg">
    <path
        d="M35.2053 8.76492L33.4134 7.72924L22.3004 1.31786C20.4153 0.227379 18.0864 0.227379 16.2013 1.31786L5.08829 7.73472L3.29639 8.7704C1.41134 9.86088 0.244141 11.872 0.244141 14.0529V28.9525C0.244141 31.1335 1.40586 33.1446 3.29639 34.2351L16.2013 41.6821C18.0864 42.7726 20.4153 42.7726 22.3004 41.6821L35.2053 34.2351C37.0904 33.1446 38.2576 31.1335 38.2576 28.9525V14.0475C38.2521 11.872 37.0904 9.8554 35.2053 8.76492ZM8.14055 11.5596L16.2013 6.90727C18.0864 5.81678 20.4153 5.81678 22.3004 6.90727L30.3612 11.5596C31.4188 12.1679 32.2627 13.0775 32.7942 14.1735C32.2627 15.2695 31.4133 16.1791 30.3612 16.7874L22.3004 21.4397C20.4153 22.5302 18.0864 22.5302 16.2013 21.4397L8.14055 16.7874C7.08294 16.1791 6.23905 15.2695 5.70751 14.1735C6.23357 13.083 7.08294 12.1679 8.14055 11.5596ZM33.4134 26.1524C33.4134 28.3333 32.2517 30.3444 30.3612 31.4349L22.3004 36.0872C20.4153 37.1777 18.0864 37.1777 16.2013 36.0872L8.14055 31.4349C6.25549 30.3444 5.08829 28.3333 5.08829 26.1524V20.6232L16.2013 27.0401C18.0864 28.1306 20.4153 28.1306 22.3004 27.0401L33.4134 20.6232V26.1524Z"
        fill="#D3000F" />
    <path
        d="M47.9239 10.9014V20.0938H58.5482V10.9014H61.4198V32.8619H58.5482V22.562H47.9239V32.8619H45.0918V10.9014H47.9239Z"
        fill="#161615" />
    <path
        d="M74.9712 32.8619L74.7418 30.8763H74.6468C73.7687 32.1183 72.0758 33.2258 69.8212 33.2258C66.6252 33.2258 64.9956 30.9791 64.9956 28.6929C64.9956 24.8799 68.3814 22.7914 74.4807 22.823V22.4987C74.4807 21.1934 74.1247 18.8518 70.8971 18.8518C69.4336 18.8518 67.8989 19.3106 66.7914 20.0226L66.1427 18.1319C67.448 17.2854 69.3387 16.7317 71.3243 16.7317C76.1499 16.7317 77.3207 20.0226 77.3207 23.1869V29.0884C77.3207 30.457 77.384 31.7939 77.5818 32.8698L74.9712 32.8619ZM74.544 24.8166C71.4113 24.7533 67.8672 25.3071 67.8672 28.3686C67.8672 30.2276 69.1092 31.1057 70.5728 31.1057C72.6296 31.1057 73.927 29.8004 74.3858 28.4635C74.4886 28.1708 74.544 27.8623 74.5519 27.5537L74.544 24.8166Z"
        fill="#161615" />
    <path
        d="M81.9406 22.0082C81.9406 20.1492 81.909 18.5591 81.8062 17.0877H84.3139L84.4088 20.1808H84.5433C85.2632 18.0607 86.9878 16.7317 88.9101 16.7317C89.187 16.7317 89.4559 16.7633 89.7249 16.8266V19.5321C89.4006 19.4609 89.0762 19.4293 88.744 19.4372C86.7267 19.4372 85.2869 20.9719 84.8993 23.1237C84.8202 23.5667 84.7727 24.0097 84.7648 24.4606V32.8698H81.9327V22.0082H81.9406Z"
        fill="#161615" />
    <path
        d="M105.927 9.72266V28.7878C105.927 30.188 105.958 31.786 106.053 32.8619H103.482L103.348 30.1247H103.284C102.406 31.8889 100.484 33.2179 97.9049 33.2179C94.0919 33.2179 91.157 29.9903 91.157 25.2042C91.1253 19.9593 94.3846 16.7317 98.2293 16.7317C100.642 16.7317 102.272 17.8708 102.984 19.1445H103.047V9.73057L105.927 9.72266ZM103.055 23.5113C103.063 23.1078 103.015 22.7044 102.92 22.3088C102.493 20.4814 100.935 18.9863 98.783 18.9863C95.8165 18.9863 94.0602 21.5968 94.0602 25.0776C94.0602 28.2736 95.6266 30.9079 98.7197 30.9079C100.642 30.9079 102.406 29.6343 102.928 27.4825C103.023 27.0791 103.071 26.6598 103.063 26.2484L103.055 23.5113Z"
        fill="#161615" />
    <path
        d="M113.877 12.6576C113.908 13.6386 113.188 14.4217 112.049 14.4217C111.037 14.4217 110.325 13.6386 110.325 12.6576C110.325 11.645 111.076 10.8698 112.12 10.8698C113.188 10.8698 113.877 11.6529 113.877 12.6576ZM110.681 32.8619V17.0877H113.552V32.8619H110.681Z"
        fill="#161615" />
    <path
        d="M132.578 24.8482C132.578 30.6785 128.535 33.2258 124.722 33.2258C120.451 33.2258 117.16 30.101 117.16 25.1093C117.16 19.8327 120.617 16.7317 124.984 16.7317C129.516 16.7317 132.578 20.0226 132.578 24.8482ZM120.063 25.0064C120.063 28.4635 122.049 31.0662 124.849 31.0662C127.586 31.0662 129.643 28.4872 129.643 24.9432C129.643 22.2693 128.306 18.8834 124.92 18.8834C121.534 18.8834 120.063 22.0082 120.063 25.0064Z"
        fill="#161615" />
    <path
        d="M139.65 12.5626V17.0955H143.756V19.2789H139.65V27.791C139.65 29.745 140.204 30.8525 141.802 30.8525C142.363 30.8604 142.917 30.7971 143.463 30.6547L143.598 32.8065C143.044 33.0359 142.166 33.1941 141.058 33.1941C139.721 33.1941 138.645 32.7748 137.965 31.9917C137.15 31.1452 136.858 29.745 136.858 27.8859V19.271H134.413V17.0876H136.858V13.3062L139.65 12.5626Z"
        fill="#161615" />
</svg>