<svg width="198" height="43" viewBox="0 0 198 43" fill="none" xmlns="http://www.w3.org/2000/svg">
    <g clip-path="url(#clip0_483_914)">
        <path
            d="M30.1554 28.7806L24.8639 34.0721C24.0759 34.8599 23.0073 35.3025 21.8931 35.3025C20.7788 35.3025 19.7102 34.8599 18.9222 34.0721L9.28298 24.4329C8.49514 23.6449 8.05255 22.5763 8.05255 21.462C8.05255 20.3478 8.49514 19.2791 9.28298 18.4912L18.9222 8.85193C19.7102 8.0641 20.7788 7.62151 21.8931 7.62151C23.0073 7.62151 24.0759 8.0641 24.8639 8.85193L30.1554 14.1441H37.2772L24.8639 1.73012C24.0759 0.942285 23.0073 0.499695 21.8931 0.499695C20.7788 0.499695 19.7102 0.942285 18.9222 1.73012L2.16255 18.4898C1.37472 19.2777 0.932129 20.3464 0.932129 21.4606C0.932129 22.5749 1.37472 23.6435 2.16255 24.4315L18.9222 41.1911C19.7102 41.979 20.7788 42.4216 21.8931 42.4216C23.0073 42.4216 24.0759 41.979 24.8639 41.1911L37.2772 28.7779L30.1554 28.7806Z"
            fill="#AE0018" />
        <path
            d="M53.0849 11.3124L42.2724 0.499939H27.7583L48.8018 21.5434L27.8445 42.4999H42.1925L53.0849 31.6068V11.3124Z"
            fill="#3C3839" />
        <path
            d="M80.4989 32.5158H76.7018L66.201 16.3368C65.872 15.8486 65.5878 15.3317 65.3519 14.7923H65.267C65.3519 15.3588 65.3943 16.4251 65.3943 17.9912V32.5158H62.0952V10.5704H66.1182L76.3048 26.4392C76.7869 27.1954 77.1082 27.7195 77.2686 28.0116H77.3382C77.2343 27.3305 77.1826 26.282 77.1831 24.8662V10.5704H80.4982L80.4989 32.5158Z"
            fill="#3C3839" />
        <path
            d="M98.1512 32.5158H85.9966V10.5704H97.6567V13.4911H89.3965V19.9523H97.0607V22.8564H89.3965V29.602H98.1512V32.5158Z"
            fill="#3C3839" />
        <path
            d="M118.397 32.5158H114.303L109.695 24.5539C109.544 24.2989 109.384 23.8928 109.214 23.3355H109.144C109 23.761 108.829 24.1772 108.634 24.5817L103.931 32.5158H99.8076L107.033 21.5073L100.402 10.5704H104.568L108.564 17.8953C108.852 18.423 109.098 18.9725 109.3 19.5385H109.356C109.432 19.3494 109.701 18.778 110.165 17.8243L114.415 10.5704H118.268L111.482 21.4509L118.397 32.5158Z"
            fill="#3C3839" />
        <path d="M135.823 13.4883H129.519V32.5158H126.107V13.4883H119.817V10.5676H135.826L135.823 13.4883Z"
            fill="#3C3839" />
        <path
            d="M152.909 31.6548C151.284 32.4759 149.239 32.8866 146.774 32.8871C143.6 32.8871 141.057 31.8882 139.145 29.8905C137.234 27.8928 136.277 25.2553 136.277 21.978C136.277 18.5593 137.337 15.7422 139.457 13.5266C141.577 11.3109 144.309 10.2036 147.653 10.2045C149.759 10.2045 151.511 10.4975 152.909 11.0835V14.5266C151.36 13.6568 149.644 13.2222 147.763 13.2227C145.374 13.2227 143.457 14.0087 142.012 15.5808C140.567 17.153 139.845 19.2098 139.844 21.7513C139.844 24.1788 140.522 26.1434 141.876 27.645C143.231 29.1467 145.047 29.8975 147.324 29.8975C149.44 29.8975 151.301 29.4107 152.906 28.4371L152.909 31.6548Z"
            fill="#AE0018" />
        <path
            d="M155.318 21.8195C155.318 18.3535 156.289 15.5505 158.229 13.4105C160.17 11.2704 162.789 10.2009 166.088 10.2018C169.176 10.2018 171.657 11.2407 173.529 13.3187C175.401 15.3966 176.336 18.0601 176.334 21.3091C176.334 24.757 175.38 27.5482 173.472 29.6826C171.565 31.8171 168.986 32.8834 165.736 32.8816C162.638 32.8816 160.128 31.8521 158.206 29.7932C156.285 27.7343 155.323 25.0764 155.318 21.8195ZM158.888 21.5789C158.888 23.9966 159.507 25.9872 160.744 27.5505C161.981 29.1138 163.653 29.8952 165.759 29.8947C167.969 29.8947 169.688 29.1511 170.916 27.6638C172.144 26.1765 172.758 24.167 172.757 21.6352C172.757 19.0473 172.165 16.9977 170.98 15.4863C169.795 13.9749 168.106 13.2195 165.914 13.2199C163.782 13.2199 162.077 14.0037 160.8 15.5711C159.524 17.1386 158.886 19.1412 158.888 21.5789Z"
            fill="#AE0018" />
        <path
            d="M197.069 32.5158H193.088L189.518 26.5352C188.819 25.3641 188.183 24.5662 187.612 24.1415C187.047 23.7178 186.357 23.4933 185.65 23.5031H183.808V32.5158H180.408V10.5704H187.393C189.669 10.5704 191.428 11.0829 192.671 12.108C193.914 13.133 194.536 14.585 194.537 16.4641C194.537 17.9379 194.107 19.1987 193.248 20.2465C192.389 21.2942 191.189 22.0263 189.649 22.4426V22.4989C190.631 22.8397 191.731 23.9922 192.95 25.9566L197.069 32.5158ZM183.808 13.3757V20.686H186.826C188.081 20.686 189.085 20.3223 189.836 19.5949C190.588 18.8675 190.963 17.9421 190.963 16.8187C190.963 14.5238 189.603 13.3762 186.883 13.3757H183.808Z"
            fill="#AE0018" />
        <path d="M48.8018 21.5434L53.0849 16.738V11.3124L42.2724 0.499939H27.7583L48.8018 21.5434Z" fill="#AE0018" />
    </g>
    <defs>
        <clipPath id="clip0_483_914">
            <rect width="196.138" height="42" fill="white" transform="translate(0.931152 0.5)" />
        </clipPath>
    </defs>
</svg>